<?xml version="1.0" encoding="UTF-8" standalone="no"?>
<!-- Created with Inkscape (http://www.inkscape.org/) -->

<svg
   version="1.1"
   id="svg2"
   width="385.92001"
   height="201.60001"
   viewBox="0 0 385.92001 201.60001"
   sodipodi:docname="check boxes.ai"
   xmlns:inkscape="http://www.inkscape.org/namespaces/inkscape"
   xmlns:sodipodi="http://sodipodi.sourceforge.net/DTD/sodipodi-0.dtd"
   xmlns="http://www.w3.org/2000/svg"
   xmlns:svg="http://www.w3.org/2000/svg">
  <defs
     id="defs6">
    <clipPath
       clipPathUnits="userSpaceOnUse"
       id="clipPath16">
      <path
         d="M 0,151.2 H 289.44 V 0 H 0 Z"
         id="path14" />
    </clipPath>
  </defs>
  <sodipodi:namedview
     id="namedview4"
     pagecolor="#ffffff"
     bordercolor="#000000"
     borderopacity="0.25"
     inkscape:showpageshadow="2"
     inkscape:pageopacity="0.0"
     inkscape:pagecheckerboard="0"
     inkscape:deskcolor="#d1d1d1" />
  <g
     id="g8"
     inkscape:groupmode="layer"
     inkscape:label="check boxes"
     transform="matrix(1.3333333,0,0,-1.3333333,0,201.6)">
    <g
       id="g10">
      <g
         id="g12"
         clip-path="url(#clipPath16)">
        <g
           id="g18"
           transform="translate(232.9501,78.8794)">
          <path
             d="m 0,0 c 0.321,-0.686 0.612,-1.227 0.833,-1.796 0.623,-1.607 1.348,-3.19 1.779,-4.849 0.3,-1.155 1.128,-2.177 0.69,-3.592 -0.338,-1.092 -0.953,-1.397 -1.849,-1.355 -1.103,0.052 -1.796,0.875 -1.56,1.9 0.272,1.176 -0.121,2.279 -0.686,3.069 -1.274,1.787 -1.705,4.018 -3.521,5.591 -0.951,0.823 -1.501,2.103 -2.811,2.859 -1.667,0.962 -3.021,2.459 -4.527,3.705 -1.61,1.331 -3.156,2.761 -5.161,3.511 -0.694,0.259 -1.432,0.424 -2.089,0.754 -1.921,0.963 -3.812,1.988 -5.779,3.022 -0.938,-1.946 -0.844,-3.68 -0.168,-5.306 0.475,-1.143 1.273,-2.172 2.027,-3.176 1.005,-1.337 2.058,-2.647 3.186,-3.88 0.792,-0.867 1.781,-1.551 2.616,-2.383 0.88,-0.877 1.514,-2.175 2.553,-2.68 1.914,-0.932 2.271,-2.993 3.64,-4.322 1.091,-1.059 1.333,-2.979 1.995,-4.498 0.515,-1.182 1.052,-2.358 1.663,-3.492 0.524,-0.972 1.16,-1.885 1.759,-2.816 0.513,-0.797 -0.216,-1.162 -0.61,-1.554 -0.231,-0.23 -0.879,-0.399 -1.074,-0.249 -1.72,1.317 -2.983,3.012 -3.851,5 -0.319,0.73 -0.654,1.452 -0.993,2.202 -0.451,-1.836 -0.915,-3.535 -1.276,-5.255 -0.343,-1.636 -0.39,-3.272 0.26,-4.881 0.758,-1.876 1.624,-3.733 2.116,-5.681 0.347,-1.377 1.115,-1.957 2.261,-2.541 1.549,-0.791 3.332,-1.21 4.537,-2.627 0.293,-0.346 0.709,-0.616 1.115,-0.832 2.13,-1.131 4.255,-2.277 6.424,-3.33 1.405,-0.683 2.256,-1.938 3.353,-2.939 1.19,-1.086 2.531,-2.023 4.186,-1.614 2.273,0.563 4.475,1.404 6.72,2.088 1.917,0.584 3.863,1.073 5.771,1.682 1.262,0.403 2.507,0.885 3.703,1.451 0.431,0.204 1.015,0.781 0.985,1.144 -0.171,2.088 -0.475,4.167 -0.796,6.24 -0.153,0.989 -0.51,1.947 -0.657,2.936 -0.299,2.011 -0.437,4.048 -0.801,6.046 -0.213,1.165 -0.914,2.248 -1.081,3.414 -0.486,3.397 -1.056,6.813 -1.114,10.23 -0.036,2.144 -0.635,3.683 -2.455,5.168 -0.206,-0.799 -0.52,-1.444 -0.504,-2.082 0.029,-1.171 0.258,-2.338 0.395,-3.507 0.083,-0.711 0.076,-1.497 -0.817,-1.571 -0.688,-0.056 -1.621,-0.194 -1.749,0.988 -0.119,1.094 -0.642,2.249 -0.416,3.249 0.346,1.538 -0.247,2.438 -1.283,3.301 -0.211,0.176 -0.456,0.338 -0.604,0.56 -0.992,1.488 -2.789,2.083 -4.515,1.396 0.115,-0.338 0.223,-0.694 0.355,-1.041 0.737,-1.941 1.539,-3.86 2.181,-5.831 0.184,-0.565 0.061,-1.356 -0.215,-1.893 -0.147,-0.287 -1.098,-0.505 -1.372,-0.311 -0.575,0.408 -1.039,1.06 -1.366,1.704 -0.255,0.503 -0.192,1.157 -0.345,1.724 -0.327,1.215 -0.913,2.274 -1.581,3.367 C 8.792,-2.461 8.237,-1.716 6.894,-1.62 6.383,-1.583 5.896,-1.241 5.393,-1.052 3.73,-0.425 2.078,0.266 0,0 m 26.835,-7.008 c 0.201,-2.095 0.406,-4.191 0.599,-6.287 0.091,-0.979 0.279,-1.968 0.213,-2.937 -0.126,-1.871 0.652,-3.521 1.076,-5.258 0.267,-1.09 0.551,-2.176 0.809,-3.268 0.045,-0.188 -0.02,-0.399 0.002,-0.596 0.15,-1.351 0.298,-2.703 0.469,-4.052 0.16,-1.254 0.387,-2.501 0.515,-3.758 0.207,-2.045 0.367,-4.094 0.516,-6.143 0.013,-0.185 -0.157,-0.478 -0.323,-0.565 -1.359,-0.715 -2.737,-1.392 -4.108,-2.081 -0.601,-0.302 -1.176,-0.685 -1.808,-0.889 -1.423,-0.461 -2.891,-0.78 -4.307,-1.26 -0.837,-0.283 -1.747,-0.18 -2.541,-0.899 -0.521,-0.472 -1.593,-0.357 -2.424,-0.46 -1.591,-0.196 -3.255,-0.143 -4.749,-0.624 -0.794,-0.255 -1.558,-0.759 -2.37,-0.543 -0.832,0.221 -1.769,0.573 -2.335,1.173 -1.595,1.691 -3.167,3.382 -5.233,4.5 -1.567,0.848 -3.204,1.57 -4.752,2.45 -1.098,0.623 -2.057,1.492 -3.156,2.114 -1.426,0.806 -2.969,1.407 -4.388,2.225 -1.113,0.642 -1.889,1.525 -2.221,2.94 -0.456,1.946 -1.248,3.827 -2.028,5.681 -1.075,2.558 -1.677,5.04 -0.366,7.749 0.587,1.212 0.682,2.656 1.057,3.979 0.224,0.791 0.466,1.601 0.86,2.314 0.837,1.515 0.761,2.233 -0.728,3.168 -1.91,1.201 -3.314,2.853 -4.6,4.662 -0.459,0.646 -1.153,1.123 -1.722,1.694 -1.063,1.067 -2.025,2.256 -3.189,3.197 -1.94,1.57 -2.653,3.769 -3.591,5.932 -0.981,2.264 -0.183,4.234 0.504,6.248 0.775,2.269 2.048,2.831 4.251,1.89 2.095,-0.895 4.118,-1.959 6.196,-2.896 1.116,-0.503 2.308,-0.839 3.413,-1.362 0.54,-0.256 0.968,-0.756 1.431,-1.163 1.014,-0.892 1.976,-1.849 3.037,-2.681 1.375,-1.079 2.988,-1.905 4.189,-3.141 0.859,-0.884 1.674,-0.628 2.584,-0.699 2.761,-0.217 5.47,-0.542 8.094,-1.652 1.294,-0.548 2.885,-1.186 4.403,0.096 0.426,0.36 1.377,0.706 2.254,0.032 0.515,-0.395 1.451,-0.289 2.202,-0.321 1.037,-0.044 2.034,-0.01 2.902,-0.814 0.302,-0.28 1.021,-0.055 1.501,-0.209 1.616,-0.521 3.343,-0.886 4.775,-1.735 1.411,-0.836 2.552,-2.152 2.763,-3.985 0.068,-0.591 0.286,-1.164 0.436,-1.745 -0.037,-0.007 -0.074,-0.014 -0.112,-0.021"
             style="fill:#000000;fill-opacity:1;fill-rule:nonzero;stroke:none"
             id="path20" />
        </g>
        <g
           id="g22"
           transform="translate(189.2171,96.1915)">
          <path
             d="M 0,0 C -0.114,-0.476 -0.21,-0.88 -0.329,-1.377 0.333,-1.419 0.912,-1.455 1.488,-1.492 1.818,-0.452 1.599,-0.22 0,0 M -1.788,7.578 C -1.223,6.805 -0.908,6.216 -0.445,5.786 0.003,5.371 0.674,4.77 1.125,4.861 3.076,5.253 4.596,6.384 5.911,8.38 3.221,8.1 0.863,7.854 -1.788,7.578 M -6.204,6.841 C -6.42,5.709 -6.658,4.64 -6.813,3.559 -6.871,3.152 -6.681,2.714 -6.701,2.295 -6.76,1.032 -6.866,-0.228 -6.956,-1.517 c 1.769,0.119 3.244,0.817 4.392,1.975 0.494,0.499 0.748,1.465 0.705,2.195 -0.032,0.563 -0.631,1.155 -1.094,1.618 -0.905,0.906 -1.532,2.169 -3.251,2.57 M 9.594,7.361 C 7.73,5.958 6.259,4.867 4.807,3.75 4.207,3.288 3.65,2.771 3.074,2.28 3.553,1.718 4.031,1.155 4.513,0.595 4.721,0.353 4.908,0.08 5.157,-0.11 5.453,-0.336 5.789,-0.588 6.14,-0.651 6.917,-0.792 7.713,-0.846 8.504,-0.892 9.94,-0.975 10.183,-0.535 9.962,0.858 9.743,2.243 9.801,3.671 9.731,5.08 9.697,5.766 9.649,6.452 9.594,7.361 M -8.92,-7.629 c -0.946,0.845 -1.569,1.562 -0.459,2.649 0.247,0.242 -0.055,1.027 -0.075,1.564 -0.063,1.611 -0.156,3.223 -0.154,4.835 0.002,1.751 0.018,3.511 0.19,5.251 0.07,0.704 0.474,1.435 0.901,2.028 0.469,0.652 0.228,1.301 -0.937,1.622 -1.077,0.297 -1.318,1.114 -1.233,1.94 0.052,0.5 0.676,1.337 1.025,1.328 0.793,-0.02 1.931,-0.235 2.295,-0.789 1.168,-1.773 2.617,-2.372 4.708,-2.297 1.607,0.057 3.184,0.421 4.872,0.145 1.494,-0.244 3.133,0.349 4.699,0.623 1.073,0.188 2.133,0.655 3.194,0.643 1.11,-0.012 1.456,0.729 1.96,1.36 0.73,0.914 2.195,1.169 2.781,-0.013 0.301,-0.605 -0.175,-2.019 -0.916,-2.405 -1.475,-0.768 -2.195,-1.701 -1.669,-3.54 0.354,-1.238 0.096,-2.647 0.152,-3.978 0.022,-0.545 0.177,-1.084 0.222,-1.629 0.088,-1.07 0.347,-2.18 0.159,-3.205 -0.263,-1.432 -1.732,-1.241 -2.78,-1.562 C 9.549,-3.202 9.067,-3.291 8.592,-3.404 8.799,-3.938 9.029,-4.464 9.206,-5.007 9.4,-5.598 9.761,-6.253 9.639,-6.786 9.549,-7.175 8.755,-7.701 8.344,-7.646 c -0.65,0.087 -1.52,0.453 -1.813,0.973 -1.778,3.153 -1.856,3.208 -5.157,2.679 -1.08,-0.173 -2.215,-0.204 -3.301,-0.085 -1.401,0.152 -2.499,-0.432 -3.57,-1.137 -1.156,-0.759 -2.264,-1.591 -3.423,-2.413"
             style="fill:#000000;fill-opacity:1;fill-rule:nonzero;stroke:none"
             id="path24" />
        </g>
        <g
           id="g26"
           transform="translate(128.0204,90.7141)">
          <path
             d="m 0,0 c 0.002,-0.017 0.003,-0.033 0.005,-0.05 0.319,0 0.639,0.015 0.958,-0.003 0.9,-0.049 1.614,0.107 1.616,1.243 0.004,1.771 0.03,3.542 0.054,5.313 0.005,0.372 0.093,0.75 0.055,1.116 C 2.554,8.922 2.337,10.218 2.241,11.524 2.172,12.467 1.53,13.28 0.615,13.321 -0.673,13.378 -1.97,13.5 -3.251,13.415 -4.2,13.351 -5.12,12.881 -6.071,12.803 c -2.211,-0.181 -4.432,0.187 -6.662,-0.209 -0.937,-0.167 -1.645,-0.498 -1.752,-1.319 -0.249,-1.898 -0.955,-3.732 -0.806,-5.689 0.02,-0.264 -0.194,-0.545 -0.296,-0.819 -0.109,-0.292 -0.305,-0.586 -0.303,-0.878 0.006,-0.859 0.122,-1.717 0.134,-2.576 0.011,-0.73 0.242,-1.052 1.052,-1.068 2.231,-0.044 4.461,-0.167 6.689,-0.299 1.256,-0.074 2.509,-0.328 3.762,-0.315 C -2.835,-0.355 -1.418,-0.132 0,0 M 4.889,12.337 C 5.014,11.392 5.274,10.092 5.33,8.783 5.379,7.641 5.16,6.49 5.132,5.342 5.106,4.284 5.251,3.221 5.188,2.167 5.111,0.876 4.935,-0.414 4.729,-1.692 4.56,-2.741 3.65,-2.744 2.874,-2.766 0.638,-2.827 -1.6,-2.832 -3.837,-2.854 c -0.358,-0.004 -0.718,0.008 -1.076,0.028 -3.579,0.206 -7.16,0.388 -10.735,0.646 -0.75,0.054 -1.597,0.225 -2.186,0.643 -0.728,0.516 -1.092,1.234 -0.716,2.37 0.439,1.329 0.207,2.869 0.58,4.232 0.45,1.644 -0.091,3.354 0.723,5.017 0.44,0.897 -0.014,2.254 -0.133,3.396 -0.098,0.942 0.106,1.282 1.189,1.497 2.037,0.405 4.011,0.326 6.052,0.209 2.272,-0.13 4.565,0.123 6.848,0.205 1.965,0.07 3.931,0.117 5.894,0.207 1.546,0.072 2.288,-0.845 2.286,-3.259"
             style="fill:#000000;fill-opacity:1;fill-rule:nonzero;stroke:none"
             id="path28" />
        </g>
        <g
           id="g30"
           transform="translate(53.3407,89.7748)">
          <path
             d="m 0,0 c 0.013,-0.063 0.026,-0.126 0.039,-0.189 0.528,0.128 1.05,0.299 1.585,0.378 2.116,0.312 3.169,1.475 3.416,3.646 0.265,2.333 0.6,4.66 0.944,6.983 0.2,1.354 -0.451,2.455 -1.295,3.257 -0.411,0.389 -1.499,0.12 -2.272,0.05 C 1.941,14.083 1.491,13.79 1.014,13.722 -0.857,13.456 -2.733,13.228 -4.608,13 c -2.056,-0.25 -4.124,-0.429 -6.165,-0.767 -0.462,-0.076 -1.143,-0.638 -1.201,-1.049 -0.366,-2.628 -0.584,-5.276 -0.855,-7.917 -0.06,-0.584 -0.095,-1.176 -0.217,-1.748 -0.213,-0.998 0.244,-2.243 0.969,-2.264 1.716,-0.048 3.439,-0.076 5.149,0.041 C -4.613,-0.544 -2.309,-0.241 0,0 m -15.813,-0.193 c 0.335,1.247 0.803,2.476 0.972,3.744 0.197,1.485 0.124,3.005 0.19,4.509 0.042,0.947 0.113,1.894 0.195,2.838 0.079,0.906 0.157,1.815 0.296,2.713 0.17,1.109 1.452,2.052 2.796,1.925 1.144,-0.108 2.262,-0.583 3.401,-0.622 1.204,-0.041 2.419,0.253 3.631,0.379 0.94,0.097 1.887,0.136 2.826,0.247 0.896,0.106 1.784,0.277 2.677,0.411 1.513,0.226 3.036,0.674 4.537,0.611 1.95,-0.081 2,-0.505 2.436,-2.419 C 8.739,11.529 7.921,9.051 7.683,6.526 7.513,4.718 7.006,2.937 6.586,1.158 6.401,0.379 6.128,-0.399 5.766,-1.113 5.446,-1.744 5.07,-2.103 4.079,-2.075 2.324,-2.027 0.557,-2.552 -1.214,-2.774 c -0.488,-0.061 -1.012,0.186 -1.507,0.145 -1.462,-0.121 -2.914,-0.384 -4.377,-0.463 -1.606,-0.087 -3.22,-0.032 -4.83,-0.036 -0.599,-10e-4 -1.271,-0.171 -1.783,0.042 -1.811,0.75 -1.791,0.8 -2.102,2.893"
             style="fill:#000000;fill-opacity:1;fill-rule:nonzero;stroke:none"
             id="path32" />
        </g>
        <g
           id="g34"
           transform="translate(173.0815,115.8096)">
          <path
             d="M 0,0 C -0.785,0.864 -1.446,1.601 -2.121,2.327 -2.249,2.464 -2.453,2.531 -2.579,2.669 -3.675,3.872 -4.66,5.168 -6.245,5.856 -6.616,6.017 -6.793,6.818 -6.869,7.352 -6.892,7.514 -6.212,7.996 -5.964,7.929 -5.487,7.798 -4.994,7.456 -4.68,7.064 -4.157,6.412 -3.875,5.549 -3.302,4.957 -2.238,3.856 -0.972,2.948 0.081,1.837 0.689,1.194 0.632,0.387 0,0"
             style="fill:#000000;fill-opacity:1;fill-rule:nonzero;stroke:none"
             id="path36" />
        </g>
        <g
           id="g38"
           transform="translate(186.6257,79.2313)">
          <path
             d="m 0,0 c 0.241,-0.304 0.644,-0.584 0.694,-0.917 0.234,-1.546 0.519,-3.109 0.494,-4.661 -0.02,-1.267 -0.26,-2.515 0.011,-3.8 0.087,-0.414 -0.276,-0.924 -0.441,-1.414 -0.52,0.363 -0.891,0.622 -1.329,0.928 0.233,0.667 0.647,1.356 0.684,2.065 0.077,1.463 -0.052,2.937 -0.08,4.406 -0.003,0.171 0.14,0.345 0.138,0.516 -0.005,0.333 -0.023,0.676 -0.111,0.995 -0.153,0.56 -0.362,1.106 -0.548,1.658 C -0.325,-0.149 -0.163,-0.075 0,0"
             style="fill:#000000;fill-opacity:1;fill-rule:nonzero;stroke:none"
             id="path40" />
        </g>
        <g
           id="g42"
           transform="translate(165.0114,76.1313)">
          <path
             d="M 0,0 C 0.258,0.388 0.444,0.865 0.788,1.149 2.559,2.609 4.405,3.98 6.149,5.471 6.751,5.985 7.208,6.347 8.094,5.562 7.746,5.297 7.391,5.056 7.072,4.775 6.794,4.53 6.549,4.246 6.306,3.966 6.136,3.77 6.004,3.377 5.839,3.368 4.643,3.305 3.818,2.548 2.963,1.878 2.559,1.562 2.331,1.027 1.94,0.685 1.473,0.275 0.918,-0.033 0.401,-0.385 0.267,-0.257 0.134,-0.128 0,0"
             style="fill:#000000;fill-opacity:1;fill-rule:nonzero;stroke:none"
             id="path44" />
        </g>
        <g
           id="g46"
           transform="translate(190.1048,118.4855)">
          <path
             d="M 0,0 C 0.086,1.29 0.246,2.58 0.238,3.869 0.229,5.079 0.049,6.287 -0.068,7.495 -0.109,7.914 -0.189,8.329 -0.252,8.754 1.101,8.838 1.626,8.063 1.472,6.903 1.232,5.092 1.244,3.249 1.096,1.424 1.055,0.911 0.827,0.412 0.684,-0.094 0.456,-0.062 0.228,-0.031 0,0"
             style="fill:#000000;fill-opacity:1;fill-rule:nonzero;stroke:none"
             id="path48" />
        </g>
        <g
           id="g50"
           transform="translate(212.7885,122.2147)">
          <path
             d="m 0,0 c -0.31,-0.813 -0.579,-1.517 -0.894,-2.341 -1.707,0.388 -2.013,-1.561 -3.31,-2.263 -0.202,0.231 -0.485,0.45 -0.613,0.739 -0.084,0.189 0.021,0.679 0.101,0.693 1.553,0.271 2.041,1.718 2.893,2.698 C -1.22,0.219 -0.835,0.685 0,0"
             style="fill:#000000;fill-opacity:1;fill-rule:nonzero;stroke:none"
             id="path52" />
        </g>
      </g>
    </g>
  </g>
</svg>
