<svg xmlns="http://www.w3.org/2000/svg" width="385.92" height="201.6" xmlns:v="https://vecta.io/nano"><defs><clipPath id="A"><path d="M0 151.2h289.44V0H0z"/></clipPath></defs><g clip-path="url(#A)" transform="matrix(1.333333 0 0 -1.333333 0 201.6)"><path d="M232.95 78.879l.833-1.796 1.779-4.849c.3-1.155 1.128-2.177.69-3.592-.338-1.092-.953-1.397-1.849-1.355-1.103.052-1.796.875-1.56 1.9.272 1.176-.121 2.279-.686 3.069-1.274 1.787-1.705 4.018-3.521 5.591-.951.823-1.501 2.103-2.811 2.859-1.667.962-3.021 2.459-4.527 3.705-1.61 1.331-3.156 2.761-5.161 3.511-.694.259-1.432.424-2.089.754l-5.779 3.022c-.938-1.946-.844-3.68-.168-5.306.475-1.143 1.273-2.172 2.027-3.176l3.186-3.88c.792-.867 1.781-1.551 2.616-2.383.88-.877 1.514-2.175 2.553-2.68 1.914-.932 2.271-2.993 3.64-4.322 1.091-1.059 1.333-2.979 1.995-4.498l1.663-3.492c.524-.972 1.16-1.885 1.759-2.816.513-.797-.216-1.162-.61-1.554-.231-.23-.879-.399-1.074-.249-1.72 1.317-2.983 3.012-3.851 5l-.993 2.202-1.276-5.255c-.343-1.636-.39-3.272.26-4.881.758-1.876 1.624-3.733 2.116-5.681.347-1.377 1.115-1.957 2.261-2.541 1.549-.791 3.332-1.21 4.537-2.627.293-.346.709-.616 1.115-.832l6.424-3.33c1.405-.683 2.256-1.938 3.353-2.939 1.19-1.086 2.531-2.023 4.186-1.614 2.273.563 4.475 1.404 6.72 2.088l5.771 1.682c1.262.403 2.507.885 3.703 1.451.431.204 1.015.781.985 1.144l-.796 6.24c-.153.989-.51 1.947-.657 2.936l-.801 6.046c-.213 1.165-.914 2.248-1.081 3.414-.486 3.397-1.056 6.813-1.114 10.23-.036 2.144-.635 3.683-2.455 5.168-.206-.799-.52-1.444-.504-2.082.029-1.171.258-2.338.395-3.507.083-.711.076-1.497-.817-1.571-.688-.056-1.621-.194-1.749.988-.119 1.094-.642 2.249-.416 3.249.346 1.538-.247 2.438-1.283 3.301-.211.176-.456.338-.604.56a3.67 3.67 0 0 1-4.515 1.396c.115-.338.223-.694.355-1.041.737-1.941 1.539-3.86 2.181-5.831.184-.565.061-1.356-.215-1.893-.147-.287-1.098-.505-1.372-.311-.575.408-1.039 1.06-1.366 1.704-.255.503-.192 1.157-.345 1.724-.327 1.215-.913 2.274-1.581 3.367-.685 1.122-1.24 1.867-2.583 1.963-.511.037-.998.379-1.501.568-1.663.627-3.315 1.318-5.393 1.052m26.835-7.008l.599-6.287c.091-.979.279-1.968.213-2.937-.126-1.871.652-3.521 1.076-5.258l.809-3.268c.045-.188-.02-.399.002-.596l.469-4.052c.16-1.254.387-2.501.515-3.758.207-2.045.367-4.094.516-6.143.013-.185-.157-.478-.323-.565-1.359-.715-2.737-1.392-4.108-2.081-.601-.302-1.176-.685-1.808-.889-1.423-.461-2.891-.78-4.307-1.26-.837-.283-1.747-.18-2.541-.899-.521-.472-1.593-.357-2.424-.46-1.591-.196-3.255-.143-4.749-.624-.794-.255-1.558-.759-2.37-.543-.832.221-1.769.573-2.335 1.173-1.595 1.691-3.167 3.382-5.233 4.5-1.567.848-3.204 1.57-4.752 2.45-1.098.623-2.057 1.492-3.156 2.114-1.426.806-2.969 1.407-4.388 2.225-1.113.642-1.889 1.525-2.221 2.94-.456 1.946-1.248 3.827-2.028 5.681-1.075 2.558-1.677 5.04-.366 7.749.587 1.212.682 2.656 1.057 3.979.224.791.466 1.601.86 2.314.837 1.515.761 2.233-.728 3.168-1.91 1.201-3.314 2.853-4.6 4.662-.459.646-1.153 1.123-1.722 1.694-1.063 1.067-2.025 2.256-3.189 3.197-1.94 1.57-2.653 3.769-3.591 5.932-.981 2.264-.183 4.234.504 6.248.775 2.269 2.048 2.831 4.251 1.89 2.095-.895 4.118-1.959 6.196-2.896 1.116-.503 2.308-.839 3.413-1.362.54-.256.968-.756 1.431-1.163 1.014-.892 1.976-1.849 3.037-2.681 1.375-1.079 2.988-1.905 4.189-3.141.859-.884 1.674-.628 2.584-.699 2.761-.217 5.47-.542 8.094-1.652 1.294-.548 2.885-1.186 4.403.096.426.36 1.377.706 2.254.032.515-.395 1.451-.289 2.202-.321 1.037-.044 2.034-.01 2.902-.814.302-.28 1.021-.055 1.501-.209 1.616-.521 3.343-.886 4.775-1.735 1.411-.836 2.552-2.152 2.763-3.985.068-.591.286-1.164.436-1.745l-.112-.021m-70.568 24.321l-.329-1.377 1.817-.115c.33 1.04.111 1.272-1.488 1.492m-1.788 7.578c.565-.773.88-1.362 1.343-1.792.448-.415 1.119-1.016 1.57-.925 1.951.392 3.471 1.523 4.786 3.519l-7.699-.802m-4.416-.737l-.609-3.282c-.058-.407.132-.845.112-1.264l-.255-3.812c1.769.119 3.244.817 4.392 1.975.494.499.748 1.465.705 2.195-.032.563-.631 1.155-1.094 1.618-.905.906-1.532 2.169-3.251 2.57m15.798.52l-4.787-3.611-1.733-1.47 1.439-1.685c.208-.242.395-.515.644-.705.296-.226.632-.478.983-.541.777-.141 1.573-.195 2.364-.241 1.436-.083 1.679.357 1.458 1.75-.219 1.385-.161 2.813-.231 4.222l-.137 2.281m-18.514-14.99c-.946.845-1.569 1.562-.459 2.649.247.242-.055 1.027-.075 1.564l-.154 4.835.19 5.251c.07.704.474 1.435.901 2.028.469.652.228 1.301-.937 1.622-1.077.297-1.318 1.114-1.233 1.94.052.5.676 1.337 1.025 1.328.793-.02 1.931-.235 2.295-.789 1.168-1.773 2.617-2.372 4.708-2.297 1.607.057 3.184.421 4.872.145 1.494-.244 3.133.349 4.699.623 1.073.188 2.133.655 3.194.643 1.11-.012 1.456.729 1.96 1.36.73.914 2.195 1.169 2.781-.013.301-.605-.175-2.019-.916-2.405-1.475-.768-2.195-1.701-1.669-3.54.354-1.238.096-2.647.152-3.978.022-.545.177-1.084.222-1.629.088-1.07.347-2.18.159-3.205-.263-1.432-1.732-1.241-2.78-1.562-.466-.143-.948-.232-1.423-.345l.614-1.603c.194-.591.555-1.246.433-1.779-.09-.389-.884-.915-1.295-.86-.65.087-1.52.453-1.813.973-1.778 3.153-1.856 3.208-5.157 2.679a12.5 12.5 0 0 0-3.301-.085c-1.401.152-2.499-.432-3.57-1.137l-3.423-2.413m-52.277 2.151l.005-.05.958-.003c.9-.049 1.614.107 1.616 1.243l.054 5.313c.005.372.093.75.055 1.116l-.447 3.905c-.069.943-.711 1.756-1.626 1.797l-3.866.094c-.949-.064-1.869-.534-2.82-.612-2.211-.181-4.432.187-6.662-.209-.937-.167-1.645-.498-1.752-1.319-.249-1.898-.955-3.732-.806-5.689.02-.264-.194-.545-.296-.819-.109-.292-.305-.586-.303-.878l.134-2.576c.011-.73.242-1.052 1.052-1.068l6.689-.299 3.762-.315c1.418.014 2.835.237 4.253.369m4.889 12.337l.441-3.554c.049-1.142-.17-2.293-.198-3.441l.056-3.175c-.077-1.291-.253-2.581-.459-3.859-.169-1.049-1.079-1.052-1.855-1.074l-6.711-.088a16.1 16.1 0 0 0-1.076.028l-10.735.646c-.75.054-1.597.225-2.186.643-.728.516-1.092 1.234-.716 2.37.439 1.329.207 2.869.58 4.232.45 1.644-.091 3.354.723 5.017.44.897-.014 2.254-.133 3.396-.098.942.106 1.282 1.189 1.497 2.037.405 4.011.326 6.052.209 2.272-.13 4.565.123 6.848.205l5.894.207c1.546.072 2.288-.845 2.286-3.259M53.341 89.775l.039-.189 1.585.378c2.116.312 3.169 1.475 3.416 3.646l.944 6.983c.2 1.354-.451 2.455-1.295 3.257-.411.389-1.499.12-2.272.05-.476-.042-.926-.335-1.403-.403l-5.622-.722-6.165-.767c-.462-.076-1.143-.638-1.201-1.049l-.855-7.917-.217-1.748c-.213-.998.244-2.243.969-2.264l5.149.041 6.928.704m-15.813-.193c.335 1.247.803 2.476.972 3.744.197 1.485.124 3.005.19 4.509l.195 2.838.296 2.713c.17 1.109 1.452 2.052 2.796 1.925 1.144-.108 2.262-.583 3.401-.622 1.204-.041 2.419.253 3.631.379l2.826.247 2.677.411c1.513.226 3.036.674 4.537.611 1.95-.081 2-.505 2.436-2.419.595-2.614-.223-5.092-.461-7.617-.17-1.808-.677-3.589-1.097-5.368-.185-.779-.458-1.557-.82-2.271-.32-.631-.696-.99-1.687-.962-1.755.048-3.522-.477-5.293-.699-.488-.061-1.012.186-1.507.145l-4.377-.463-4.83-.036c-.599-.001-1.271-.171-1.783.042-1.811.75-1.791.8-2.102 2.893m135.554 26.228l-2.121 2.327c-.128.137-.332.204-.458.342-1.096 1.203-2.081 2.499-3.666 3.187-.371.161-.548.962-.624 1.496-.023.162.657.644.905.577.477-.131.97-.473 1.284-.865.523-.652.805-1.515 1.378-2.107 1.064-1.101 2.33-2.009 3.383-3.12.608-.643.551-1.45-.081-1.837"/><path d="M186.626 79.231c.241-.304.644-.584.694-.917.234-1.546.519-3.109.494-4.661-.02-1.267-.26-2.515.011-3.8.087-.414-.276-.924-.441-1.414l-1.329.928c.233.667.647 1.356.684 2.065.077 1.463-.052 2.937-.08 4.406-.003.171.14.345.138.516-.005.333-.023.676-.111.995-.153.56-.362 1.106-.548 1.658l.488.224m-21.615-3.1c.258.388.444.865.788 1.149l5.361 4.322c.602.514 1.059.876 1.945.091l-1.022-.787c-.278-.245-.523-.529-.766-.809-.17-.196-.302-.589-.467-.598-1.196-.063-2.021-.82-2.876-1.49-.404-.316-.632-.851-1.023-1.193-.467-.41-1.022-.718-1.539-1.07l-.401.385m25.094 42.355l.238 3.869c-.009 1.21-.189 2.418-.306 3.626l-.184 1.259c1.353.084 1.878-.691 1.724-1.851-.24-1.811-.228-3.654-.376-5.479-.041-.513-.269-1.012-.412-1.518l-.684.094m22.684 3.729l-.894-2.341c-1.707.388-2.013-1.561-3.31-2.263-.202.231-.485.45-.613.739-.084.189.021.679.101.693 1.553.271 2.041 1.718 2.893 2.698.603.693.988 1.159 1.823.474"/></g></svg>