<?xml version="1.0" encoding="UTF-8" standalone="no"?>
<!-- Created with Inkscape (http://www.inkscape.org/) -->

<svg
   version="1.1"
   id="svg2"
   width="427.67999"
   height="371.51999"
   viewBox="0 0 427.67999 371.51999"
   sodipodi:docname="figure rotate colored.ai"
   xmlns:inkscape="http://www.inkscape.org/namespaces/inkscape"
   xmlns:sodipodi="http://sodipodi.sourceforge.net/DTD/sodipodi-0.dtd"
   xmlns="http://www.w3.org/2000/svg"
   xmlns:svg="http://www.w3.org/2000/svg">
  <defs
     id="defs6">
    <clipPath
       clipPathUnits="userSpaceOnUse"
       id="clipPath16">
      <path
         d="M 0,0 H 320.76 V 278.64 H 0 Z"
         id="path14" />
    </clipPath>
  </defs>
  <sodipodi:namedview
     id="namedview4"
     pagecolor="#ffffff"
     bordercolor="#000000"
     borderopacity="0.25"
     inkscape:showpageshadow="2"
     inkscape:pageopacity="0.0"
     inkscape:pagecheckerboard="0"
     inkscape:deskcolor="#d1d1d1" />
  <g
     id="g8"
     inkscape:groupmode="layer"
     inkscape:label="figure rotate colored"
     transform="matrix(1.3333333,0,0,-1.3333333,0,371.52)">
    <g
       id="g10">
      <g
         id="g12"
         clip-path="url(#clipPath16)">
        <g
           id="g18"
           transform="translate(238.0575,173.8033)">
          <path
             d="m 0,0 c -3.641,-1.272 -6.844,-2.408 -10.06,-3.505 -1.206,-0.411 -2.472,-0.658 -3.661,-1.109 -4.943,-1.877 -9.48,-4.736 -14.723,-5.925 -1.467,-0.332 -2.714,-1.593 -4.18,-1.977 -4.385,-1.15 -8.805,-2.197 -13.256,-3.058 -4.806,-0.93 -9.43,-2.542 -14.433,-2.81 -6.092,-0.326 -12.035,-2.156 -18.23,-2.186 -3.493,-0.017 -6.972,-0.947 -10.473,-1.321 -4.229,-0.451 -8.475,-0.743 -12.712,-1.118 -0.936,-0.083 -1.864,-0.249 -2.799,-0.332 -1.04,-0.093 -2.105,-0.3 -3.121,-0.166 -2.417,0.319 -4.798,0.929 -7.218,1.198 -2.416,0.269 -4.88,0.118 -7.291,0.41 -5.697,0.69 -11.363,1.651 -17.07,2.222 -1.213,0.122 -2.362,0.83 -3.2,0.774 -3.635,-0.243 -6.669,1.354 -10.046,2.368 0.309,5.729 0.61,11.325 0.911,16.921 l -0.66,0.385 c -0.885,-0.954 -1.733,-1.945 -2.661,-2.855 -2.59,-2.538 -5.144,-5.12 -7.841,-7.54 -3.726,-3.343 -7.518,-6.617 -11.385,-9.794 -2.016,-1.655 -2.671,-2.806 -1.648,-5.223 1.796,-4.244 3.872,-8.369 5.712,-12.595 1.206,-2.771 2.376,-5.58 3.242,-8.468 0.818,-2.726 2.203,-5.032 4.047,-7.396 0.858,1.65 1.714,3.086 2.356,4.613 0.35,0.832 0.237,1.847 0.505,2.728 0.903,2.974 1.851,5.935 2.869,8.871 0.143,0.41 0.819,0.966 1.175,0.917 2.606,-0.354 5.186,-0.907 7.79,-1.278 2.694,-0.383 5.4,-0.736 8.113,-0.913 3.264,-0.213 6.55,-0.1 9.809,-0.355 6.361,-0.497 12.707,-1.164 19.062,-1.735 2.128,-0.191 4.263,-0.289 6.393,-0.457 4.069,-0.323 8.131,-0.831 12.205,-0.948 3.279,-0.094 6.571,0.275 9.638,0.428 0.42,1.81 0.811,3.15 1.034,4.518 0.672,4.133 3.673,6.597 6.81,8.557 2.424,1.513 5.547,1.38 8.376,0.568 2.153,-0.618 4.254,-1.45 6.32,-2.325 2.147,-0.909 3.703,-0.688 5.454,1.162 1.907,2.016 4.418,3.319 7.47,3.306 2.504,-0.011 4.743,-0.613 6.798,-1.957 1.103,-0.722 2.063,-0.834 3.057,0.172 4.151,4.198 10.424,3.791 14.728,0.408 0.759,-0.597 1.252,-0.873 1.965,0.127 1.152,1.614 2.664,2.849 4.764,2.935 2.151,0.088 4.294,0.304 6.157,-1.355 1.749,-1.558 3.768,-1.56 5.769,-0.382 0.354,0.208 0.684,0.47 1.058,0.626 4.651,1.937 9.334,3.799 13.948,5.818 1.516,0.663 2.611,0.288 3.63,-0.741 0.603,-0.607 1.199,-1.278 1.588,-2.029 1.508,-2.913 2.885,-5.894 4.408,-8.799 0.667,-1.271 1.519,-2.469 2.483,-3.038 0.184,1.205 0.174,2.369 0.552,3.389 1.19,3.216 2.341,6.469 3.845,9.542 2.642,5.395 3.299,11.327 4.903,16.996 1.185,4.185 1.922,8.496 2.891,12.896 -0.528,0.103 -0.907,0.229 -1.291,0.243 -3.574,0.138 -7.152,0.187 -10.721,0.407 -2.099,0.129 -4.191,0.469 -6.273,0.802 -4.025,0.646 -8.04,1.359 -12.062,2.033 -2.019,0.339 -4.049,0.621 -6.064,0.988 -1.969,0.36 -3.924,0.796 -5.886,1.199 C -7.235,14.706 -7.341,14.576 -7.447,14.445 -3.028,10.584 -3.116,4.655 0,0 m -48.266,-46.765 c -1.804,0.144 -2.576,0.929 -2.97,2.615 -0.766,3.28 -2.264,6.277 -4.438,8.776 -1.247,1.434 -3.055,2.589 -4.838,3.3 -2.563,1.021 -5.352,1.459 -8.008,2.266 -2.348,0.713 -4.619,0.568 -6.434,-1.012 -1.331,-1.159 -2.243,-2.809 -3.301,-4.27 -2.01,-2.778 -2.052,-5.995 -1.814,-9.197 0.113,-1.525 0.971,-3.018 0.965,-4.524 -0.011,-2.562 1.076,-4.706 2.169,-6.811 1.482,-2.854 3.32,-5.522 4.941,-8.307 0.883,-1.517 2.104,-3.042 2.346,-4.685 0.47,-3.194 1.22,-6.539 -0.607,-9.637 -0.728,-1.234 -1.505,-2.44 -2.215,-3.685 -0.93,-1.627 -2.277,-1.334 -3.897,-1.358 -3.163,-0.045 -5.502,1.428 -7.832,3.116 -3.603,2.609 -6.947,5.636 -11.328,6.965 -2.294,0.696 -4.574,1.563 -6.926,1.916 -4.483,0.672 -7.751,-1.751 -10.637,-4.806 -1.673,-1.772 -2.924,-4.056 -2.383,-6.316 0.66,-2.758 2.17,-5.344 3.531,-7.889 0.48,-0.899 1.685,-1.379 2.412,-2.184 1.561,-1.73 3.483,-2.446 5.769,-2.592 1.431,-0.091 2.873,-0.41 4.252,-0.82 1.834,-0.545 3.614,-1.268 5.411,-1.933 2.71,-1.002 5.704,-1.031 8.018,-3.357 2.285,-2.296 5.106,-4.062 7.718,-6.025 0.45,-0.339 1.021,-0.53 1.556,-0.738 1.944,-0.759 3.863,-1.167 5.421,-3.061 1.562,-1.901 4.05,-3.172 6.75,-3.432 2.583,-0.249 5.191,-0.339 7.748,-0.748 4.093,-0.656 8.117,-0.751 12.156,0.356 1.638,0.45 3.445,0.364 5.022,0.94 2.867,1.047 5.577,2.514 8.43,3.606 2.968,1.137 6.04,1.998 9.044,3.048 4.986,1.742 10.014,3.388 14.9,5.382 2.069,0.844 3.808,2.582 4.316,4.926 0.703,3.249 1.166,6.552 1.671,9.841 0.221,1.441 -0.055,3.052 0.491,4.332 1.923,4.508 1.642,9.309 2.105,13.994 0.28,2.824 -0.102,5.71 -0.09,8.567 0.012,2.924 -0.149,5.894 0.306,8.757 0.427,2.683 -0.752,4.873 -1.392,7.213 -0.679,2.485 -1.738,4.876 -2.743,7.261 -1.081,2.567 -1.705,5.524 -4.941,6.479 -0.254,0.075 -0.44,0.377 -0.66,0.572 -1.814,1.614 -3.021,4.113 -6.02,3.984 -1.426,-0.062 -2.99,0.292 -3.943,-1.122 -1.048,-1.554 -2.71,-2.961 -1.012,-5.216 0.883,-1.172 1.249,-2.732 1.848,-4.117 -0.178,-0.146 -0.356,-0.293 -0.535,-0.44 -0.769,0.278 -2.083,0.395 -2.219,0.859 -0.805,2.729 -2.946,4.464 -4.668,6.436 -1.223,1.401 -3.047,3.01 -4.706,3.132 -2.87,0.211 -5.609,-1.096 -7.668,-3.393 2.925,-3.23 4.808,-6.816 5.454,-11.097 -0.865,0.128 -1.529,0.125 -2.109,0.345 -0.494,0.187 -1.213,0.578 -1.277,0.97 -0.373,2.294 -0.551,2.608 -1.908,4.834 -1.158,1.898 -2.745,3.281 -4.36,4.758 -3.131,2.862 -9.609,2.829 -13.089,-0.618 -0.414,-0.409 -0.913,-1.216 0.01,-2.067 4.044,-3.73 5.2,-8.78 6.208,-14.089 M -3.361,1.761 c -1.844,5.326 -4.563,10.038 -7.855,14.654 1.222,1.754 3.202,1.047 4.768,0.818 6.171,-0.903 12.299,-2.094 18.453,-3.115 4.676,-0.777 9.357,-1.543 14.058,-2.146 2.414,-0.309 4.877,-0.225 7.315,-0.371 0.932,-0.055 1.963,-0.049 2.748,-0.457 0.587,-0.304 1.185,-1.226 1.189,-1.877 0.007,-1.263 -0.372,-2.535 -0.64,-3.793 -0.714,-3.344 -1.468,-6.68 -2.18,-10.024 -0.496,-2.328 -0.791,-4.712 -1.463,-6.986 -0.763,-2.582 -1.884,-5.056 -2.782,-7.601 -1.37,-3.886 -2.642,-7.807 -4.038,-11.684 -0.666,-1.851 -1.391,-3.712 -2.391,-5.389 -0.219,-0.368 -1.956,-0.301 -2.567,0.147 -0.84,0.616 -1.332,1.755 -1.869,2.726 -1.9,3.433 -3.699,6.924 -5.657,10.323 -0.738,1.28 -2.78,1.725 -4.184,1.006 -1.121,-0.573 -2.083,-1.453 -3.186,-2.072 -0.517,-0.29 -1.231,-0.205 -1.8,-0.43 -3.09,-1.221 -6.162,-2.487 -9.399,-3.802 1.092,-1.663 2.327,-3.246 3.244,-4.996 2.725,-5.201 4.617,-10.707 5.48,-16.531 0.537,-3.618 0.819,-7.243 0.069,-10.886 -0.189,-0.92 -0.005,-1.91 -0.072,-2.863 -0.351,-5.019 -0.241,-10.135 -1.237,-15.024 -0.935,-4.595 -1.762,-9.179 -2.42,-13.816 -0.415,-2.929 -1.27,-5.795 -1.908,-8.601 -1.126,-0.704 -2.238,-1.386 -3.336,-2.088 -1.198,-0.765 -2.304,-1.735 -3.591,-2.285 -2.565,-1.095 -5.193,-2.075 -7.858,-2.898 -3.495,-1.081 -7.109,-1.794 -10.564,-2.98 -3.305,-1.135 -6.451,-2.727 -9.71,-4.008 -1.492,-0.587 -3.091,-0.901 -4.636,-1.357 -2.788,-0.823 -5.624,-1.209 -8.538,-1.173 -1.838,0.022 -3.698,-0.37 -5.514,-0.203 -3.618,0.334 -7.228,0.835 -10.812,1.436 -3.087,0.518 -5.504,2.238 -7.529,4.622 -0.548,0.646 -1.515,1.061 -2.369,1.299 -3.105,0.865 -5.286,3.123 -7.751,4.953 -3.022,2.244 -5.818,4.757 -9.756,5.516 -4.154,0.801 -8.262,1.897 -12.327,3.083 -3.233,0.944 -5.749,3.114 -7.927,5.619 -2.033,2.337 -3.928,4.854 -3.85,8.123 0.045,1.897 0.35,3.898 1.052,5.646 1.816,4.53 5.401,7.039 10.045,8.406 2.133,0.627 3.939,0.508 5.934,-0.288 1.533,-0.613 3.205,-0.902 4.835,-1.24 4.048,-0.841 7.168,-3.289 10.338,-5.728 2.023,-1.557 4.174,-2.982 6.398,-4.235 1.795,-1.011 5.497,0.748 6.335,2.635 0.962,2.168 1.391,4.426 1.441,6.758 0.08,3.749 -2.371,6.276 -4.615,8.774 -1.431,1.594 -2.64,3.253 -3.22,5.263 -1.171,4.054 -2.193,8.152 -3.243,12.24 -0.093,0.36 0.057,0.783 0.105,1.289 -6.661,0 -13.312,-0.083 -19.961,0.032 -3.903,0.068 -7.956,-0.116 -11.65,0.886 -2.668,0.724 -5.091,0.534 -7.67,0.593 -2.536,0.059 -4.998,0.749 -7.305,2.061 -0.842,0.479 -2.221,-0.009 -3.355,-0.018 -2.814,-0.023 -5.631,-0.104 -8.442,-0.009 -2.337,0.079 -4.67,0.338 -6.998,0.589 -1.303,0.14 -2.612,0.34 -3.88,0.662 -2.968,0.753 -3.998,0.042 -4.78,-2.797 -0.908,-3.296 -2.123,-6.508 -3.211,-9.754 -0.455,-1.358 -0.814,-2.764 -1.434,-4.043 -0.334,-0.689 -1.047,-1.347 -1.748,-1.643 -0.352,-0.148 -1.3,0.409 -1.562,0.879 -0.902,1.616 -1.718,3.297 -2.391,5.021 -1.574,4.037 -2.913,8.169 -4.599,12.156 -1.448,3.424 -3.555,6.593 -4.752,10.086 -0.559,1.629 -2.337,3.041 -1.522,5.105 0.028,0.07 -0.086,0.202 -0.144,0.298 -1.662,2.777 0.242,4.35 2.045,5.896 3.383,2.901 6.917,5.635 10.188,8.655 2.89,2.669 5.474,5.666 8.256,8.455 2.115,2.12 4.301,4.172 6.528,6.173 0.336,0.303 1.263,0.411 1.572,0.168 0.418,-0.327 0.664,-1.072 0.694,-1.653 0.041,-0.795 -0.229,-1.6 -0.299,-2.407 -0.372,-4.275 -0.741,-8.55 -1.069,-12.828 -0.083,-1.093 -0.012,-2.198 -0.012,-3.298 -0.153,-0.156 -0.305,-0.313 -0.458,-0.47 2.069,-0.599 4.108,-1.357 6.214,-1.764 3.668,-0.709 7.374,-1.227 11.071,-1.772 1.46,-0.216 2.948,-0.244 4.412,-0.438 3.197,-0.425 6.376,-0.998 9.582,-1.322 2.069,-0.209 4.171,-0.086 6.259,-0.105 1.101,-0.009 2.204,-0.034 3.304,0.003 6.085,0.205 12.17,0.412 18.254,0.651 2.314,0.091 4.632,0.191 6.934,0.427 2.326,0.238 4.633,0.657 6.95,0.981 1.104,0.155 2.216,0.252 3.318,0.413 2.427,0.353 4.847,0.755 7.276,1.09 3.686,0.506 7.394,0.873 11.061,1.49 2.464,0.415 4.862,1.204 7.307,1.75 4.398,0.983 8.817,1.872 13.21,2.876 2.27,0.519 4.57,1.023 6.735,1.852 2.44,0.934 4.708,2.306 7.114,3.341 3.157,1.359 6.382,2.561 9.566,3.857 2.655,1.081 5.293,2.2 8.379,3.486"
             style="fill:#292929;fill-opacity:1;fill-rule:nonzero;stroke:none"
             id="path20" />
        </g>
        <g
           id="g22"
           transform="translate(150.11,250.3092)">
          <path
             d="m 0,0 c -5.154,-0.197 -9.374,-0.332 -13.079,-2.839 -1.874,-1.268 -3.984,-2.243 -5.679,-3.707 -2.505,-2.163 -4.639,-4.752 -7.11,-6.96 -2.602,-2.327 -4.054,-5.277 -5.023,-8.481 -0.692,-2.287 -1.044,-4.681 -1.472,-7.041 -0.179,-0.986 -0.397,-2.058 -0.194,-3.004 0.738,-3.432 1.568,-6.85 2.513,-10.231 0.861,-3.084 2.295,-5.826 4.953,-7.862 2.664,-2.041 5.08,-4.414 7.792,-6.385 1.178,-0.857 2.8,-1.149 4.26,-1.555 1.17,-0.326 2.394,-0.485 3.604,-0.629 1.516,-0.18 3.093,-0.573 4.554,-0.332 2.926,0.485 5.828,1.213 8.669,2.074 2.887,0.874 5.758,1.872 8.508,3.102 2.943,1.316 4.813,3.874 6.444,6.563 0.581,0.958 1.033,1.996 1.516,3.011 1.178,2.478 2.87,4.859 3.386,7.471 0.834,4.209 1.363,8.595 1.15,12.864 -0.261,5.242 -1.588,10.342 -5.667,14.246 -2.609,2.498 -4.778,5.607 -8.412,6.697 C 6.889,-1.85 3.379,0.643 0,0 m -3.384,2.472 c 9.006,-0.107 14.943,-2.635 20.397,-6.734 3.561,-2.676 6.42,-5.802 8.112,-9.93 1.817,-4.434 3.305,-8.914 1.954,-13.817 -0.207,-0.753 0.026,-1.617 -0.087,-2.409 -0.37,-2.604 -0.522,-5.285 -1.277,-7.78 -1.52,-5.017 -4.092,-9.552 -7.339,-13.676 -0.507,-0.644 -1.346,-1.016 -1.923,-1.618 -3.129,-3.261 -7.224,-4.56 -11.403,-5.701 -1.849,-0.505 -3.679,-1.289 -5.557,-1.43 -2.935,-0.221 -5.72,-1.16 -8.815,-0.897 -3.129,0.266 -5.681,1.773 -8.548,2.509 -0.883,0.227 -1.526,1.27 -2.365,1.802 -3.298,2.092 -6.013,4.862 -8.589,7.713 -2.225,2.462 -3.534,5.537 -4.564,8.723 -1.248,3.864 -1.565,7.859 -1.388,11.822 0.155,3.462 1.249,6.765 2.918,9.936 1.014,1.929 1.853,3.854 3.385,5.475 2.036,2.151 3.673,4.72 5.878,6.659 2.581,2.27 5.457,4.283 8.442,5.994 3.938,2.256 8.284,3.409 10.769,3.359"
             style="fill:#292929;fill-opacity:1;fill-rule:nonzero;stroke:none"
             id="path24" />
        </g>
        <g
           id="g26"
           transform="translate(110.8866,187.9668)">
          <path
             d="M 0,0 C 0.188,-0.098 0.377,-0.197 0.565,-0.295 1.615,0.739 2.666,1.773 3.802,2.892 2.285,3.908 0.951,3.31 -0.059,2.665 -0.448,2.416 -0.043,0.925 0,0 m 76.273,26.383 c -0.445,1.407 -0.843,2.901 -2.564,2.299 -1.21,-0.423 -2.013,-1.534 -2.042,-3.08 1.636,0.277 3.066,0.52 4.606,0.781 M 2.939,-0.587 c -1.552,-1.722 -2.264,-4.368 -5.637,-3.645 0.159,0.765 0.451,1.538 0.453,2.311 0.004,1.283 -0.169,2.568 -0.285,3.85 C -2.81,5.027 -2.534,5.35 0.551,5.368 2.948,5.382 5.347,5.393 7.743,5.345 8.31,5.334 8.871,5.077 9.669,4.873 8.101,3.43 6.83,2.259 5.561,1.091 6.173,0.077 6.86,-1.002 7.491,-2.113 c 1.801,-3.174 4.766,-4.489 8.141,-5.196 1.416,-0.297 2.798,-0.827 4.224,-0.984 2.274,-0.25 4.573,-0.255 6.858,-0.406 0.807,-0.054 1.603,-0.261 2.409,-0.347 3.952,-0.425 7.724,0.722 11.454,1.642 4.476,1.103 8.906,2.54 13.175,4.279 2.439,0.993 4.659,2.701 6.724,4.396 2.926,2.403 5.829,4.904 8.33,7.728 1.474,1.664 2.196,4.013 3.166,6.096 0.379,0.814 0.511,1.744 0.666,2.304 -0.1,1.204 -0.205,2.155 -0.249,3.108 -0.036,0.782 0.096,1.587 -0.048,2.343 -0.051,0.268 -0.712,0.618 -1.071,0.594 -1.27,-0.086 -2.53,-0.318 -4.412,-0.581 1.529,2.309 2.77,4.222 4.052,6.107 0.825,1.214 1.368,2.785 3.219,2.829 0.422,0.01 1.032,0.107 1.237,-0.122 1.074,-1.202 2.018,-2.519 3.062,-3.749 0.658,-0.775 1.411,-1.469 2.127,-2.204 -0.698,-0.616 -1.153,-1.017 -1.726,-1.522 h -5.035 c 1.879,-2.12 1.115,-4.389 0.961,-6.436 C 74.614,15.885 73.643,14.077 73.134,12.21 72.464,9.757 71.153,7.761 69.248,6.092 66.2,3.421 63.257,0.628 60.154,-1.975 58.808,-3.104 57.317,-4.093 55.349,-4.149 54.601,-4.17 53.928,-5.146 53.13,-5.44 c -2.199,-0.809 -4.441,-1.504 -6.675,-2.215 -2.668,-0.849 -5.327,-1.732 -8.022,-2.486 -4.625,-1.292 -9.343,-0.862 -14.069,-0.811 -4.683,0.049 -9.045,1.278 -13.36,2.74 -3.349,1.135 -6.224,3.058 -7.409,6.719 -0.084,0.26 -0.332,0.468 -0.656,0.906"
             style="fill:#292929;fill-opacity:1;fill-rule:nonzero;stroke:none"
             id="path28" />
        </g>
        <g
           id="g30"
           transform="translate(150.6855,41.6093)">
          <path
             d="M 0,0 C 1.074,0.191 1.93,0.287 2.755,0.502 4.195,0.877 5.669,1.202 7.03,1.779 8.453,2.383 8.503,3.693 7.289,4.642 5.776,5.825 2.266,5.101 0.618,3.239 -0.262,2.244 -1.009,1.196 0,0 m 1.388,-2.302 c 0.34,-2.863 2.397,-4.896 1.196,-7.624 -1.595,-0.329 -2.154,0.463 -2.451,1.982 -0.33,1.691 -0.86,3.373 -1.539,4.957 -0.794,1.853 -1.855,3.591 -2.774,5.391 -0.177,0.348 -0.444,0.98 -0.316,1.1 1.043,0.968 2.358,2.741 3.231,2.558 C 0.384,5.716 1.388,6.566 2.524,7.06 5.127,8.192 7.442,7.409 9.464,6.026 11.732,4.474 10.588,0.564 7.586,-0.582 6.144,-1.134 4.571,-1.342 3.066,-1.738 2.429,-1.905 1.814,-2.156 1.388,-2.302"
             style="fill:#292929;fill-opacity:1;fill-rule:nonzero;stroke:none"
             id="path32" />
        </g>
        <g
           id="g34"
           transform="translate(262.8665,69.5101)">
          <path
             d="M 0,0 C 1.132,0.561 1.866,1.02 2.662,1.3 4.849,2.071 5.377,2.786 4.812,4.94 4.585,5.804 4.038,6.659 3.431,7.332 1.567,9.397 -1.097,9.574 -3.166,7.87 -3.713,7.418 -4.219,6.916 -4.68,6.495 -3.033,4.209 -1.454,2.017 0,0 m -1.547,-2.457 c -0.546,0.942 -1.012,1.944 -1.655,2.814 -1.288,1.743 -2.591,3.486 -4.039,5.093 -1.477,1.64 -1.531,1.642 0.387,2.594 0.517,0.257 0.975,0.667 1.402,1.068 2.74,2.572 5.858,2.856 9.133,0.951 C 6.388,8.489 8.165,5.773 7.082,2.039 6.766,0.946 5.663,-0.159 4.629,-0.742 3.395,-1.436 2.124,-2.945 0.337,-1.623 0.127,-1.468 -0.558,-1.952 -1.022,-2.14 -1.197,-2.246 -1.372,-2.351 -1.547,-2.457"
             style="fill:#292929;fill-opacity:1;fill-rule:nonzero;stroke:none"
             id="path36" />
        </g>
        <g
           id="g38"
           transform="translate(223.2979,55.3839)">
          <path
             d="m 0,0 c 0.323,-1.561 0.59,-2.85 0.939,-4.538 -0.255,-0.146 -0.905,-0.81 -1.485,-0.754 -0.425,0.042 -0.849,0.991 -1.115,1.604 -1.248,2.877 -2.441,5.778 -3.656,8.67 1.393,1.277 2.406,1.104 3.064,-0.524 C -1.37,2.275 -1.208,2.156 0.782,2.976 2.049,3.498 3.247,4.189 4.485,4.809 3.82,6.118 3.136,7.44 2.477,8.775 2.099,9.539 1.99,10.447 2.988,10.614 3.599,10.716 4.702,10.3 4.941,9.806 6.287,7.016 7.458,4.14 8.642,1.274 8.927,0.584 9.083,-0.171 9.208,-0.911 9.307,-1.49 9.488,-2.237 9.223,-2.639 8.983,-3.001 7.991,-3.294 7.681,-3.089 7.118,-2.716 6.74,-1.986 6.428,-1.336 6.186,-0.831 6.042,-0.216 6.064,0.341 6.151,2.545 5.234,2.36 3.722,1.522 2.517,0.853 1.159,0.462 0,0"
             style="fill:#292929;fill-opacity:1;fill-rule:nonzero;stroke:none"
             id="path40" />
        </g>
        <g
           id="g42"
           transform="translate(166.5096,41.5907)">
          <path
             d="M 0,0 C 1.547,0.223 3.352,1.793 3.364,3.146 3.37,3.865 2.919,4.805 2.36,5.232 2.006,5.502 0.937,5.192 0.423,4.819 -0.601,4.076 -1.46,3.138 -0.562,1.677 -0.27,1.202 -0.192,0.596 0,0 m 1.089,-2.454 c 0.119,-1.361 0.231,-2.65 0.343,-3.939 -0.71,-0.047 -1.42,-0.094 -1.859,-0.123 -1.055,3.395 -2.032,6.543 -3.04,9.786 0.662,0.058 1.246,0.109 1.83,0.16 -0.742,1.608 0.24,3.682 2.087,4.405 C 2.077,8.472 4.579,7.258 5.269,5.722 6.383,3.243 5.038,1.415 3.745,-0.601 5.579,-1.615 7.383,-2.53 9.083,-3.608 9.58,-3.922 9.782,-4.703 10.119,-5.27 9.411,-5.438 8.562,-5.942 8.02,-5.715 5.844,-4.804 3.766,-3.663 1.645,-2.62 1.4,-2.499 1.114,-2.461 1.089,-2.454"
             style="fill:#292929;fill-opacity:1;fill-rule:nonzero;stroke:none"
             id="path44" />
        </g>
        <g
           id="g46"
           transform="translate(184.4661,52.0662)">
          <path
             d="m 0,0 c -0.585,-0.787 -0.853,-1.431 -1.336,-1.742 -1.229,-0.792 -2.667,-1.294 -3.798,-2.193 -0.628,-0.5 -0.81,-1.563 -1.193,-2.372 0.2,-0.189 0.4,-0.379 0.6,-0.569 0.583,0.239 1.167,0.477 1.75,0.718 0.982,0.406 1.938,0.923 2.959,1.16 0.34,0.078 1.015,-0.485 1.209,-0.905 0.11,-0.239 -0.352,-0.926 -0.718,-1.164 -1.062,-0.692 -2.169,-1.338 -3.324,-1.857 -1.877,-0.843 -0.359,-2.102 -0.477,-3.155 0.664,0.035 1.36,-0.049 1.984,0.126 1.881,0.526 3.605,1.81 5.76,1.086 0.439,-1.675 -1.003,-1.915 -1.963,-2.385 -1.415,-0.692 -2.916,-1.207 -4.379,-1.802 -1.575,-0.64 -2.797,-0.091 -3.306,1.497 -0.845,2.638 -1.79,5.251 -2.483,7.929 -0.351,1.357 -0.106,2.665 1.478,3.473 C -5.137,-1.084 -3.218,0.398 0,0"
             style="fill:#292929;fill-opacity:1;fill-rule:nonzero;stroke:none"
             id="path48" />
        </g>
        <g
           id="g50"
           transform="translate(242.6877,62.3212)">
          <path
             d="M 0,0 C -0.121,3.605 -1.76,3.601 -4.2,2.726 -4.772,2.521 -5.206,1.845 -5.623,1.321 -5.974,0.878 -6.459,0.338 -6.45,-0.152 c 0.03,-1.74 1.472,-2.98 3.258,-2.853 C -0.87,-2.84 0.017,-2.071 0,0 m -8.585,4.137 c 1.693,0.316 3.233,0.564 4.755,0.897 2.53,0.554 4.878,-0.155 5.613,-1.753 1.344,-2.925 0.53,-6.426 -1.778,-8.046 -3.775,-2.648 -6.317,-0.17 -8.303,2.606 -1.436,2.008 -0.396,4.16 -0.287,6.296"
             style="fill:#292929;fill-opacity:1;fill-rule:nonzero;stroke:none"
             id="path52" />
        </g>
        <g
           id="g54"
           transform="translate(201.9778,44.8083)">
          <path
             d="M 0,0 C 1.217,0.3 2.474,0.533 3.673,0.936 4.305,1.148 5.318,1.655 5.32,2.033 5.324,2.944 5.083,4.13 4.47,4.689 3.902,5.206 2.725,5.059 1.814,5.192 0.691,5.357 -0.573,5.238 -1.529,5.726 c -1.796,0.917 -1.142,2.873 -0.824,4.167 0.371,1.512 1.794,2.654 3.535,2.813 0.894,0.082 1.82,-0.181 2.865,-0.303 C 3.786,11.624 3.628,11.152 3.495,10.756 2.54,10.564 1.536,10.562 0.76,10.139 0.225,9.848 0.006,8.976 -0.354,8.363 0.205,8.148 0.832,7.652 1.309,7.768 3.329,8.261 4.905,7.631 6.35,6.269 7.76,4.941 8.277,3.254 7.791,1.517 7.315,-0.185 5.857,-1.184 4.14,-1.681 2.521,-2.149 0.993,-2.302 0,0"
             style="fill:#292929;fill-opacity:1;fill-rule:nonzero;stroke:none"
             id="path56" />
        </g>
        <g
           id="g58"
           transform="translate(195.0005,53.3551)">
          <path
             d="m 0,0 c -1.599,-0.783 -3.147,-1.541 -4.812,-2.357 -0.115,-1.832 0.328,-2.18 2.194,-2.486 1.457,-0.24 2.914,-0.807 4.228,-1.5 1.136,-0.599 1.358,-4.125 0.57,-5.758 -0.809,-1.675 -2.366,-1.461 -3.739,-1.292 -0.463,0.056 -0.817,1 -1.22,1.539 0.431,0.287 0.829,0.663 1.301,0.84 0.618,0.232 1.294,0.306 1.945,0.448 -0.384,0.966 -0.514,2.255 -1.221,2.81 -0.776,0.609 -2.077,0.681 -3.161,0.733 -1.328,0.064 -2.569,0.233 -3.003,1.636 -0.482,1.556 -0.17,3.151 0.966,4.3 0.846,0.855 2.054,1.348 3.086,2.024 C -1.83,1.616 -0.983,1.433 0,0"
             style="fill:#292929;fill-opacity:1;fill-rule:nonzero;stroke:none"
             id="path60" />
        </g>
        <g
           id="g62"
           transform="translate(250.0983,63.469)">
          <path
             d="M 0,0 C 1.146,0.369 2.255,0.7 3.345,1.084 4.275,1.411 5.157,1.942 6.109,2.113 6.807,2.239 7.584,1.93 8.325,1.815 8.383,1.522 8.442,1.229 8.5,0.937 6.389,-0.02 4.284,-0.989 2.164,-1.926 1.696,-2.133 1.149,-2.167 0.69,-2.389 c -1.589,-0.769 -2.46,0.056 -3.003,1.387 -1.101,2.699 -2.182,5.409 -3.123,8.166 -0.144,0.422 0.507,1.116 0.79,1.684 0.66,-0.35 1.698,-0.546 1.915,-1.077 C -1.723,5.312 -0.944,2.76 0,0"
             style="fill:#292929;fill-opacity:1;fill-rule:nonzero;stroke:none"
             id="path64" />
        </g>
        <g
           id="g66"
           transform="translate(238.0575,173.8033)">
          <path
             d="m 0,0 c -3.116,4.655 -3.028,10.584 -7.447,14.445 0.106,0.131 0.212,0.261 0.317,0.392 1.962,-0.403 3.917,-0.839 5.886,-1.199 2.015,-0.367 4.045,-0.649 6.064,-0.988 4.022,-0.674 8.037,-1.387 12.062,-2.033 2.082,-0.333 4.174,-0.673 6.273,-0.802 3.569,-0.22 7.147,-0.269 10.721,-0.407 0.384,-0.014 0.763,-0.14 1.291,-0.243 -0.969,-4.4 -1.706,-8.711 -2.891,-12.896 -1.604,-5.669 -2.261,-11.601 -4.903,-16.996 -1.504,-3.073 -2.655,-6.326 -3.845,-9.542 -0.378,-1.02 -0.368,-2.184 -0.552,-3.389 -0.964,0.569 -1.816,1.767 -2.483,3.038 -1.523,2.905 -2.9,5.886 -4.408,8.799 -0.389,0.751 -0.985,1.422 -1.588,2.029 -1.019,1.029 -2.114,1.404 -3.63,0.741 -4.614,-2.019 -9.297,-3.881 -13.948,-5.818 -0.374,-0.156 -0.704,-0.418 -1.058,-0.626 -2.001,-1.178 -4.02,-1.176 -5.769,0.382 -1.863,1.659 -4.006,1.443 -6.157,1.355 -2.1,-0.086 -3.612,-1.321 -4.764,-2.935 -0.713,-1 -1.206,-0.724 -1.965,-0.127 -4.304,3.383 -10.577,3.79 -14.728,-0.408 -0.994,-1.006 -1.954,-0.894 -3.057,-0.172 -2.055,1.344 -4.294,1.946 -6.798,1.957 -3.052,0.013 -5.563,-1.29 -7.47,-3.306 -1.751,-1.85 -3.307,-2.071 -5.454,-1.162 -2.066,0.875 -4.167,1.707 -6.32,2.325 -2.829,0.812 -5.952,0.945 -8.376,-0.568 -3.137,-1.96 -6.138,-4.424 -6.81,-8.557 -0.223,-1.368 -0.614,-2.708 -1.034,-4.518 -3.067,-0.153 -6.359,-0.522 -9.638,-0.428 -4.074,0.117 -8.136,0.625 -12.205,0.948 -2.13,0.168 -4.265,0.266 -6.393,0.457 -6.355,0.571 -12.701,1.238 -19.062,1.735 -3.259,0.255 -6.545,0.142 -9.809,0.355 -2.713,0.177 -5.419,0.53 -8.113,0.913 -2.604,0.371 -5.184,0.924 -7.79,1.278 -0.356,0.049 -1.032,-0.507 -1.175,-0.917 -1.018,-2.936 -1.966,-5.897 -2.869,-8.871 -0.268,-0.881 -0.155,-1.896 -0.505,-2.728 -0.642,-1.527 -1.498,-2.963 -2.356,-4.613 -1.844,2.364 -3.229,4.67 -4.047,7.396 -0.866,2.888 -2.036,5.697 -3.242,8.468 -1.84,4.226 -3.916,8.351 -5.712,12.595 -1.023,2.417 -0.368,3.568 1.648,5.223 3.867,3.177 7.659,6.451 11.385,9.794 2.697,2.42 5.251,5.002 7.841,7.54 0.928,0.91 1.776,1.901 2.661,2.855 l 0.66,-0.385 c -0.301,-5.596 -0.602,-11.192 -0.911,-16.921 3.377,-1.014 6.411,-2.611 10.046,-2.368 0.838,0.056 1.987,-0.652 3.2,-0.774 5.707,-0.571 11.373,-1.532 17.07,-2.222 2.411,-0.292 4.875,-0.141 7.291,-0.41 2.42,-0.269 4.801,-0.879 7.218,-1.198 1.016,-0.134 2.081,0.073 3.121,0.166 0.935,0.083 1.863,0.249 2.799,0.332 4.237,0.375 8.483,0.667 12.712,1.118 3.501,0.374 6.98,1.304 10.473,1.321 6.195,0.03 12.138,1.86 18.23,2.186 5.003,0.268 9.627,1.88 14.433,2.81 4.451,0.861 8.871,1.908 13.256,3.058 1.466,0.384 2.713,1.645 4.18,1.977 5.243,1.189 9.78,4.048 14.723,5.925 1.189,0.451 2.455,0.698 3.661,1.109 C -6.844,-2.408 -3.641,-1.272 0,0"
             style="fill:#ffffff;fill-opacity:1;fill-rule:nonzero;stroke:none"
             id="path68" />
        </g>
        <g
           id="g70"
           transform="translate(150.11,250.3092)">
          <path
             d="m 0,0 c 3.379,0.643 6.889,-1.85 10.713,-2.998 3.634,-1.09 5.803,-4.199 8.412,-6.697 4.079,-3.904 5.406,-9.004 5.667,-14.246 0.213,-4.269 -0.316,-8.655 -1.15,-12.864 -0.516,-2.612 -2.208,-4.993 -3.386,-7.471 -0.483,-1.015 -0.935,-2.053 -1.516,-3.011 -1.631,-2.689 -3.501,-5.247 -6.444,-6.563 -2.75,-1.23 -5.621,-2.228 -8.508,-3.102 -2.841,-0.861 -5.743,-1.589 -8.669,-2.074 -1.461,-0.241 -3.038,0.152 -4.554,0.332 -1.21,0.144 -2.434,0.303 -3.604,0.629 -1.46,0.406 -3.082,0.698 -4.26,1.555 -2.712,1.971 -5.128,4.344 -7.792,6.385 -2.658,2.036 -4.092,4.778 -4.953,7.862 -0.945,3.381 -1.775,6.799 -2.513,10.231 -0.203,0.946 0.015,2.018 0.194,3.004 0.428,2.36 0.78,4.754 1.472,7.041 0.969,3.204 2.421,6.154 5.023,8.481 2.471,2.208 4.605,4.797 7.11,6.96 1.695,1.464 3.805,2.439 5.679,3.707 C -9.374,-0.332 -5.154,-0.197 0,0"
             style="fill:#e14b52;fill-opacity:1;fill-rule:nonzero;stroke:none"
             id="path72" />
        </g>
        <g
           id="g74"
           transform="translate(187.1595,214.3493)">
          <path
             d="m 0,0 c -1.54,-0.261 -2.97,-0.503 -4.605,-0.781 0.028,1.546 0.832,2.657 2.041,3.08 C -0.843,2.901 -0.445,1.407 0,0"
             style="fill:#292929;fill-opacity:1;fill-rule:nonzero;stroke:none"
             id="path76" />
        </g>
        <g
           id="g78"
           transform="translate(110.8866,187.9668)">
          <path
             d="M 0,0 C -0.043,0.925 -0.448,2.416 -0.059,2.665 0.951,3.31 2.285,3.908 3.802,2.892 2.666,1.773 1.615,0.739 0.565,-0.295 0.377,-0.197 0.188,-0.098 0,0"
             style="fill:#292929;fill-opacity:1;fill-rule:nonzero;stroke:none"
             id="path80" />
        </g>
      </g>
    </g>
  </g>
</svg>
