<svg xmlns="http://www.w3.org/2000/svg" width="427.68" height="371.52"><defs><clipPath id="a"><path d="M0 0h320.76v278.64H0z"/></clipPath></defs><g clip-path="url(#a)" transform="matrix(1.33333 0 0 -1.33333 0 371.52)"><g fill="#292929"><path d="m238.058 173.803-10.06-3.505-3.661-1.109c-4.943-1.877-9.48-4.736-14.723-5.925-1.467-.332-2.714-1.593-4.18-1.977-4.385-1.15-8.805-2.197-13.256-3.058-4.806-.93-9.43-2.542-14.433-2.81-6.092-.326-12.035-2.156-18.23-2.186-3.493-.017-6.972-.947-10.473-1.321-4.229-.451-8.475-.743-12.712-1.118-.936-.083-1.864-.249-2.799-.332-1.04-.093-2.105-.3-3.121-.166-2.417.319-4.798.929-7.218 1.198s-4.88.118-7.291.41c-5.697.69-11.363 1.651-17.07 2.222-1.213.122-2.362.83-3.2.774-3.635-.243-6.669 1.354-10.046 2.368l.911 16.921-.66.385c-.885-.954-1.733-1.945-2.661-2.855-2.59-2.538-5.144-5.12-7.841-7.54a345.227 345.227 0 0 0-11.385-9.794c-2.016-1.655-2.671-2.806-1.648-5.223 1.796-4.244 3.872-8.369 5.712-12.595 1.206-2.771 2.376-5.58 3.242-8.468.818-2.726 2.203-5.032 4.047-7.396.858 1.65 1.714 3.086 2.356 4.613.35.832.237 1.847.505 2.728a239.264 239.264 0 0 0 2.869 8.871c.143.41.819.966 1.175.917 2.606-.354 5.186-.907 7.79-1.278 2.694-.383 5.4-.736 8.113-.913 3.264-.213 6.55-.1 9.809-.355l19.062-1.735c2.128-.191 4.263-.289 6.393-.457 4.069-.323 8.131-.831 12.205-.948 3.279-.094 6.571.275 9.638.428.42 1.81.811 3.15 1.034 4.518.672 4.133 3.673 6.597 6.81 8.557 2.424 1.513 5.547 1.38 8.376.568 2.153-.618 4.254-1.45 6.32-2.325 2.147-.909 3.703-.688 5.454 1.162 1.907 2.016 4.418 3.319 7.47 3.306 2.504-.011 4.743-.613 6.798-1.957 1.103-.722 2.063-.834 3.057.172 4.151 4.198 10.424 3.791 14.728.408.759-.597 1.252-.873 1.965.127 1.152 1.614 2.664 2.849 4.764 2.935 2.151.088 4.294.304 6.157-1.355 1.749-1.558 3.768-1.56 5.769-.382.354.208.684.47 1.058.626l13.948 5.818c1.516.663 2.611.288 3.63-.741.603-.607 1.199-1.278 1.588-2.029l4.408-8.799c.667-1.271 1.519-2.469 2.483-3.038.184 1.205.174 2.369.552 3.389 1.19 3.216 2.341 6.469 3.845 9.542 2.642 5.395 3.299 11.327 4.903 16.996 1.185 4.185 1.922 8.496 2.891 12.896-.528.103-.907.229-1.291.243l-10.721.407c-2.099.129-4.191.469-6.273.802l-12.062 2.033-6.064.988c-1.969.36-3.924.796-5.886 1.199l-.317-.392c4.419-3.861 4.331-9.79 7.447-14.445m-48.266-46.765c-1.804.144-2.576.929-2.97 2.615-.766 3.28-2.264 6.277-4.438 8.776-1.247 1.434-3.055 2.589-4.838 3.3-2.563 1.021-5.352 1.459-8.008 2.266-2.348.713-4.619.568-6.434-1.012-1.331-1.159-2.243-2.809-3.301-4.27-2.01-2.778-2.052-5.995-1.814-9.197.113-1.525.971-3.018.965-4.524-.011-2.562 1.076-4.706 2.169-6.811 1.482-2.854 3.32-5.522 4.941-8.307.883-1.517 2.104-3.042 2.346-4.685.47-3.194 1.22-6.539-.607-9.637l-2.215-3.685c-.93-1.627-2.277-1.334-3.897-1.358-3.163-.045-5.502 1.428-7.832 3.116-3.603 2.609-6.947 5.636-11.328 6.965-2.294.696-4.574 1.563-6.926 1.916-4.483.672-7.751-1.751-10.637-4.806-1.673-1.772-2.924-4.056-2.383-6.316.66-2.758 2.17-5.344 3.531-7.889.48-.899 1.685-1.379 2.412-2.184 1.561-1.73 3.483-2.446 5.769-2.592 1.431-.091 2.873-.41 4.252-.82 1.834-.545 3.614-1.268 5.411-1.933 2.71-1.002 5.704-1.031 8.018-3.357 2.285-2.296 5.106-4.062 7.718-6.025.45-.339 1.021-.53 1.556-.738 1.944-.759 3.863-1.167 5.421-3.061 1.562-1.901 4.05-3.172 6.75-3.432 2.583-.249 5.191-.339 7.748-.748 4.093-.656 8.117-.751 12.156.356 1.638.45 3.445.364 5.022.94 2.867 1.047 5.577 2.514 8.43 3.606 2.968 1.137 6.04 1.998 9.044 3.048 4.986 1.742 10.014 3.388 14.9 5.382 2.069.844 3.808 2.582 4.316 4.926.703 3.249 1.166 6.552 1.671 9.841.221 1.441-.055 3.052.491 4.332 1.923 4.508 1.642 9.309 2.105 13.994.28 2.824-.102 5.71-.09 8.567.012 2.924-.149 5.894.306 8.757.427 2.683-.752 4.873-1.392 7.213-.679 2.485-1.738 4.876-2.743 7.261-1.081 2.567-1.705 5.524-4.941 6.479-.254.075-.44.377-.66.572-1.814 1.614-3.021 4.113-6.02 3.984-1.426-.062-2.99.292-3.943-1.122-1.048-1.554-2.71-2.961-1.012-5.216.883-1.172 1.249-2.732 1.848-4.117l-.535-.44c-.769.278-2.083.395-2.219.859-.805 2.729-2.946 4.464-4.668 6.436-1.223 1.401-3.047 3.01-4.706 3.132-2.87.211-5.609-1.096-7.668-3.393 2.925-3.23 4.808-6.816 5.454-11.097-.865.128-1.529.125-2.109.345-.494.187-1.213.578-1.277.97-.373 2.294-.551 2.608-1.908 4.834-1.158 1.898-2.745 3.281-4.36 4.758-3.131 2.862-9.609 2.829-13.089-.618-.414-.409-.913-1.216.01-2.067 4.044-3.73 5.2-8.78 6.208-14.089m44.905 48.526c-1.844 5.326-4.563 10.038-7.855 14.654 1.222 1.754 3.202 1.047 4.768.818 6.171-.903 12.299-2.094 18.453-3.115l14.058-2.146c2.414-.309 4.877-.225 7.315-.371.932-.055 1.963-.049 2.748-.457.587-.304 1.185-1.226 1.189-1.877.007-1.263-.372-2.535-.64-3.793l-2.18-10.024c-.496-2.328-.791-4.712-1.463-6.986-.763-2.582-1.884-5.056-2.782-7.601l-4.038-11.684c-.666-1.851-1.391-3.712-2.391-5.389-.219-.368-1.956-.301-2.567.147-.84.616-1.332 1.755-1.869 2.726l-5.657 10.323c-.738 1.28-2.78 1.725-4.184 1.006-1.121-.573-2.083-1.453-3.186-2.072-.517-.29-1.231-.205-1.8-.43l-9.399-3.802c1.092-1.663 2.327-3.246 3.244-4.996 2.725-5.201 4.617-10.707 5.48-16.531.537-3.618.819-7.243.069-10.886-.189-.92-.005-1.91-.072-2.863-.351-5.019-.241-10.135-1.237-15.024-.935-4.595-1.762-9.179-2.42-13.816-.415-2.929-1.27-5.795-1.908-8.601l-3.336-2.088c-1.198-.765-2.304-1.735-3.591-2.285a80.738 80.738 0 0 0-7.858-2.898c-3.495-1.081-7.109-1.794-10.564-2.98-3.305-1.135-6.451-2.727-9.71-4.008-1.492-.587-3.091-.901-4.636-1.357a28.68 28.68 0 0 0-8.538-1.173c-1.838.022-3.698-.37-5.514-.203-3.618.334-7.228.835-10.812 1.436-3.087.518-5.504 2.238-7.529 4.622-.548.646-1.515 1.061-2.369 1.299-3.105.865-5.286 3.123-7.751 4.953-3.022 2.244-5.818 4.757-9.756 5.516-4.154.801-8.262 1.897-12.327 3.083-3.233.944-5.749 3.114-7.927 5.619-2.033 2.337-3.928 4.854-3.85 8.123.045 1.897.35 3.898 1.052 5.646 1.816 4.53 5.401 7.039 10.045 8.406 2.133.627 3.939.508 5.934-.288 1.533-.613 3.205-.902 4.835-1.24 4.048-.841 7.168-3.289 10.338-5.728a53.913 53.913 0 0 1 6.398-4.235c1.795-1.011 5.497.748 6.335 2.635.962 2.168 1.391 4.426 1.441 6.758.08 3.749-2.371 6.276-4.615 8.774-1.431 1.594-2.64 3.253-3.22 5.263-1.171 4.054-2.193 8.152-3.243 12.24-.093.36.057.783.105 1.289-6.661 0-13.312-.083-19.961.032-3.903.068-7.956-.116-11.65.886-2.668.724-5.091.534-7.67.593-2.536.059-4.998.749-7.305 2.061-.842.479-2.221-.009-3.355-.018-2.814-.023-5.631-.104-8.442-.009-2.337.079-4.67.338-6.998.589-1.303.14-2.612.34-3.88.662-2.968.753-3.998.042-4.78-2.797-.908-3.296-2.123-6.508-3.211-9.754-.455-1.358-.814-2.764-1.434-4.043a3.67 3.67 0 0 0-1.748-1.643c-.352-.148-1.3.409-1.562.879a40.765 40.765 0 0 0-2.391 5.021c-1.574 4.037-2.913 8.169-4.599 12.156-1.448 3.424-3.555 6.593-4.752 10.086-.559 1.629-2.337 3.041-1.522 5.105.028.07-.086.202-.144.298-1.662 2.777.242 4.35 2.045 5.896 3.383 2.901 6.917 5.635 10.188 8.655 2.89 2.669 5.474 5.666 8.256 8.455a164.683 164.683 0 0 0 6.528 6.173c.336.303 1.263.411 1.572.168.418-.327.664-1.072.694-1.653.041-.795-.229-1.6-.299-2.407l-1.069-12.828c-.083-1.093-.012-2.198-.012-3.298l-.458-.47c2.069-.599 4.108-1.357 6.214-1.764 3.668-.709 7.374-1.227 11.071-1.772 1.46-.216 2.948-.244 4.412-.438 3.197-.425 6.376-.998 9.582-1.322 2.069-.209 4.171-.086 6.259-.105 1.101-.009 2.204-.034 3.304.003l18.254.651c2.314.091 4.632.191 6.934.427 2.326.238 4.633.657 6.95.981 1.104.155 2.216.252 3.318.413l7.276 1.09c3.686.506 7.394.873 11.061 1.49 2.464.415 4.862 1.204 7.307 1.75l13.21 2.876c2.27.519 4.57 1.023 6.735 1.852 2.44.934 4.708 2.306 7.114 3.341 3.157 1.359 6.382 2.561 9.566 3.857l8.379 3.486m-84.587 74.745c-5.154-.197-9.374-.332-13.079-2.839-1.874-1.268-3.984-2.243-5.679-3.707-2.505-2.163-4.639-4.752-7.11-6.96-2.602-2.327-4.054-5.277-5.023-8.481-.692-2.287-1.044-4.681-1.472-7.041-.179-.986-.397-2.058-.194-3.004.738-3.432 1.568-6.85 2.513-10.231.861-3.084 2.295-5.826 4.953-7.862 2.664-2.041 5.08-4.414 7.792-6.385 1.178-.857 2.8-1.149 4.26-1.555 1.17-.326 2.394-.485 3.604-.629 1.516-.18 3.093-.573 4.554-.332 2.926.485 5.828 1.213 8.669 2.074 2.887.874 5.758 1.872 8.508 3.102 2.943 1.316 4.813 3.874 6.444 6.563.581.958 1.033 1.996 1.516 3.011 1.178 2.478 2.87 4.859 3.386 7.471.834 4.209 1.363 8.595 1.15 12.864-.261 5.242-1.588 10.342-5.667 14.246-2.609 2.498-4.778 5.607-8.412 6.697-3.824 1.148-7.334 3.641-10.713 2.998m-3.384 2.472c9.006-.107 14.943-2.635 20.397-6.734 3.561-2.676 6.42-5.802 8.112-9.93 1.817-4.434 3.305-8.914 1.954-13.817-.207-.753.026-1.617-.087-2.409-.37-2.604-.522-5.285-1.277-7.78-1.52-5.017-4.092-9.552-7.339-13.676-.507-.644-1.346-1.016-1.923-1.618-3.129-3.261-7.224-4.56-11.403-5.701-1.849-.505-3.679-1.289-5.557-1.43-2.935-.221-5.72-1.16-8.815-.897-3.129.266-5.681 1.773-8.548 2.509-.883.227-1.526 1.27-2.365 1.802-3.298 2.092-6.013 4.862-8.589 7.713-2.225 2.462-3.534 5.537-4.564 8.723-1.248 3.864-1.565 7.859-1.388 11.822.155 3.462 1.249 6.765 2.918 9.936 1.014 1.929 1.853 3.854 3.385 5.475 2.036 2.151 3.673 4.72 5.878 6.659 2.581 2.27 5.457 4.283 8.442 5.994 3.938 2.256 8.284 3.409 10.769 3.359m-35.839-64.814.565-.295 3.237 3.187c-1.517 1.016-2.851.418-3.861-.227-.389-.249.016-1.74.059-2.665m76.273 26.383c-.445 1.407-.843 2.901-2.564 2.299-1.21-.423-2.013-1.534-2.042-3.08l4.606.781m-73.334-26.97c-1.552-1.722-2.264-4.368-5.637-3.645.159.765.451 1.538.453 2.311.004 1.283-.169 2.568-.285 3.85-.28 3.098-.004 3.421 3.081 3.439l7.192-.023c.567-.011 1.128-.268 1.926-.472l-4.108-3.782 1.93-3.204c1.801-3.174 4.766-4.489 8.141-5.196 1.416-.297 2.798-.827 4.224-.984 2.274-.25 4.573-.255 6.858-.406.807-.054 1.603-.261 2.409-.347 3.952-.425 7.724.722 11.454 1.642a95.76 95.76 0 0 1 13.175 4.279c2.439.993 4.659 2.701 6.724 4.396 2.926 2.403 5.829 4.904 8.33 7.728 1.474 1.664 2.196 4.013 3.166 6.096.379.814.511 1.744.666 2.304l-.249 3.108c-.036.782.096 1.587-.048 2.343-.051.268-.712.618-1.071.594-1.27-.086-2.53-.318-4.412-.581l4.052 6.107c.825 1.214 1.368 2.785 3.219 2.829.422.01 1.032.107 1.237-.122 1.074-1.202 2.018-2.519 3.062-3.749.658-.775 1.411-1.469 2.127-2.204l-1.726-1.522h-5.035c1.879-2.12 1.115-4.389.961-6.436-.141-1.881-1.112-3.689-1.621-5.556-.67-2.453-1.981-4.449-3.886-6.118l-9.094-8.067c-1.346-1.129-2.837-2.118-4.805-2.174-.748-.021-1.421-.997-2.219-1.291-2.199-.809-4.441-1.504-6.675-2.215l-8.022-2.486c-4.625-1.292-9.343-.862-14.069-.811-4.683.049-9.045 1.278-13.36 2.74-3.349 1.135-6.224 3.058-7.409 6.719-.084.26-.332.468-.656.906m36.86-145.771 2.755.502c1.44.375 2.914.7 4.275 1.277 1.423.604 1.473 1.914.259 2.863-1.513 1.183-5.023.459-6.671-1.403-.88-.995-1.627-2.043-.618-3.239m1.388-2.302c.34-2.863 2.397-4.896 1.196-7.624-1.595-.329-2.154.463-2.451 1.982a24.67 24.67 0 0 1-1.539 4.957c-.794 1.853-1.855 3.591-2.774 5.391-.177.348-.444.98-.316 1.1 1.043.968 2.358 2.741 3.231 2.558 1.649-.346 2.653.504 3.789.998 2.603 1.132 4.918.349 6.94-1.034 2.268-1.552 1.124-5.462-1.878-6.608-1.442-.552-3.015-.76-4.52-1.156-.637-.167-1.252-.418-1.678-.564M262.867 69.51l2.662 1.3c2.187.771 2.715 1.486 2.15 3.64-.227.864-.774 1.719-1.381 2.392-1.864 2.065-4.528 2.242-6.597.538l-1.514-1.375 4.68-6.495m-1.547-2.457c-.546.942-1.012 1.944-1.655 2.814l-4.039 5.093c-1.477 1.64-1.531 1.642.387 2.594.517.257.975.667 1.402 1.068 2.74 2.572 5.858 2.856 9.133.951 2.707-1.574 4.484-4.29 3.401-8.024-.316-1.093-1.419-2.198-2.453-2.781-1.234-.694-2.505-2.203-4.292-.881-.21.155-.895-.329-1.359-.517l-.525-.317m-38.022-11.669.939-4.538c-.255-.146-.905-.81-1.485-.754-.425.042-.849.991-1.115 1.604l-3.656 8.67c1.393 1.277 2.406 1.104 3.064-.524.883-2.183 1.045-2.302 3.035-1.482 1.267.522 2.465 1.213 3.703 1.833l-2.008 3.966c-.378.764-.487 1.672.511 1.839.611.102 1.714-.314 1.953-.808l3.701-8.532c.285-.69.441-1.445.566-2.185.099-.579.28-1.326.015-1.728-.24-.362-1.232-.655-1.542-.45-.563.373-.941 1.103-1.253 1.753a3.7 3.7 0 0 0-.364 1.677c.087 2.204-.83 2.019-2.342 1.181-1.205-.669-2.563-1.06-3.722-1.522M166.51 41.591c1.547.223 3.352 1.793 3.364 3.146.006.719-.445 1.659-1.004 2.086-.354.27-1.423-.04-1.937-.413-1.024-.743-1.883-1.681-.985-3.142.292-.475.37-1.081.562-1.677m1.089-2.454.343-3.939-1.859-.123-3.04 9.786 1.83.16c-.742 1.608.24 3.682 2.087 4.405 1.627.637 4.129-.577 4.819-2.113 1.114-2.479-.231-4.307-1.524-6.323l5.338-3.007c.497-.314.699-1.095 1.036-1.662-.708-.168-1.557-.672-2.099-.445-2.176.911-4.254 2.052-6.375 3.095-.245.121-.531.159-.556.166M184.466 52.066c-.585-.787-.853-1.431-1.336-1.742-1.229-.792-2.667-1.294-3.798-2.193-.628-.5-.81-1.563-1.193-2.372l.6-.569 1.75.718c.982.406 1.938.923 2.959 1.16.34.078 1.015-.485 1.209-.905.11-.239-.352-.926-.718-1.164-1.062-.692-2.169-1.338-3.324-1.857-1.877-.843-.359-2.102-.477-3.155.664.035 1.36-.049 1.984.126 1.881.526 3.605 1.81 5.76 1.086.439-1.675-1.003-1.915-1.963-2.385-1.415-.692-2.916-1.207-4.379-1.802-1.575-.64-2.797-.091-3.306 1.497l-2.483 7.929c-.351 1.357-.106 2.665 1.478 3.473 2.1 1.071 4.019 2.553 7.237 2.155m58.222 10.255c-.121 3.605-1.76 3.601-4.2 2.726-.572-.205-1.006-.881-1.423-1.405-.351-.443-.836-.983-.827-1.473.03-1.74 1.472-2.98 3.258-2.853 2.322.165 3.209.934 3.192 3.005m-8.585 4.137 4.755.897c2.53.554 4.878-.155 5.613-1.753 1.344-2.925.53-6.426-1.778-8.046-3.775-2.648-6.317-.17-8.303 2.606-1.436 2.008-.396 4.16-.287 6.296M201.978 44.808l3.673.936c.632.212 1.645.719 1.647 1.097.004.911-.237 2.097-.85 2.656-.568.517-1.745.37-2.656.503-1.123.165-2.387.046-3.343.534-1.796.917-1.142 2.873-.824 4.167.371 1.512 1.794 2.654 3.535 2.813.894.082 1.82-.181 2.865-.303l-.552-1.647c-.955-.192-1.959-.194-2.735-.617-.535-.291-.754-1.163-1.114-1.776.559-.215 1.186-.711 1.663-.595 2.02.493 3.596-.137 5.041-1.499 1.41-1.328 1.927-3.015 1.441-4.752-.476-1.702-1.934-2.701-3.651-3.198-1.619-.468-3.147-.621-4.14 1.681m-6.977 8.547-4.812-2.357c-.115-1.832.328-2.18 2.194-2.486 1.457-.24 2.914-.807 4.228-1.5 1.136-.599 1.358-4.125.57-5.758-.809-1.675-2.366-1.461-3.739-1.292-.463.056-.817 1-1.22 1.539.431.287.829.663 1.301.84.618.232 1.294.306 1.945.448-.384.966-.514 2.255-1.221 2.81-.776.609-2.077.681-3.161.733-1.328.064-2.569.233-3.003 1.636-.482 1.556-.17 3.151.966 4.3.846.855 2.054 1.348 3.086 2.024s1.883.496 2.866-.937m55.097 10.114 3.345 1.084c.93.327 1.812.858 2.764 1.029.698.126 1.475-.183 2.216-.298l.175-.878-6.336-2.863c-.468-.207-1.015-.241-1.474-.463-1.589-.769-2.46.056-3.003 1.387l-3.123 8.166c-.144.422.507 1.116.79 1.684.66-.35 1.698-.546 1.915-1.077 1.008-2.459 1.787-5.011 2.731-7.771"/></g><path fill="#fff" d="M238.058 173.803c-3.116 4.655-3.028 10.584-7.447 14.445l.317.392 5.886-1.199c2.015-.367 4.045-.649 6.064-.988l12.062-2.033c2.082-.333 4.174-.673 6.273-.802 3.569-.22 7.147-.269 10.721-.407.384-.014.763-.14 1.291-.243-.969-4.4-1.706-8.711-2.891-12.896-1.604-5.669-2.261-11.601-4.903-16.996-1.504-3.073-2.655-6.326-3.845-9.542-.378-1.02-.368-2.184-.552-3.389-.964.569-1.816 1.767-2.483 3.038-1.523 2.905-2.9 5.886-4.408 8.799-.389.751-.985 1.422-1.588 2.029-1.019 1.029-2.114 1.404-3.63.741-4.614-2.019-9.297-3.881-13.948-5.818-.374-.156-.704-.418-1.058-.626-2.001-1.178-4.02-1.176-5.769.382-1.863 1.659-4.006 1.443-6.157 1.355-2.1-.086-3.612-1.321-4.764-2.935-.713-1-1.206-.724-1.965-.127-4.304 3.383-10.577 3.79-14.728-.408-.994-1.006-1.954-.894-3.057-.172-2.055 1.344-4.294 1.946-6.798 1.957-3.052.013-5.563-1.29-7.47-3.306-1.751-1.85-3.307-2.071-5.454-1.162-2.066.875-4.167 1.707-6.32 2.325-2.829.812-5.952.945-8.376-.568-3.137-1.96-6.138-4.424-6.81-8.557-.223-1.368-.614-2.708-1.034-4.518-3.067-.153-6.359-.522-9.638-.428-4.074.117-8.136.625-12.205.948l-6.393.457-19.062 1.735c-3.259.255-6.545.142-9.809.355-2.713.177-5.419.53-8.113.913-2.604.371-5.184.924-7.79 1.278-.356.049-1.032-.507-1.175-.917a239.264 239.264 0 0 1-2.869-8.871c-.268-.881-.155-1.896-.505-2.728-.642-1.527-1.498-2.963-2.356-4.613-1.844 2.364-3.229 4.67-4.047 7.396-.866 2.888-2.036 5.697-3.242 8.468-1.84 4.226-3.916 8.351-5.712 12.595-1.023 2.417-.368 3.568 1.648 5.223a345.227 345.227 0 0 1 11.385 9.794c2.697 2.42 5.251 5.002 7.841 7.54.928.91 1.776 1.901 2.661 2.855l.66-.385-.911-16.921c3.377-1.014 6.411-2.611 10.046-2.368.838.056 1.987-.652 3.2-.774 5.707-.571 11.373-1.532 17.07-2.222 2.411-.292 4.875-.141 7.291-.41s4.801-.879 7.218-1.198c1.016-.134 2.081.073 3.121.166.935.083 1.863.249 2.799.332l12.712 1.118c3.501.374 6.98 1.304 10.473 1.321 6.195.03 12.138 1.86 18.23 2.186 5.003.268 9.627 1.88 14.433 2.81 4.451.861 8.871 1.908 13.256 3.058 1.466.384 2.713 1.645 4.18 1.977 5.243 1.189 9.78 4.048 14.723 5.925 1.189.451 2.455.698 3.661 1.109l10.06 3.505"/><path fill="#e14b52" d="M150.11 250.309c3.379.643 6.889-1.85 10.713-2.998 3.634-1.09 5.803-4.199 8.412-6.697 4.079-3.904 5.406-9.004 5.667-14.246.213-4.269-.316-8.655-1.15-12.864-.516-2.612-2.208-4.993-3.386-7.471-.483-1.015-.935-2.053-1.516-3.011-1.631-2.689-3.501-5.247-6.444-6.563-2.75-1.23-5.621-2.228-8.508-3.102-2.841-.861-5.743-1.589-8.669-2.074-1.461-.241-3.038.152-4.554.332-1.21.144-2.434.303-3.604.629-1.46.406-3.082.698-4.26 1.555-2.712 1.971-5.128 4.344-7.792 6.385-2.658 2.036-4.092 4.778-4.953 7.862a173.576 173.576 0 0 0-2.513 10.231c-.203.946.015 2.018.194 3.004.428 2.36.78 4.754 1.472 7.041.969 3.204 2.421 6.154 5.023 8.481 2.471 2.208 4.605 4.797 7.11 6.96 1.695 1.464 3.805 2.439 5.679 3.707 3.705 2.507 7.925 2.642 13.079 2.839"/><path fill="#292929" d="m187.16 214.349-4.605-.781c.028 1.546.832 2.657 2.041 3.08 1.721.602 2.119-.892 2.564-2.299m-76.273-26.382c-.043.925-.448 2.416-.059 2.665 1.01.645 2.344 1.243 3.861.227l-3.237-3.187-.565.295"/></g></svg>