<svg xmlns="http://www.w3.org/2000/svg" width="415.2" height="395.52"><defs><clipPath id="a"><path d="M0 0h311.4v296.64H0z"/></clipPath></defs><g clip-path="url(#a)" transform="matrix(1.33333 0 0 -1.33333 0 395.52)"><g fill="#2c2c2c"><path d="M121.718 137.674c0-1.498-.193-3.025.035-4.488.797-5.121 3.24-9.388 6.758-13.194 1.263-1.367 2.666-1.027 4.029-1.327 2.792-.616 5.592-1.285 8.425-1.601 3.203-.357 6.256.589 9.214 1.792 3.083 1.254 6.224 2.381 9.24 3.777 1.251.579 2.37 1.597 3.322 2.625.9.972 1.054 2.134.094 3.386-.834 1.087-1.352 2.413-2.049 3.61-2.357 4.056-1.144 7.874 1.38 11.12 1.466 1.886 1.854 3.145.963 5.4-1.764 4.459-5.113 7.116-9.25 8.822-4.042 1.668-8.43 1.491-12.739 1.509-4.028.018-7.588-1.634-10.679-3.82-5.962-4.215-9.14-10.101-8.743-17.611m134.601-68.836c0 1.027.104 2.043-.021 3.03a144.185 144.185 0 0 1-1.066 6.944l-2.136 11.552-1.295 6.628-1.85 9.314c-.21 1.157-.112 2.368-.3 3.531-.174 1.085-.746 2.132-.78 3.207-.066 2.151-.464 3.999-2.029 5.691-3.036 3.283-5.36 7.186-9.559 9.396-1.518.799-2.207.603-3.105-.379l6.36-8.638-1.926-1.996c-1.119 1.318-2.258 2.133-2.645 3.216-1.008 2.828-2.838 4.945-5.244 6.494-2.71 1.746-5.728 2.67-8.996 1.658-1.218-.377-1.734-1.621-1.168-2.442l6.35-9.362c.382-.597.447-1.719.138-2.342-.272-.549-1.079-1.767-1.997-.796-.809.855-1.538 1.992-1.8 3.121-.894 3.843-3.534 6.484-6.04 9.213-.549.597-1.493 1.045-2.306 1.146-2.632.326-5.169.453-7.934-.102-2.852-.572-4.114-1.836-4.906-4.131.366-.424.742-.782 1.026-1.203l5.981-9.015c.253-.403.053-1.322-.255-1.795-.492-.758-1.194-.574-1.687.141l-3.347 4.921c-1.196 1.771-2.248 3.66-3.608 5.293-1.774 2.13-3.723 4.129-5.72 6.056-2.207 2.13-4.371 4.385-6.888 6.093-2.915 1.978-6.183 3.44-9.321 5.082-.872.456-1.96.58-2.718 1.158-2.992 2.285-6.549 2.232-10.006 2.587-.456.047-1.091-.241-1.421-.586-2.556-2.675-2.313-7.68.199-10.058.248-.235.59-.386.797-.648l8.596-10.895c.527-.666 1.149-1.258 1.671-1.928l5.579-7.226 6.48-8.27c.599-.782 1.016-1.702 1.541-2.542 2.471-3.957 6.111-7.133 7.752-11.643.544-1.493 1.239-2.948 1.614-4.482.403-1.645-1.422-3.525-3.125-3.591-3.818-.147-7.547.104-10.952 2.081-3.795 2.203-7.804 3.369-12.233 2.63-.676-.112-1.378-.2-2.056-.147-2.609.204-4.885-1.4-5.464-3.656-.112-.439-.614-.778-.979-1.215.224-1.195.119-2.713.777-3.745 1.646-2.578 3.839-4.638 7.054-5.241 3.72-.699 7.462-1.317 11.131-2.228 2.668-.662 5.447-1.145 7.706-3.01.964-.797 2.157-1.346 3.303-1.885 1.831-.86 3.737-1.563 5.56-2.439 1.439-.692 2.759-2.096 4.206-2.208 2.995-.231 6.039.182 9.062.346.928.051 1.926.42 2.765.187 3.421-.946 6.902-1.816 10.148-3.207 2.482-1.064 4.848-1.447 7.438-.996 3.871.676 7.715 1.608 11.073 3.638 3.108 1.88 5.939 4.228 8.838 6.442 1.361 1.04 2.594 2.249 3.738 3.251m-55.897 56.535c1.855 4.292 5.656 4.775 9.612 4.972 2.8.139 5.513-.183 8.314-1.473 2.503 3.54 6.396 3.766 9.886 2.359 2.49-1.004 4.188-.932 6.476.069 1.187.519 2.969.538 4.137-1.124.564-.802 1.909-1.02 2.825-1.618 2.307-1.508 3.645-3.837 5.127-6.072.85-1.281 2.176-2.237 3.099-3.48.803-1.08 1.675-2.29 1.931-3.561.705-3.487 1.092-7.038 1.622-10.56l1.42-9.188 1.48-9.389c.659-3.59 1.538-7.14 2.15-10.736.343-2.015.331-4.09.5-6.136.043-.522.167-1.037.253-1.555l.493-.238-9.222-7.132c-2.005-1.464-4.148-2.755-6.304-3.994-3.065-1.763-6.457-2.572-9.898-3.303-5.288-1.123-9.95.795-14.634 2.694-3.004 1.217-6.113.792-9.145.507-5.014-.473-9.521.456-13.704 3.362-2 1.39-4.271 2.43-6.511 3.422-3.56 1.576-7.193 2.992-10.808 4.443-.535.214-1.138.294-1.719.353-2.627.268-5.306.273-7.875.809-4.111.858-7.01 3.558-8.505 7.366-1.699 4.326 1.555 10.057 6.241 10.886 3.571.631 7.192.692 10.911-.124 3.336-.733 6.093-2.478 9.159-3.632 1.343-.506 2.917-.425 4.391-.542.89-.072 1.791-.014 2.784-.014.259 1.74.928 3.341-1.065 4.588-.544.34-.308 1.745-.787 2.402-2.159 2.966-4.489 5.808-6.677 8.754-2.543 3.424-4.887 7.003-7.529 10.347-3.578 4.53-7.363 8.896-11.042 13.348-.283.343-.392.824-.633 1.209-.906 1.447-1.57 1.252-2.798.141-1.697-1.535-3.574-3.048-5.643-3.957-4.085-1.796-8.284-3.425-12.577-4.614-2.252-.624-4.82-.371-7.211-.146-2.471.231-5.027.585-7.314 1.48-2.261.884-4.401 2.115-6.285 3.917-2.62 2.506-4.305 5.266-5.154 8.78-.631 2.612-1.322 5.172-.997 7.858.456 3.756-.03 7.726 2.068 11.138 1.277 2.078 3.004 3.941 4.32 5.907 2.34 3.497 6.056 4.505 9.195 6.451 1.873 1.161 4.462 1.188 6.742 1.659.979.202 2.033.474 2.982.306 3.254-.574 6.489-1.276 9.708-2.028 3.53-.825 6.303-3.085 8.559-5.662 1.701-1.942 2.783-4.552 3.676-7.032.597-1.66 1.185-2.605 3.016-3.051 2.554-.623 4.929-2.14 7.493-2.527 3.639-.549 6.254-2.955 9.33-4.453 2.595-1.263 4.678-3.6 6.944-5.513 2.194-1.853 4.339-3.764 6.487-5.671.282-.251.449-.63.706-1.002M67.955 62.933l-1.763-5.938.614-.228 1.527 4.345c.292-.517.389-.994.276-1.413l-2.556-9.228c-.134-.495-.065-1.044-.09-1.567.601-.016 1.249-.187 1.793-.019l6.056 2.092 4.846 2.19c1.649.709 1.731.747.366 2.122-.786.791-1.832 1.327-2.774 1.959-.316.212-.707.321-1.005.553l-5.54 4.347c-.453.343-1.059.483-1.75.785m10.818-3.849 5.823-6.436c-.741-2.46-3.02-2.325-4.826-2.557-3.118-.401-5.742-1.957-8.595-2.979-1.986-.712-4.231-.804-6.372-.895-.428-.019-1.239 1.183-1.312 1.88-.357 3.442-.14 6.845 1.041 10.165.485 1.361.528 2.875.976 4.254.281.866.939 1.61 1.508 2.539 2.377-.147 4.648-.944 6.673-2.376 3.119-2.206 3.111-2.243 5.861.325 1.445 1.349 2.88 2.711 4.262 4.122l11.721 12.076c2.37 2.485 4.616 5.088 6.972 7.586 1.91 2.025 3.967 3.913 5.841 5.97 2.089 2.295 4.018 4.735 6.065 7.069l7.055 7.902c1.145 1.324 2.078 2.832 3.227 4.153.464.534 1.222.853 1.904 1.128.153.062.821-.533.779-.721-.153-.697-.377-1.449-.806-2-1.041-1.336-2.201-2.58-3.331-3.845l-5.996-6.695c-2.319-2.697-4.56-5.461-6.835-8.196-.077-.092-.141-.195-.227-.277-2.29-2.19-4.644-4.318-6.856-6.585-1.931-1.979-3.66-4.153-5.553-6.171L83.059 63.001c-1.306-1.36-2.784-2.554-4.286-3.917m162.522 119.102-.202-.539 5.381-16.813 8.58 9.799-9.768 5.757c-1.264.717-2.657 1.204-3.991 1.796M176.158 149.1c21.828 6.847 42.887 15.447 65.477 19.959-1.15 2.501-2.319 4.703-3.159 7.025-.371 1.025-.533 2.664.031 3.357.782.963 2.211 1.765 3.769 1.112 3.912-1.642 7.636-3.611 11.045-6.165.723-.542 1.614-1.039 2.483-1.161 1.364-.192 2.175-1.073 2.212-2.124.029-.812-.725-1.854-1.429-2.431-.661-.542-1.222-.845-1.424-1.834-.134-.654-1.143-1.106-1.706-1.701l-6.194-6.571c-.449-.458-1.189-.63-1.794-.936-1.214-.613-1.612-.266-1.778 1.112a49.688 49.688 0 0 1-1.418 7.148c-.099.362-1.497.677-2.184.523a396.35 396.35 0 0 1-13.757-3.342c-2.67-.701-5.288-1.598-7.925-2.423l-7.147-2.266c-2.09-.646-4.212-1.19-6.282-1.89-4.295-1.45-8.503-3.213-12.874-4.36-1.999-.525-3.598-1.708-5.505-2.25-1.565-.445-3.164-.77-4.727-1.222-.763-.22-1.544-.506-2.201-.938-1.864-1.225-1.957-1.227-3.513 1.378m21.507 77.066-13.42-4.541 12.711-9.659c.795 4.739.434 9.403.709 14.2m-17.021-6.57c-1.405 2.016-1.219 2.77 1.21 3.603 4.599 1.576 9.185 3.215 13.857 4.541 1.204.342 2.82 1.333 4.103-.171.252-.296.689-.639.667-.931-.194-2.518-.514-5.026-.712-7.544-.103-1.305.011-2.625-.058-3.934-.079-1.514-.03-3.095-.482-4.505-.209-.649-1.427-1.108-2.275-1.385-.981-.32-1.903-.132-2.248 1.14-.096.353-.534.666-.885.889-.998.636-2.118 1.108-3.032 1.842-1.398 1.121-2.056.969-2.818-.59-1.036-2.12-2.301-4.128-3.376-6.232-.972-1.9-1.703-3.93-2.749-5.786-1.92-3.407-4.017-6.713-5.995-10.088-1.536-2.619-2.898-5.346-4.528-7.902-1.988-3.117-4.25-6.058-6.253-9.166-1.622-2.518-3.027-5.176-4.546-7.762-.735-1.252-1.283-2.733-2.852-3.171-.481-.134-1.096.213-1.65.341.198.512.311 1.081.608 1.526l4.792 7.023 8.865 13.959c1.226 1.966 2.311 4.019 3.481 6.02l4.759 8.112c1.159 2.073 2.169 4.228 3.264 6.337 1.468 2.829 2.857 5.706 4.465 8.454 1.178 2.014 1.148 2.506-.874 3.573-.994.525-1.871 1.276-2.877 1.771-.434.213-1.061.036-1.861.036M54.707 131.782l-.455.112-.951-1.74-1.602-3.044-5.586-8.558c-.16-.252.082-1.082.358-1.228.858-.454 1.799-.825 2.751-1.016l5.913-.973c1.837-.36 2.626.115 2.83 2.01.069.641-.192 1.326-.083 1.953.308 1.776-1.329 2.836-1.463 4.571-.206 2.666-1.106 5.278-1.712 7.913m5.785-16.584c-.905-.639-2.038-1.844-3.424-2.332-2.713-.955-5.504-.97-8.222.38-1.185.588-2.541.83-3.82 1.226-.274.084-.61.082-.816.246-.636.505-.74 4.025-.241 4.71l3.285 4.701a165.31 165.31 0 0 1 4.56 7.947c.691 1.286 1.468 2.326 3.054 2.183 1.754-.158 1.925-1.797 2.323-2.983.577-1.721.669-3.609 1.28-5.313.188-.522 1.509-1.093 2.131-.935 8.114 2.064 16.547 2.708 24.492 5.548 1.461.523 3.136.689 4.7.638 3.189-.104 5.965 1.435 8.973 1.945 3.3.56 6.662.746 9.992 1.139 1.859.22 3.704.571 5.564.775.728.079 1.482-.084 2.297-.141-.503-1.664-1.395-2.043-2.754-2.233-4.885-.686-9.736-1.605-14.609-2.377-1.397-.222-2.835-.183-4.238-.381-.91-.128-1.781-.512-2.685-.71l-13.743-2.969c-.285-.062-.565-.248-.841-.236-4.793.21-9.071-2.144-13.7-2.741-.29-.038-.57-.148-.86-.179-2.851-.3-2.995-.538-2.721-3.366.132-1.363.023-2.749.023-4.542M95.18 206.3l-1.064-3.345-.822-3.528c-.303-1.468.247-1.981 1.645-1.379 1.467.632 2.891 1.397 3.346 3.18.075.294.53.647.848.691.734.103 1.491.033 2.297.033-.555 1.687-3.13 3.452-6.25 4.348m-4.691-10.539 1.294 5.307 1.456 6.883c.288 1.527.961 1.99 2.28 1.213l9.268-5.629 1.101-.616-4.189-3.761c1.227-3.543 4.218-6.003 6.096-9.249 2.047-3.537 4.924-6.538 6.742-10.291 1.481-3.058 3.508-5.848 5.246-8.784l4.805-8.399c.517-.958.822-2.072 1-3.151.082-.496-.378-1.081-.592-1.626-.599.298-1.683.546-1.719.901-.286 2.791-2.069 4.796-3.4 7.048l-7.757 13.308c-.854 1.468-1.651 2.972-2.573 4.395a295.228 295.228 0 0 1-5.583 8.339c-1.136 1.629-2.444 3.137-3.629 4.733-1.335 1.799-2.492.242-3.551-.268-2.163-1.041-3.684-1.471-6.295-.353M49.297 29.881c3.45.071 6.088 1.463 7.753 4.597 1.144 2.152 1.774 4.259.342 6.532-.947 1.504-2.056 2.724-3.974 2.886-1.282.108-2.82-.117-3.767.518-1.019.684-1.641.476-2.426.061-3.866-2.04-5.508-6.377-3.507-10.476 1.11-2.275 2.697-4.133 5.579-4.118m-8.637 7.906c-.229 5.248 3.059 8.204 7.527 9.231 2.169.498 4.898-.037 6.993-.964 2.913-1.288 4.585-4.097 5.583-7.117.596-1.803-1.522-6.696-3.096-7.862-1.897-1.405-3.535-2.997-6.112-3.462-4.521-.816-7.022.006-9.077 4.074-.95 1.879-1.514 3.952-2.252 5.937l.434.163m229.58 134.654c3.423-.051 6.067 1.451 8.205 4.038 1.613 1.952 1.133 4.129.75 6.289-.055.311-.458.636-.779.812-2.466 1.351-7.552 2.015-9.835-.559-.946-1.068-1.747-2.294-2.456-3.539-1.948-3.424.156-6.976 4.115-7.041m-7.714 4.4c.289 3.261 4.285 9.072 7.632 10.126 3.505 1.104 6.406.517 9.356-1.101 2.618-1.435 2.821-4.116 2.68-6.555-.293-5.091-3.69-8.02-8.271-8.871-3.274-.608-7.163-1.003-9.682 2.307-.867 1.139-1.16 2.717-1.715 4.094m-52.828 62.603c1.257.518 2.615.874 3.75 1.586 2.609 1.635 3.768 4.264 3.233 7.328-.294 1.68-2.086 2.889-3.679 2.539-.599-.132-1.127-.569-1.724-.723l-3.574-.779c-1.612-.504-3.549-3.882-3.187-5.556.464-2.145 2.175-4.51 5.181-4.395m-.58-2.234c-1.36-.004-3.435.044-4.907 1.761-.475.554-.6 1.4-.915 2.1-1.99 4.417-1.493 6.749 2.119 9.887 3.19 2.771 7.689 3.099 11.497 1.014 2.064-1.129 1.961-3.161 2.329-4.954.521-2.53-.508-4.745-2.11-6.61-1.889-2.199-4.372-3.279-8.013-3.198M30.517 123.445c-2.617.301-5.949-2.959-5.913-6.506.019-1.801 1.092-3.811 2.244-5.294.643-.826 2.413-.973 3.7-1.059 2.441-.163 6.788 2.877 7.073 6.077.323 3.635-2.397 6.24-7.104 6.782m-3.85 1.85 6.258-.005c2.698-.035 5.861-3.133 6.394-5.795.391-1.959 1.094-3.816-.055-5.72-.25-.414-.427-.886-.734-1.249-2.045-2.408-4.584-4.241-7.743-4.38-1.644-.072-3.608.672-4.957 1.678-3.209 2.393-4.079 6.043-3.766 9.818.103 1.242 1.35 2.452 2.235 3.546.661.817 1.581 1.423 2.368 2.107m57.006 88.963c3.157-3.435 6.033-1.471 8.387.242 1.467 1.067 2.143 3.326 2.947 5.15.33.75-.166 1.847.122 2.638.485 1.332.222 1.999-1.143 2.35-1.025.264-2.116 1.097-2.998.895-1.234-.284-2.325-1.26-3.435-2.004-1.956-1.311-3.141-3.285-3.804-5.423-.41-1.321-.076-2.873-.076-3.848m13.859 6.682c.703-4.511-3.596-8.22-6.535-9.755-1.293-.674-2.818-1.055-4.278-1.225-2.32-.272-4.714 1.939-5.021 4.272-.555 4.217.73 7.712 3.978 10.468 1.25 1.061 2.459 2.183 3.793 3.129 1.08.767 4.544-.204 5.881-1.521 1.549-1.526 2.756-3.202 2.182-5.368M270.383 83.507l5.003-4.671c1.633-1.6 1.483-2.606-.377-3.718l-4.313 4.803c-.379.399-1.004.566-1.516.839-.198-.478-.443-.941-.585-1.435l-1.166-4.372c-.105-.448.195-1.23-.017-1.371-.762-.51-1.662-.81-2.511-1.19l-.368.406 2.135 9.348c-1.151-.238-2.183-.609-3.215-.61-.697 0-1.393.523-2.09.812.482.517.873 1.311 1.462 1.506 3.545 1.172 7.141 2.189 10.707 3.301.937.292 1.943.575 2.713 1.141 1.339.984 1.776-.069 2.217-.865.575-1.038-.223-1.241-1.051-1.503-2.21-.699-4.387-1.502-7.028-2.421m-15.736 28.627c-.326 2.813-1.592 5.015-1.097 7.829.28 1.589.304 3.186 1.508 4.121 2.106 1.635 4.342 3.199 7.343 2.682 2.718-.469 4.869-2.9 4.766-5.64-.056-1.481-1.001-2.477-2.74-2.886-.503.783-1.474 1.373-.364 2.565.318.342-.141 1.844-.666 2.446-1.13 1.294-2.864 1.271-4.31.823-1.93-.598-2.901-2.358-2.732-4.377.112-1.333.49-2.643.626-3.976.118-1.148.681-2.614-1.384-2.738-.249-.015-.475-.41-.95-.849m16.532-17.802c-.437.719-.714 1.656-1.341 2.114-1.571 1.148-3.545 1.225-5.044.215-.854-.574-1.296-2.194-1.378-3.38-.12-1.75.804-3.258 1.938-4.637.313-.38.047-1.236.047-2.473l-4.063 2.32c-.094 1.635-.392 3.414-.24 5.154.156 1.788.507 3.611 2.098 4.895 2.349 1.896 8.332.76 9.467-2.002.229-.557-.586-1.542-.92-2.329l-.564.123m-11.921 15.667 1.974-5.349c.114-.353-.171-1.106-.481-1.263-.468-.238-1.173-.266-1.674-.089-.318.112-.47.746-.662 1.161l-2.18 4.907c-.196.576.107 1.819.541 2.034 3.148 1.559 6.384 2.939 9.601 4.357.316.139.724.278 1.025.192.525-.151 1.001-.477 1.497-.729-.358-.476-.616-1.177-1.091-1.389-2.134-.949-4.343-1.73-6.497-2.636-.737-.309-1.395-.806-2.053-1.196"/><path d="M140.272 100.664c.658.291 1.29.694 1.979.856 4.075.954 8.338 1.111 12.063 3.452 2.663 1.674 4.239 1.655 6.226.626-1.864-2.55-17.112-6.731-20.268-4.934m17.116 11.211c.565-2.706-1.102-2.639-2.671-3.062-4.664-1.259-9.35-2.233-14.2-2.248-.234-.001-.468.043-.75.072-.422 1.417.498 1.548 1.48 1.72l12.671 2.298c1.203.238 2.339.813 3.47 1.22m101.838-12.862-1.482 1.523c.535.335 1.031.794 1.614.982l6.62 2.006c1.132.376 2.152 1.197 3.296 1.396.76.132 1.65-.479 2.482-.757-.264-.614-.397-1.646-.813-1.777-3.752-1.179-7.554-2.2-11.717-3.373m-79.782 60.682c-1.668 1.257-2.627 1.854-4.587 7.66.901-.183 1.848-.092 2.136-.485.987-1.345 1.879-2.802 2.528-4.335.306-.722-.023-1.712-.077-2.84m-7.711-4.215c-1.019 1.454-2.069 2.7-2.801 4.111-.336.646-.045 1.617-.038 2.44.612-.318 1.415-.488 1.798-.983 1.041-1.347 1.904-2.831 2.883-4.332l-1.842-1.236"/></g><path fill="#ba0938" d="M121.718 137.674c-.397 7.51 2.781 13.396 8.743 17.611 3.091 2.186 6.651 3.838 10.679 3.82 4.309-.018 8.697.159 12.739-1.509 4.137-1.706 7.486-4.363 9.25-8.822.891-2.255.503-3.514-.963-5.4-2.524-3.246-3.737-7.064-1.38-11.12.697-1.197 1.215-2.523 2.049-3.61.96-1.252.806-2.414-.094-3.386-.952-1.028-2.071-2.046-3.322-2.625-3.016-1.396-6.157-2.523-9.24-3.777-2.958-1.203-6.011-2.149-9.214-1.792-2.833.316-5.633.985-8.425 1.601-1.363.3-2.766-.04-4.029 1.327-3.518 3.806-5.961 8.073-6.758 13.194-.228 1.463-.035 2.99-.035 4.488M67.955 62.933c.691-.302 1.297-.442 1.75-.785l5.54-4.347c.298-.232.689-.341 1.005-.553.942-.632 1.988-1.168 2.774-1.959 1.365-1.375 1.283-1.413-.366-2.122l-4.846-2.19-6.056-2.092c-.544-.168-1.192.003-1.793.019.025.523-.044 1.072.09 1.567l2.556 9.228c.113.419.016.896-.276 1.413l-1.527-4.345-.614.228 1.763 5.938m173.34 115.253 3.991-1.796c3.294-1.87 6.53-3.84 9.768-5.757l-8.58-9.799-5.381 16.813.202.539m-43.63 47.98c-.275-4.797.086-9.461-.709-14.2l-12.711 9.659 13.42 4.541M54.707 131.782c.606-2.635 1.506-5.247 1.712-7.913.134-1.735 1.771-2.795 1.463-4.571-.109-.627.152-1.312.083-1.953-.204-1.895-.993-2.37-2.83-2.01l-5.913.973c-.952.191-1.893.562-2.751 1.016-.276.146-.518.976-.358 1.228l5.586 8.558c.617.961 1.067 2.029 1.602 3.044l.951 1.74.455-.112M95.18 206.3c3.12-.896 5.695-2.661 6.25-4.348-.806 0-1.563.07-2.297-.033-.318-.044-.773-.397-.848-.691-.455-1.783-1.879-2.548-3.346-3.18-1.398-.602-1.948-.089-1.645 1.379l.822 3.528 1.064 3.345M49.295 29.88c-2.88-.013-4.466 1.845-5.576 4.119-2.001 4.099-.359 8.436 3.506 10.477.786.414 1.407.622 2.426-.062.947-.635 2.485-.41 3.767-.518 1.918-.162 3.027-1.382 3.974-2.885 1.433-2.274.802-4.381-.341-6.533-1.666-3.133-4.303-4.526-7.756-4.598M270.24 172.442c-3.959.064-6.063 3.616-4.114 7.041.708 1.244 1.509 2.47 2.456 3.538 2.282 2.575 7.368 1.91 9.834.559.321-.176.725-.501.78-.811.382-2.16.862-4.338-.75-6.289-2.138-2.587-4.783-4.09-8.206-4.038m-60.542 67.002c-3.006-.115-4.717 2.25-5.181 4.395-.362 1.674 1.575 5.052 3.187 5.556 1.159.363 2.394.474 3.574.779.597.154 1.125.591 1.724.723 1.593.35 3.385-.859 3.679-2.539.535-3.064-.624-5.693-3.233-7.328-1.135-.712-2.493-1.068-3.75-1.586M30.517 123.445c4.707-.542 7.427-3.147 7.104-6.782-.285-3.2-4.632-6.24-7.073-6.077-1.287.086-3.057.233-3.7 1.059-1.152 1.483-2.225 3.493-2.244 5.294-.036 3.547 3.296 6.807 5.913 6.506m53.156 90.813c0 .975-.334 2.527.076 3.848.663 2.138 1.848 4.112 3.804 5.423 1.11.744 2.201 1.72 3.435 2.004.882.202 1.973-.631 2.998-.895 1.365-.351 1.628-1.018 1.143-2.35-.288-.791.208-1.888-.122-2.638-.804-1.824-1.48-4.083-2.947-5.15-2.354-1.713-5.23-3.677-8.387-.242"/></g></svg>