<svg xmlns="http://www.w3.org/2000/svg" width="564.221" height="537.479"><defs><clipPath id="a" clipPathUnits="userSpaceOnUse"><path d="M49.927 106.469h311.4v296.64h-311.4z"/></clipPath><clipPath id="b" clipPathUnits="userSpaceOnUse"><path d="M0 403.109h423.166V0H0Z"/></clipPath></defs><g clip-path="url(#a)" transform="matrix(1.33333 0 0 -1.33333 0 537.479)"><path d="M0 0c0-1.498-.193-3.026.035-4.488.797-5.121 3.24-9.388 6.758-13.194 1.263-1.367 2.666-1.027 4.029-1.327 2.792-.616 5.592-1.285 8.425-1.601 3.203-.357 6.256.589 9.214 1.792 3.083 1.254 6.224 2.381 9.24 3.777 1.251.579 2.37 1.597 3.322 2.625.9.972 1.054 2.134.094 3.386-.834 1.087-1.352 2.413-2.049 3.61-2.357 4.056-1.144 7.874 1.38 11.12 1.466 1.886 1.854 3.145.963 5.4-1.764 4.459-5.113 7.116-9.25 8.822-4.042 1.668-8.43 1.491-12.739 1.509-4.028.018-7.588-1.634-10.679-3.82C2.781 13.396-.397 7.51 0 0m134.601-68.836c0 1.027.104 2.043-.021 3.03a144.185 144.185 0 0 1-1.066 6.944c-.682 3.856-1.411 7.703-2.136 11.552-.416 2.212-.856 4.42-1.295 6.628-.619 3.105-1.285 6.2-1.85 9.314-.21 1.157-.112 2.368-.3 3.531-.174 1.085-.746 2.132-.78 3.207-.066 2.151-.464 3.999-2.029 5.691-3.036 3.283-5.36 7.186-9.559 9.396-1.518.799-2.207.603-3.105-.379l6.36-8.638-1.926-1.996c-1.119 1.318-2.258 2.133-2.645 3.216-1.008 2.828-2.838 4.945-5.244 6.494-2.71 1.746-5.728 2.67-8.996 1.658-1.218-.377-1.734-1.621-1.168-2.442 2.138-3.107 4.317-6.187 6.35-9.362.382-.597.447-1.719.138-2.342-.272-.549-1.079-1.767-1.997-.796-.809.855-1.538 1.992-1.8 3.121-.894 3.843-3.534 6.484-6.04 9.213-.549.597-1.493 1.045-2.306 1.146-2.632.325-5.169.453-7.934-.102-2.852-.572-4.114-1.836-4.906-4.131.366-.424.742-.782 1.026-1.203 2.019-2.988 4.059-5.964 5.981-9.015.253-.403.053-1.322-.255-1.795-.492-.758-1.194-.574-1.687.141a583.225 583.225 0 0 0-3.347 4.921c-1.196 1.771-2.248 3.66-3.608 5.293-1.774 2.13-3.723 4.128-5.72 6.056-2.207 2.13-4.371 4.385-6.888 6.093-2.915 1.978-6.183 3.44-9.321 5.082-.872.456-1.96.58-2.718 1.158-2.992 2.285-6.549 2.232-10.006 2.587-.456.047-1.091-.241-1.421-.586-2.556-2.675-2.313-7.68.199-10.058.248-.235.59-.386.797-.648 2.873-3.625 5.725-7.267 8.596-10.895.527-.666 1.149-1.258 1.671-1.928 1.872-2.399 3.709-4.826 5.579-7.226 2.153-2.762 4.35-5.49 6.48-8.27.599-.782 1.016-1.702 1.541-2.543 2.471-3.956 6.111-7.132 7.752-11.642.544-1.493 1.239-2.948 1.614-4.482.403-1.645-1.422-3.525-3.125-3.591-3.818-.147-7.547.104-10.952 2.081-3.795 2.203-7.804 3.369-12.233 2.63-.676-.112-1.378-.2-2.056-.147-2.609.204-4.885-1.4-5.464-3.656-.112-.439-.614-.778-.979-1.215.224-1.195.119-2.713.777-3.745 1.646-2.578 3.839-4.638 7.054-5.241 3.72-.699 7.462-1.317 11.131-2.228 2.668-.662 5.447-1.145 7.706-3.01.964-.797 2.157-1.346 3.303-1.885 1.831-.861 3.737-1.563 5.56-2.439 1.439-.692 2.759-2.096 4.206-2.208 2.995-.231 6.039.182 9.062.346.928.051 1.926.42 2.765.187 3.421-.946 6.902-1.816 10.148-3.208 2.482-1.063 4.848-1.446 7.438-.995 3.871.676 7.715 1.608 11.073 3.638 3.108 1.88 5.939 4.228 8.838 6.442 1.361 1.04 2.594 2.249 3.738 3.251M78.704-12.301c1.855 4.292 5.656 4.775 9.612 4.972 2.8.139 5.513-.183 8.314-1.473 2.503 3.54 6.396 3.766 9.885 2.359 2.491-1.004 4.189-.932 6.477.069 1.187.519 2.969.538 4.137-1.124.564-.802 1.909-1.02 2.825-1.618 2.307-1.508 3.645-3.837 5.127-6.072.85-1.281 2.176-2.237 3.099-3.48.803-1.08 1.675-2.29 1.931-3.561.705-3.487 1.092-7.038 1.622-10.56.461-3.065.944-6.126 1.42-9.188.486-3.131.908-6.274 1.48-9.389.659-3.59 1.538-7.14 2.15-10.736.343-2.015.331-4.09.5-6.136.043-.522.167-1.037.253-1.555l.493-.238c-3.068-2.386-6.084-4.842-9.222-7.132-2.005-1.464-4.148-2.755-6.304-3.994-3.065-1.763-6.457-2.572-9.898-3.303-5.288-1.123-9.95.795-14.634 2.694-3.004 1.217-6.113.792-9.145.507-5.014-.473-9.521.456-13.704 3.362-2 1.39-4.271 2.43-6.511 3.422-3.56 1.576-7.193 2.992-10.808 4.443-.535.214-1.138.294-1.719.353-2.627.268-5.306.273-7.875.809-4.111.858-7.01 3.558-8.505 7.366-1.699 4.326 1.555 10.057 6.241 10.886 3.571.631 7.192.692 10.911-.124 3.336-.733 6.093-2.478 9.159-3.632 1.343-.506 2.917-.425 4.391-.542.89-.072 1.791-.014 2.784-.014.259 1.74.928 3.341-1.065 4.588-.544.34-.308 1.745-.787 2.402-2.159 2.966-4.489 5.808-6.677 8.754-2.543 3.424-4.887 7.003-7.529 10.347-3.578 4.53-7.363 8.896-11.042 13.348-.283.343-.392.824-.633 1.209-.906 1.447-1.57 1.252-2.798.141-1.697-1.535-3.574-3.048-5.643-3.957-4.085-1.796-8.284-3.425-12.577-4.614-2.252-.624-4.82-.371-7.211-.146-2.471.231-5.027.585-7.314 1.479-2.261.885-4.401 2.116-6.285 3.918-2.62 2.506-4.305 5.266-5.154 8.78-.631 2.612-1.322 5.172-.997 7.858.456 3.756-.03 7.726 2.068 11.138 1.277 2.078 3.004 3.941 4.32 5.907 2.34 3.497 6.056 4.505 9.195 6.451 1.873 1.161 4.462 1.188 6.742 1.659.979.202 2.033.474 2.982.306 3.254-.574 6.489-1.276 9.708-2.028 3.53-.825 6.303-3.085 8.559-5.662 1.701-1.942 2.783-4.552 3.676-7.032.597-1.66 1.185-2.605 3.016-3.051 2.554-.623 4.929-2.14 7.493-2.527 3.639-.549 6.254-2.955 9.33-4.453 2.595-1.263 4.678-3.6 6.944-5.513 2.194-1.853 4.339-3.764 6.487-5.671.282-.251.449-.63.706-1.002" style="fill:#2c2c2c;fill-opacity:1;fill-rule:nonzero;stroke:none" transform="translate(171.644 244.143)"/><path d="m0 0-1.763-5.938.614-.228L.378-1.821c.292-.517.389-.994.276-1.413-.834-3.081-1.724-6.147-2.556-9.228-.134-.495-.065-1.044-.09-1.567.601-.016 1.249-.187 1.793-.019 2.039.631 4.069 1.312 6.056 2.092 1.648.647 3.217 1.49 4.846 2.19 1.649.709 1.731.747.366 2.122-.786.791-1.832 1.327-2.774 1.959-.316.212-.707.321-1.005.553C5.438-3.69 3.62-2.203 1.75-.785 1.297-.442.691-.302 0 0m10.818-3.849c1.993-2.204 3.907-4.32 5.823-6.436-.741-2.46-3.02-2.325-4.826-2.557-3.118-.401-5.742-1.957-8.595-2.979-1.986-.712-4.231-.804-6.372-.895-.428-.019-1.239 1.183-1.312 1.88-.357 3.442-.14 6.845 1.041 10.165.485 1.361.528 2.875.976 4.254.281.866.939 1.61 1.508 2.539 2.377-.147 4.648-.944 6.673-2.376 3.119-2.206 3.111-2.243 5.861.325 1.445 1.349 2.88 2.711 4.262 4.122 3.926 4.007 7.849 8.018 11.721 12.076 2.37 2.485 4.616 5.088 6.972 7.586 1.91 2.025 3.967 3.913 5.841 5.97 2.089 2.295 4.018 4.735 6.065 7.069 2.328 2.654 4.745 5.232 7.055 7.902 1.145 1.324 2.078 2.832 3.227 4.153.464.534 1.222.853 1.904 1.128.153.062.821-.533.779-.721-.153-.697-.377-1.449-.806-2-1.041-1.336-2.201-2.58-3.331-3.845-1.995-2.235-4.043-4.424-5.996-6.695-2.319-2.697-4.56-5.461-6.835-8.196-.077-.092-.141-.195-.227-.277-2.29-2.19-4.644-4.318-6.856-6.585-1.931-1.979-3.66-4.153-5.553-6.171A1858.26 1858.26 0 0 0 15.104.068c-1.306-1.36-2.784-2.554-4.286-3.917" style="fill:#2c2c2c;fill-opacity:1;fill-rule:nonzero;stroke:none" transform="translate(117.88 169.402)"/><path d="m0 0-.202-.539 5.381-16.813 8.58 9.799c-3.238 1.917-6.474 3.887-9.768 5.757C2.728-1.079 1.334-.592 0 0m-65.137-29.086C-43.309-22.239-22.25-13.639.34-9.127-.81-6.626-1.979-4.424-2.819-2.102c-.371 1.025-.533 2.664.031 3.357.782.963 2.211 1.765 3.769 1.112C4.893.725 8.617-1.244 12.026-3.798c.723-.542 1.614-1.039 2.483-1.161 1.364-.192 2.175-1.073 2.212-2.124.029-.812-.725-1.854-1.429-2.431-.661-.542-1.222-.845-1.424-1.834-.134-.654-1.143-1.106-1.706-1.701-2.069-2.186-4.087-4.421-6.194-6.571-.449-.458-1.189-.63-1.794-.936-1.214-.613-1.612-.266-1.778 1.112a49.688 49.688 0 0 1-1.418 7.148c-.099.362-1.497.677-2.184.523a396.35 396.35 0 0 1-13.757-3.342c-2.67-.701-5.288-1.598-7.925-2.423-2.385-.745-4.759-1.528-7.147-2.266-2.09-.646-4.212-1.19-6.282-1.89-4.295-1.45-8.503-3.213-12.874-4.36-1.999-.525-3.598-1.708-5.505-2.25-1.565-.445-3.164-.77-4.727-1.222-.763-.22-1.544-.506-2.201-.938-1.863-1.225-1.957-1.227-3.513 1.378" style="fill:#2c2c2c;fill-opacity:1;fill-rule:nonzero;stroke:none" transform="translate(291.221 284.655)"/><path d="M0 0a68558.08 68558.08 0 0 0-13.42-4.541L-.709-14.2C.086-9.461-.275-4.797 0 0m-17.021-6.57c-1.405 2.016-1.219 2.77 1.21 3.603C-11.212-1.391-6.626.248-1.954 1.574c1.204.342 2.82 1.333 4.103-.171.252-.296.689-.639.667-.931-.194-2.518-.514-5.026-.712-7.544-.103-1.305.011-2.625-.058-3.934-.079-1.514-.03-3.095-.482-4.505-.209-.649-1.427-1.108-2.275-1.385-.981-.32-1.903-.132-2.248 1.14-.096.353-.534.666-.885.889-.998.636-2.118 1.108-3.032 1.842-1.398 1.121-2.056.969-2.818-.59-1.036-2.12-2.301-4.128-3.376-6.232-.972-1.9-1.703-3.93-2.749-5.786-1.92-3.407-4.017-6.713-5.995-10.088-1.536-2.619-2.898-5.346-4.528-7.902-1.988-3.117-4.25-6.058-6.253-9.166-1.622-2.518-3.027-5.176-4.546-7.762-.735-1.252-1.283-2.733-2.852-3.171-.481-.135-1.096.213-1.65.341.198.512.311 1.081.608 1.526 1.576 2.356 3.252 4.645 4.792 7.023 2.995 4.627 5.946 9.283 8.865 13.959 1.226 1.966 2.311 4.019 3.481 6.02 1.581 2.707 3.229 5.377 4.759 8.112 1.159 2.073 2.169 4.228 3.264 6.337 1.468 2.829 2.857 5.706 4.465 8.454 1.178 2.014 1.148 2.506-.874 3.573-.994.525-1.871 1.276-2.877 1.771-.434.213-1.061.036-1.861.036" style="fill:#2c2c2c;fill-opacity:1;fill-rule:nonzero;stroke:none" transform="translate(247.591 332.635)"/><path d="m0 0-.455.112c-.318-.58-.643-1.155-.951-1.74-.535-1.015-.985-2.083-1.602-3.044-1.841-2.867-3.766-5.678-5.586-8.558-.16-.252.082-1.082.358-1.228.858-.454 1.799-.825 2.751-1.016 1.958-.392 3.954-.588 5.913-.973 1.837-.36 2.626.115 2.83 2.01.069.641-.192 1.326-.083 1.953.308 1.776-1.329 2.836-1.463 4.571C1.506-5.247.606-2.635 0 0m5.785-16.584c-.905-.639-2.038-1.844-3.424-2.332-2.713-.955-5.504-.97-8.222.38-1.185.588-2.541.83-3.82 1.226-.274.084-.61.082-.816.246-.636.505-.74 4.025-.241 4.71 1.126 1.545 2.29 3.073 3.285 4.701A165.31 165.31 0 0 1-2.893.294C-2.202 1.58-1.425 2.62.161 2.477 1.915 2.319 2.086.68 2.484-.506c.577-1.721.669-3.609 1.28-5.313.188-.522 1.509-1.093 2.131-.935 8.114 2.064 16.547 2.708 24.492 5.548 1.461.523 3.136.689 4.699.638 3.19-.104 5.966 1.435 8.974 1.945 3.3.56 6.662.746 9.992 1.139 1.859.22 3.704.571 5.564.775.728.079 1.482-.084 2.297-.141-.503-1.664-1.395-2.043-2.754-2.233C54.274.231 49.423-.688 44.55-1.46c-1.397-.222-2.835-.183-4.238-.381-.91-.128-1.781-.512-2.685-.71-4.578-1.001-9.162-1.979-13.743-2.969-.285-.062-.565-.248-.841-.236-4.793.21-9.071-2.144-13.7-2.741-.29-.038-.57-.148-.86-.179-2.851-.3-2.995-.537-2.721-3.366.132-1.363.023-2.749.023-4.542" style="fill:#2c2c2c;fill-opacity:1;fill-rule:nonzero;stroke:none" transform="translate(104.633 238.25)"/><path d="M0 0c-.376-1.169-.764-2.245-1.064-3.345a56.396 56.396 0 0 1-.822-3.528c-.303-1.468.247-1.981 1.645-1.379 1.467.632 2.891 1.397 3.346 3.18.075.294.53.647.848.691.734.103 1.491.033 2.297.033C5.695-2.661 3.12-.896 0 0m-4.691-10.539c.438 1.787.896 3.541 1.294 5.307.515 2.288 1.022 4.579 1.456 6.883.288 1.527.961 1.99 2.28 1.213 3.115-1.833 6.18-3.75 9.268-5.629.348-.212.711-.399 1.101-.616L6.519-7.142c1.227-3.543 4.218-6.003 6.096-9.249 2.047-3.537 4.924-6.538 6.742-10.291 1.481-3.058 3.508-5.848 5.246-8.784 1.643-2.776 3.275-5.561 4.805-8.399.517-.958.822-2.072 1-3.151.082-.496-.378-1.081-.592-1.626-.599.298-1.683.546-1.719.901-.286 2.791-2.069 4.796-3.4 7.048-2.612 4.42-5.174 8.87-7.757 13.308-.854 1.468-1.651 2.972-2.573 4.395a295.228 295.228 0 0 1-5.583 8.339c-1.136 1.629-2.444 3.137-3.629 4.733-1.335 1.799-2.492.242-3.551-.268-2.163-1.041-3.684-1.471-6.295-.353" style="fill:#2c2c2c;fill-opacity:1;fill-rule:nonzero;stroke:none" transform="translate(145.107 312.769)"/><path d="M0 0c3.45.071 6.088 1.463 7.753 4.597 1.144 2.152 1.774 4.259.342 6.532-.947 1.504-2.056 2.724-3.974 2.886-1.282.108-2.82-.117-3.767.518-1.019.684-1.641.476-2.426.061-3.866-2.04-5.508-6.377-3.507-10.476C-4.469 1.843-2.882-.015 0 0m-8.637 7.906c-.229 5.247 3.059 8.204 7.527 9.231 2.169.498 4.898-.037 6.993-.964 2.913-1.288 4.585-4.097 5.583-7.117.596-1.803-1.522-6.696-3.096-7.862C6.473-.211 4.835-1.803 2.258-2.268c-4.521-.816-7.022.006-9.077 4.074-.949 1.879-1.514 3.952-2.252 5.937l.434.163" style="fill:#2c2c2c;fill-opacity:1;fill-rule:nonzero;stroke:none" transform="translate(99.224 136.35)"/><path d="M0 0c3.423-.051 6.067 1.451 8.205 4.038 1.613 1.952 1.133 4.129.75 6.289-.055.311-.458.636-.779.812C5.71 12.49.624 13.154-1.659 10.58c-.946-1.068-1.747-2.294-2.456-3.539C-6.063 3.617-3.959.065 0 0m-7.714 4.4c.289 3.261 4.285 9.072 7.632 10.126 3.505 1.104 6.406.517 9.356-1.101 2.618-1.435 2.821-4.116 2.68-6.555-.293-5.091-3.69-8.02-8.271-8.871C.409-2.609-3.48-3.004-5.999.306c-.867 1.139-1.16 2.717-1.715 4.094" style="fill:#2c2c2c;fill-opacity:1;fill-rule:nonzero;stroke:none" transform="translate(320.167 278.91)"/><path d="M0 0c1.257.518 2.615.874 3.75 1.586C6.359 3.221 7.518 5.85 6.983 8.914c-.294 1.68-2.086 2.889-3.679 2.539-.599-.132-1.127-.569-1.724-.723-1.18-.305-2.415-.416-3.574-.779-1.612-.504-3.549-3.882-3.187-5.556C-4.717 2.25-3.006-.115 0 0m-.58-2.234c-1.36-.004-3.435.044-4.907 1.761-.475.554-.6 1.4-.915 2.1-1.99 4.417-1.493 6.749 2.119 9.887 3.19 2.771 7.688 3.099 11.497 1.014 2.064-1.129 1.961-3.161 2.329-4.954.521-2.53-.509-4.745-2.11-6.61C5.544-1.235 3.061-2.315-.58-2.234" style="fill:#2c2c2c;fill-opacity:1;fill-rule:nonzero;stroke:none" transform="translate(259.625 345.913)"/><path d="M0 0c-2.617.301-5.949-2.959-5.913-6.506.019-1.801 1.092-3.811 2.244-5.294.643-.826 2.413-.973 3.7-1.059 2.441-.162 6.788 2.877 7.073 6.077C7.427-3.147 4.707-.542 0 0m-3.85 1.85c2.255 0 4.257.021 6.258-.005C5.106 1.81 8.269-1.288 8.802-3.95c.391-1.959 1.094-3.816-.055-5.72-.25-.414-.427-.886-.734-1.249-2.045-2.408-4.584-4.241-7.743-4.38-1.644-.072-3.608.672-4.957 1.678-3.209 2.393-4.079 6.043-3.766 9.818.103 1.242 1.35 2.452 2.235 3.546.661.817 1.581 1.423 2.368 2.107" style="fill:#2c2c2c;fill-opacity:1;fill-rule:nonzero;stroke:none" transform="translate(80.444 229.913)"/><path d="M0 0c3.157-3.435 6.033-1.471 8.387.241 1.467 1.068 2.143 3.327 2.947 5.151.33.75-.166 1.847.122 2.638.485 1.332.222 1.999-1.143 2.35-1.025.264-2.116 1.097-2.998.895-1.234-.284-2.325-1.26-3.435-2.004C1.924 7.96.739 5.986.076 3.848-.334 2.527 0 .975 0 0m13.859 6.682c.703-4.511-3.596-8.22-6.535-9.755-1.293-.674-2.818-1.055-4.278-1.225C.726-4.57-1.668-2.359-1.975-.026c-.555 4.217.73 7.712 3.978 10.468 1.25 1.061 2.459 2.183 3.792 3.129 1.081.767 4.545-.204 5.882-1.521 1.549-1.526 2.756-3.202 2.182-5.368" style="fill:#2c2c2c;fill-opacity:1;fill-rule:nonzero;stroke:none" transform="translate(133.6 320.727)"/><path d="M0 0c1.808-1.682 3.441-3.14 5.003-4.671 1.633-1.6 1.483-2.606-.377-3.718C3.187-6.773 1.789-5.143.313-3.586c-.379.399-1.004.566-1.516.839-.198-.478-.443-.941-.585-1.435a90.8 90.8 0 0 1-1.166-4.372c-.105-.448.195-1.23-.017-1.371-.762-.51-1.662-.81-2.511-1.19l-.368.406 2.135 9.348c-1.151-.238-2.183-.609-3.215-.61-.697 0-1.393.523-2.09.812.482.517.873 1.311 1.462 1.506C-4.013 1.519-.417 2.536 3.149 3.648c.937.292 1.943.575 2.713 1.141 1.339.984 1.776-.069 2.217-.865.575-1.038-.223-1.241-1.051-1.503C4.818 1.722 2.641.919 0 0" style="fill:#2c2c2c;fill-opacity:1;fill-rule:nonzero;stroke:none" transform="translate(320.31 189.976)"/><path d="M0 0c-.326 2.813-1.592 5.015-1.097 7.829.28 1.589.304 3.186 1.508 4.121 2.106 1.635 4.342 3.199 7.343 2.682 2.718-.469 4.869-2.9 4.766-5.64-.056-1.481-1.001-2.477-2.74-2.886-.503.783-1.474 1.373-.364 2.565.318.342-.141 1.844-.666 2.446-1.13 1.294-2.864 1.271-4.31.823-1.93-.598-2.901-2.358-2.732-4.377.112-1.333.49-2.643.626-3.976C2.452 2.439 3.015.973.95.849.701.834.475.439 0 0" style="fill:#2c2c2c;fill-opacity:1;fill-rule:nonzero;stroke:none" transform="translate(304.573 218.603)"/><path d="M0 0c-.437.719-.714 1.656-1.341 2.114-1.571 1.148-3.545 1.225-5.044.215-.854-.574-1.296-2.194-1.378-3.38-.12-1.75.804-3.258 1.938-4.637.313-.38.047-1.236.047-2.473l-4.063 2.32c-.094 1.635-.392 3.414-.24 5.154.156 1.788.507 3.611 2.098 4.895 2.349 1.896 8.332.76 9.467-2.002C1.713 1.649.898.664.564-.123L0 0" style="fill:#2c2c2c;fill-opacity:1;fill-rule:nonzero;stroke:none" transform="translate(321.105 200.801)"/><path d="M0 0c.688-1.823 1.398-3.564 1.974-5.349.114-.353-.171-1.106-.481-1.263C1.025-6.85.32-6.878-.181-6.701c-.318.112-.47.746-.662 1.161-.755 1.625-1.606 3.219-2.18 4.907-.196.576.107 1.819.541 2.034C.666 2.96 3.902 4.34 7.119 5.758c.316.139.724.278 1.025.192.525-.151 1.001-.477 1.497-.729-.358-.476-.616-1.177-1.091-1.389-2.134-.949-4.343-1.73-6.497-2.636C1.316.887.658.39 0 0" style="fill:#2c2c2c;fill-opacity:1;fill-rule:nonzero;stroke:none" transform="translate(309.185 216.468)"/><path d="M0 0c.658.291 1.29.694 1.979.856 4.075.954 8.338 1.111 12.063 3.452 2.663 1.674 4.239 1.655 6.226.626C18.404 2.384 3.156-1.797 0 0" style="fill:#2c2c2c;fill-opacity:1;fill-rule:nonzero;stroke:none" transform="translate(190.198 207.132)"/><path d="M0 0c.565-2.706-1.102-2.639-2.671-3.062-4.664-1.259-9.35-2.233-14.2-2.248-.234-.001-.468.043-.75.072-.422 1.417.498 1.548 1.48 1.72 4.228.739 8.46 1.467 12.671 2.298C-2.267-.982-1.131-.407 0 0" style="fill:#2c2c2c;fill-opacity:1;fill-rule:nonzero;stroke:none" transform="translate(207.314 218.344)"/><path d="m0 0-1.482 1.523c.535.335 1.031.794 1.614.982 2.194.709 4.433 1.278 6.62 2.006 1.132.376 2.152 1.197 3.296 1.396.76.132 1.65-.479 2.482-.757-.264-.614-.397-1.646-.813-1.777C7.965 2.194 4.163 1.173 0 0" style="fill:#2c2c2c;fill-opacity:1;fill-rule:nonzero;stroke:none" transform="translate(309.152 205.482)"/><path d="M0 0c-1.668 1.257-2.627 1.854-4.587 7.66.901-.183 1.848-.092 2.136-.485C-1.464 5.83-.572 4.373.077 2.84.383 2.118.054 1.128 0 0" style="fill:#2c2c2c;fill-opacity:1;fill-rule:nonzero;stroke:none" transform="translate(229.37 266.164)"/><path d="M0 0c-1.019 1.454-2.069 2.7-2.801 4.111-.336.646-.045 1.617-.038 2.44.612-.318 1.415-.488 1.798-.983C0 4.221.863 2.737 1.842 1.236L0 0" style="fill:#2c2c2c;fill-opacity:1;fill-rule:nonzero;stroke:none" transform="translate(221.66 261.949)"/><path d="M0 0c-.397 7.51 2.781 13.396 8.743 17.611 3.091 2.186 6.651 3.838 10.679 3.82 4.309-.018 8.697.159 12.739-1.509 4.137-1.706 7.486-4.363 9.25-8.822.891-2.255.503-3.514-.963-5.4-2.524-3.246-3.737-7.064-1.38-11.12.697-1.197 1.215-2.523 2.049-3.61.96-1.252.806-2.414-.094-3.386-.952-1.028-2.071-2.046-3.322-2.625-3.016-1.396-6.157-2.523-9.24-3.777-2.958-1.203-6.011-2.149-9.214-1.792-2.833.316-5.633.985-8.425 1.601-1.363.3-2.766-.04-4.029 1.327C3.275-13.876.832-9.609.035-4.488-.193-3.026 0-1.498 0 0" style="fill:#ba0938;fill-opacity:1;fill-rule:nonzero;stroke:none" transform="translate(171.644 244.143)"/><path d="M0 0c.691-.302 1.297-.442 1.75-.785C3.62-2.203 5.438-3.69 7.29-5.132c.298-.232.689-.341 1.005-.553.942-.632 1.988-1.168 2.774-1.959 1.365-1.375 1.283-1.413-.366-2.122-1.629-.7-3.198-1.543-4.846-2.19-1.987-.78-4.017-1.461-6.056-2.092-.544-.168-1.192.003-1.793.019.025.523-.044 1.072.09 1.567C-1.07-9.381-.18-6.315.654-3.234c.113.419.016.896-.276 1.413l-1.527-4.345-.614.228L0 0" style="fill:#ba0938;fill-opacity:1;fill-rule:nonzero;stroke:none" transform="translate(117.88 169.402)"/><path d="M0 0c1.334-.592 2.728-1.079 3.991-1.796 3.294-1.87 6.53-3.84 9.768-5.757l-8.58-9.799L-.202-.539 0 0" style="fill:#ba0938;fill-opacity:1;fill-rule:nonzero;stroke:none" transform="translate(291.221 284.655)"/><path d="M0 0c-.275-4.797.086-9.461-.709-14.2L-13.42-4.541 0 0" style="fill:#ba0938;fill-opacity:1;fill-rule:nonzero;stroke:none" transform="translate(247.591 332.635)"/><path d="M0 0c.606-2.635 1.506-5.247 1.712-7.913.134-1.735 1.771-2.795 1.463-4.571-.109-.627.152-1.312.083-1.953-.204-1.895-.993-2.37-2.83-2.01-1.959.385-3.955.581-5.913.973-.952.191-1.893.562-2.751 1.016-.276.146-.518.976-.358 1.228 1.82 2.88 3.745 5.691 5.586 8.558.617.961 1.067 2.029 1.602 3.044.308.585.633 1.16.951 1.74L0 0" style="fill:#ba0938;fill-opacity:1;fill-rule:nonzero;stroke:none" transform="translate(104.633 238.25)"/><path d="M0 0c3.12-.896 5.695-2.661 6.25-4.348-.806 0-1.563.07-2.297-.033-.318-.044-.773-.397-.848-.691C2.65-6.855 1.226-7.62-.241-8.252c-1.398-.602-1.948-.089-1.645 1.379.244 1.183.503 2.365.822 3.528C-.764-2.245-.376-1.169 0 0" style="fill:#ba0938;fill-opacity:1;fill-rule:nonzero;stroke:none" transform="translate(145.107 312.769)"/><path d="M0 0c-2.88-.013-4.466 1.845-5.576 4.119-2.001 4.099-.359 8.436 3.506 10.477.786.414 1.407.622 2.426-.062.947-.635 2.485-.41 3.767-.518 1.918-.162 3.027-1.382 3.974-2.885 1.433-2.274.802-4.381-.341-6.533C6.091 1.465 3.453.072 0 0" style="fill:#ba0938;fill-opacity:1;fill-rule:nonzero;stroke:none" transform="translate(99.222 136.349)"/><path d="M0 0c-3.959.064-6.063 3.616-4.114 7.041.708 1.244 1.509 2.47 2.456 3.538 2.282 2.575 7.368 1.91 9.834.559.321-.176.725-.5.78-.811.382-2.16.862-4.338-.75-6.289C6.068 1.451 3.423-.052 0 0" style="fill:#ba0938;fill-opacity:1;fill-rule:nonzero;stroke:none" transform="translate(320.166 278.91)"/><path d="M0 0c-3.006-.115-4.717 2.25-5.181 4.395-.362 1.674 1.575 5.052 3.187 5.556 1.159.363 2.394.474 3.574.779.597.154 1.125.591 1.724.723 1.593.35 3.385-.859 3.679-2.539.535-3.064-.624-5.693-3.233-7.328C2.615.874 1.257.518 0 0" style="fill:#ba0938;fill-opacity:1;fill-rule:nonzero;stroke:none" transform="translate(259.625 345.913)"/><path d="M0 0c4.707-.542 7.427-3.147 7.104-6.782-.285-3.2-4.632-6.239-7.073-6.077-1.287.086-3.057.233-3.7 1.059-1.152 1.483-2.225 3.493-2.244 5.294C-5.949-2.959-2.617.301 0 0" style="fill:#ba0938;fill-opacity:1;fill-rule:nonzero;stroke:none" transform="translate(80.444 229.913)"/><path d="M0 0c0 .975-.334 2.527.076 3.848C.739 5.986 1.924 7.96 3.88 9.271c1.11.744 2.201 1.72 3.435 2.004.882.202 1.973-.631 2.998-.895 1.365-.351 1.628-1.018 1.143-2.35-.288-.791.208-1.888-.122-2.638-.804-1.824-1.48-4.083-2.947-5.151C6.033-1.471 3.157-3.435 0 0" style="fill:#ba0938;fill-opacity:1;fill-rule:nonzero;stroke:none" transform="translate(133.6 320.727)"/></g><g clip-path="url(#b)" transform="matrix(1.33333 0 0 -1.33333 0 537.479)"><path d="M0 0c1.171.245 2.243.42 3.287.703.797.215 1.524 2.368 1.053 3.007-.103.139-.357.259-.528.243a68.887 68.887 0 0 1-3.568-.402c-.17-.024-.439-.301-.434-.455C-.16 2.051-.069 1.007 0 0m6.466-1.629c1.01-.329 1.942-.61 2.858-.936 1.118-.399 1.611-1.281 1.305-2.261-.301-.963-1.235-1.424-2.383-1.072-2.289.701-4.561 1.455-7.024 2.246.294-.921.517-1.754.825-2.554.47-1.224.196-2.205-.8-2.624-.964-.407-2.009-.01-2.399 1.175-.911 2.774-1.76 5.574-2.472 8.404-.258 1.022-.171 2.175-.03 3.241.198 1.512 1.186 2.394 2.635 2.913 1.957.7 3.924.81 5.943.467 1.463-.249 2.757-1.389 2.922-2.841.243-2.137.179-4.263-1.38-6.158" style="fill:#2c2c2c;fill-opacity:1;fill-rule:nonzero;stroke:none" transform="translate(309.328 110.683)"/><path d="M0 0c-.357-.151-.642-.296-.944-.394-.845-.277-1.762.076-2.146.805-.387.733-.136 1.468.67 2.056 1.727 1.257 3.585 2.144 5.778 2.189 1.284.027 2.111-.513 2.232-1.53.122-1.026-.51-1.722-1.8-1.987-.084-.017-.161-.063-.202-.08-.022-1.167.037-2.313-.084-3.44-.188-1.736-.911-2.475-2.621-2.914-2.355-.605-4.583-.223-6.718.871-.052.027-.103.06-.157.084-2.647 1.193-3.438 3.253-3.622 6.107-.232 3.575 1.532 5.891 3.822 8.069.533.507 1.389.866 2.127.928 1.132.093 2.301-.061 3.433-.242A1.522 1.522 0 0 0 1.04 8.767C.911 8.014.226 7.502-.658 7.505c-.147 0-.295.028-.443.031-.827.02-1.758.593-2.452-.165-1.215-1.328-2.781-2.489-2.575-4.633.073-.762.038-1.535.055-2.303.016-.709.348-1.178.951-1.585 1.034-.697 2.121-1.16 3.367-1.273C.055-2.586.624-1.862 0 0" style="fill:#2c2c2c;fill-opacity:1;fill-rule:nonzero;stroke:none" transform="translate(343.34 115.076)"/><path d="M0 0c-.337 1.927-1.839 2.974-3.309 2.425-.206-.076-.474-.318-.491-.503a12.707 12.707 0 0 1-.02-2.198c.015-.179.426-.495.602-.463C-2.153-.542-1.103-.263 0 0m1.041-3.407c-1.286-.304-2.522-.572-3.74-.908-.201-.055-.481-.435-.448-.614.127-.675.268-1.382.589-1.978.587-1.091.512-2.085-.358-2.669-.87-.584-1.857-.318-2.596.688-.775 1.056-1.163 2.215-1.208 3.543-.041 1.198-.333 2.387-.416 3.586-.104 1.522-.197 3.054-.132 4.574.066 1.557.977 2.485 2.511 2.924 3.795 1.085 6.912-.534 8.107-4.35.651-2.081 1.208-4.192 1.795-6.293.087-.311.142-.638.154-.96.037-.958-.554-1.696-1.443-1.842-.885-.145-1.7.359-1.975 1.27-.297.985-.552 1.983-.84 3.029" style="fill:#2c2c2c;fill-opacity:1;fill-rule:nonzero;stroke:none" transform="translate(327.649 115.267)"/><path d="M0 0c1.749.161 3.643 1.943 3.809 3.819.259 2.918-2.253 4.962-5.058 3.936L0 0m7.242 3.089C7.045-.189 3.808-2.972.609-3.586A4.752 4.752 0 0 1-.4-3.881c-1.231-.531-2.335-.098-2.602 1.219-.539 2.659-.923 5.349-1.44 8.012-.17.88-.45 1.772-.861 2.566-.94 1.812.229 3.388 1.833 3.181.414-.054.861.166 1.296.238 2.099.347 4.166.035 6.096-.71C6.057 9.8 7.619 6.44 7.349 3.818c-.027-.264-.077-.526-.107-.729" style="fill:#2c2c2c;fill-opacity:1;fill-rule:nonzero;stroke:none" transform="translate(296.346 102.828)"/><path d="M0 0a1.752 1.752 0 0 1 2.034-1.076c.775.179 1.424.326 2.081.379 2.843.231 3.694.916 3.698 3.655.002 1.098-.381 2.288-.892 3.279-1.569 3.04-4.683 4.086-7.678 2.707-.293-.135-.583-.28-.865-.428a1.753 1.753 0 0 1-.81-2.182L0 0m-2.07-3.846C-2.424-2.554-2.664-1.217-3.156.02c-.985 2.476-1.989 4.959-3.206 7.324-1.165 2.262-1.294 2.421.817 2.87.774.164 1.545.411 2.234.8C.84 13.361 4.716 12.76 8.075 9.406c2.726-2.721 3.987-6.508 1.529-10.61-.719-1.201-2.378-2.17-3.791-2.538-1.684-.44-3.67-1.835-5.38.297-.202.251-1.168-.111-1.779-.189l-.724-.212" style="fill:#292929;fill-opacity:1;fill-rule:nonzero;stroke:none" transform="translate(262.048 100.236)"/><path d="M0 0c-.51 3.78-1.001 7.568-1.727 11.309-.049.251-.25.528-.521.779-.923-.067-1.85-.11-2.78-.137-.056-.334-.03-.72.046-1.096.249-1.218.513-2.434.776-3.642A1.756 1.756 0 0 0-5.535 5.13c-1.091-.249-2.18-.493-3.281-.64-2.623-.351-2.778-.16-3.144 2.714-.159 1.25-.617 1.949-1.379 2.099-1.109.219-2.051-.871-1.895-1.99.464-3.329.916-6.66 1.424-9.983.124-.813.33-2.075.822-2.257.673-.249 1.655.337 2.003.431l.225 4.185a1.757 1.757 0 0 0 1.593 1.657c1.11.099 2.273.208 3.392.492 1.99.505 3.129.46 2.491-1.877a5.915 5.915 0 0 1-.087-2.774c.161-.759.391-1.548.86-2.074.303-.341 1.576-.304 1.974.052.473.422.461 1.475.539 2.206C.096-1.754.118-.873 0 0" style="fill:#292929;fill-opacity:1;fill-rule:nonzero;stroke:none" transform="translate(221.776 93.238)"/><path d="M0 0c.987 4.326-.965 4.835-4.14 4.559-.745-.065-1.474-.732-2.133-1.225-.558-.416-1.303-.907-1.447-1.492-.509-2.08.817-4.006 2.981-4.415C-1.926-3.105-.629-2.468 0 0m-9.358 6.446a1.76 1.76 0 0 0 1.753 1.066c1.608-.128 3.117-.259 4.628-.323 3.183-.135 5.753-1.714 6.126-3.846.682-3.9-1.384-7.809-4.638-9.012-5.319-1.966-7.566 1.778-9.057 5.704-.909 2.391.305 4.353 1.188 6.411" style="fill:#292929;fill-opacity:1;fill-rule:nonzero;stroke:none" transform="translate(236.335 96.605)"/><path d="M0 0a1.763 1.763 0 0 1 1.844-1.641c.873.042 1.733.086 2.591.156 1.209.097 2.425.451 3.611.357.87-.069 1.696-.68 2.542-1.05l-.068-1.099c-2.81-.477-5.618-.968-8.433-1.418-.622-.099-1.283.031-1.899-.089-2.13-.416-2.908.839-3.136 2.591-.464 3.556-.9 7.119-1.154 10.692-.015.212.125.436.332.664.604.666 1.644.718 2.35.16.377-.299.681-.607.726-.95C-.336 5.661-.189 2.92 0 0" style="fill:#292929;fill-opacity:1;fill-rule:nonzero;stroke:none" transform="translate(245.392 97.372)"/><path d="M0 0c-.2.327-.429.628-.582.964-1.528 3.345-3.042 6.697-4.565 10.045-.942 2.071-1.896 4.138-2.836 6.211-.503 1.107-.29 1.959.665 2.829 4.254 3.876 8.438 7.829 12.651 11.75.407.378.84.728 1.261 1.091l.362-.124c-.122-1.19-.267-2.378-.36-3.57-.09-1.165-.127-2.333-.187-3.5-.044-.854-.153-1.712-.096-2.559.022-.333.352-.831.649-.928 1.305-.426 2.631-.841 3.982-1.063 3.434-.564 6.889-.996 10.327-1.53 4.053-.629 18.394-.619 21.447-.494 1.136.047 18.286 1.926 19.615 2.266.996.254 17.065 3.779 21.094 5.504 3.02 1.293 6.09 2.469 9.139 3.694.955.384 1.924.735 2.869 1.143.714.309 1.071.824.703 1.626-.948 2.071-1.904 4.138-2.836 6.216-.168.376-.234.799-.41 1.423 1.673-.256 3.17-.488 4.667-.714 2.965-.448 5.931-.896 8.897-1.336 2.598-.386 5.195-.779 7.798-1.133.99-.134 1.993-.178 2.991-.247.858-.06 1.114-.511.907-1.304-.744-2.847-1.509-5.69-2.21-8.548-.2-.819-2.655-8.924-3.77-12.142-.389-1.12-.599-2.302-.902-3.453-.042-.161-.152-.303-.301-.591-.285.269-2.626 4.1-3.63 5.78a21.754 21.754 0 0 1-1.872 2.697c-.297.361-.713.613-1.376.166-.779-.524-11.168-4.153-14.103-5.161-3.011-1.034-6.11-1.853-9.216-2.565-6.497-1.489-12.569-2.718-19.144-3.737-5.717-.885-12.093-1.217-17.886-1.436a93.944 93.944 0 0 0-10.448.197c-3.8.275-7.595.619-11.39.963-2.417.219-4.828.501-7.243.744-2.804.281-5.613.513-8.411.84-1.499.176-1.71.142-2.29-1.207C2.729 5.943.173.126 0 0Z" style="fill:none;stroke:#1c1e21;stroke-width:3;stroke-linecap:butt;stroke-linejoin:miter;stroke-miterlimit:10;stroke-dasharray:none;stroke-opacity:1" transform="translate(218.607 117.846)"/></g></svg>