<?xml version="1.0" encoding="UTF-8" standalone="no"?>
<!-- Created with Inkscape (http://www.inkscape.org/) -->

<svg
   version="1.1"
   id="svg2"
   width="415.20001"
   height="395.51999"
   viewBox="0 0 415.20001 395.51999"
   sodipodi:docname="node click expand colored.ai"
   xmlns:inkscape="http://www.inkscape.org/namespaces/inkscape"
   xmlns:sodipodi="http://sodipodi.sourceforge.net/DTD/sodipodi-0.dtd"
   xmlns="http://www.w3.org/2000/svg"
   xmlns:svg="http://www.w3.org/2000/svg">
  <defs
     id="defs6">
    <clipPath
       clipPathUnits="userSpaceOnUse"
       id="clipPath16">
      <path
         d="M 0,0 H 311.4 V 296.64 H 0 Z"
         id="path14" />
    </clipPath>
  </defs>
  <sodipodi:namedview
     id="namedview4"
     pagecolor="#ffffff"
     bordercolor="#000000"
     borderopacity="0.25"
     inkscape:showpageshadow="2"
     inkscape:pageopacity="0.0"
     inkscape:pagecheckerboard="0"
     inkscape:deskcolor="#d1d1d1" />
  <g
     id="g8"
     inkscape:groupmode="layer"
     inkscape:label="node click expand colored"
     transform="matrix(1.3333333,0,0,-1.3333333,0,395.52)">
    <g
       id="g10">
      <g
         id="g12"
         clip-path="url(#clipPath16)">
        <g
           id="g18"
           transform="translate(121.7176,137.674)">
          <path
             d="m 0,0 c 0,-1.498 -0.193,-3.025 0.035,-4.488 0.797,-5.121 3.24,-9.388 6.758,-13.194 1.263,-1.367 2.666,-1.027 4.029,-1.327 2.792,-0.616 5.592,-1.285 8.425,-1.601 3.203,-0.357 6.256,0.589 9.214,1.792 3.083,1.254 6.224,2.381 9.24,3.777 1.251,0.579 2.37,1.597 3.322,2.625 0.9,0.972 1.054,2.134 0.094,3.386 -0.834,1.087 -1.352,2.413 -2.049,3.61 -2.357,4.056 -1.144,7.874 1.38,11.12 1.466,1.886 1.854,3.145 0.963,5.4 -1.764,4.459 -5.113,7.116 -9.25,8.822 -4.042,1.668 -8.43,1.491 -12.739,1.509 C 15.394,21.449 11.834,19.797 8.743,17.611 2.781,13.396 -0.397,7.51 0,0 m 134.601,-68.836 c 0,1.027 0.104,2.043 -0.021,3.03 -0.294,2.322 -0.659,4.638 -1.066,6.944 -0.682,3.856 -1.411,7.703 -2.136,11.552 -0.416,2.212 -0.856,4.42 -1.295,6.628 -0.619,3.105 -1.285,6.2 -1.85,9.314 -0.21,1.157 -0.112,2.368 -0.3,3.531 -0.174,1.085 -0.746,2.132 -0.78,3.207 -0.066,2.151 -0.464,3.999 -2.029,5.691 -3.036,3.283 -5.36,7.186 -9.559,9.396 -1.518,0.799 -2.207,0.603 -3.105,-0.379 2.04,-2.771 4.068,-5.525 6.36,-8.638 -0.505,-0.523 -1.251,-1.296 -1.926,-1.996 -1.119,1.318 -2.258,2.133 -2.645,3.216 -1.008,2.828 -2.838,4.945 -5.244,6.494 -2.71,1.746 -5.728,2.67 -8.996,1.658 -1.218,-0.377 -1.734,-1.621 -1.168,-2.442 2.138,-3.107 4.317,-6.187 6.35,-9.362 0.382,-0.597 0.447,-1.719 0.138,-2.342 -0.272,-0.549 -1.079,-1.767 -1.997,-0.796 -0.809,0.855 -1.538,1.992 -1.8,3.121 -0.894,3.843 -3.534,6.484 -6.04,9.213 -0.549,0.597 -1.493,1.045 -2.306,1.146 -2.632,0.326 -5.169,0.453 -7.934,-0.102 -2.852,-0.572 -4.114,-1.836 -4.906,-4.131 0.366,-0.424 0.742,-0.782 1.026,-1.203 2.019,-2.988 4.059,-5.964 5.981,-9.015 0.253,-0.403 0.053,-1.322 -0.255,-1.795 -0.492,-0.758 -1.194,-0.574 -1.687,0.141 -1.127,1.633 -2.237,3.277 -3.347,4.921 -1.196,1.771 -2.248,3.66 -3.608,5.293 -1.774,2.13 -3.723,4.129 -5.72,6.056 -2.207,2.13 -4.371,4.385 -6.888,6.093 -2.915,1.978 -6.183,3.44 -9.321,5.082 -0.872,0.456 -1.96,0.58 -2.718,1.158 C 50.817,4.133 47.26,4.08 43.803,4.435 43.347,4.482 42.712,4.194 42.382,3.849 c -2.556,-2.675 -2.313,-7.68 0.199,-10.058 0.248,-0.235 0.59,-0.386 0.797,-0.648 2.873,-3.625 5.725,-7.267 8.596,-10.895 0.527,-0.666 1.149,-1.258 1.671,-1.928 1.872,-2.399 3.709,-4.826 5.579,-7.226 2.153,-2.762 4.35,-5.49 6.48,-8.27 0.599,-0.782 1.016,-1.702 1.541,-2.542 2.471,-3.957 6.111,-7.133 7.752,-11.643 0.544,-1.493 1.239,-2.948 1.614,-4.482 0.403,-1.645 -1.422,-3.525 -3.125,-3.591 -3.818,-0.147 -7.547,0.104 -10.952,2.081 -3.795,2.203 -7.804,3.369 -12.233,2.63 -0.676,-0.112 -1.378,-0.2 -2.056,-0.147 -2.609,0.204 -4.885,-1.4 -5.464,-3.656 -0.112,-0.439 -0.614,-0.778 -0.979,-1.215 0.224,-1.195 0.119,-2.713 0.777,-3.745 1.646,-2.578 3.839,-4.638 7.054,-5.241 3.72,-0.699 7.462,-1.317 11.131,-2.228 2.668,-0.662 5.447,-1.145 7.706,-3.01 0.964,-0.797 2.157,-1.346 3.303,-1.885 1.831,-0.86 3.737,-1.563 5.56,-2.439 1.439,-0.692 2.759,-2.096 4.206,-2.208 2.995,-0.231 6.039,0.182 9.062,0.346 0.928,0.051 1.926,0.42 2.765,0.187 3.421,-0.946 6.902,-1.816 10.148,-3.207 2.482,-1.064 4.848,-1.447 7.438,-0.996 3.871,0.676 7.715,1.608 11.073,3.638 3.108,1.88 5.939,4.228 8.838,6.442 1.361,1.04 2.594,2.249 3.738,3.251 m -55.897,56.535 c 1.855,4.292 5.656,4.775 9.612,4.972 2.8,0.139 5.513,-0.183 8.314,-1.473 2.503,3.54 6.396,3.766 9.886,2.359 2.49,-1.004 4.188,-0.932 6.476,0.069 1.187,0.519 2.969,0.538 4.137,-1.124 0.564,-0.802 1.909,-1.02 2.825,-1.618 2.307,-1.508 3.645,-3.837 5.127,-6.072 0.85,-1.281 2.176,-2.237 3.099,-3.48 0.803,-1.08 1.675,-2.29 1.931,-3.561 0.705,-3.487 1.092,-7.038 1.622,-10.56 0.461,-3.065 0.944,-6.126 1.42,-9.188 0.486,-3.131 0.908,-6.274 1.48,-9.389 0.659,-3.59 1.538,-7.14 2.15,-10.736 0.343,-2.015 0.331,-4.09 0.5,-6.136 0.043,-0.522 0.167,-1.037 0.253,-1.555 0.165,-0.079 0.329,-0.159 0.493,-0.238 -3.068,-2.386 -6.084,-4.842 -9.222,-7.132 -2.005,-1.464 -4.148,-2.755 -6.304,-3.994 -3.065,-1.763 -6.457,-2.572 -9.898,-3.303 -5.288,-1.123 -9.95,0.795 -14.634,2.694 -3.004,1.217 -6.113,0.792 -9.145,0.507 -5.014,-0.473 -9.521,0.456 -13.704,3.362 -2,1.39 -4.271,2.43 -6.511,3.422 -3.56,1.576 -7.193,2.992 -10.808,4.443 -0.535,0.214 -1.138,0.294 -1.719,0.353 -2.627,0.268 -5.306,0.273 -7.875,0.809 -4.111,0.858 -7.01,3.558 -8.505,7.366 -1.699,4.326 1.555,10.057 6.241,10.886 3.571,0.631 7.192,0.692 10.911,-0.124 3.336,-0.733 6.093,-2.478 9.159,-3.632 1.343,-0.506 2.917,-0.425 4.391,-0.542 0.89,-0.072 1.791,-0.014 2.784,-0.014 0.259,1.74 0.928,3.341 -1.065,4.588 -0.544,0.34 -0.308,1.745 -0.787,2.402 -2.159,2.966 -4.489,5.808 -6.677,8.754 -2.543,3.424 -4.887,7.003 -7.529,10.347 -3.578,4.53 -7.363,8.896 -11.042,13.348 -0.283,0.343 -0.392,0.824 -0.633,1.209 -0.906,1.447 -1.57,1.252 -2.798,0.141 -1.697,-1.535 -3.574,-3.048 -5.643,-3.957 -4.085,-1.796 -8.284,-3.425 -12.577,-4.614 -2.252,-0.624 -4.82,-0.371 -7.211,-0.146 -2.471,0.231 -5.027,0.585 -7.314,1.48 -2.261,0.884 -4.401,2.115 -6.285,3.917 -2.62,2.506 -4.305,5.266 -5.154,8.78 -0.631,2.612 -1.322,5.172 -0.997,7.858 0.456,3.756 -0.03,7.726 2.068,11.138 1.277,2.078 3.004,3.941 4.32,5.907 2.34,3.497 6.056,4.505 9.195,6.451 1.873,1.161 4.462,1.188 6.742,1.659 0.979,0.202 2.033,0.474 2.982,0.306 3.254,-0.574 6.489,-1.276 9.708,-2.028 3.53,-0.825 6.303,-3.085 8.559,-5.662 1.701,-1.942 2.783,-4.552 3.676,-7.032 0.597,-1.66 1.185,-2.605 3.016,-3.051 2.554,-0.623 4.929,-2.14 7.493,-2.527 3.639,-0.549 6.254,-2.955 9.33,-4.453 2.595,-1.263 4.678,-3.6 6.944,-5.513 2.194,-1.853 4.339,-3.764 6.487,-5.671 0.282,-0.251 0.449,-0.63 0.706,-1.002"
             style="fill:#2c2c2c;fill-opacity:1;fill-rule:nonzero;stroke:none"
             id="path20" />
        </g>
        <g
           id="g22"
           transform="translate(67.9545,62.9332)">
          <path
             d="m 0,0 c -0.542,-1.825 -1.153,-3.882 -1.763,-5.938 0.205,-0.076 0.409,-0.152 0.614,-0.228 0.509,1.449 1.018,2.897 1.527,4.345 0.292,-0.517 0.389,-0.994 0.276,-1.413 -0.834,-3.081 -1.724,-6.147 -2.556,-9.228 -0.134,-0.495 -0.065,-1.044 -0.09,-1.567 0.601,-0.016 1.249,-0.187 1.793,-0.019 2.039,0.631 4.069,1.312 6.056,2.092 1.648,0.647 3.217,1.49 4.846,2.19 1.649,0.709 1.731,0.747 0.366,2.122 -0.786,0.791 -1.832,1.327 -2.774,1.959 C 7.979,-5.473 7.588,-5.364 7.29,-5.132 5.438,-3.69 3.62,-2.203 1.75,-0.785 1.297,-0.442 0.691,-0.302 0,0 m 10.818,-3.849 c 1.993,-2.204 3.907,-4.32 5.823,-6.436 -0.741,-2.46 -3.02,-2.325 -4.826,-2.557 -3.118,-0.401 -5.742,-1.957 -8.595,-2.979 -1.986,-0.712 -4.231,-0.804 -6.372,-0.895 -0.428,-0.019 -1.239,1.183 -1.312,1.88 -0.357,3.442 -0.14,6.845 1.041,10.165 0.485,1.361 0.528,2.875 0.976,4.254 0.281,0.866 0.939,1.61 1.508,2.539 2.377,-0.147 4.648,-0.944 6.673,-2.376 3.119,-2.206 3.111,-2.243 5.861,0.325 1.445,1.349 2.88,2.711 4.262,4.122 3.926,4.007 7.849,8.018 11.721,12.076 2.37,2.485 4.616,5.088 6.972,7.586 1.91,2.025 3.967,3.913 5.841,5.97 2.089,2.295 4.018,4.735 6.065,7.069 2.328,2.654 4.745,5.232 7.055,7.902 1.145,1.324 2.078,2.832 3.227,4.153 0.464,0.534 1.222,0.853 1.904,1.128 0.153,0.062 0.821,-0.533 0.779,-0.721 -0.153,-0.697 -0.377,-1.449 -0.806,-2 -1.041,-1.336 -2.201,-2.58 -3.331,-3.845 -1.995,-2.235 -4.043,-4.424 -5.996,-6.695 -2.319,-2.697 -4.56,-5.461 -6.835,-8.196 -0.077,-0.092 -0.141,-0.195 -0.227,-0.277 -2.29,-2.19 -4.644,-4.318 -6.856,-6.585 C 33.439,19.779 31.71,17.605 29.817,15.587 24.939,10.389 20.041,5.209 15.104,0.068 13.798,-1.292 12.32,-2.486 10.818,-3.849"
             style="fill:#2c2c2c;fill-opacity:1;fill-rule:nonzero;stroke:none"
             id="path24" />
        </g>
        <g
           id="g26"
           transform="translate(241.2948,178.1858)">
          <path
             d="m 0,0 c -0.067,-0.18 -0.135,-0.359 -0.202,-0.539 1.8,-5.626 3.601,-11.252 5.381,-16.813 2.817,3.217 5.777,6.598 8.58,9.799 -3.238,1.917 -6.474,3.887 -9.768,5.757 C 2.727,-1.079 1.334,-0.592 0,0 m -65.137,-29.086 c 21.828,6.847 42.887,15.447 65.477,19.959 -1.15,2.501 -2.319,4.703 -3.159,7.025 -0.371,1.025 -0.533,2.664 0.031,3.357 0.782,0.963 2.211,1.765 3.769,1.112 3.912,-1.642 7.636,-3.611 11.045,-6.165 0.723,-0.542 1.614,-1.039 2.483,-1.161 1.364,-0.192 2.175,-1.073 2.212,-2.124 0.029,-0.812 -0.725,-1.854 -1.429,-2.431 -0.661,-0.542 -1.222,-0.845 -1.424,-1.834 -0.134,-0.654 -1.143,-1.106 -1.706,-1.701 -2.069,-2.186 -4.087,-4.421 -6.194,-6.571 -0.449,-0.458 -1.189,-0.63 -1.794,-0.936 -1.214,-0.613 -1.612,-0.266 -1.778,1.112 -0.289,2.409 -0.779,4.808 -1.418,7.148 -0.099,0.362 -1.497,0.677 -2.184,0.523 -4.604,-1.033 -9.192,-2.145 -13.757,-3.342 -2.67,-0.701 -5.288,-1.598 -7.925,-2.423 -2.385,-0.745 -4.759,-1.528 -7.147,-2.266 -2.09,-0.646 -4.212,-1.19 -6.282,-1.89 -4.295,-1.45 -8.503,-3.213 -12.874,-4.36 -1.999,-0.525 -3.598,-1.708 -5.505,-2.25 -1.565,-0.445 -3.164,-0.77 -4.727,-1.222 -0.763,-0.22 -1.544,-0.506 -2.201,-0.938 -1.864,-1.225 -1.957,-1.227 -3.513,1.378"
             style="fill:#2c2c2c;fill-opacity:1;fill-rule:nonzero;stroke:none"
             id="path28" />
        </g>
        <g
           id="g30"
           transform="translate(197.6647,226.1662)">
          <path
             d="M 0,0 C -4.541,-1.537 -8.873,-3.003 -13.42,-4.541 -9.144,-7.79 -5.1,-10.863 -0.709,-14.2 0.086,-9.461 -0.275,-4.797 0,0 m -17.021,-6.57 c -1.405,2.016 -1.219,2.77 1.21,3.603 4.599,1.576 9.185,3.215 13.857,4.541 C -0.75,1.916 0.866,2.907 2.149,1.403 2.401,1.107 2.838,0.764 2.816,0.472 2.622,-2.046 2.302,-4.554 2.104,-7.072 2.001,-8.377 2.115,-9.697 2.046,-11.006 c -0.079,-1.514 -0.03,-3.095 -0.482,-4.505 -0.209,-0.649 -1.427,-1.108 -2.275,-1.385 -0.981,-0.32 -1.903,-0.132 -2.248,1.14 -0.096,0.353 -0.534,0.666 -0.885,0.889 -0.998,0.636 -2.118,1.108 -3.032,1.842 -1.398,1.121 -2.056,0.969 -2.818,-0.59 -1.036,-2.12 -2.301,-4.128 -3.376,-6.232 -0.972,-1.9 -1.703,-3.93 -2.749,-5.786 -1.92,-3.407 -4.017,-6.713 -5.995,-10.088 -1.536,-2.619 -2.898,-5.346 -4.528,-7.902 -1.988,-3.117 -4.25,-6.058 -6.253,-9.166 -1.622,-2.518 -3.027,-5.176 -4.546,-7.762 -0.735,-1.252 -1.283,-2.733 -2.852,-3.171 -0.481,-0.134 -1.096,0.213 -1.65,0.341 0.198,0.512 0.311,1.081 0.608,1.526 1.576,2.356 3.252,4.645 4.792,7.023 2.995,4.627 5.946,9.283 8.865,13.959 1.226,1.966 2.311,4.019 3.481,6.02 1.581,2.707 3.229,5.377 4.759,8.112 1.159,2.073 2.169,4.228 3.264,6.337 1.468,2.829 2.857,5.706 4.465,8.454 1.178,2.014 1.148,2.506 -0.874,3.573 -0.994,0.525 -1.871,1.276 -2.877,1.771 -0.434,0.213 -1.061,0.036 -1.861,0.036"
             style="fill:#2c2c2c;fill-opacity:1;fill-rule:nonzero;stroke:none"
             id="path32" />
        </g>
        <g
           id="g34"
           transform="translate(54.7065,131.7815)">
          <path
             d="m 0,0 c -0.152,0.037 -0.303,0.075 -0.455,0.112 -0.318,-0.58 -0.643,-1.155 -0.951,-1.74 -0.535,-1.015 -0.985,-2.083 -1.602,-3.044 -1.841,-2.867 -3.766,-5.678 -5.586,-8.558 -0.16,-0.252 0.082,-1.082 0.358,-1.228 0.858,-0.454 1.799,-0.825 2.751,-1.016 1.958,-0.392 3.954,-0.588 5.913,-0.973 1.837,-0.36 2.626,0.115 2.83,2.01 0.069,0.641 -0.192,1.326 -0.083,1.953 0.308,1.776 -1.329,2.836 -1.463,4.571 C 1.506,-5.247 0.606,-2.635 0,0 m 5.785,-16.584 c -0.905,-0.639 -2.038,-1.844 -3.424,-2.332 -2.713,-0.955 -5.504,-0.97 -8.222,0.38 -1.185,0.588 -2.541,0.83 -3.82,1.226 -0.274,0.084 -0.61,0.082 -0.816,0.246 -0.636,0.505 -0.74,4.025 -0.241,4.71 1.126,1.545 2.29,3.073 3.285,4.701 1.593,2.605 3.114,5.258 4.56,7.947 0.691,1.286 1.468,2.326 3.054,2.183 1.754,-0.158 1.925,-1.797 2.323,-2.983 0.577,-1.721 0.669,-3.609 1.28,-5.313 0.188,-0.522 1.509,-1.093 2.131,-0.935 8.114,2.064 16.547,2.708 24.492,5.548 1.461,0.523 3.136,0.689 4.7,0.638 3.189,-0.104 5.965,1.435 8.973,1.945 3.3,0.56 6.662,0.746 9.992,1.139 1.859,0.22 3.704,0.571 5.564,0.775 C 60.344,3.37 61.098,3.207 61.913,3.15 61.41,1.486 60.518,1.107 59.159,0.917 54.274,0.231 49.423,-0.688 44.55,-1.46 43.153,-1.682 41.715,-1.643 40.312,-1.841 39.402,-1.969 38.531,-2.353 37.627,-2.551 33.049,-3.552 28.465,-4.53 23.884,-5.52 23.599,-5.582 23.319,-5.768 23.043,-5.756 18.25,-5.546 13.972,-7.9 9.343,-8.497 c -0.29,-0.038 -0.57,-0.148 -0.86,-0.179 -2.851,-0.3 -2.995,-0.538 -2.721,-3.366 0.132,-1.363 0.023,-2.749 0.023,-4.542"
             style="fill:#2c2c2c;fill-opacity:1;fill-rule:nonzero;stroke:none"
             id="path36" />
        </g>
        <g
           id="g38"
           transform="translate(95.1803,206.3001)">
          <path
             d="m 0,0 c -0.376,-1.169 -0.764,-2.245 -1.064,-3.345 -0.319,-1.163 -0.578,-2.345 -0.822,-3.528 -0.303,-1.468 0.247,-1.981 1.645,-1.379 1.467,0.632 2.891,1.397 3.346,3.18 0.075,0.294 0.53,0.647 0.848,0.691 0.734,0.103 1.491,0.033 2.297,0.033 C 5.695,-2.661 3.12,-0.896 0,0 m -4.691,-10.539 c 0.438,1.787 0.896,3.541 1.294,5.307 0.515,2.288 1.022,4.579 1.456,6.883 0.288,1.527 0.961,1.99 2.28,1.213 3.115,-1.833 6.18,-3.75 9.268,-5.629 0.348,-0.212 0.711,-0.399 1.101,-0.616 -1.48,-1.329 -2.869,-2.575 -4.189,-3.761 1.227,-3.543 4.218,-6.003 6.096,-9.249 2.047,-3.537 4.924,-6.538 6.742,-10.291 1.481,-3.058 3.508,-5.848 5.246,-8.784 1.643,-2.776 3.275,-5.561 4.805,-8.399 0.517,-0.958 0.822,-2.072 1,-3.151 0.082,-0.496 -0.378,-1.081 -0.592,-1.626 -0.599,0.298 -1.683,0.546 -1.719,0.901 -0.286,2.791 -2.069,4.796 -3.4,7.048 -2.612,4.42 -5.174,8.87 -7.757,13.308 -0.854,1.468 -1.651,2.972 -2.573,4.395 -1.82,2.807 -3.669,5.596 -5.583,8.339 -1.136,1.629 -2.444,3.137 -3.629,4.733 -1.335,1.799 -2.492,0.242 -3.551,-0.268 -2.163,-1.041 -3.684,-1.471 -6.295,-0.353"
             style="fill:#2c2c2c;fill-opacity:1;fill-rule:nonzero;stroke:none"
             id="path40" />
        </g>
        <g
           id="g42"
           transform="translate(49.2974,29.8811)">
          <path
             d="m 0,0 c 3.45,0.071 6.088,1.463 7.753,4.597 1.144,2.152 1.774,4.259 0.342,6.532 -0.947,1.504 -2.056,2.724 -3.974,2.886 -1.282,0.108 -2.82,-0.117 -3.767,0.518 -1.019,0.684 -1.641,0.476 -2.426,0.061 C -5.938,12.554 -7.58,8.217 -5.579,4.118 -4.469,1.843 -2.882,-0.015 0,0 m -8.637,7.906 c -0.229,5.248 3.059,8.204 7.527,9.231 C 1.059,17.635 3.788,17.1 5.883,16.173 8.796,14.885 10.468,12.076 11.466,9.056 12.062,7.253 9.944,2.36 8.37,1.194 6.473,-0.211 4.835,-1.803 2.258,-2.268 c -4.521,-0.816 -7.022,0.006 -9.077,4.074 -0.95,1.879 -1.514,3.952 -2.252,5.937 0.144,0.054 0.289,0.109 0.434,0.163"
             style="fill:#2c2c2c;fill-opacity:1;fill-rule:nonzero;stroke:none"
             id="path44" />
        </g>
        <g
           id="g46"
           transform="translate(270.2403,172.4413)">
          <path
             d="M 0,0 C 3.423,-0.051 6.067,1.451 8.205,4.038 9.818,5.99 9.338,8.167 8.955,10.327 8.9,10.638 8.497,10.963 8.176,11.139 5.71,12.49 0.624,13.154 -1.659,10.58 -2.605,9.512 -3.406,8.286 -4.115,7.041 -6.063,3.617 -3.959,0.065 0,0 m -7.714,4.4 c 0.289,3.261 4.285,9.072 7.632,10.126 3.505,1.104 6.406,0.517 9.356,-1.101 C 11.892,11.99 12.095,9.309 11.954,6.87 11.661,1.779 8.264,-1.15 3.683,-2.001 0.409,-2.609 -3.48,-3.004 -5.999,0.306 -6.866,1.445 -7.159,3.023 -7.714,4.4"
             style="fill:#2c2c2c;fill-opacity:1;fill-rule:nonzero;stroke:none"
             id="path48" />
        </g>
        <g
           id="g50"
           transform="translate(209.6983,239.4437)">
          <path
             d="M 0,0 C 1.257,0.518 2.615,0.874 3.75,1.586 6.359,3.221 7.518,5.85 6.983,8.914 6.689,10.594 4.897,11.803 3.304,11.453 2.705,11.321 2.177,10.884 1.58,10.73 0.4,10.425 -0.835,10.314 -1.994,9.951 -3.606,9.447 -5.543,6.069 -5.181,4.395 -4.717,2.25 -3.006,-0.115 0,0 m -0.58,-2.234 c -1.36,-0.004 -3.435,0.044 -4.907,1.761 -0.475,0.554 -0.6,1.4 -0.915,2.1 -1.99,4.417 -1.493,6.749 2.119,9.887 3.19,2.771 7.689,3.099 11.497,1.014 C 9.278,11.399 9.175,9.367 9.543,7.574 10.064,5.044 9.035,2.829 7.433,0.964 5.544,-1.235 3.061,-2.315 -0.58,-2.234"
             style="fill:#2c2c2c;fill-opacity:1;fill-rule:nonzero;stroke:none"
             id="path52" />
        </g>
        <g
           id="g54"
           transform="translate(30.5174,123.4445)">
          <path
             d="m 0,0 c -2.617,0.301 -5.949,-2.959 -5.913,-6.506 0.019,-1.801 1.092,-3.811 2.244,-5.294 0.643,-0.826 2.413,-0.973 3.7,-1.059 2.441,-0.163 6.788,2.877 7.073,6.077 C 7.427,-3.147 4.707,-0.542 0,0 m -3.85,1.85 c 2.255,0 4.257,0.021 6.258,-0.005 C 5.106,1.81 8.269,-1.288 8.802,-3.95 9.193,-5.909 9.896,-7.766 8.747,-9.67 8.497,-10.084 8.32,-10.556 8.013,-10.919 5.968,-13.327 3.429,-15.16 0.27,-15.299 c -1.644,-0.072 -3.608,0.672 -4.957,1.678 -3.209,2.393 -4.079,6.043 -3.766,9.818 0.103,1.242 1.35,2.452 2.235,3.546 0.661,0.817 1.581,1.423 2.368,2.107"
             style="fill:#2c2c2c;fill-opacity:1;fill-rule:nonzero;stroke:none"
             id="path56" />
        </g>
        <g
           id="g58"
           transform="translate(83.6731,214.2584)">
          <path
             d="m 0,0 c 3.157,-3.435 6.033,-1.471 8.387,0.242 1.467,1.067 2.143,3.326 2.947,5.15 0.33,0.75 -0.166,1.847 0.122,2.638 0.485,1.332 0.222,1.999 -1.143,2.35 C 9.288,10.644 8.197,11.477 7.315,11.275 6.081,10.991 4.99,10.015 3.88,9.271 1.924,7.96 0.739,5.986 0.076,3.848 -0.334,2.527 0,0.975 0,0 M 13.859,6.682 C 14.562,2.171 10.263,-1.538 7.324,-3.073 6.031,-3.747 4.506,-4.128 3.046,-4.298 c -2.32,-0.272 -4.714,1.939 -5.021,4.272 -0.555,4.217 0.73,7.712 3.978,10.468 1.25,1.061 2.459,2.183 3.793,3.129 1.08,0.767 4.544,-0.204 5.881,-1.521 1.549,-1.526 2.756,-3.202 2.182,-5.368"
             style="fill:#2c2c2c;fill-opacity:1;fill-rule:nonzero;stroke:none"
             id="path60" />
        </g>
        <g
           id="g62"
           transform="translate(270.3826,83.5068)">
          <path
             d="m 0,0 c 1.808,-1.682 3.441,-3.14 5.003,-4.671 1.633,-1.6 1.483,-2.606 -0.377,-3.718 -1.439,1.616 -2.837,3.246 -4.313,4.803 -0.379,0.399 -1.004,0.566 -1.516,0.839 -0.198,-0.478 -0.443,-0.941 -0.585,-1.435 -0.417,-1.45 -0.822,-2.904 -1.166,-4.372 -0.105,-0.448 0.195,-1.23 -0.017,-1.371 -0.762,-0.51 -1.662,-0.81 -2.511,-1.19 -0.122,0.135 -0.245,0.27 -0.368,0.406 0.688,3.014 1.377,6.027 2.135,9.348 -1.151,-0.238 -2.183,-0.609 -3.215,-0.61 -0.697,0 -1.393,0.523 -2.09,0.812 0.482,0.517 0.873,1.311 1.462,1.506 3.545,1.172 7.141,2.189 10.707,3.301 C 4.086,3.94 5.092,4.223 5.862,4.789 7.201,5.773 7.638,4.72 8.079,3.924 8.654,2.886 7.856,2.683 7.028,2.421 4.818,1.722 2.641,0.919 0,0"
             style="fill:#2c2c2c;fill-opacity:1;fill-rule:nonzero;stroke:none"
             id="path64" />
        </g>
        <g
           id="g66"
           transform="translate(254.6466,112.1341)">
          <path
             d="m 0,0 c -0.326,2.813 -1.592,5.015 -1.097,7.829 0.28,1.589 0.304,3.186 1.508,4.121 2.106,1.635 4.342,3.199 7.343,2.682 2.718,-0.469 4.869,-2.9 4.766,-5.64 C 12.464,7.511 11.519,6.515 9.78,6.106 9.277,6.889 8.306,7.479 9.416,8.671 9.734,9.013 9.275,10.515 8.75,11.117 7.62,12.411 5.886,12.388 4.44,11.94 2.51,11.342 1.539,9.582 1.708,7.563 1.82,6.23 2.198,4.92 2.334,3.587 2.452,2.439 3.015,0.973 0.95,0.849 0.701,0.834 0.475,0.439 0,0"
             style="fill:#2c2c2c;fill-opacity:1;fill-rule:nonzero;stroke:none"
             id="path68" />
        </g>
        <g
           id="g70"
           transform="translate(271.1786,94.3323)">
          <path
             d="m 0,0 c -0.437,0.719 -0.714,1.656 -1.341,2.114 -1.571,1.148 -3.545,1.225 -5.044,0.215 -0.854,-0.574 -1.296,-2.194 -1.378,-3.38 -0.12,-1.75 0.804,-3.258 1.938,-4.637 0.313,-0.38 0.047,-1.236 0.047,-2.473 -1.635,0.933 -2.796,1.596 -4.063,2.32 -0.094,1.635 -0.392,3.414 -0.24,5.154 0.156,1.788 0.507,3.611 2.098,4.895 2.349,1.896 8.332,0.76 9.467,-2.002 C 1.713,1.649 0.898,0.664 0.564,-0.123 0.376,-0.082 0.188,-0.041 0,0"
             style="fill:#2c2c2c;fill-opacity:1;fill-rule:nonzero;stroke:none"
             id="path72" />
        </g>
        <g
           id="g74"
           transform="translate(259.2584,109.9994)">
          <path
             d="M 0,0 C 0.688,-1.823 1.398,-3.564 1.974,-5.349 2.088,-5.702 1.803,-6.455 1.493,-6.612 1.025,-6.85 0.32,-6.878 -0.181,-6.701 c -0.318,0.112 -0.47,0.746 -0.662,1.161 -0.755,1.625 -1.606,3.219 -2.18,4.907 -0.196,0.576 0.107,1.819 0.541,2.034 C 0.666,2.96 3.902,4.34 7.119,5.758 7.435,5.897 7.843,6.036 8.144,5.95 8.669,5.799 9.145,5.473 9.641,5.221 9.283,4.745 9.025,4.044 8.55,3.832 6.416,2.883 4.207,2.102 2.053,1.196 1.316,0.887 0.658,0.39 0,0"
             style="fill:#2c2c2c;fill-opacity:1;fill-rule:nonzero;stroke:none"
             id="path76" />
        </g>
        <g
           id="g78"
           transform="translate(140.272,100.6636)">
          <path
             d="m 0,0 c 0.658,0.291 1.29,0.694 1.979,0.856 4.075,0.954 8.338,1.111 12.063,3.452 2.663,1.674 4.239,1.655 6.226,0.626 C 18.404,2.384 3.156,-1.797 0,0"
             style="fill:#2c2c2c;fill-opacity:1;fill-rule:nonzero;stroke:none"
             id="path80" />
        </g>
        <g
           id="g82"
           transform="translate(157.388,111.8749)">
          <path
             d="m 0,0 c 0.565,-2.706 -1.102,-2.639 -2.671,-3.062 -4.664,-1.259 -9.35,-2.233 -14.2,-2.248 -0.234,-0.001 -0.468,0.043 -0.75,0.072 -0.422,1.417 0.498,1.548 1.48,1.72 4.228,0.739 8.46,1.467 12.671,2.298 1.203,0.238 2.339,0.813 3.47,1.22"
             style="fill:#2c2c2c;fill-opacity:1;fill-rule:nonzero;stroke:none"
             id="path84" />
        </g>
        <g
           id="g86"
           transform="translate(259.2256,99.0127)">
          <path
             d="m 0,0 c -0.515,0.53 -0.999,1.026 -1.482,1.523 0.535,0.335 1.031,0.794 1.614,0.982 2.194,0.709 4.433,1.278 6.62,2.006 1.132,0.376 2.152,1.197 3.296,1.396 0.76,0.132 1.65,-0.479 2.482,-0.757 C 12.266,4.536 12.133,3.504 11.717,3.373 7.965,2.194 4.163,1.173 0,0"
             style="fill:#2c2c2c;fill-opacity:1;fill-rule:nonzero;stroke:none"
             id="path88" />
        </g>
        <g
           id="g90"
           transform="translate(179.4435,159.6949)">
          <path
             d="M 0,0 C -1.668,1.257 -2.627,1.854 -4.587,7.66 -3.686,7.477 -2.739,7.568 -2.451,7.175 -1.464,5.83 -0.572,4.373 0.077,2.84 0.383,2.118 0.054,1.128 0,0"
             style="fill:#2c2c2c;fill-opacity:1;fill-rule:nonzero;stroke:none"
             id="path92" />
        </g>
        <g
           id="g94"
           transform="translate(171.7332,155.4801)">
          <path
             d="M 0,0 C -1.019,1.454 -2.069,2.7 -2.801,4.111 -3.137,4.757 -2.846,5.728 -2.839,6.551 -2.227,6.233 -1.424,6.063 -1.041,5.568 0,4.221 0.863,2.737 1.842,1.236 1.249,0.838 0.632,0.424 0,0"
             style="fill:#2c2c2c;fill-opacity:1;fill-rule:nonzero;stroke:none"
             id="path96" />
        </g>
        <g
           id="g98"
           transform="translate(121.7176,137.674)">
          <path
             d="m 0,0 c -0.397,7.51 2.781,13.396 8.743,17.611 3.091,2.186 6.651,3.838 10.679,3.82 4.309,-0.018 8.697,0.159 12.739,-1.509 4.137,-1.706 7.486,-4.363 9.25,-8.822 0.891,-2.255 0.503,-3.514 -0.963,-5.4 -2.524,-3.246 -3.737,-7.064 -1.38,-11.12 0.697,-1.197 1.215,-2.523 2.049,-3.61 0.96,-1.252 0.806,-2.414 -0.094,-3.386 -0.952,-1.028 -2.071,-2.046 -3.322,-2.625 -3.016,-1.396 -6.157,-2.523 -9.24,-3.777 -2.958,-1.203 -6.011,-2.149 -9.214,-1.792 -2.833,0.316 -5.633,0.985 -8.425,1.601 -1.363,0.3 -2.766,-0.04 -4.029,1.327 C 3.275,-13.876 0.832,-9.609 0.035,-4.488 -0.193,-3.025 0,-1.498 0,0"
             style="fill:#ba0938;fill-opacity:1;fill-rule:nonzero;stroke:none"
             id="path100" />
        </g>
        <g
           id="g102"
           transform="translate(67.9545,62.9332)">
          <path
             d="m 0,0 c 0.691,-0.302 1.297,-0.442 1.75,-0.785 1.87,-1.418 3.688,-2.905 5.54,-4.347 0.298,-0.232 0.689,-0.341 1.005,-0.553 0.942,-0.632 1.988,-1.168 2.774,-1.959 1.365,-1.375 1.283,-1.413 -0.366,-2.122 -1.629,-0.7 -3.198,-1.543 -4.846,-2.19 -1.987,-0.78 -4.017,-1.461 -6.056,-2.092 -0.544,-0.168 -1.192,0.003 -1.793,0.019 0.025,0.523 -0.044,1.072 0.09,1.567 0.832,3.081 1.722,6.147 2.556,9.228 0.113,0.419 0.016,0.896 -0.276,1.413 -0.509,-1.448 -1.018,-2.896 -1.527,-4.345 -0.205,0.076 -0.409,0.152 -0.614,0.228 C -1.153,-3.882 -0.542,-1.825 0,0"
             style="fill:#ba0938;fill-opacity:1;fill-rule:nonzero;stroke:none"
             id="path104" />
        </g>
        <g
           id="g106"
           transform="translate(241.2948,178.1858)">
          <path
             d="m 0,0 c 1.334,-0.592 2.727,-1.079 3.991,-1.796 3.294,-1.87 6.53,-3.84 9.768,-5.757 -2.803,-3.201 -5.763,-6.582 -8.58,-9.799 -1.78,5.561 -3.581,11.187 -5.381,16.813 C -0.135,-0.359 -0.067,-0.18 0,0"
             style="fill:#ba0938;fill-opacity:1;fill-rule:nonzero;stroke:none"
             id="path108" />
        </g>
        <g
           id="g110"
           transform="translate(197.6647,226.1662)">
          <path
             d="M 0,0 C -0.275,-4.797 0.086,-9.461 -0.709,-14.2 -5.1,-10.863 -9.144,-7.79 -13.42,-4.541 -8.873,-3.003 -4.541,-1.537 0,0"
             style="fill:#ba0938;fill-opacity:1;fill-rule:nonzero;stroke:none"
             id="path112" />
        </g>
        <g
           id="g114"
           transform="translate(54.7065,131.7815)">
          <path
             d="m 0,0 c 0.606,-2.635 1.506,-5.247 1.712,-7.913 0.134,-1.735 1.771,-2.795 1.463,-4.571 -0.109,-0.627 0.152,-1.312 0.083,-1.953 -0.204,-1.895 -0.993,-2.37 -2.83,-2.01 -1.959,0.385 -3.955,0.581 -5.913,0.973 -0.952,0.191 -1.893,0.562 -2.751,1.016 -0.276,0.146 -0.518,0.976 -0.358,1.228 1.82,2.88 3.745,5.691 5.586,8.558 0.617,0.961 1.067,2.029 1.602,3.044 0.308,0.585 0.633,1.16 0.951,1.74 C -0.303,0.075 -0.152,0.037 0,0"
             style="fill:#ba0938;fill-opacity:1;fill-rule:nonzero;stroke:none"
             id="path116" />
        </g>
        <g
           id="g118"
           transform="translate(95.1803,206.3001)">
          <path
             d="m 0,0 c 3.12,-0.896 5.695,-2.661 6.25,-4.348 -0.806,0 -1.563,0.07 -2.297,-0.033 C 3.635,-4.425 3.18,-4.778 3.105,-5.072 2.65,-6.855 1.226,-7.62 -0.241,-8.252 c -1.398,-0.602 -1.948,-0.089 -1.645,1.379 0.244,1.183 0.503,2.365 0.822,3.528 0.3,1.1 0.688,2.176 1.064,3.345"
             style="fill:#ba0938;fill-opacity:1;fill-rule:nonzero;stroke:none"
             id="path120" />
        </g>
        <g
           id="g122"
           transform="translate(49.2951,29.8799)">
          <path
             d="m 0,0 c -2.88,-0.013 -4.466,1.845 -5.576,4.119 -2.001,4.099 -0.359,8.436 3.506,10.477 0.786,0.414 1.407,0.622 2.426,-0.062 0.947,-0.635 2.485,-0.41 3.767,-0.518 C 6.041,13.854 7.15,12.634 8.097,11.131 9.53,8.857 8.899,6.75 7.756,4.598 6.09,1.465 3.453,0.072 0,0"
             style="fill:#ba0938;fill-opacity:1;fill-rule:nonzero;stroke:none"
             id="path124" />
        </g>
        <g
           id="g126"
           transform="translate(270.24,172.4418)">
          <path
             d="m 0,0 c -3.959,0.064 -6.063,3.616 -4.114,7.041 0.708,1.244 1.509,2.47 2.456,3.538 2.282,2.575 7.368,1.91 9.834,0.559 0.321,-0.176 0.725,-0.501 0.78,-0.811 C 9.338,8.167 9.818,5.989 8.206,4.038 6.068,1.451 3.423,-0.052 0,0"
             style="fill:#ba0938;fill-opacity:1;fill-rule:nonzero;stroke:none"
             id="path128" />
        </g>
        <g
           id="g130"
           transform="translate(209.6983,239.4437)">
          <path
             d="m 0,0 c -3.006,-0.115 -4.717,2.25 -5.181,4.395 -0.362,1.674 1.575,5.052 3.187,5.556 1.159,0.363 2.394,0.474 3.574,0.779 0.597,0.154 1.125,0.591 1.724,0.723 1.593,0.35 3.385,-0.859 3.679,-2.539 C 7.518,5.85 6.359,3.221 3.75,1.586 2.615,0.874 1.257,0.518 0,0"
             style="fill:#ba0938;fill-opacity:1;fill-rule:nonzero;stroke:none"
             id="path132" />
        </g>
        <g
           id="g134"
           transform="translate(30.5174,123.4445)">
          <path
             d="m 0,0 c 4.707,-0.542 7.427,-3.147 7.104,-6.782 -0.285,-3.2 -4.632,-6.24 -7.073,-6.077 -1.287,0.086 -3.057,0.233 -3.7,1.059 -1.152,1.483 -2.225,3.493 -2.244,5.294 C -5.949,-2.959 -2.617,0.301 0,0"
             style="fill:#ba0938;fill-opacity:1;fill-rule:nonzero;stroke:none"
             id="path136" />
        </g>
        <g
           id="g138"
           transform="translate(83.6731,214.2584)">
          <path
             d="m 0,0 c 0,0.975 -0.334,2.527 0.076,3.848 0.663,2.138 1.848,4.112 3.804,5.423 1.11,0.744 2.201,1.72 3.435,2.004 0.882,0.202 1.973,-0.631 2.998,-0.895 1.365,-0.351 1.628,-1.018 1.143,-2.35 C 11.168,7.239 11.664,6.142 11.334,5.392 10.53,3.568 9.854,1.309 8.387,0.242 6.033,-1.471 3.157,-3.435 0,0"
             style="fill:#ba0938;fill-opacity:1;fill-rule:nonzero;stroke:none"
             id="path140" />
        </g>
      </g>
    </g>
  </g>
</svg>
