<?xml version="1.0" encoding="UTF-8" standalone="no"?>
<!-- Created with Inkscape (http://www.inkscape.org/) -->

<svg
   version="1.1"
   id="svg2"
   width="485.76001"
   height="456.95999"
   viewBox="0 0 485.76001 456.95999"
   sodipodi:docname="taskbar reworked copy copy.ai"
   xmlns:inkscape="http://www.inkscape.org/namespaces/inkscape"
   xmlns:sodipodi="http://sodipodi.sourceforge.net/DTD/sodipodi-0.dtd"
   xmlns="http://www.w3.org/2000/svg"
   xmlns:svg="http://www.w3.org/2000/svg">
  <defs
     id="defs6">
    <clipPath
       clipPathUnits="userSpaceOnUse"
       id="clipPath16">
      <path
         d="M 0,342.72 H 364.32 V 0 H 0 Z"
         id="path14" />
    </clipPath>
  </defs>
  <sodipodi:namedview
     id="namedview4"
     pagecolor="#ffffff"
     bordercolor="#000000"
     borderopacity="0.25"
     inkscape:showpageshadow="2"
     inkscape:pageopacity="0.0"
     inkscape:pagecheckerboard="0"
     inkscape:deskcolor="#d1d1d1" />
  <g
     id="g8"
     inkscape:groupmode="layer"
     inkscape:label="taskbar reworked copy copy"
     transform="matrix(1.3333333,0,0,-1.3333333,0,456.96)">
    <g
       id="g10">
      <g
         id="g12"
         clip-path="url(#clipPath16)">
        <g
           id="g18"
           transform="translate(222.1083,291.6328)">
          <path
             d="m 0,0 c 0.043,0.02 0.086,0.039 0.129,0.059 -0.174,0.42 -0.335,0.845 -0.524,1.258 -0.483,1.058 -1.143,2.068 -1.434,3.175 -0.593,2.265 -2.006,3.607 -3.92,4.918 -2.836,1.943 -6.131,1.918 -9.182,2.874 -1.158,0.363 -2.468,0.241 -3.708,0.349 -2.933,0.257 -5.811,1.158 -8.813,0.685 -0.541,-0.086 -1.141,0.232 -1.718,0.345 -0.906,0.177 -1.826,0.522 -2.721,0.468 -1.81,-0.11 -3.603,-0.479 -5.411,-0.67 -3.778,-0.401 -7.562,-0.745 -11.341,-1.136 -1.133,-0.118 -2.253,-0.397 -3.386,-0.458 -2.771,-0.148 -5.524,-0.32 -7.854,-2.078 -0.572,-0.431 -1.058,-0.974 -1.598,-1.449 -0.323,-0.285 -0.796,-0.472 -0.99,-0.82 -0.702,-1.267 -1.368,-2.562 -1.943,-3.891 -0.386,-0.891 -0.371,-2.032 -0.932,-2.754 -1.004,-1.292 -1.008,-2.815 -1.154,-4.211 -0.211,-2.019 0.125,-4.09 0.159,-6.14 0.045,-2.673 0.008,-5.347 0.046,-8.02 0.007,-0.46 0.206,-0.919 0.328,-1.376 0.109,-0.407 0.264,-0.803 0.347,-1.215 0.502,-2.515 0.987,-5.033 1.488,-7.549 0.029,-0.144 0.17,-0.265 0.21,-0.41 0.078,-0.288 0.236,-0.618 0.163,-0.875 -0.791,-2.813 0.125,-5.598 0.155,-8.395 0.032,-2.947 0.791,-5.895 0.74,-8.834 -0.069,-4 0.89,-7.852 1.184,-11.79 0.203,-2.729 0.561,-5.447 0.87,-8.167 0.134,-1.176 0.346,-2.342 0.477,-3.518 0.234,-2.085 0.416,-4.177 0.652,-6.262 0.138,-1.209 0.652,-2.358 0.349,-3.642 -0.173,-0.733 -0.067,-1.539 -0.036,-2.31 0.054,-1.348 0.155,-2.694 0.222,-4.042 0.029,-0.576 -0.053,-1.165 0.041,-1.728 0.423,-2.534 1.019,-5.046 0.705,-7.652 -0.059,-0.486 -0.046,-1.059 0.157,-1.485 1.15,-2.425 1.321,-5.085 1.148,-7.601 -0.141,-2.052 0.446,-4.039 0.025,-6.124 -0.313,-1.552 0.276,-3.269 0.336,-4.917 0.092,-2.531 0.036,-5.068 0.116,-7.6 0.094,-2.986 0.275,-5.969 0.4,-8.954 0.084,-1.99 0.148,-3.981 0.19,-5.973 0.009,-0.428 -0.326,-1.036 -0.14,-1.26 1.036,-1.249 -0.279,-2.42 -0.022,-3.667 0.191,-0.929 -0.212,-1.963 -0.209,-2.95 0.007,-2.285 0.116,-4.57 0.148,-6.855 0.009,-0.631 -0.164,-1.264 -0.152,-1.894 0.029,-1.587 0.122,-3.174 0.178,-4.761 0.072,-2.051 0.147,-4.102 0.193,-6.154 0.036,-1.626 0.027,-3.253 0.045,-4.879 0.017,-1.616 -0.027,-3.237 0.088,-4.846 0.072,-1.016 0.52,-2.009 0.562,-3.022 0.098,-2.334 -0.053,-4.682 0.089,-7.012 0.195,-3.188 -0.413,-6.35 -0.105,-9.549 0.183,-1.9 -0.11,-3.846 -0.182,-5.771 -0.085,-2.278 -0.174,-4.556 -0.237,-6.835 -0.024,-0.857 0.011,-1.715 0.035,-2.572 0.026,-0.982 0.091,-1.963 0.1,-2.944 0.006,-0.718 -0.149,-1.447 -0.063,-2.151 0.211,-1.726 0.65,-3.431 0.761,-5.159 0.172,-2.677 0.102,-5.369 0.218,-8.051 0.099,-2.308 0.302,-4.613 0.496,-6.916 0.024,-0.287 0.267,-0.558 0.418,-0.831 0.14,-0.255 0.399,-0.495 0.419,-0.756 0.108,-1.39 0.323,-2.8 0.191,-4.174 -0.222,-2.327 0.615,-4.309 1.904,-6.044 1.055,-1.423 2.407,-2.691 3.831,-3.755 1.279,-0.957 2.799,-1.63 4.286,-2.252 0.66,-0.277 1.51,-0.064 2.259,-0.174 0.799,-0.118 1.571,-0.433 2.37,-0.52 1.015,-0.109 2.087,0.355 3.037,-0.423 0.194,-0.159 0.617,-0.067 0.932,-0.045 1.92,0.129 3.839,0.272 5.759,0.405 0.145,0.01 0.343,-0.096 0.432,-0.031 1.559,1.123 3.411,0.634 4.962,0.439 3.136,-0.396 6.136,0.387 9.204,0.433 2.152,0.032 4.298,0.414 6.448,0.627 1.308,0.129 2.62,0.224 3.929,0.352 0.923,0.091 1.844,0.219 2.767,0.316 0.149,0.015 0.336,-0.114 0.454,-0.061 2.099,0.943 4.579,1.02 6.265,2.922 0.883,0.995 2.003,1.775 2.957,2.712 1.717,1.686 3.117,3.587 3.903,5.906 0.33,0.974 0.802,1.9 1.211,2.846 0.382,0.881 0.893,1.729 1.123,2.648 0.451,1.796 0.755,3.629 1.098,5.451 0.048,0.257 -0.02,0.537 -0.044,0.805 -0.176,1.965 -0.378,3.927 -0.525,5.894 -0.204,2.729 -0.29,5.468 -0.563,8.189 -0.485,4.831 -1.11,9.648 -1.603,14.478 -0.219,2.138 -0.27,4.294 -0.381,6.442 -0.136,2.635 -0.254,5.271 -0.385,7.907 -0.01,0.196 -0.054,0.391 -0.083,0.586 -0.26,1.699 -0.561,3.393 -0.768,5.098 -0.151,1.246 -0.127,2.513 -0.276,3.759 -0.19,1.579 -0.536,3.139 -0.702,4.72 -0.126,1.193 -0.011,2.411 -0.12,3.607 -0.179,1.97 -0.514,3.926 -0.671,5.896 -0.253,3.179 -0.651,6.352 -0.385,9.558 0.084,1.017 -0.104,2.054 -0.138,3.082 -0.033,1.02 -0.059,2.042 -0.032,3.061 0.028,1.03 0.201,2.06 0.173,3.086 -0.04,1.427 -0.233,2.85 -0.315,4.276 -0.116,2.002 -0.159,4.008 -0.292,6.008 -0.11,1.666 -0.322,3.325 -0.455,4.99 -0.059,0.729 -0.099,1.471 -0.031,2.195 0.083,0.894 0.402,1.775 0.416,2.664 0.026,1.637 -0.024,3.282 -0.174,4.912 -0.231,2.514 -0.566,5.02 -0.872,7.527 -0.109,0.887 -0.357,1.767 -0.377,2.654 -0.038,1.73 0.051,3.464 0.064,5.196 0.005,0.651 -0.052,1.303 -0.082,1.955 -0.055,1.206 -0.191,2.415 -0.145,3.617 0.055,1.456 0.428,2.915 0.362,4.358 -0.07,1.495 -0.566,2.946 -0.391,4.498 0.148,1.314 0.108,2.665 -0.002,3.987 -0.236,2.857 -0.661,5.7 -0.832,8.56 -0.111,1.836 0.077,3.691 0.162,5.537 0.034,0.747 0.228,1.492 0.213,2.235 -0.04,2.124 -0.174,4.246 -0.224,6.37 -0.04,1.689 0.004,3.38 -0.019,5.069 -0.01,0.786 -0.138,1.571 -0.129,2.355 0.022,1.808 0.188,3.619 0.114,5.421 -0.044,1.086 -0.484,2.15 -0.646,3.24 -0.3,2.024 -0.528,4.059 -0.785,6.09 -0.079,0.629 -0.323,1.294 -0.2,1.88 0.48,2.274 -0.162,4.463 -0.427,6.667 -0.295,2.453 -0.907,4.867 -1.246,7.317 -0.497,3.594 -0.854,7.208 -1.314,10.808 -0.112,0.881 -0.476,1.731 -0.575,2.612 -0.179,1.59 -0.177,3.202 -0.38,4.787 C 0.65,-3.668 0.286,-2.138 0.005,-0.597 -0.03,-0.404 0,-0.199 0,0 m 0.704,-254.166 c -1.83,-0.274 -3.652,-0.621 -5.49,-0.805 -2.682,-0.267 -5.376,-0.404 -8.063,-0.619 -1.953,-0.156 -3.901,-0.375 -5.855,-0.514 -1.366,-0.098 -2.741,-0.08 -4.109,-0.167 -2.378,-0.151 -4.753,-0.363 -7.132,-0.508 -0.771,-0.048 -1.554,0.094 -2.323,0.039 -1.53,-0.107 -3.053,-0.319 -4.582,-0.425 -0.457,-0.032 -0.93,0.131 -1.391,0.225 -0.466,0.095 -0.921,0.267 -1.39,0.315 -1.505,0.156 -3.031,0.179 -4.514,0.444 -0.638,0.114 -1.177,0.727 -1.789,1.06 -0.929,0.506 -1.874,0.985 -2.829,1.439 -2.14,1.017 -3.445,2.808 -4.564,4.798 -0.565,1.005 -1.31,1.917 -1.802,2.953 -0.567,1.192 -1.162,2.345 -0.99,3.839 0.134,1.158 -0.452,2.385 -0.611,3.596 -0.254,1.936 -0.224,3.879 -0.074,5.831 0.084,1.097 -0.074,2.214 -0.136,3.321 -0.052,0.935 -0.111,1.871 -0.189,2.805 -0.306,3.666 -0.627,7.331 -0.929,10.997 -0.1,1.217 -0.182,2.436 -0.233,3.655 -0.056,1.318 -0.099,2.637 -0.089,3.956 0.024,3.011 0.072,6.023 0.137,9.034 0.026,1.223 0.158,2.445 0.174,3.669 0.026,2.024 -10e-4,4.05 -0.01,6.075 -0.012,2.438 -0.032,4.876 -0.043,7.313 -0.006,1.364 0.057,2.731 -0.013,4.091 -0.089,1.737 -0.334,3.465 -0.417,5.202 -0.111,2.345 -0.128,4.695 -0.195,7.043 -0.09,3.175 -0.205,6.349 -0.273,9.524 -0.015,0.71 0.189,1.425 0.174,2.134 -0.041,1.92 -0.178,3.838 -0.21,5.758 -0.013,0.829 0.192,1.66 0.201,2.491 0.02,1.781 -0.029,3.562 -0.039,5.342 -0.012,2.251 0.027,4.502 -0.029,6.751 -0.045,1.788 -0.229,3.572 -0.295,5.36 -0.087,2.333 -0.11,4.669 -0.178,7.003 -0.037,1.293 -0.114,2.585 -0.165,3.878 -0.075,1.924 -0.142,3.848 -0.215,5.771 -0.069,1.83 -0.149,3.659 -0.212,5.488 -0.036,1.056 0.023,2.121 -0.088,3.168 -0.172,1.609 -0.498,3.201 -0.675,4.809 -0.159,1.443 -0.144,2.905 -0.317,4.345 -0.182,1.515 -0.563,3.006 -0.731,4.522 -0.147,1.317 -0.09,2.655 -0.172,3.981 -0.155,2.525 -0.34,5.05 -0.525,7.574 -0.128,1.753 -0.256,3.507 -0.423,5.257 -0.204,2.134 -0.459,4.263 -0.673,6.396 -0.254,2.532 -0.436,5.074 -0.753,7.598 -0.159,1.268 -0.643,2.494 -0.814,3.761 -0.233,1.726 -0.312,3.473 -0.448,5.211 -0.078,0.99 -0.142,1.982 -0.204,2.973 -0.162,2.582 -0.282,5.168 -0.488,7.746 -0.166,2.083 -0.439,4.157 -0.649,6.236 -0.035,0.355 -0.035,0.725 0.027,1.075 0.368,2.089 -0.03,4.029 -0.927,5.938 -0.353,0.751 -0.443,1.651 -0.529,2.496 -0.251,2.452 -0.501,4.907 -0.63,7.367 -0.079,1.501 0.139,3.017 0.089,4.522 -0.063,1.887 -0.326,3.768 -0.39,5.655 -0.076,2.255 0.108,4.476 1.124,6.572 0.42,0.867 0.543,1.874 0.923,2.765 0.526,1.233 1.183,2.409 1.751,3.624 0.331,0.707 0.585,1.45 0.903,2.163 0.136,0.306 0.281,0.677 0.536,0.847 1.442,0.965 2.946,1.84 4.377,2.821 1.508,1.034 3.253,0.692 4.89,0.966 0.312,0.053 0.685,-0.066 0.947,0.062 2.35,1.148 4.836,1.06 7.354,0.985 0.838,-0.025 1.677,0.496 2.537,0.614 2.112,0.287 4.233,0.523 6.356,0.704 1.17,0.1 2.352,0.045 3.529,0.066 1.349,0.025 2.828,-0.287 4.016,0.165 1.829,0.695 3.386,-0.691 5.087,-0.222 0.073,0.02 0.17,0.021 0.236,-0.011 1.054,-0.505 2.174,-0.404 3.299,-0.483 3.078,-0.218 6.166,-0.488 9.204,-1.003 2.337,-0.397 4.755,-0.89 6.856,-1.916 1.716,-0.837 3.142,-2.41 4.471,-3.863 1.89,-2.065 2.461,-4.823 3.394,-7.377 0.688,-1.881 1.084,-3.76 0.91,-5.822 -0.117,-1.389 0.357,-2.832 0.594,-4.247 0.327,-1.948 0.71,-3.888 1.012,-5.84 0.147,-0.948 0.111,-1.923 0.252,-2.872 0.18,-1.205 0.509,-2.389 0.669,-3.596 0.113,-0.847 -0.012,-1.724 0.088,-2.573 0.084,-0.709 0.388,-1.389 0.511,-2.097 0.236,-1.36 0.485,-2.724 0.601,-4.098 0.252,-2.958 0.416,-5.923 0.631,-8.884 0.1,-1.381 0.185,-2.767 0.369,-4.138 0.126,-0.937 0.413,-1.853 0.626,-2.779 0.018,-0.077 0.025,-0.157 0.031,-0.237 0.171,-2.456 0.428,-4.91 0.485,-7.369 0.052,-2.187 -0.132,-4.38 -0.184,-6.571 -0.032,-1.359 -0.071,-2.724 0.004,-4.08 0.071,-1.283 0.364,-2.556 0.413,-3.839 0.039,-0.99 -0.23,-1.99 -0.217,-2.984 0.023,-1.845 0.153,-3.689 0.237,-5.533 0.008,-0.16 0.002,-0.32 0.01,-0.479 0.171,-3.421 0.415,-6.84 0.491,-10.263 0.062,-2.728 -0.133,-5.462 -0.115,-8.193 0.012,-1.776 0.233,-3.55 0.299,-5.327 0.031,-0.864 -0.087,-1.734 -0.124,-2.601 -0.012,-0.272 0.018,-0.545 0.028,-0.818 0.057,-1.593 0.029,-3.196 0.198,-4.778 0.127,-1.183 0.587,-2.329 0.758,-3.511 0.308,-2.137 0.685,-4.287 0.709,-6.435 0.024,-2.108 -0.465,-4.218 -0.521,-6.332 -0.042,-1.584 0.393,-3.18 0.347,-4.763 -0.048,-1.673 1.075,-3.293 0.657,-4.76 -0.453,-1.587 -0.023,-3.017 -0.092,-4.508 -0.108,-2.345 -0.03,-4.698 -0.027,-7.048 0.002,-1.375 -0.051,-2.753 0.027,-4.124 0.199,-3.5 0.475,-6.995 0.684,-10.494 0.078,-1.311 -0.023,-2.635 0.101,-3.94 0.121,-1.275 0.452,-2.528 0.639,-3.798 0.187,-1.267 0.345,-2.541 0.452,-3.817 0.144,-1.706 0.164,-3.425 0.353,-5.125 0.196,-1.762 0.596,-3.503 0.782,-5.266 0.136,-1.289 0.058,-2.599 0.096,-3.9 0.073,-2.484 0.125,-4.969 0.259,-7.449 0.056,-1.027 0.443,-2.045 0.431,-3.064 -0.033,-2.607 0.579,-5.128 0.856,-7.692 0.267,-2.478 0.577,-4.95 0.85,-7.427 0.279,-2.533 0.57,-5.066 0.784,-7.605 0.083,-0.98 -0.04,-1.978 -0.048,-2.968 -0.009,-1.017 0.001,-2.035 0.024,-3.052 0.005,-0.18 0.061,-0.444 0.186,-0.523 0.869,-0.546 0.637,-1.402 0.437,-2.07 -0.282,-0.939 -0.299,-1.801 -0.254,-2.782 0.073,-1.586 -0.291,-3.197 -0.51,-4.792 -0.353,-2.565 -1.648,-4.738 -2.929,-6.914 -0.995,-1.69 -1.897,-3.444 -3.006,-5.056 -0.664,-0.964 -1.842,-1.593 -2.432,-2.584 -0.65,-1.095 -1.57,-1.694 -2.602,-2.19 -1.732,-0.833 -3.504,-1.587 -5.281,-2.32 -0.385,-0.159 -0.865,-0.092 -1.301,-0.129 -0.009,0.062 -0.017,0.123 -0.026,0.185"
             style="fill:#000000;fill-opacity:1;fill-rule:nonzero;stroke:none"
             id="path20" />
        </g>
        <g
           id="g22"
           transform="translate(121.9653,207.5476)">
          <path
             d="m 0,0 c -0.497,0.305 -0.886,0.493 -1.217,0.754 -1.36,1.075 -2.885,1.655 -4.626,1.722 -0.621,0.024 -1.233,0.271 -1.854,0.301 -1.015,0.05 -2.15,0.291 -3.028,-0.062 -1.644,-0.659 -3.203,-1.593 -4.681,-2.586 -1.545,-1.039 -2.952,-2.283 -4.42,-3.435 -0.302,-0.237 -0.577,-0.543 -0.919,-0.686 -1.384,-0.576 -2.263,-1.974 -3.792,-2.305 -0.104,-0.022 -0.232,-0.105 -0.279,-0.196 -0.685,-1.323 -1.873,-1.17 -3.028,-1.124 -0.682,2.04 -0.513,2.486 0.933,3.217 0.958,0.484 1.876,1.06 2.763,1.666 0.748,0.51 1.398,1.16 2.138,1.682 2.285,1.615 4.591,3.198 7.164,4.984 -0.289,0.113 -0.445,0.159 -0.586,0.232 -2.055,1.067 -3.871,2.454 -6.588,1.367 -1.259,-0.504 -2.687,-0.577 -3.807,-1.577 -1.328,-1.186 -2.773,-2.242 -4.107,-3.423 -1.14,-1.01 -2.166,-2.148 -3.306,-3.156 -0.257,-0.226 -0.934,-0.337 -1.149,-0.165 -0.336,0.268 -0.611,0.821 -0.616,1.256 -0.018,1.735 1.768,2.28 2.528,3.558 0.677,1.139 1.962,1.917 2.978,2.855 -0.036,0.12 -0.071,0.239 -0.107,0.359 -0.668,-0.035 -1.473,0.157 -1.976,-0.148 -1.372,-0.835 -2.908,-1.328 -4.146,-2.496 -1.574,-1.485 -3.482,-2.615 -5.239,-3.907 -0.66,-0.485 -1.317,-0.974 -1.95,-1.493 -2.105,-1.724 -3.504,-4.1 -5.518,-5.931 -2.033,-1.848 -3.037,-4.455 -4.395,-6.79 -0.134,-0.232 -0.056,-0.597 -0.047,-0.9 0.048,-1.674 0.119,-3.359 -0.93,-4.811 -0.313,-0.433 -0.776,-0.758 -1.089,-1.192 -0.232,-0.32 -0.513,-0.769 -0.454,-1.103 0.129,-0.721 0.389,-1.445 0.733,-2.094 0.406,-0.766 0.897,-1.508 1.464,-2.163 0.709,-0.82 1.593,-1.491 2.295,-2.316 1.448,-1.7 2.762,-3.517 4.25,-5.178 1.337,-1.492 2.814,-2.861 4.268,-4.244 0.773,-0.736 1.523,-1.619 2.755,-1.495 1.782,0.181 3.556,0.492 5.342,0.591 0.908,0.05 1.852,-0.171 2.748,-0.395 0.935,-0.232 1.815,-0.691 2.751,-0.915 1.54,-0.367 3.104,-0.634 4.661,-0.925 1.41,-0.264 2.819,-0.55 4.24,-0.739 1.504,-0.2 2.772,0.596 4.122,1.086 2.532,0.919 5.098,1.748 7.664,2.568 0.598,0.191 1.257,0.182 1.884,0.288 1.803,0.305 2.512,1.433 4.136,1.929 1.585,0.33 2.036,0.614 3.06,1.26 1.11,0.7 1.673,0.828 2.61,1.71 1.875,1.765 1.44,1.53 3.876,3.169 0.837,2.272 2.085,3.217 2.279,4.037 0.254,1.08 2.619,2.341 2.4,3.48 -0.141,0.728 0.056,0.967 -0.317,1.629 -0.59,1.046 -1.539,3.074 -2.718,3.461 -1.055,1.54 -2.66,-0.96 -3.864,-1.634 -1.042,-0.584 -1.84,-1.59 -2.851,-2.249 -1.124,-0.733 -2.374,-1.272 -3.554,-1.923 -0.329,-0.181 -0.59,-0.482 -0.909,-0.684 -0.596,-0.377 -1.177,-0.862 -1.834,-1.03 -0.455,-0.117 -1.291,0.064 -1.487,0.392 -0.303,0.509 -0.503,1.512 -0.215,1.849 0.556,0.65 1.472,1.005 2.263,1.437 0.671,0.367 1.396,0.635 2.061,1.011 0.811,0.457 1.641,0.912 2.358,1.496 0.702,0.573 1.533,1.389 2.158,1.718 1.733,0.911 2.04,1.042 2.61,1.65 0.448,0.478 0.907,0.835 1.47,1.17 0.575,0.341 0.926,0.83 1.47,1.23 0.874,0.642 1.356,1.513 2.334,1.912 1.685,0.688 3.455,1.21 5.23,1.626 2.084,0.489 4.229,0.713 6.312,1.202 1.123,0.264 2.163,0.866 3.256,1.273 2.185,0.813 1.019,1.192 3.205,2 1.41,0.522 1.646,1.151 2.609,2.255 0.444,0.51 0.065,0.962 0.127,1.56 -0.665,2.364 0.593,0.9 -1.147,3.18 -0.932,-0.174 -1.63,0.634 -2.58,0.6 -1.243,-0.044 -1.338,0.174 -2.58,0.12 C 25.22,1.356 24.952,1.538 24.575,1.432 24.124,1.306 23.145,1.508 22.719,1.583 21.689,1.763 21.334,1.429 20.344,1.259 16.664,0.63 12.97,0.097 9.372,-0.939 7.954,-1.348 6.543,-1.873 5.093,-2.058 3.006,-2.326 1.238,-3.201 -0.584,-4.167 c -2.048,-1.087 -3.651,-2.814 -5.932,-3.609 -1.699,-0.593 -3.138,-1.913 -4.723,-2.86 -1.351,-0.808 -2.815,-1.444 -4.093,-2.348 -0.893,-0.631 -1.384,0.011 -1.939,0.337 -0.201,0.118 -0.191,0.773 -0.115,1.149 0.15,0.737 0.633,1.068 1.437,1.041 0.35,-0.011 0.735,0.264 1.064,0.473 2.07,1.317 4.117,2.669 6.197,3.972 0.871,0.545 1.828,0.954 2.698,1.501 1.318,0.829 2.623,1.687 3.879,2.607 C -1.375,-1.364 -0.745,-0.681 0,0 m 9.995,-15.938 c 0.668,-0.405 2.101,-1.411 2.849,-1.865 0.182,-0.266 0.422,-0.809 0.824,-1.169 1.696,-1.517 2.311,-3.259 1.31,-5.057 -0.298,-0.535 -2.382,-2.645 -3,-3.72 -1.383,-2.405 -1.739,-0.638 -2.326,-3.463 -0.247,-1.188 -0.829,-1.613 -1.429,-2.813 -0.162,-0.182 -1.769,-1.686 -1.98,-2.07 -1.69,-1.358 -1.649,-1.475 -3.06,-1.8 -1.301,-0.299 -2.678,-1.756 -4.05,-1.8 -0.857,-0.027 -2.869,-1.074 -3.685,-1.314 -2.61,-0.77 -4.587,-1.665 -7.129,-2.948 -2.598,-1.31 -5.442,-2.383 -8.43,-2.499 -1.193,-0.046 -2.378,-0.386 -3.55,-0.003 -1.768,0.212 -2.493,0.178 -4.275,0.303 -1.662,0.16 -1.892,0.199 -2.565,0.45 -2.237,0.834 -3.24,0.99 -5.826,1.517 -1.614,0.338 -5.944,-0.067 -6.9,1.345 -0.642,0.95 -1.597,1.683 -2.384,2.539 -1.922,2.088 -3.822,4.198 -5.744,6.286 -0.458,0.498 -0.911,1.039 -1.47,1.398 -1.208,0.775 -1.944,1.846 -2.4,3.174 -0.068,0.2 -0.389,0.309 -0.586,0.469 -1.918,1.559 -3.164,3.516 -2.929,6.038 0.069,0.74 1.006,1.373 1.461,2.108 0.788,1.273 1.594,2.483 1.67,4.134 0.064,1.395 0.548,2.829 1.114,4.13 1.392,3.196 3.887,5.534 6.409,7.845 1.061,0.973 1.91,2.174 2.942,3.182 1.345,1.314 2.755,2.564 4.177,3.797 1.791,1.553 3.615,3.068 5.441,4.58 0.365,0.301 0.778,0.585 1.217,0.746 0.979,0.361 1.971,0.745 2.992,0.914 0.65,0.108 1.364,-0.133 2.043,-0.25 1.356,-0.234 2.571,-0.679 4.097,-0.131 4.167,1.497 8.207,1.475 11.67,-1.965 0.498,-0.495 1.65,-0.679 2.392,-0.517 2.084,0.456 4.144,0.431 6.15,-0.101 C -3.749,5.21 -2.394,5.308 -1.318,4.413 -0.097,3.398 1.219,2.498 2.469,1.516 3.031,1.075 3.229,0.851 3.965,0.262 c 0.9,-0.72 1.68,-0.216 2.34,-0.09 2.259,0.434 4.756,0.733 6.93,1.44 2.85,0.928 5.722,0.549 8.55,1.26 2.203,0.555 2.554,-0.334 4.77,0 2.831,-0.064 1.337,-0.092 5.04,-0.54 0.882,-1.07 1.25,-0.77 1.71,-2.07 0.408,-1.155 0.541,-3.141 0.54,-3.96 -0.18,-1.32 -0.794,-2.713 -2.34,-3.6 -2.247,-1.287 -2.698,-1.923 -4.95,-3.06 -2.725,-0.126 -4.698,-1.129 -6.93,-1.71 -1.48,-0.384 -2.9,-1.144 -4.41,-1.44 -0.889,-0.174 -2.052,-0.497 -2.88,-0.9 -0.704,-0.341 -1.291,-0.904 -2.34,-1.53"
             style="fill:#000000;fill-opacity:1;fill-rule:nonzero;stroke:none"
             id="path24" />
        </g>
        <g
           id="g26"
           transform="translate(198.7889,186.0042)">
          <path
             d="m 0,0 c 0.392,1.138 -0.682,1.942 -1.506,2.607 -1.646,1.331 -3.6,2.128 -5.692,2.61 -1.911,0.441 -3.657,-0.148 -5.429,-0.63 -1.274,-0.347 -2.204,-1.283 -3.26,-1.96 -1.42,-0.91 -1.884,-2.322 -2.896,-3.39 -0.32,-0.337 -0.501,-1.167 -0.311,-1.563 0.88,-1.825 0.377,-4.547 3.207,-5.152 0.958,-1.578 2.817,-1.062 4.178,-1.754 0.991,-0.504 4.858,0.093 5.602,0.518 0.858,0.49 1.924,0.637 2.915,0.865 1.965,0.453 3.028,1.553 3.174,3.568 C 0.078,-2.955 0,-1.616 0,0 m 9.043,-23.903 c -0.138,0.517 -0.259,1.048 -0.422,1.566 -0.231,0.735 -0.594,1.445 -0.716,2.196 -0.151,0.935 -0.358,1.734 -1.253,2.26 -1.851,1.088 -3.617,2.306 -5.91,2.346 -1.261,0.022 -2.157,1.155 -2.254,2.457 -0.019,0.247 -0.186,0.606 -0.38,0.688 -0.276,0.117 -0.772,0.164 -0.945,-10e-4 -1.512,-1.439 -3.47,-0.933 -5.217,-1.144 -1.255,-0.152 -2.58,0.331 -3.88,0.472 -0.657,0.071 -1.075,-0.088 -1.344,-0.925 -0.286,-0.89 -0.924,-1.849 -1.687,-2.366 -1.303,-0.882 -2.884,-1.343 -4.236,-2.165 -1.493,-0.908 -3.043,-1.874 -3.232,-3.908 -0.128,-1.375 -0.228,-2.753 -0.395,-4.123 -0.164,-1.342 0.641,-2.381 1.851,-2.975 0.848,-0.415 1.539,-0.241 2.357,-0.234 1.373,0.01 2.744,-0.43 4.125,-0.496 1.403,-0.068 2.822,0.027 4.224,0.162 1.694,0.164 3.376,0.451 5.065,0.673 0.881,0.115 1.77,0.179 2.648,0.313 1.125,0.171 2.237,0.454 3.366,0.572 1.624,0.17 3.314,0.026 4.87,0.426 0.925,0.238 2.268,0.273 2.692,1.528 0.283,0.841 0.438,1.724 0.673,2.678 M 3.98,14.866 c 2.602,0.47 5.258,0.17 7.365,1.941 0.797,0.67 1.935,1.36 2.134,2.221 0.309,1.344 0.492,2.791 0.402,4.246 -0.149,2.431 -0.116,4.873 -0.137,7.31 -0.005,0.582 0.116,1.163 0.119,1.745 0.004,0.857 -0.069,1.715 -0.067,2.572 0.004,1.734 0.161,3.478 0.019,5.198 -0.12,1.459 -0.461,2.928 -0.917,4.323 -0.295,0.902 -0.787,1.978 -1.526,2.437 -0.945,0.587 -2.221,0.821 -3.367,0.867 -1.958,0.079 -3.926,-0.138 -5.89,-0.175 -2.453,-0.046 -4.744,-1.229 -7.271,-0.901 -1.102,0.142 -2.264,-0.242 -3.404,-0.314 -0.97,-0.061 -1.953,0.05 -2.92,-0.036 -2.136,-0.19 -4.288,-0.334 -6.391,-0.724 -2.347,-0.435 -4.77,0.223 -7.07,-0.613 -0.132,-0.048 -0.311,0.028 -0.468,0.054 -2.128,0.343 -3.616,-0.978 -3.678,-3.117 -0.05,-1.73 0.978,-3.201 0.789,-5.047 -0.221,-2.164 0.312,-4.403 0.505,-6.611 0.341,-3.913 -0.067,-7.884 0.906,-11.748 0.067,-0.265 0.054,-0.578 0.195,-0.792 1.528,-2.324 3.937,-2.795 6.445,-2.926 1.363,-0.071 2.741,0.153 4.106,0.09 1.525,-0.07 2.995,-0.295 4.577,-0.067 2.337,0.336 4.749,0.135 7.128,0.194 0.785,0.019 1.571,0.218 2.352,0.193 2.061,-0.068 4.12,-0.213 6.064,-0.32 M -6.688,-42.838 c -2.688,0.585 -4.357,-1.138 -6.357,-1.807 -2.255,-0.755 -3.874,-2.462 -5.427,-4.223 -2.071,-2.349 -3.805,-4.925 -5.343,-7.635 -0.544,-0.958 -1.104,-1.988 -1.285,-3.049 -0.245,-1.44 -0.142,-2.942 -0.166,-4.417 -0.007,-0.408 0.232,-0.904 0.072,-1.21 -0.659,-1.255 -0.443,-2.507 -0.183,-3.782 0.31,-1.521 0.351,-3.166 0.987,-4.535 0.909,-1.958 2.139,-3.8 3.444,-5.532 1.12,-1.486 2.373,-2.981 3.872,-4.043 1.386,-0.983 3.151,-1.467 4.794,-2.04 1.578,-0.55 3.221,-0.911 4.823,-1.398 0.966,-0.294 1.881,-0.421 2.84,0.062 0.445,0.224 0.982,0.298 1.487,0.364 2.076,0.269 4.155,0.504 6.231,0.77 0.217,0.027 0.422,0.166 0.627,0.264 1.251,0.599 2.53,1.148 3.742,1.818 1.176,0.65 2.411,1.285 3.392,2.177 1.562,1.419 3.9,1.923 4.705,4.28 0.479,1.4 1.503,2.605 2.13,3.968 0.39,0.846 0.663,1.817 0.692,2.742 0.063,1.955 -0.105,3.917 -0.106,5.877 0,1.022 0.417,2.11 0.184,3.054 -0.556,2.263 -1.358,4.468 -2.114,6.678 -0.703,2.054 -2.306,3.536 -3.454,5.306 -0.826,1.273 -2.271,1.348 -3.311,2.159 -0.987,0.769 -1.776,1.869 -3.207,1.951 -0.386,0.022 -0.756,0.276 -1.142,0.397 -1.933,0.606 -3.833,1.453 -5.812,1.736 -2.11,0.302 -4.297,0.068 -6.115,0.068 M 7.469,85.957 c 0.09,0.024 0.18,0.049 0.27,0.073 -0.155,0.417 -0.303,0.836 -0.466,1.25 -0.51,1.299 -0.929,2.645 -1.563,3.881 -0.738,1.441 -1.485,2.946 -2.553,4.131 -1.474,1.636 -3.234,3.019 -4.908,4.469 -0.626,0.542 -1.29,1.176 -2.046,1.399 -1.37,0.404 -2.814,0.579 -4.239,0.763 -1.832,0.236 -3.673,0.419 -5.515,0.563 -0.922,0.072 -1.863,0.087 -2.78,-0.013 -1.441,-0.158 -2.906,-0.302 -4.29,-0.699 -1.406,-0.404 -2.717,-1.132 -4.089,-1.668 -0.631,-0.246 -1.455,-0.192 -1.938,-0.586 -1.52,-1.24 -2.931,-2.616 -4.357,-3.968 -0.25,-0.237 -0.398,-0.598 -0.544,-0.924 -0.579,-1.295 -1.152,-2.594 -1.694,-3.905 -0.117,-0.284 -0.084,-0.626 -0.144,-0.937 -0.222,-1.138 0.321,-2.395 -0.557,-3.439 -0.133,-0.158 -0.109,-0.457 -0.138,-0.693 -0.19,-1.571 -0.479,-3.14 -0.535,-4.716 -0.067,-1.918 -0.096,-3.865 0.159,-5.759 0.218,-1.619 0.953,-3.161 1.29,-4.772 0.31,-1.478 0.957,-2.742 1.79,-3.967 0.657,-0.967 1.093,-2.101 1.833,-2.988 0.765,-0.917 1.841,-1.567 2.66,-2.447 0.52,-0.559 1.213,-0.666 1.786,-1.042 1.241,-0.813 2.377,-1.865 3.72,-2.426 1.697,-0.709 3.543,-1.097 5.356,-1.478 0.777,-0.164 1.63,0.027 2.448,0.073 1.918,0.108 3.866,-0.407 5.72,0.715 1.408,0.852 3.061,1.289 4.519,2.072 2.214,1.189 4.376,2.489 5.545,4.888 0.233,0.478 0.361,1.134 0.747,1.388 1.479,0.972 2.314,2.396 3.072,3.904 0.448,0.891 1.218,1.755 1.289,2.674 0.207,2.709 1.244,5.328 0.82,8.11 -0.154,1.009 0.074,2.071 -0.033,3.092 -0.105,1.005 -0.415,1.989 -0.635,2.982 m 0.18,-208.015 c -0.658,-0.079 -1.74,-0.213 -2.823,-0.339 -0.621,-0.073 -1.342,-0.369 -1.848,-0.158 -1.768,0.738 -3.703,0.799 -5.411,1.976 -2.964,2.043 -5.328,4.592 -7.422,7.426 -0.472,0.638 -0.759,1.846 -0.48,2.522 0.716,1.729 1.802,3.305 2.733,4.946 0.287,0.505 0.599,0.825 -0.181,1.417 -1.551,1.177 -2.385,2.975 -2.76,4.846 -0.321,1.597 -0.283,3.27 -0.366,4.912 -0.063,1.226 -1.486,2.358 -2.44,1.768 -1.365,-0.844 -2.625,-1.865 -3.894,-2.856 -0.982,-0.768 -1.899,-1.618 -2.863,-2.409 -0.308,-0.253 -0.783,-0.357 -0.998,-0.66 -1.644,-2.317 -3.133,-4.628 -3.282,-7.684 -0.129,-2.64 0.063,-5.063 1.463,-7.347 1.243,-2.028 2.39,-4.115 3.624,-6.149 0.279,-0.459 0.744,-0.805 1.122,-1.203 0.202,-0.213 0.428,-0.407 0.599,-0.641 0.73,-1.003 1.259,-2.26 2.202,-2.975 1.914,-1.451 3.495,-3.282 5.733,-4.399 2.199,-1.098 4.111,-2.771 6.155,-4.183 0.367,-0.253 0.818,-0.408 1.135,-0.708 1.886,-1.784 3.873,-3.327 6.664,-3.254 0.186,0.005 0.373,-0.116 0.564,-0.164 1.015,-0.254 2.021,-0.661 3.049,-0.724 2.561,-0.156 4.898,0.664 7.19,1.784 1.715,0.839 2.764,2.338 3.784,3.729 0.857,1.169 2.132,2.539 1.315,4.36 -0.018,0.041 0.176,0.15 0.217,0.25 0.703,1.721 0.741,4.269 -1.864,5.44 -0.309,0.139 -0.581,0.369 -0.896,0.484 -1.459,0.533 -2.925,1.046 -4.393,1.554 -0.504,0.175 -1.014,0.43 -1.529,0.449 -0.961,0.035 -1.987,0.099 -2.87,-0.197 -0.484,-0.162 -0.73,-1.034 -1.229,-1.813 m 15.67,227.687 c 0,-0.2 -0.03,-0.404 0.005,-0.597 0.281,-1.541 0.646,-3.071 0.844,-4.622 0.204,-1.586 0.201,-3.197 0.38,-4.787 0.1,-0.881 0.463,-1.731 0.576,-2.612 0.459,-3.6 0.817,-7.214 1.314,-10.809 0.338,-2.449 0.951,-4.863 1.246,-7.317 0.265,-2.203 0.906,-4.392 0.427,-6.666 -0.124,-0.587 0.12,-1.252 0.2,-1.88 0.256,-2.031 0.484,-4.066 0.785,-6.091 0.162,-1.089 0.602,-2.153 0.646,-3.24 0.073,-1.802 -0.092,-3.612 -0.114,-5.42 -0.01,-0.784 0.118,-1.569 0.129,-2.355 0.022,-1.69 -0.022,-3.38 0.018,-5.07 0.051,-2.123 0.185,-4.245 0.225,-6.369 0.014,-0.744 -0.179,-1.488 -0.214,-2.235 -0.084,-1.846 -0.272,-3.702 -0.162,-5.538 0.172,-2.859 0.596,-5.703 0.833,-8.559 0.109,-1.322 0.15,-2.674 10e-4,-3.987 -0.175,-1.553 0.322,-3.004 0.391,-4.498 C 30.916,11.533 30.543,10.075 30.487,8.619 30.441,7.416 30.578,6.207 30.633,5.001 30.662,4.35 30.72,3.698 30.715,3.047 30.701,1.314 30.612,-0.419 30.651,-2.15 c 0.019,-0.886 0.268,-1.766 0.376,-2.653 0.307,-2.508 0.641,-5.013 0.873,-7.528 0.149,-1.629 0.199,-3.275 0.174,-4.911 -0.014,-0.89 -0.333,-1.77 -0.417,-2.664 -0.068,-0.725 -0.027,-1.466 0.031,-2.195 0.134,-1.665 0.345,-3.324 0.455,-4.99 0.133,-2.001 0.176,-4.006 0.292,-6.008 0.082,-1.427 0.276,-2.849 0.315,-4.276 0.029,-1.026 -0.145,-2.057 -0.173,-3.087 -0.027,-1.019 -10e-4,-2.04 0.032,-3.06 0.034,-1.029 0.223,-2.066 0.138,-3.082 -0.265,-3.207 0.132,-6.379 0.385,-9.558 0.157,-1.971 0.493,-3.927 0.672,-5.896 0.108,-1.197 -0.007,-2.414 0.119,-3.608 0.167,-1.58 0.512,-3.141 0.702,-4.719 0.15,-1.246 0.125,-2.513 0.276,-3.759 0.207,-1.705 0.508,-3.399 0.768,-5.098 0.03,-0.195 0.074,-0.39 0.083,-0.587 0.131,-2.635 0.249,-5.271 0.386,-7.906 0.111,-2.149 0.162,-4.304 0.38,-6.442 0.494,-4.83 1.118,-9.647 1.603,-14.479 0.274,-2.72 0.36,-5.46 0.563,-8.188 0.147,-1.967 0.35,-3.93 0.526,-5.894 0.023,-0.269 0.091,-0.548 0.043,-0.805 -0.343,-1.822 -0.646,-3.656 -1.097,-5.452 -0.231,-0.918 -0.742,-1.766 -1.123,-2.647 -0.41,-0.947 -0.882,-1.872 -1.212,-2.846 -0.786,-2.319 -2.185,-4.22 -3.902,-5.906 -0.955,-0.937 -2.075,-1.718 -2.957,-2.713 -1.686,-1.901 -4.167,-1.978 -6.266,-2.922 -0.118,-0.052 -0.305,0.077 -0.453,0.061 -0.924,-0.096 -1.844,-0.224 -2.768,-0.315 -1.309,-0.129 -2.62,-0.223 -3.929,-0.352 -2.15,-0.213 -4.296,-0.596 -6.448,-0.628 -3.068,-0.045 -6.068,-0.828 -9.204,-0.433 -1.55,0.196 -3.402,0.685 -4.962,-0.439 -0.089,-0.064 -0.287,0.042 -0.431,0.032 -1.92,-0.133 -3.84,-0.277 -5.76,-0.406 -0.315,-0.021 -0.738,-0.114 -0.932,0.045 -0.949,0.779 -2.022,0.315 -3.036,0.424 -0.799,0.086 -1.572,0.402 -2.37,0.519 -0.749,0.111 -1.599,-0.102 -2.26,0.174 -1.487,0.622 -3.006,1.296 -4.286,2.252 -1.424,1.065 -2.775,2.333 -3.831,3.755 -1.288,1.735 -2.126,3.718 -1.903,6.044 0.131,1.374 -0.083,2.785 -0.192,4.175 -0.02,0.261 -0.279,0.501 -0.419,0.756 -0.15,0.273 -0.394,0.544 -0.418,0.83 -0.194,2.304 -0.397,4.608 -0.496,6.917 -0.116,2.682 -0.046,5.373 -0.217,8.05 -0.111,1.729 -0.55,3.434 -0.762,5.16 -0.086,0.703 0.069,1.433 0.063,2.151 -0.008,0.981 -0.073,1.962 -0.1,2.943 -0.023,0.858 -0.058,1.716 -0.035,2.573 0.064,2.278 0.152,4.556 0.237,6.835 0.072,1.925 0.366,3.871 0.183,5.771 -0.308,3.199 0.299,6.36 0.105,9.548 -0.142,2.331 0.009,4.678 -0.089,7.013 -0.043,1.013 -0.491,2.006 -0.563,3.021 -0.114,1.61 -0.071,3.231 -0.088,4.847 -0.017,1.626 -0.008,3.253 -0.045,4.878 -0.046,2.052 -0.121,4.104 -0.193,6.155 -0.056,1.587 -0.149,3.173 -0.178,4.761 -0.012,0.63 0.161,1.263 0.152,1.894 -0.032,2.285 -0.14,4.569 -0.147,6.854 -0.004,0.987 0.399,2.022 0.208,2.951 -0.256,1.246 1.058,2.418 0.023,3.667 -0.187,0.224 0.149,0.832 0.14,1.26 -0.043,1.992 -0.107,3.983 -0.19,5.973 -0.126,2.985 -0.307,5.968 -0.401,8.954 -0.08,2.532 -0.023,5.068 -0.116,7.6 -0.06,1.648 -0.649,3.365 -0.335,4.917 0.421,2.084 -0.167,4.071 -0.025,6.124 0.173,2.515 10e-4,5.176 -1.149,7.6 -0.203,0.427 -0.215,0.999 -0.157,1.485 0.314,2.607 -0.282,5.118 -0.705,7.653 -0.093,0.562 -0.012,1.152 -0.041,1.728 -0.066,1.347 -0.167,2.693 -0.222,4.041 -0.031,0.772 -0.137,1.578 0.036,2.311 0.304,1.284 -0.211,2.432 -0.348,3.642 -0.237,2.085 -0.419,4.176 -0.652,6.262 -0.132,1.175 -0.344,2.342 -0.477,3.518 -0.31,2.72 -0.667,5.438 -0.871,8.167 -0.294,3.938 -1.252,7.789 -1.183,11.789 0.05,2.939 -0.709,5.887 -0.74,8.835 -0.03,2.796 -0.947,5.582 -0.155,8.395 0.072,0.257 -0.085,0.586 -0.164,0.875 -0.039,0.145 -0.181,0.265 -0.21,0.41 -0.5,2.515 -0.986,5.034 -1.488,7.549 -0.082,0.411 -0.238,0.808 -0.347,1.215 -0.122,0.456 -0.321,0.915 -0.328,1.376 -0.038,2.673 0,5.347 -0.045,8.019 -0.035,2.051 -0.371,4.122 -0.16,6.141 0.146,1.396 0.151,2.918 1.155,4.211 0.56,0.722 0.546,1.863 0.931,2.754 0.575,1.329 1.241,2.623 1.944,3.891 0.193,0.348 0.666,0.535 0.99,0.82 0.539,0.475 1.026,1.017 1.597,1.448 2.33,1.758 5.083,1.93 7.854,2.079 1.134,0.06 2.254,0.34 3.387,0.457 3.779,0.392 7.562,0.736 11.34,1.136 1.808,0.192 3.601,0.561 5.412,0.671 0.894,0.054 1.814,-0.291 2.72,-0.468 0.577,-0.113 1.178,-0.431 1.718,-0.346 3.002,0.473 5.88,-0.428 8.813,-0.684 1.24,-0.109 2.55,0.014 3.709,-0.35 3.05,-0.956 6.345,-0.93 9.182,-2.873 1.913,-1.312 3.326,-2.654 3.92,-4.918 0.29,-1.108 0.951,-2.117 1.434,-3.175 0.188,-0.413 0.35,-0.839 0.523,-1.258 -0.043,-0.02 -0.086,-0.04 -0.129,-0.059"
             style="fill:#eaeaea;fill-opacity:1;fill-rule:nonzero;stroke:none"
             id="path28" />
        </g>
        <g
           id="g30"
           transform="translate(184.5448,88.7342)">
          <path
             d="m 0,0 c -0.377,-0.145 -0.71,-0.183 -0.912,-0.366 -0.848,-0.769 -1.553,-1.747 -2.502,-2.344 -2.008,-1.261 -2.885,-3.236 -3.545,-5.298 -0.575,-1.795 -0.762,-3.661 0.215,-5.488 0.986,-1.842 1.687,-3.845 2.765,-5.625 1.105,-1.824 2.447,-3.521 3.816,-5.164 1.006,-1.207 2.209,-2.251 3.352,-3.338 0.424,-0.402 0.904,-0.761 1.405,-1.065 1.106,-0.671 2.253,-1.276 3.364,-1.94 1.777,-1.062 3.128,-2.836 5.334,-3.193 0.115,-0.019 0.2,-0.225 0.297,-0.345 1.394,-1.722 3.077,-2.913 5.392,-2.968 0.19,-0.005 0.391,-0.082 0.564,-0.17 3.994,-2.052 7.237,0.143 10.251,2.176 1.622,1.094 2.573,4.792 1.155,6.787 -0.289,0.405 -0.654,0.826 -1.083,1.044 -0.593,0.302 -1.316,0.346 -1.921,0.631 -1.386,0.652 -2.648,0.558 -3.341,-0.192 -0.475,-0.514 -1.078,-1.131 -1.701,-1.234 -1.007,-0.168 -1.964,-0.273 -2.796,-0.937 -0.141,-0.112 -0.491,0.037 -0.744,0.063 -2.377,0.25 -4.705,0.665 -6.882,1.735 -1.06,0.522 -2.372,0.59 -3.022,1.815 -0.12,0.226 -0.39,0.384 -0.611,0.545 -0.764,0.557 -1.648,0.997 -2.287,1.671 -1.674,1.765 -3.318,3.57 -4.831,5.473 -1.281,1.611 -2.316,3.404 -1.357,5.595 0.419,0.956 1.008,1.842 1.375,2.815 C 2,-8.653 2.316,-7.74 2.055,-7.205 0.975,-4.983 0.247,-2.692 0,0 m 21.893,-24.788 c 0.499,0.779 0.745,1.651 1.229,1.813 0.883,0.296 1.909,0.232 2.87,0.197 0.515,-0.019 1.026,-0.274 1.529,-0.449 1.468,-0.508 2.934,-1.021 4.393,-1.554 0.316,-0.115 0.587,-0.345 0.896,-0.484 2.605,-1.171 2.567,-3.719 1.864,-5.44 -0.041,-0.1 -0.235,-0.209 -0.217,-0.25 0.817,-1.821 -0.458,-3.191 -1.315,-4.36 -1.02,-1.391 -2.069,-2.89 -3.784,-3.729 -2.292,-1.12 -4.629,-1.94 -7.19,-1.784 -1.027,0.063 -2.034,0.47 -3.049,0.724 -0.191,0.048 -0.378,0.169 -0.564,0.164 -2.791,-0.073 -4.778,1.47 -6.664,3.254 -0.317,0.3 -0.768,0.455 -1.135,0.708 -2.044,1.412 -3.956,3.085 -6.155,4.183 -2.238,1.117 -3.819,2.948 -5.733,4.399 -0.943,0.715 -1.472,1.972 -2.202,2.975 -0.17,0.234 -0.397,0.428 -0.599,0.641 -0.378,0.398 -0.843,0.744 -1.122,1.203 -1.234,2.034 -2.381,4.121 -3.624,6.149 -1.4,2.284 -1.592,4.707 -1.463,7.347 0.149,3.056 1.638,5.367 3.282,7.684 0.215,0.303 0.69,0.407 0.998,0.66 0.964,0.791 1.881,1.641 2.863,2.409 C -1.73,2.663 -0.47,3.684 0.895,4.528 1.85,5.118 3.272,3.986 3.335,2.76 3.418,1.118 3.38,-0.555 3.701,-2.152 4.076,-4.023 4.91,-5.821 6.461,-6.998 7.241,-7.59 6.929,-7.91 6.642,-8.415 c -0.931,-1.641 -2.017,-3.217 -2.733,-4.946 -0.279,-0.676 0.009,-1.884 0.48,-2.522 2.094,-2.834 4.458,-5.383 7.422,-7.426 1.708,-1.177 3.643,-1.238 5.411,-1.976 0.506,-0.211 1.227,0.085 1.848,0.158 1.083,0.126 2.166,0.26 2.823,0.339"
             style="fill:#000000;fill-opacity:1;fill-rule:nonzero;stroke:none"
             id="path32" />
        </g>
        <g
           id="g34"
           transform="translate(185.5426,243.6462)">
          <path
             d="m 0,0 c 0.007,-0.037 0.015,-0.074 0.022,-0.11 0.513,0.094 1.033,0.295 1.539,0.266 2.108,-0.121 3.964,0.71 5.788,1.545 3.628,1.661 6.394,4.323 8.484,7.703 0.788,1.274 1.417,2.681 2.382,3.801 1.082,1.258 -0.197,3.096 1.25,4.157 0.059,0.043 0.013,0.23 0.017,0.35 0.046,1.544 1.027,3.063 0.122,4.632 0.432,3.356 -0.619,6.554 -1.505,9.652 -0.571,1.998 -1.797,4.064 -3.707,5.412 -0.46,0.324 -0.82,0.786 -1.27,1.127 -1.312,0.992 -2.587,2.054 -3.995,2.891 -0.848,0.504 -1.917,0.638 -2.887,0.939 -0.387,0.12 -0.767,0.299 -1.163,0.347 -0.536,0.064 -1.084,0.013 -1.625,0.038 -1.467,0.068 -2.932,0.172 -4.399,0.218 -1.097,0.035 -2.198,0.051 -3.291,-0.018 -1.011,-0.062 -2.074,-0.08 -3.009,-0.414 -1.922,-0.688 -3.774,-1.572 -5.653,-2.378 -0.216,-0.093 -0.474,-0.161 -0.623,-0.323 -0.853,-0.926 -1.668,-1.887 -2.516,-2.817 -1.16,-1.273 -2.174,-2.839 -2.096,-4.431 0.069,-1.421 -0.54,-2.348 -0.997,-3.458 -0.119,-0.29 -0.192,-0.607 -0.237,-0.918 -0.513,-3.496 -0.782,-7.01 -0.701,-10.544 0.006,-0.26 0.16,-0.523 0.273,-0.772 0.294,-0.65 0.783,-1.269 0.877,-1.944 0.452,-3.232 1.871,-6.118 3.903,-8.48 1.747,-2.032 4.085,-3.597 6.707,-4.63 C -5.658,0.795 -3.056,-0.292 -0.119,0.01 -0.08,0.014 -0.04,0.004 0,0 m 20.715,28.315 c 0.22,-0.993 0.53,-1.977 0.636,-2.982 0.107,-1.021 -0.121,-2.083 0.032,-3.092 0.424,-2.782 -0.612,-5.401 -0.82,-8.11 -0.071,-0.919 -0.84,-1.783 -1.288,-2.674 C 18.516,9.949 17.681,8.525 16.203,7.553 15.816,7.299 15.688,6.643 15.455,6.165 14.286,3.766 12.124,2.466 9.911,1.277 8.453,0.494 6.799,0.057 5.391,-0.795 3.538,-1.917 1.589,-1.402 -0.328,-1.51 -1.146,-1.556 -2,-1.747 -2.777,-1.583 c -1.812,0.381 -3.658,0.769 -5.356,1.478 -1.343,0.561 -2.478,1.613 -3.719,2.426 -0.574,0.376 -1.267,0.483 -1.787,1.042 -0.818,0.88 -1.895,1.53 -2.66,2.447 -0.74,0.887 -1.176,2.021 -1.833,2.988 -0.833,1.225 -1.48,2.489 -1.789,3.967 -0.338,1.611 -1.073,3.153 -1.291,4.772 -0.255,1.894 -0.225,3.841 -0.158,5.759 0.055,1.576 0.344,3.145 0.534,4.716 0.029,0.236 0.005,0.535 0.138,0.693 0.879,1.044 0.335,2.301 0.557,3.439 0.061,0.311 0.027,0.654 0.145,0.937 0.542,1.311 1.114,2.61 1.693,3.905 0.146,0.326 0.295,0.687 0.544,0.924 1.426,1.352 2.837,2.728 4.357,3.968 0.483,0.394 1.307,0.34 1.938,0.586 1.372,0.536 2.683,1.264 4.089,1.668 1.384,0.397 2.85,0.541 4.29,0.699 0.917,0.1 1.858,0.085 2.78,0.013 1.842,-0.144 3.683,-0.327 5.515,-0.563 1.425,-0.184 2.87,-0.359 4.239,-0.763 0.756,-0.223 1.421,-0.857 2.046,-1.399 1.674,-1.45 3.434,-2.833 4.908,-4.469 1.068,-1.185 1.816,-2.69 2.554,-4.131 0.633,-1.236 1.053,-2.582 1.563,-3.881 0.162,-0.414 0.311,-0.833 0.466,-1.25 -0.09,-0.024 -0.181,-0.049 -0.271,-0.073"
             style="fill:#000000;fill-opacity:1;fill-rule:nonzero;stroke:none"
             id="path36" />
        </g>
        <g
           id="g38"
           transform="translate(197.8344,102.1784)">
          <path
             d="m 0,0 c 0.02,-0.092 0.04,-0.185 0.061,-0.277 1.509,0.239 3.068,0.316 4.512,0.764 1.439,0.445 2.515,1.814 4.195,1.805 0.188,-10e-4 0.383,0.261 0.566,0.412 1.849,1.525 3.678,3.078 5.552,4.572 1.467,1.169 2.348,2.778 2.791,4.466 0.445,1.695 0.373,3.538 0.428,5.32 0.049,1.617 0.012,3.24 -0.083,4.856 -0.051,0.856 -0.214,1.73 -0.487,2.542 -0.517,1.544 -1.381,3.006 -1.674,4.581 -0.345,1.852 -1.783,2.843 -2.838,4.025 -0.781,0.875 -2.056,1.447 -3,2.329 -0.532,0.497 -1.193,0.937 -1.874,1.179 -2.088,0.741 -3.956,1.948 -6.212,2.396 -2.157,0.428 -4.197,1.395 -6.465,0.722 -0.107,-0.031 -0.228,-0.063 -0.334,-0.043 -3.083,0.581 -5.55,-1.216 -8.048,-2.408 -1.641,-0.783 -2.838,-2.564 -4.128,-3.993 -1.117,-1.237 -2.252,-2.513 -3.073,-3.946 -1.023,-1.786 -1.891,-3.7 -2.527,-5.656 -0.484,-1.491 -0.58,-8.379 -0.266,-9.242 0.159,-0.437 0.14,-0.939 0.304,-1.373 0.746,-1.964 1.254,-4.093 2.379,-5.816 1.017,-1.556 2.727,-2.659 4.125,-3.969 1.673,-1.567 3.853,-2.17 5.866,-3.084 0.696,-0.317 1.422,-0.603 2.165,-0.772 1.489,-0.341 2.951,-0.936 4.545,-0.362 C -2.378,-0.561 -1.176,-0.318 0,0 m -5.733,40.988 c 1.818,0 4.004,0.234 6.114,-0.068 1.98,-0.283 3.88,-1.13 5.813,-1.736 0.385,-0.121 0.755,-0.376 1.142,-0.398 1.43,-0.082 2.219,-1.181 3.206,-1.95 1.041,-0.811 2.485,-0.886 3.311,-2.16 1.148,-1.77 2.751,-3.251 3.454,-5.305 0.757,-2.21 1.558,-4.415 2.115,-6.678 0.232,-0.945 -0.185,-2.032 -0.184,-3.055 0,-1.959 0.168,-3.921 0.106,-5.877 C 19.314,12.837 19.041,11.866 18.652,11.02 18.025,9.657 17,8.452 16.522,7.051 15.717,4.694 13.379,4.191 11.817,2.771 10.835,1.88 9.601,1.244 8.425,0.595 7.213,-0.075 5.934,-0.624 4.683,-1.223 4.478,-1.321 4.273,-1.46 4.056,-1.488 1.98,-1.753 -0.1,-1.988 -2.175,-2.258 -2.68,-2.323 -3.217,-2.397 -3.662,-2.621 c -0.96,-0.483 -1.875,-0.356 -2.841,-0.063 -1.601,0.487 -3.244,0.848 -4.822,1.399 -1.644,0.573 -3.408,1.057 -4.795,2.04 -1.498,1.062 -2.752,2.556 -3.872,4.043 -1.305,1.732 -2.534,3.574 -3.443,5.532 -0.636,1.369 -0.677,3.014 -0.988,4.535 -0.26,1.275 -0.476,2.527 0.183,3.782 0.16,0.305 -0.079,0.802 -0.072,1.209 0.024,1.476 -0.078,2.977 0.167,4.418 0.18,1.061 0.741,2.091 1.284,3.049 1.539,2.709 3.272,5.286 5.344,7.635 1.552,1.761 3.172,3.468 5.427,4.223 1.999,0.669 3.669,2.392 6.357,1.807"
             style="fill:#000000;fill-opacity:1;fill-rule:nonzero;stroke:none"
             id="path40" />
        </g>
        <g
           id="g42"
           transform="translate(211.3521,222.2186)">
          <path
             d="m 0,0 c -0.122,1.151 -0.166,2.152 -0.344,3.128 -0.354,1.943 -0.779,3.873 -1.185,5.806 -0.036,0.171 -0.124,0.448 -0.23,0.47 -1.314,0.274 -2.632,0.537 -3.957,0.746 -0.857,0.135 -1.764,0.407 -2.496,-0.388 -0.036,-0.038 -0.214,0.077 -0.328,0.086 -0.541,0.041 -1.096,0.16 -1.622,0.086 -1.247,-0.174 -2.476,-0.464 -3.72,-0.664 -1.085,-0.173 -2.178,-0.294 -3.269,-0.424 -1.222,-0.145 -2.444,-0.334 -3.671,-0.394 -1.262,-0.06 -2.537,0.098 -3.795,0.009 -2.086,-0.148 -4.159,-0.512 -6.246,-0.609 -2.512,-0.117 -5.032,-0.029 -7.547,-0.09 -0.348,-0.009 -0.929,-0.314 -0.986,-0.572 -0.188,-0.865 -0.255,-1.771 -0.247,-2.661 0.02,-2.184 0.114,-4.368 0.165,-6.552 0.011,-0.492 -0.085,-0.991 -0.035,-1.477 0.11,-1.067 0.309,-2.125 0.419,-3.192 0.063,-0.617 -0.008,-1.247 0.036,-1.868 0.079,-1.135 0.392,-2.291 0.254,-3.394 -0.199,-1.579 0.021,-3.034 0.511,-4.506 0.569,-1.708 1.326,-3.127 3.441,-3.212 0.993,-0.04 1.973,-0.344 2.967,-0.438 1.185,-0.111 2.382,-0.205 3.568,-0.161 1.53,0.058 3.054,0.287 4.584,0.389 0.996,0.067 1.999,0.05 2.999,0.054 1.689,0.008 3.379,-0.018 5.069,0.008 2.335,0.037 4.672,0.058 7.003,0.185 1.379,0.075 2.782,0.213 4.112,0.56 0.967,0.253 1.876,0.83 2.727,1.389 0.497,0.327 1.103,0.86 1.188,1.377 0.269,1.645 0.375,3.324 0.428,4.993 0.038,1.171 -0.199,2.35 -0.164,3.521 C -0.294,-5.142 -0.124,-2.492 0,0 m -8.583,-21.349 c -1.944,0.108 -4.003,0.253 -6.064,0.32 -0.781,0.025 -1.567,-0.173 -2.352,-0.193 -2.379,-0.059 -4.791,0.143 -7.128,-0.194 -1.582,-0.227 -3.052,-0.002 -4.578,0.068 -1.364,0.062 -2.742,-0.162 -4.105,-0.09 -2.509,0.131 -4.917,0.602 -6.445,2.925 -0.141,0.214 -0.128,0.527 -0.195,0.792 -0.974,3.865 -0.565,7.836 -0.906,11.749 -0.193,2.208 -0.726,4.447 -0.505,6.611 0.188,1.846 -0.839,3.316 -0.789,5.047 0.062,2.139 1.55,3.46 3.678,3.116 0.156,-0.025 0.336,-0.102 0.468,-0.054 2.299,0.837 4.723,0.179 7.07,0.614 2.103,0.39 4.255,0.534 6.391,0.724 0.967,0.085 1.95,-0.026 2.92,0.036 1.139,0.072 2.302,0.456 3.403,0.313 2.528,-0.327 4.819,0.856 7.272,0.901 1.964,0.037 3.932,0.254 5.889,0.176 1.147,-0.046 2.422,-0.28 3.368,-0.868 C -0.452,10.186 0.04,9.109 0.335,8.207 0.791,6.812 1.132,5.344 1.252,3.885 1.394,2.164 1.237,0.42 1.233,-1.313 1.231,-2.171 1.304,-3.028 1.299,-3.885 1.296,-4.467 1.176,-5.049 1.181,-5.63 c 0.021,-2.438 -0.012,-4.88 0.137,-7.31 0.089,-1.455 -0.093,-2.902 -0.402,-4.246 -0.199,-0.862 -1.337,-1.551 -2.135,-2.222 -2.106,-1.77 -4.762,-1.471 -7.364,-1.941"
             style="fill:#000000;fill-opacity:1;fill-rule:nonzero;stroke:none"
             id="path44" />
        </g>
        <g
           id="g46"
           transform="translate(177.6027,158.0209)">
          <path
             d="m 0,0 c 0.997,-0.124 1.777,-0.297 2.557,-0.296 0.715,0 2.49,0.235 2.61,0.155 1.988,-1.309 4.038,-0.711 6.108,-0.264 0.9,0.194 1.84,0.221 2.766,0.274 0.614,0.036 1.235,-0.048 1.85,-0.02 1.014,0.047 1.864,0.826 3.035,0.445 0.682,-0.221 1.563,0.146 2.349,0.278 0.974,0.162 1.937,0.419 2.916,0.515 1.045,0.103 2.183,-0.159 3.131,0.17 0.632,0.219 1.311,1.147 1.413,1.84 0.137,0.93 -0.091,2.015 -0.476,2.896 -0.536,1.225 -1.117,2.67 -2.129,3.388 -1.231,0.874 -2.899,1.239 -4.435,1.545 -1.278,0.254 -2.295,0.823 -2.952,1.822 -0.493,0.749 -1.094,0.752 -1.729,0.681 -1.78,-0.2 -3.549,-0.5 -5.325,-0.731 -0.302,-0.039 -0.665,-0.01 -0.927,0.126 C 9.383,13.545 9.373,13.527 8.646,12.128 8.118,11.113 7.372,10.3 6.254,9.851 5.707,9.631 5.239,9.217 4.735,8.891 3.171,8.834 1.99,7.9 0.917,6.794 0.627,6.495 0.34,6.06 0.308,5.666 0.158,3.797 0.096,1.922 0,0 M 30.229,4.08 C 29.994,3.126 29.839,2.243 29.556,1.403 29.133,0.148 27.789,0.112 26.864,-0.126 c -1.556,-0.4 -3.245,-0.255 -4.87,-0.426 -1.129,-0.118 -2.24,-0.4 -3.365,-0.572 C 17.75,-1.258 16.861,-1.321 15.98,-1.437 14.291,-1.659 12.609,-1.946 10.915,-2.109 9.513,-2.245 8.094,-2.339 6.691,-2.272 5.31,-2.206 3.939,-1.766 2.566,-1.776 1.749,-1.782 1.057,-1.957 0.209,-1.541 c -1.21,0.593 -2.015,1.632 -1.851,2.974 0.167,1.37 0.267,2.749 0.395,4.123 0.189,2.034 1.739,3 3.232,3.908 1.352,0.823 2.934,1.283 4.236,2.166 0.764,0.516 1.401,1.475 1.687,2.366 0.269,0.836 0.688,0.995 1.345,0.924 1.3,-0.141 2.624,-0.624 3.879,-0.472 1.747,0.211 3.705,-0.294 5.217,1.145 0.173,0.164 0.67,0.117 0.945,0 0.194,-0.081 0.362,-0.44 0.38,-0.687 0.097,-1.303 0.993,-2.436 2.254,-2.458 2.293,-0.04 4.059,-1.258 5.91,-2.346 0.895,-0.526 1.102,-1.325 1.254,-2.26 0.121,-0.751 0.484,-1.46 0.716,-2.196 0.162,-0.518 0.284,-1.049 0.421,-1.566"
             style="fill:#000000;fill-opacity:1;fill-rule:nonzero;stroke:none"
             id="path48" />
        </g>
        <g
           id="g50"
           transform="translate(196.1642,187.8169)">
          <path
             d="m 0,0 c -1.352,0.533 -3.031,1.251 -4.753,1.843 -0.653,0.224 -1.436,0.317 -2.109,0.193 -2.551,-0.469 -4.754,-1.565 -6.659,-3.437 -1.099,-1.08 -1.538,-1.96 -1.209,-3.52 0.44,-2.081 1.934,-3.513 3.517,-3.858 1.6,-0.349 3.234,-1.395 5.115,-0.702 1.459,0.538 3.116,0.521 4.606,0.996 2.355,0.749 3.432,3.272 2.562,5.582 C 0.753,-2.059 0.447,-1.212 0,0 m 2.625,-1.813 c 0,-1.616 0.077,-2.954 -0.018,-4.28 -0.146,-2.016 -1.209,-3.116 -3.174,-3.569 -0.991,-0.228 -2.058,-0.375 -2.915,-0.865 -0.744,-0.425 -4.611,-1.021 -5.603,-0.518 -1.36,0.692 -3.219,0.176 -4.178,1.754 -2.829,0.605 -2.327,3.328 -3.206,5.153 -0.19,0.395 -0.009,1.226 0.31,1.563 1.013,1.068 1.476,2.479 2.897,3.39 1.055,0.676 1.985,1.612 3.26,1.959 1.772,0.483 3.518,1.071 5.428,0.631 2.092,-0.483 4.047,-1.28 5.693,-2.61 0.823,-0.666 1.897,-1.47 1.506,-2.608"
             style="fill:#000000;fill-opacity:1;fill-rule:nonzero;stroke:none"
             id="path52" />
        </g>
        <g
           id="g54"
           transform="translate(184.5448,88.7342)">
          <path
             d="M 0,0 C 0.247,-2.692 0.975,-4.983 2.055,-7.205 2.316,-7.74 2,-8.653 1.75,-9.317 1.383,-10.29 0.794,-11.176 0.375,-12.132 c -0.959,-2.191 0.076,-3.984 1.357,-5.595 1.513,-1.903 3.157,-3.708 4.831,-5.473 0.639,-0.674 1.523,-1.114 2.287,-1.671 0.221,-0.161 0.491,-0.319 0.611,-0.545 0.65,-1.225 1.962,-1.293 3.022,-1.815 2.177,-1.07 4.505,-1.485 6.882,-1.735 0.253,-0.026 0.603,-0.175 0.744,-0.063 0.832,0.664 1.789,0.769 2.796,0.937 0.623,0.103 1.226,0.72 1.701,1.234 0.693,0.75 1.955,0.844 3.341,0.192 0.605,-0.285 1.328,-0.329 1.921,-0.631 0.429,-0.218 0.794,-0.639 1.083,-1.044 1.418,-1.995 0.467,-5.693 -1.155,-6.787 -3.014,-2.033 -6.257,-4.228 -10.251,-2.176 -0.173,0.088 -0.374,0.165 -0.564,0.17 -2.315,0.055 -3.998,1.246 -5.392,2.968 -0.097,0.12 -0.182,0.326 -0.297,0.345 -2.206,0.357 -3.557,2.131 -5.334,3.193 -1.111,0.664 -2.258,1.269 -3.364,1.94 -0.501,0.304 -0.981,0.663 -1.405,1.065 -1.143,1.087 -2.346,2.131 -3.352,3.338 -1.369,1.643 -2.711,3.34 -3.816,5.164 -1.078,1.78 -1.779,3.783 -2.765,5.625 -0.977,1.827 -0.79,3.693 -0.215,5.488 0.66,2.062 1.537,4.037 3.545,5.298 0.949,0.597 1.654,1.575 2.502,2.344 C -0.71,-0.183 -0.377,-0.145 0,0"
             style="fill:#ffffff;fill-opacity:1;fill-rule:nonzero;stroke:none"
             id="path56" />
        </g>
        <g
           id="g58"
           transform="translate(182.8726,271.0171)">
          <path
             d="M 0,0 C 0.652,0.228 1.376,0.344 1.944,0.705 4.301,2.204 5.326,4.448 5.306,7.194 5.304,7.461 5.127,7.777 4.937,7.983 3.839,9.177 2.445,9.713 0.897,9.238 -0.678,8.755 -2.302,8.22 -3.675,7.346 -5.26,6.338 -5.433,4.107 -4.229,1.997 -3.36,0.473 -1.688,0.319 0,0 m -3.693,-19.93 c -0.082,-0.907 -0.26,-1.595 -0.174,-2.248 0.108,-0.831 0.122,-2.001 1.168,-2.122 1.382,-0.16 2.82,-0.044 4.21,0.133 1.028,0.132 2.066,0.889 3.017,0.76 1.394,-0.188 2.415,0.36 3.295,0.723 0.082,0.522 0.082,0.852 0.187,1.144 0.788,2.177 0.456,2.695 -1.971,3.013 -0.079,0.01 -0.16,0.002 -0.239,0.012 -0.976,0.124 -1.401,0.749 -1.316,1.737 0.052,0.615 -0.019,1.248 -0.101,1.863 -0.104,0.772 -0.276,1.535 -0.417,2.301 -0.086,0.471 -0.158,0.944 -0.259,1.411 -0.082,0.385 -0.23,0.757 -0.29,1.143 -0.254,1.621 -0.534,3.239 -0.697,4.869 -0.052,0.527 0.226,1.086 0.353,1.63 l 0.428,0.083 c -0.684,0.579 -1.294,1.474 -2.072,1.66 -1.091,0.26 -2.308,0.002 -3.47,-0.053 -0.468,-0.022 -0.996,-0.258 -1.387,-0.109 -0.811,0.308 -1.4,-0.013 -1.884,-0.505 -1.114,-1.133 -1.177,-2.577 -0.979,-4.048 0.029,-0.211 0.201,-0.542 0.357,-0.574 0.811,-0.168 1.636,-0.313 2.461,-0.355 0.654,-0.034 1.103,-0.034 1.171,-0.914 0.135,-1.765 0.428,-3.518 0.641,-5.277 0.24,-1.979 0.868,-3.964 -0.045,-5.848 -0.693,-0.15 -1.361,-0.294 -1.987,-0.429 m 6.363,-7.441 c -0.04,0.004 -0.08,0.014 -0.119,0.01 -2.937,-0.302 -5.539,0.785 -8.191,1.831 -2.622,1.033 -4.96,2.599 -6.707,4.63 -2.032,2.362 -3.451,5.248 -3.903,8.48 -0.094,0.675 -0.583,1.294 -0.877,1.944 -0.113,0.249 -0.267,0.512 -0.273,0.772 -0.081,3.535 0.188,7.048 0.701,10.544 0.045,0.311 0.118,0.628 0.237,0.918 0.457,1.11 1.066,2.037 0.997,3.458 -0.078,1.592 0.936,3.158 2.096,4.431 0.848,0.93 1.663,1.891 2.516,2.817 0.149,0.162 0.407,0.23 0.623,0.323 1.879,0.807 3.731,1.691 5.653,2.378 0.935,0.334 1.998,0.352 3.009,0.415 1.093,0.068 2.194,0.052 3.291,0.018 1.467,-0.046 2.932,-0.151 4.399,-0.219 0.541,-0.025 1.089,0.026 1.625,-0.038 0.396,-0.048 0.776,-0.227 1.163,-0.347 0.97,-0.3 2.039,-0.435 2.887,-0.939 1.408,-0.837 2.683,-1.899 3.995,-2.891 0.45,-0.34 0.81,-0.803 1.27,-1.127 1.91,-1.348 3.136,-3.414 3.707,-5.412 0.886,-3.098 1.937,-6.296 1.505,-9.652 0.905,-1.569 -0.076,-3.088 -0.122,-4.632 -0.004,-0.12 0.042,-0.307 -0.017,-0.35 -1.447,-1.061 -0.168,-2.899 -1.25,-4.157 -0.965,-1.12 -1.594,-2.527 -2.382,-3.801 -2.09,-3.38 -4.856,-6.042 -8.484,-7.703 -1.824,-0.835 -3.68,-1.666 -5.788,-1.545 -0.506,0.029 -1.026,-0.172 -1.539,-0.266 -0.007,0.036 -0.015,0.073 -0.022,0.11"
             style="fill:#ffffff;fill-opacity:1;fill-rule:nonzero;stroke:none"
             id="path60" />
        </g>
        <g
           id="g62"
           transform="translate(191.7479,139.8997)">
          <path
             d="m 0,0 c -0.536,-1.183 -1.576,-1.38 -2.615,-1.658 -1.639,-0.439 -3.381,-0.699 -4.606,-2.059 -0.618,-0.686 -1.283,-1.354 -1.765,-2.13 -1.014,-1.632 -2.558,-2.992 -2.686,-5.106 -0.022,-0.365 -0.32,-0.706 -0.443,-1.074 -0.584,-1.738 -1.229,-3.461 -1.703,-5.229 -0.514,-1.921 -0.33,-3.862 0.525,-5.656 0.642,-1.347 0.044,-3.037 1.278,-4.216 0.198,-0.189 0.06,-0.731 0.076,-1.11 0.013,-0.294 -0.061,-0.627 0.052,-0.874 1.044,-2.269 2.21,-4.492 4.849,-5.225 2.123,-0.589 3.861,-2.233 6.198,-2.194 2.021,0.034 4.087,-0.612 6.044,0.422 0.169,0.089 0.423,0.016 0.638,0.018 0.551,0.005 1.154,-0.133 1.644,0.042 1.651,0.592 3.215,1.488 4.902,1.904 1.828,0.45 3.225,1.488 4.461,2.714 1.391,1.379 2.695,2.858 3.423,4.791 0.774,2.058 2.148,3.885 2.239,6.203 0.036,0.904 0.398,1.823 0.295,2.698 -0.164,1.385 -0.552,2.75 -0.926,4.101 -0.251,0.908 -0.508,1.86 -0.997,2.646 -0.794,1.275 -1.755,2.451 -2.695,3.629 -0.467,0.585 -1.002,1.134 -1.582,1.607 -0.843,0.687 -1.237,1.696 -2.054,2.471 C 12.566,-1.4 10.097,-1.571 7.818,-0.921 7.271,-0.765 6.754,-0.362 6.215,-0.346 4.395,-0.293 2.571,-0.374 0.749,-0.368 0.52,-0.367 0.291,-0.149 0,0 m 2.566,-38.693 c -1.594,-0.574 -3.056,0.021 -4.545,0.361 -0.742,0.17 -1.468,0.456 -2.164,0.772 -2.014,0.915 -4.194,1.518 -5.867,3.085 -1.398,1.31 -3.107,2.412 -4.124,3.969 -1.125,1.722 -1.633,3.852 -2.379,5.816 -0.165,0.433 -0.145,0.936 -0.304,1.372 -0.315,0.864 -0.219,7.751 0.266,9.243 0.636,1.955 1.503,3.869 2.527,5.655 0.821,1.434 1.956,2.709 3.072,3.947 1.29,1.429 2.488,3.21 4.129,3.993 2.497,1.191 4.964,2.989 8.048,2.407 0.105,-0.019 0.227,0.012 0.334,0.044 2.267,0.673 4.307,-0.294 6.464,-0.723 2.256,-0.448 4.124,-1.654 6.212,-2.395 0.682,-0.243 1.342,-0.682 1.874,-1.179 0.944,-0.882 2.219,-1.454 3,-2.329 1.055,-1.182 2.493,-2.173 2.838,-4.025 0.294,-1.576 1.157,-3.038 1.675,-4.581 0.272,-0.812 0.436,-1.687 0.486,-2.542 0.095,-1.616 0.132,-3.24 0.083,-4.857 -0.054,-1.781 0.017,-3.624 -0.427,-5.319 -0.443,-1.688 -1.325,-3.297 -2.791,-4.466 -1.875,-1.495 -3.703,-3.047 -5.553,-4.573 -0.183,-0.15 -0.377,-0.412 -0.566,-0.411 -1.679,0.009 -2.755,-1.36 -4.194,-1.806 -1.445,-0.447 -3.004,-0.524 -4.513,-0.763 -0.02,0.092 -2.438,-0.285 -3.581,-0.695"
             style="fill:#ffffff;fill-opacity:1;fill-rule:nonzero;stroke:none"
             id="path64" />
        </g>
        <g
           id="g66"
           transform="translate(183.6541,212.2995)">
          <path
             d="m 0,0 c -0.085,-0.016 -0.17,-0.032 -0.255,-0.048 0.108,-1.094 0.13,-2.208 0.361,-3.276 0.118,-0.54 0.589,-1.395 0.946,-1.419 1.052,-0.07 2.139,0.149 3.191,0.362 0.839,0.17 1.658,0.467 2.465,0.764 0.85,0.313 1.677,0.691 2.512,1.043 0.412,0.173 0.821,0.355 1.233,0.526 0.78,0.325 1.603,0.572 2.335,0.982 1.188,0.668 2.262,1.558 3.488,2.133 0.964,0.452 0.92,0.896 0.417,1.594 C 16.091,3.497 14.601,4.335 12.711,5.008 10.904,5.651 9.589,7.227 7.643,7.662 6.419,7.936 5.239,8.413 4.042,8.807 2.554,9.296 0.861,8.782 -0.537,9.799 -1.001,10.136 -1.577,10.107 -1.628,9.297 -1.718,7.874 -2.408,6.599 -1.288,5.022 -0.353,3.707 -0.392,1.7 0,0 M 27.698,9.919 C 27.574,7.427 27.404,4.777 27.327,2.124 c -0.035,-1.171 0.202,-2.35 0.164,-3.521 -0.053,-1.669 -0.16,-3.348 -0.428,-4.992 -0.085,-0.518 -0.691,-1.051 -1.188,-1.378 -0.851,-0.559 -1.76,-1.136 -2.727,-1.389 -1.33,-0.347 -2.733,-0.485 -4.112,-0.56 -2.331,-0.126 -4.668,-0.148 -7.003,-0.184 -1.69,-0.027 -3.38,-10e-4 -5.069,-0.009 -1,-0.004 -2.003,0.013 -2.999,-0.054 -1.53,-0.102 -3.054,-0.331 -4.584,-0.389 -1.186,-0.044 -2.383,0.05 -3.568,0.161 -0.994,0.094 -1.974,0.398 -2.967,0.438 -2.115,0.085 -2.872,1.504 -3.441,3.212 -0.49,1.472 -0.71,2.927 -0.511,4.506 0.138,1.103 -0.175,2.259 -0.254,3.394 -0.044,0.621 0.027,1.251 -0.036,1.868 -0.11,1.067 -0.309,2.125 -0.419,3.192 -0.05,0.486 0.046,0.985 0.035,1.478 -0.051,2.184 -0.145,4.367 -0.165,6.551 -0.008,0.89 0.059,1.796 0.247,2.661 0.057,0.258 0.638,0.563 0.986,0.572 2.515,0.061 5.035,-0.027 7.547,0.09 2.087,0.097 4.16,0.461 6.246,0.609 1.258,0.089 2.533,-0.069 3.795,-0.008 1.227,0.059 2.449,0.248 3.671,0.393 1.091,0.13 2.184,0.251 3.269,0.425 1.244,0.199 2.473,0.489 3.72,0.664 0.526,0.073 1.081,-0.045 1.622,-0.087 0.114,-0.009 0.292,-0.124 0.328,-0.086 0.732,0.795 1.639,0.524 2.496,0.388 1.325,-0.209 2.643,-0.472 3.957,-0.746 0.106,-0.022 0.194,-0.299 0.23,-0.47 0.406,-1.933 0.831,-3.863 1.185,-5.806 0.178,-0.976 0.222,-1.977 0.344,-3.128"
             style="fill:#000000;fill-opacity:1;fill-rule:nonzero;stroke:none"
             id="path68" />
        </g>
        <g
           id="g70"
           transform="translate(177.6027,158.0209)">
          <path
             d="M 0,0 C 0.096,1.922 0.158,3.797 0.308,5.666 0.34,6.06 0.627,6.495 0.917,6.794 1.99,7.9 3.171,8.834 4.735,8.891 c 0.504,0.326 0.972,0.74 1.519,0.96 1.118,0.449 1.864,1.262 2.392,2.277 0.727,1.399 0.737,1.417 2.116,0.696 0.262,-0.136 0.625,-0.165 0.927,-0.126 1.776,0.231 3.545,0.531 5.325,0.731 0.635,0.071 1.236,0.068 1.729,-0.681 C 19.4,11.749 20.417,11.18 21.695,10.926 23.231,10.62 24.899,10.255 26.13,9.381 27.142,8.663 27.723,7.218 28.259,5.993 28.644,5.112 28.872,4.027 28.735,3.097 28.633,2.404 27.954,1.476 27.322,1.257 26.374,0.928 25.236,1.19 24.191,1.087 23.212,0.991 22.249,0.734 21.275,0.572 20.489,0.44 19.608,0.073 18.926,0.294 c -1.171,0.381 -2.021,-0.398 -3.035,-0.445 -0.615,-0.028 -1.236,0.056 -1.85,0.02 -0.926,-0.053 -1.866,-0.08 -2.766,-0.274 C 9.205,-0.852 3.272,-0.296 2.557,-0.296 1.777,-0.297 0.997,-0.124 0,0"
             style="fill:#ffffff;fill-opacity:1;fill-rule:nonzero;stroke:none"
             id="path72" />
        </g>
        <g
           id="g74"
           transform="translate(196.1642,187.8169)">
          <path
             d="m 0,0 c 0.447,-1.212 0.753,-2.059 1.07,-2.903 0.87,-2.31 -0.207,-4.833 -2.562,-5.582 -1.49,-0.475 -3.147,-0.458 -4.606,-0.996 -1.881,-0.693 -3.515,0.353 -5.115,0.702 -1.583,0.345 -3.077,1.777 -3.517,3.858 -0.329,1.56 0.11,2.44 1.209,3.52 1.905,1.872 4.108,2.968 6.659,3.437 0.673,0.124 1.456,0.031 2.109,-0.193 C -3.031,1.251 -1.352,0.533 0,0"
             style="fill:#ffffff;fill-opacity:1;fill-rule:nonzero;stroke:none"
             id="path76" />
        </g>
        <g
           id="g78"
           transform="translate(181.8451,264.7838)">
          <path
             d="m 0,0 c -0.034,-0.275 -0.116,-0.505 -0.082,-0.716 0.428,-2.614 0.89,-5.223 1.304,-7.839 0.122,-0.771 0.215,-1.567 0.16,-2.34 -0.086,-1.217 -0.181,-2.466 -0.555,-3.608 -0.102,-0.313 -1.218,-0.29 -1.867,-0.429 -0.065,-0.013 -0.118,-0.077 -0.225,-0.15 0.191,-0.529 0.386,-1.066 0.629,-1.736 2.383,0.399 4.73,0.813 7.085,1.175 1.083,0.166 1.016,0.815 0.738,1.557 -0.252,0.672 -1.574,0.955 -2.463,0.506 -0.299,0.74 -0.752,1.45 -0.865,2.211 -0.478,3.207 -0.843,6.43 -1.272,9.645 C 2.395,-0.286 2.151,1.145 1.918,2.661 0.927,2.578 -0.034,2.583 -0.956,2.396 -1.842,2.216 -2.688,1.837 -3.56,1.543 -3.356,0.363 -2.678,-0.041 -1.415,0.323 -1.025,0.435 -0.515,0.129 0,0 m -2.665,-13.696 c 0.626,0.135 1.294,0.279 1.987,0.428 0.912,1.884 0.284,3.869 0.045,5.848 -0.213,1.76 -0.506,3.512 -0.642,5.277 -0.067,0.88 -0.516,0.88 -1.17,0.914 -0.826,0.043 -1.65,0.187 -2.461,0.355 -0.156,0.032 -0.329,0.363 -0.357,0.574 -0.199,1.472 -0.135,2.915 0.978,4.048 0.485,0.493 1.074,0.813 1.884,0.505 0.392,-0.149 0.92,0.087 1.388,0.109 C 0.149,4.417 1.366,4.676 2.456,4.415 3.235,4.229 3.844,3.334 4.529,2.756 L 4.101,2.673 C 3.974,2.128 3.695,1.569 3.748,1.043 3.91,-0.587 4.191,-2.206 4.444,-3.826 4.505,-4.213 4.653,-4.585 4.735,-4.969 4.835,-5.437 4.907,-5.91 4.994,-6.38 5.135,-7.147 5.307,-7.91 5.41,-8.681 c 0.082,-0.616 0.154,-1.249 0.101,-1.863 -0.084,-0.989 0.341,-1.614 1.317,-1.738 0.079,-0.01 0.16,-10e-4 0.239,-0.012 2.426,-0.318 2.759,-0.836 1.971,-3.013 -0.106,-0.292 -0.106,-0.621 -0.188,-1.144 -0.879,-0.363 -1.901,-0.911 -3.294,-0.722 -0.952,0.128 -1.989,-0.629 -3.017,-0.76 -1.391,-0.178 -2.828,-0.294 -4.21,-0.134 -1.046,0.122 -1.061,1.291 -1.169,2.122 -0.085,0.654 0.093,1.341 0.175,2.249"
             style="fill:#000000;fill-opacity:1;fill-rule:nonzero;stroke:none"
             id="path80" />
        </g>
        <g
           id="g82"
           transform="translate(182.5145,272.8169)">
          <path
             d="M 0,0 C 0.268,-0.019 0.456,-0.053 0.642,-0.042 1.996,0.043 4.473,3.476 4.063,5.019 4.033,5.132 4.001,5.255 3.931,5.343 3.188,6.279 0.266,6.197 -0.526,5.249 -1.119,4.538 -1.82,3.911 -2.359,3.164 -2.636,2.781 -2.934,2 -2.753,1.773 -2.045,0.881 -1.476,-0.413 0,0 m 0.358,-1.8 c -1.688,0.319 -3.36,0.473 -4.229,1.997 -1.204,2.11 -1.031,4.341 0.554,5.349 1.373,0.874 2.997,1.41 4.572,1.893 C 2.803,7.913 4.197,7.378 5.295,6.184 5.485,5.977 5.663,5.661 5.665,5.394 5.685,2.648 4.659,0.405 2.302,-1.095 1.734,-1.456 1.01,-1.571 0.358,-1.8"
             style="fill:#000000;fill-opacity:1;fill-rule:nonzero;stroke:none"
             id="path84" />
        </g>
        <g
           id="g86"
           transform="translate(186.0909,110.9181)">
          <path
             d="M 0,0 C 0,0 2.659,2.757 1.539,2.659 0.998,2.16 -2.073,-1.046 -2.614,-1.546 -1.272,-1.944 0,0 0,0 m 8.158,23.647 c 0.145,0.002 0.29,0.003 0.435,0.004 0.257,1.187 0.502,2.373 -0.435,3.472 z M 9.015,22.946 C 8.9,22.961 8.785,22.976 8.67,22.992 8.57,22.084 8.399,21.177 8.389,20.269 8.379,19.33 8.525,18.39 8.624,17.197 c 0.181,0.01 0.682,0.037 1.068,0.058 -0.245,2.063 -0.461,3.877 -0.677,5.691 M 19.131,3.536 c -0.139,-0.155 -0.279,-0.31 -0.418,-0.465 0.936,-0.929 1.84,-1.896 2.833,-2.76 0.261,-0.227 0.801,-0.133 1.214,-0.187 -0.044,0.418 0.069,1.053 -0.159,1.217 -1.107,0.801 -2.304,1.476 -3.47,2.195 M 12.64,15.09 c -0.659,0.125 -1.476,0.411 -2.292,0.405 C 8.939,15.485 7.371,15.648 6.159,15.099 4.221,14.219 3.008,12.504 2.856,10.225 2.833,9.884 2.614,9.561 2.518,9.22 2.459,9.011 2.419,8.779 2.443,8.566 2.613,7.065 3.282,6.092 4.892,5.697 5.959,5.436 6.886,4.646 7.928,4.222 9.013,3.78 10.071,3.866 11.283,4.181 c 1.512,0.393 3.002,0.409 3.249,2.385 0.018,0.144 0.119,0.328 0.238,0.403 1.124,0.705 0.899,1.74 0.684,2.761 -0.206,0.975 -0.267,2.037 -0.717,2.889 -0.476,0.902 -1.335,1.602 -2.097,2.471 M -0.783,-3.923 c 0.337,-0.098 0.643,-0.109 0.849,-0.258 1.837,-1.335 3.952,-1.768 6.145,-2.113 2.651,-0.417 5.055,0.694 7.588,0.966 0.766,0.082 1.578,0.192 2.258,0.519 1.283,0.616 2.52,1.348 3.708,2.135 0.581,0.386 1.357,0.984 0.7,1.801 -1.143,1.421 -2.4,2.752 -3.643,4.09 C 16.236,3.848 15.557,4.442 14.595,4.1 13.819,3.825 13.064,3.475 12.329,3.1 10.347,2.088 8.56,2.494 6.742,3.612 6.255,3.911 5.238,3.9 4.785,3.579 3.906,2.957 3.232,2.033 2.518,1.196 2.16,0.776 2.009,0.075 1.579,-0.159 0.053,-0.991 -0.262,-2.473 -0.783,-3.923 M -2.958,0 c 1.353,1.223 2.658,2.361 3.911,3.554 0.632,0.602 1.656,1.242 1.116,2.244 -1.502,2.785 -1.301,5.514 0.341,8.022 0.64,0.978 1.401,2.165 2.977,2.408 0.686,0.106 1.602,1.186 1.728,1.939 0.257,1.531 0.266,3.183 -0.033,4.705 -0.286,1.463 -1.09,2.823 -1.54,3.92 -0.96,-0.279 -1.846,-0.527 -2.727,-0.793 -0.818,-0.248 -1.841,-0.29 -2.404,-0.818 -1.427,-1.338 -2.69,-2.863 -3.922,-4.39 -0.386,-0.478 -0.46,-1.206 -0.684,-1.816 -0.546,-1.49 -1.12,-2.97 -1.636,-4.47 -0.352,-1.02 -0.413,-2.207 -0.982,-3.07 C -7.752,10.012 -7.13,8.77 -6.763,7.479 -6.424,6.29 -5.968,5.133 -5.535,3.972 -4.973,2.462 -4.67,0.776 -2.958,0 m 27.237,2.064 c 1.46,2.304 2.52,4.492 2.745,7.179 0.193,2.29 -0.743,4.27 -1.051,6.402 -0.323,2.236 -2.138,3.797 -3.623,5.42 -0.987,1.079 -2.079,2.062 -3.118,3.094 -0.293,0.29 -0.542,0.833 -0.85,0.863 -1.148,0.112 -1.828,1.214 -3.192,1.115 -1.204,-0.087 -2.464,0.77 -3.724,1.125 -0.246,0.07 -0.843,-0.214 -0.868,-0.393 -0.125,-0.892 -0.201,-1.809 -0.131,-2.705 0.164,-2.083 0.537,-4.156 0.587,-6.239 0.021,-0.9 0.388,-1.121 1.025,-1.427 0.491,-0.236 0.898,-0.646 1.342,-0.979 0.173,-0.21 0.461,-0.313 0.758,-0.362 0.97,-0.16 1.163,-1.113 1.749,-1.658 1.183,-1.102 1.436,-2.845 1.085,-3.884 -0.652,-1.928 0.439,-2.914 1.41,-3.814 1.24,-1.152 2.849,-1.907 4.304,-2.824 C 23.182,2.69 23.654,2.43 24.279,2.064 M 6.406,28.614 c 1.822,-0.007 3.646,0.075 5.466,0.021 0.539,-0.016 1.056,-0.418 1.603,-0.574 2.279,-0.651 4.748,-0.479 6.735,-2.364 0.816,-0.775 1.21,-1.785 2.053,-2.472 0.58,-0.472 1.115,-1.021 1.582,-1.606 0.94,-1.179 1.901,-2.354 2.695,-3.63 0.489,-0.786 0.746,-1.738 0.997,-2.645 0.374,-1.352 0.762,-2.717 0.926,-4.102 C 28.566,10.367 28.204,9.448 28.168,8.544 28.077,6.226 26.703,4.399 25.929,2.342 25.201,0.408 23.897,-1.07 22.506,-2.45 21.27,-3.675 19.874,-4.713 18.045,-5.164 16.358,-5.579 14.794,-6.476 13.143,-7.067 12.653,-7.243 12.05,-7.104 11.499,-7.11 11.284,-7.112 11.03,-7.038 10.861,-7.128 8.904,-8.161 6.838,-7.515 4.817,-7.549 2.48,-7.589 0.742,-5.944 -1.381,-5.355 -4.02,-4.622 -5.186,-2.4 -6.23,-0.131 -6.343,0.116 -6.268,0.45 -6.281,0.743 c -0.017,0.379 0.121,0.921 -0.077,1.111 -1.233,1.178 -0.636,2.868 -1.278,4.215 -0.855,1.794 -1.039,3.735 -0.525,5.656 0.474,1.769 1.119,3.491 1.703,5.229 0.123,0.368 0.421,0.71 0.443,1.075 0.128,2.114 1.672,3.474 2.686,5.106 0.482,0.776 1.147,1.444 1.765,2.129 1.225,1.361 2.967,1.621 4.606,2.059 1.039,0.278 3.135,1.291 3.364,1.291"
             style="fill:#000000;fill-opacity:1;fill-rule:nonzero;stroke:none"
             id="path88" />
        </g>
        <g
           id="g90"
           transform="translate(184.9438,208.4891)">
          <path
             d="m 0,0 c 1.613,0.514 2.807,1.145 4.042,1.237 2.659,0.199 4.471,2.269 6.928,2.871 0.55,0.134 0.955,0.778 1.498,1.043 0.839,0.411 1.018,0.998 0.198,1.447 C 10.895,7.569 9.054,8.422 7.207,9.244 6.003,9.779 4.751,10.219 3.496,10.623 2.236,11.027 0.944,11.332 -0.688,11.778 -0.967,7.671 0.004,4.084 0,0 m -1.29,3.81 c -0.392,1.701 -0.353,3.707 -1.287,5.022 -1.121,1.577 -0.431,2.853 -0.341,4.276 0.051,0.809 0.627,0.838 1.091,0.501 1.398,-1.017 3.091,-0.503 4.58,-0.992 1.197,-0.394 2.376,-0.87 3.6,-1.144 C 8.299,11.037 9.614,9.462 11.421,8.818 13.311,8.145 14.802,7.307 15.403,6.472 15.907,5.773 15.951,5.329 14.987,4.877 13.76,4.302 12.686,3.412 11.498,2.745 10.767,2.334 9.944,2.087 9.164,1.763 8.751,1.591 8.343,1.409 7.931,1.236 7.095,0.884 6.269,0.506 5.419,0.193 4.611,-0.104 3.792,-0.401 2.953,-0.571 1.901,-0.784 0.815,-1.002 -0.238,-0.933 c -0.357,0.024 -0.828,0.879 -0.945,1.42 -0.232,1.068 -0.253,2.181 -0.362,3.275 0.085,0.016 0.17,0.032 0.255,0.048"
             style="fill:#000000;fill-opacity:1;fill-rule:nonzero;stroke:none"
             id="path92" />
        </g>
        <g
           id="g94"
           transform="translate(181.8451,264.7838)">
          <path
             d="m 0,0 c -0.515,0.129 -1.025,0.435 -1.415,0.323 -1.263,-0.364 -1.941,0.04 -2.145,1.22 0.872,0.294 1.718,0.673 2.604,0.853 0.922,0.187 1.883,0.182 2.874,0.265 0.233,-1.516 0.477,-2.947 0.669,-4.385 0.429,-3.215 0.794,-6.438 1.272,-9.645 0.113,-0.761 0.566,-1.471 0.865,-2.211 0.889,0.449 2.211,0.166 2.463,-0.506 0.278,-0.742 0.345,-1.391 -0.738,-1.557 -2.355,-0.362 -4.702,-0.776 -7.085,-1.175 -0.243,0.67 -0.438,1.207 -0.629,1.736 0.107,0.073 0.16,0.137 0.225,0.15 0.649,0.139 1.765,0.116 1.867,0.429 0.374,1.142 0.469,2.391 0.555,3.608 0.055,0.773 -0.038,1.569 -0.16,2.34 C 0.808,-5.939 0.346,-3.33 -0.082,-0.716 -0.116,-0.505 -0.034,-0.275 0,0"
             style="fill:#ffffff;fill-opacity:1;fill-rule:nonzero;stroke:none"
             id="path96" />
        </g>
        <g
           id="g98"
           transform="translate(182.5145,272.8169)">
          <path
             d="M 0,0 C -1.476,-0.413 -2.045,0.881 -2.753,1.773 -2.934,2 -2.636,2.781 -2.359,3.164 -1.82,3.911 -1.119,4.538 -0.526,5.249 0.266,6.197 3.188,6.279 3.931,5.343 4.001,5.255 4.033,5.132 4.063,5.019 4.473,3.476 1.996,0.043 0.642,-0.042 0.456,-0.053 0.268,-0.019 0,0"
             style="fill:#ffffff;fill-opacity:1;fill-rule:nonzero;stroke:none"
             id="path100" />
        </g>
        <g
           id="g102"
           transform="translate(210.3701,112.9817)">
          <path
             d="m 0,0 c -0.626,0.367 -1.098,0.626 -1.552,0.913 -1.456,0.918 -3.065,1.673 -4.305,2.824 -0.97,0.901 -2.061,1.886 -1.409,3.815 0.351,1.038 0.097,2.782 -1.086,3.883 -0.585,0.545 -0.778,1.498 -1.749,1.658 -0.296,0.049 -0.584,0.153 -0.757,0.362 -0.444,0.333 -0.851,0.743 -1.342,0.979 -0.637,0.306 -1.004,0.528 -1.025,1.427 -0.05,2.083 -0.424,4.156 -0.587,6.24 -0.071,0.895 0.006,1.813 0.131,2.704 0.025,0.179 0.621,0.464 0.868,0.394 1.259,-0.355 2.519,-1.212 3.724,-1.125 1.363,0.098 2.044,-1.003 3.192,-1.115 0.308,-0.031 0.557,-0.573 0.849,-0.864 1.04,-1.032 2.132,-2.014 3.119,-3.093 1.485,-1.623 3.3,-3.185 3.623,-5.421 C 2.002,11.449 2.937,9.47 2.745,7.179 2.52,4.493 1.46,2.304 0,0"
             style="fill:#eaeaea;fill-opacity:1;fill-rule:nonzero;stroke:none"
             id="path104" />
        </g>
        <g
           id="g106"
           transform="translate(183.1332,110.9182)">
          <path
             d="m 0,0 c -1.712,0.776 -2.015,2.462 -2.578,3.972 -0.432,1.161 -0.888,2.318 -1.227,3.507 -0.368,1.291 -0.989,2.533 -0.05,3.956 0.569,0.863 0.63,2.05 0.981,3.07 0.517,1.5 1.091,2.98 1.637,4.469 0.224,0.611 0.298,1.339 0.683,1.817 1.233,1.527 2.496,3.052 3.923,4.39 0.562,0.528 1.586,0.57 2.404,0.818 0.881,0.266 1.767,0.514 2.726,0.793 0.45,-1.097 1.254,-2.457 1.541,-3.92 0.299,-1.522 0.289,-3.174 0.033,-4.705 C 9.947,17.414 9.031,16.334 8.345,16.228 6.768,15.985 6.007,14.798 5.367,13.82 3.725,11.312 3.524,8.583 5.026,5.798 5.567,4.796 4.543,4.156 3.911,3.554 2.658,2.361 1.352,1.223 0,0"
             style="fill:#eaeaea;fill-opacity:1;fill-rule:nonzero;stroke:none"
             id="path108" />
        </g>
        <g
           id="g110"
           transform="translate(185.3082,106.9947)">
          <path
             d="m 0,0 c 0.521,1.451 0.836,2.932 2.361,3.764 0.43,0.235 0.582,0.935 0.94,1.355 0.714,0.838 1.388,1.762 2.266,2.384 0.454,0.32 1.471,0.331 1.957,0.032 1.819,-1.118 3.606,-1.523 5.588,-0.511 0.734,0.375 1.49,0.724 2.266,1 0.961,0.341 1.641,-0.253 2.227,-0.884 1.243,-1.337 2.5,-2.668 3.643,-4.09 C 21.905,2.233 21.129,1.635 20.547,1.249 19.36,0.462 18.123,-0.27 16.84,-0.886 16.159,-1.213 15.347,-1.322 14.581,-1.404 12.048,-1.676 9.644,-2.788 6.994,-2.371 4.8,-2.025 2.686,-1.593 0.849,-0.258 0.643,-0.108 0.336,-0.097 0,0"
             style="fill:#eaeaea;fill-opacity:1;fill-rule:nonzero;stroke:none"
             id="path112" />
        </g>
        <g
           id="g114"
           transform="translate(198.7311,126.0084)">
          <path
             d="M 0,0 C 0.762,-0.869 1.621,-1.569 2.097,-2.472 2.546,-3.324 2.608,-4.385 2.814,-5.36 3.029,-6.382 3.254,-7.416 2.13,-8.121 2.011,-8.196 1.909,-8.38 1.891,-8.525 1.644,-10.5 0.155,-10.517 -1.357,-10.91 c -1.212,-0.315 -2.27,-0.4 -3.355,0.042 -1.042,0.424 -1.969,1.213 -3.036,1.475 -1.611,0.395 -2.279,1.368 -2.449,2.869 -0.024,0.213 0.015,0.445 0.075,0.654 0.095,0.34 0.315,0.664 0.338,1.004 0.152,2.279 1.365,3.995 3.303,4.874 1.211,0.55 2.78,0.387 4.189,0.397 C -1.476,0.411 -0.659,0.125 0,0"
             style="fill:#ffffff;fill-opacity:1;fill-rule:nonzero;stroke:none"
             id="path116" />
        </g>
        <g
           id="g118"
           transform="translate(205.2219,114.4543)">
          <path
             d="M 0,0 C 1.166,-0.719 2.363,-1.394 3.47,-2.195 3.697,-2.36 3.585,-2.994 3.629,-3.412 3.216,-3.359 2.676,-3.453 2.415,-3.226 1.421,-2.361 0.518,-1.394 -0.418,-0.465 -0.279,-0.31 -0.139,-0.155 0,0"
             style="fill:#ffffff;fill-opacity:1;fill-rule:nonzero;stroke:none"
             id="path120" />
        </g>
        <g
           id="g122"
           transform="translate(195.106,133.864)">
          <path
             d="m 0,0 c 0.216,-1.814 0.432,-3.628 0.677,-5.691 -0.386,-0.021 -0.887,-0.048 -1.068,-0.058 -0.099,1.193 -0.245,2.133 -0.235,3.072 0.01,0.908 0.181,1.815 0.281,2.723 C -0.23,0.03 -0.115,0.015 0,0"
             style="fill:#ffffff;fill-opacity:1;fill-rule:nonzero;stroke:none"
             id="path124" />
        </g>
        <g
           id="g126"
           transform="translate(194.2489,134.5656)">
          <path
             d="M 0,0 V 3.475 C 0.937,2.377 0.692,1.19 0.435,0.003 0.29,0.002 0.145,0.001 0,0"
             style="fill:#ffffff;fill-opacity:1;fill-rule:nonzero;stroke:none"
             id="path128" />
        </g>
        <g
           id="g130"
           transform="translate(185.3991,110.5613)">
          <path
             d="m 0,0 c -0.344,-0.732 -0.58,-1.587 -1.922,-1.189 0.541,0.5 0.859,0.65 1.4,1.15 C -0.422,-0.142 -0.1,0.103 0,0"
             style="fill:#ffffff;fill-opacity:1;fill-rule:nonzero;stroke:none"
             id="path132" />
        </g>
        <g
           id="g134"
           transform="translate(184.9438,208.4891)">
          <path
             d="M 0,0 C 0.004,4.084 -0.967,7.671 -0.688,11.778 0.944,11.332 2.236,11.027 3.496,10.623 4.751,10.219 6.003,9.779 7.207,9.244 9.054,8.422 10.895,7.569 12.666,6.598 13.486,6.149 13.307,5.562 12.468,5.151 11.925,4.886 11.52,4.242 10.97,4.108 8.513,3.506 6.701,1.436 4.042,1.237 2.807,1.145 1.613,0.514 0,0"
             style="fill:#ffffff;fill-opacity:1;fill-rule:nonzero;stroke:none"
             id="path136" />
        </g>
      </g>
    </g>
  </g>
</svg>
