<svg xmlns="http://www.w3.org/2000/svg" width="485.76" height="456.96"><defs><clipPath id="a"><path d="M0 342.72h364.32V0H0z"/></clipPath></defs><g clip-path="url(#a)" transform="matrix(1.33333 0 0 -1.33333 0 456.96)"><path d="m222.108 291.633.129.059-.524 1.258c-.483 1.058-1.143 2.068-1.434 3.175-.593 2.265-2.006 3.607-3.92 4.918-2.836 1.943-6.131 1.918-9.182 2.874-1.158.363-2.468.241-3.708.349-2.933.257-5.811 1.158-8.813.685-.541-.086-1.141.232-1.718.345-.906.177-1.826.522-2.721.468-1.81-.11-3.603-.479-5.411-.67l-11.341-1.136-3.386-.458c-2.771-.148-5.524-.32-7.854-2.078-.572-.431-1.058-.974-1.598-1.449-.323-.285-.796-.472-.99-.82l-1.943-3.891c-.386-.891-.371-2.032-.932-2.754-1.004-1.292-1.008-2.815-1.154-4.211-.211-2.019.125-4.09.159-6.14l.046-8.02c.007-.46.206-.919.328-1.376l.347-1.215 1.488-7.549c.029-.144.17-.265.21-.41.078-.288.236-.618.163-.875-.791-2.813.125-5.598.155-8.395.032-2.947.791-5.895.74-8.834-.069-4 .89-7.852 1.184-11.79.203-2.729.561-5.447.87-8.167.134-1.176.346-2.342.477-3.518l.652-6.262c.138-1.209.652-2.358.349-3.642-.173-.733-.067-1.539-.036-2.31l.222-4.042c.029-.576-.053-1.165.041-1.728.423-2.534 1.019-5.046.705-7.652-.059-.486-.046-1.059.157-1.485 1.15-2.425 1.321-5.085 1.148-7.601-.141-2.052.446-4.039.025-6.124-.313-1.552.276-3.269.336-4.917.092-2.531.036-5.068.116-7.6l.4-8.954.19-5.973c.009-.428-.326-1.036-.14-1.26 1.036-1.249-.279-2.42-.022-3.667.191-.929-.212-1.963-.209-2.95.007-2.285.116-4.57.148-6.855.009-.631-.164-1.264-.152-1.894.029-1.587.122-3.174.178-4.761l.193-6.154.045-4.879c.017-1.616-.027-3.237.088-4.846.072-1.016.52-2.009.562-3.022.098-2.334-.053-4.682.089-7.012.195-3.188-.413-6.35-.105-9.549.183-1.9-.11-3.846-.182-5.771l-.237-6.835c-.024-.857.011-1.715.035-2.572l.1-2.944c.006-.718-.149-1.447-.063-2.151.211-1.726.65-3.431.761-5.159.172-2.677.102-5.369.218-8.051.099-2.308.302-4.613.496-6.916.024-.287.267-.558.418-.831.14-.255.399-.495.419-.756.108-1.39.323-2.8.191-4.174-.222-2.327.615-4.309 1.904-6.044 1.055-1.423 2.407-2.691 3.831-3.755 1.279-.957 2.799-1.63 4.286-2.252.66-.277 1.51-.064 2.259-.174.799-.118 1.571-.433 2.37-.52 1.015-.109 2.087.355 3.037-.423.194-.159.617-.067.932-.045l5.759.405c.145.01.343-.096.432-.031 1.559 1.123 3.411.634 4.962.439 3.136-.396 6.136.387 9.204.433 2.152.032 4.298.414 6.448.627l3.929.352c.923.091 1.844.219 2.767.316.149.015.336-.114.454-.061 2.099.943 4.579 1.02 6.265 2.922.883.995 2.003 1.775 2.957 2.712 1.717 1.686 3.117 3.587 3.903 5.906.33.974.802 1.9 1.211 2.846.382.881.893 1.729 1.123 2.648.451 1.796.755 3.629 1.098 5.451.048.257-.02.537-.044.805l-.525 5.894-.563 8.189-1.603 14.478c-.219 2.138-.27 4.294-.381 6.442l-.385 7.907c-.01.196-.054.391-.083.586-.26 1.699-.561 3.393-.768 5.098-.151 1.246-.127 2.513-.276 3.759-.19 1.579-.536 3.139-.702 4.72-.126 1.193-.011 2.411-.12 3.607-.179 1.97-.514 3.926-.671 5.896-.253 3.179-.651 6.352-.385 9.558.084 1.017-.104 2.054-.138 3.082a52.083 52.083 0 0 0-.032 3.061c.028 1.03.201 2.06.173 3.086-.04 1.427-.233 2.85-.315 4.276l-.292 6.008c-.11 1.666-.322 3.325-.455 4.99-.059.729-.099 1.471-.031 2.195.083.894.402 1.775.416 2.664a45.75 45.75 0 0 1-.174 4.912c-.231 2.514-.566 5.02-.872 7.527-.109.887-.357 1.767-.377 2.654-.038 1.73.051 3.464.064 5.196.005.651-.052 1.303-.082 1.955-.055 1.206-.191 2.415-.145 3.617.055 1.456.428 2.915.362 4.358-.07 1.495-.566 2.946-.391 4.498.148 1.314.108 2.665-.002 3.987-.236 2.857-.661 5.7-.832 8.56-.111 1.836.077 3.691.162 5.537.034.747.228 1.492.213 2.235-.04 2.124-.174 4.246-.224 6.37-.04 1.689.004 3.38-.019 5.069-.01.786-.138 1.571-.129 2.355.022 1.808.188 3.619.114 5.421-.044 1.086-.484 2.15-.646 3.24-.3 2.024-.528 4.059-.785 6.09-.079.629-.323 1.294-.2 1.88.48 2.274-.162 4.463-.427 6.667-.295 2.453-.907 4.867-1.246 7.317-.497 3.594-.854 7.208-1.314 10.808-.112.881-.476 1.731-.575 2.612-.179 1.59-.177 3.202-.38 4.787-.199 1.551-.563 3.081-.844 4.622-.035.193-.005.398-.005.597m.704-254.166c-1.83-.274-3.652-.621-5.49-.805-2.682-.267-5.376-.404-8.063-.619l-5.855-.514c-1.366-.098-2.741-.08-4.109-.167l-7.132-.508c-.771-.048-1.554.094-2.323.039-1.53-.107-3.053-.319-4.582-.425-.457-.032-.93.131-1.391.225-.466.095-.921.267-1.39.315-1.505.156-3.031.179-4.514.444-.638.114-1.177.727-1.789 1.06a57.77 57.77 0 0 1-2.829 1.439c-2.14 1.017-3.445 2.808-4.564 4.798-.565 1.005-1.31 1.917-1.802 2.953-.567 1.192-1.162 2.345-.99 3.839.134 1.158-.452 2.385-.611 3.596-.254 1.936-.224 3.879-.074 5.831.084 1.097-.074 2.214-.136 3.321l-.189 2.805-.929 10.997a91.204 91.204 0 0 0-.233 3.655 79.086 79.086 0 0 0-.089 3.956l.137 9.034c.026 1.223.158 2.445.174 3.669l-.01 6.075-.043 7.313c-.006 1.364.057 2.731-.013 4.091-.089 1.737-.334 3.465-.417 5.202-.111 2.345-.128 4.695-.195 7.043l-.273 9.524c-.015.71.189 1.425.174 2.134l-.21 5.758c-.013.829.192 1.66.201 2.491.02 1.781-.029 3.562-.039 5.342l-.029 6.751c-.045 1.788-.229 3.572-.295 5.36l-.178 7.003-.165 3.878-.215 5.771-.212 5.488c-.036 1.056.023 2.121-.088 3.168-.172 1.609-.498 3.201-.675 4.809-.159 1.443-.144 2.905-.317 4.345-.182 1.515-.563 3.006-.731 4.522-.147 1.317-.09 2.655-.172 3.981l-.525 7.574-.423 5.257-.673 6.396-.753 7.598c-.159 1.268-.643 2.494-.814 3.761-.233 1.726-.312 3.473-.448 5.211l-.204 2.973-.488 7.746c-.166 2.083-.439 4.157-.649 6.236-.035.355-.035.725.027 1.075.368 2.089-.03 4.029-.927 5.938-.353.751-.443 1.651-.529 2.496-.251 2.452-.501 4.907-.63 7.367-.079 1.501.139 3.017.089 4.522-.063 1.887-.326 3.768-.39 5.655-.076 2.255.108 4.476 1.124 6.572.42.867.543 1.874.923 2.765.526 1.233 1.183 2.409 1.751 3.624.331.707.585 1.45.903 2.163.136.306.281.677.536.847 1.442.965 2.946 1.84 4.377 2.821 1.508 1.034 3.253.692 4.89.966.312.053.685-.066.947.062 2.35 1.148 4.836 1.06 7.354.985.838-.025 1.677.496 2.537.614 2.112.287 4.233.523 6.356.704 1.17.1 2.352.045 3.529.066 1.349.025 2.828-.287 4.016.165 1.829.695 3.386-.691 5.087-.222.073.02.17.021.236-.011 1.054-.505 2.174-.404 3.299-.483 3.078-.218 6.166-.488 9.204-1.003 2.337-.397 4.755-.89 6.856-1.916 1.716-.837 3.142-2.41 4.471-3.863 1.89-2.065 2.461-4.823 3.394-7.377.688-1.881 1.084-3.76.91-5.822-.117-1.389.357-2.832.594-4.247l1.012-5.84c.147-.948.111-1.923.252-2.872.18-1.205.509-2.389.669-3.596.113-.847-.012-1.724.088-2.573.084-.709.388-1.389.511-2.097.236-1.36.485-2.724.601-4.098l.631-8.884c.1-1.381.185-2.767.369-4.138.126-.937.413-1.853.626-2.779.018-.077.025-.157.031-.237.171-2.456.428-4.91.485-7.369.052-2.187-.132-4.38-.184-6.571-.032-1.359-.071-2.724.004-4.08.071-1.283.364-2.556.413-3.839.039-.99-.23-1.99-.217-2.984.023-1.845.153-3.689.237-5.533.008-.16.002-.32.01-.479l.491-10.263c.062-2.728-.133-5.462-.115-8.193.012-1.776.233-3.55.299-5.327.031-.864-.087-1.734-.124-2.601-.012-.272.018-.545.028-.818.057-1.593.029-3.196.198-4.778.127-1.183.587-2.329.758-3.511.308-2.137.685-4.287.709-6.435.024-2.108-.465-4.218-.521-6.332-.042-1.584.393-3.18.347-4.763-.048-1.673 1.075-3.293.657-4.76-.453-1.587-.023-3.017-.092-4.508-.108-2.345-.03-4.698-.027-7.048.002-1.375-.051-2.753.027-4.124l.684-10.494c.078-1.311-.023-2.635.101-3.94.121-1.275.452-2.528.639-3.798s.345-2.541.452-3.817c.144-1.706.164-3.425.353-5.125.196-1.762.596-3.503.782-5.266.136-1.289.058-2.599.096-3.9l.259-7.449c.056-1.027.443-2.045.431-3.064-.033-2.607.579-5.128.856-7.692l.85-7.427.784-7.605c.083-.98-.04-1.978-.048-2.968a97.043 97.043 0 0 1 .024-3.052c.005-.18.061-.444.186-.523.869-.546.637-1.402.437-2.07-.282-.939-.299-1.801-.254-2.782.073-1.586-.291-3.197-.51-4.792-.353-2.565-1.648-4.738-2.929-6.914-.995-1.69-1.897-3.444-3.006-5.056-.664-.964-1.842-1.593-2.432-2.584-.65-1.095-1.57-1.694-2.602-2.19-1.732-.833-3.504-1.587-5.281-2.32-.385-.159-.865-.092-1.301-.129l-.026.185M121.965 207.548l-1.217.754c-1.36 1.075-2.885 1.655-4.626 1.722-.621.024-1.233.271-1.854.301-1.015.05-2.15.291-3.028-.062-1.644-.659-3.203-1.593-4.681-2.586-1.545-1.039-2.952-2.283-4.42-3.435-.302-.237-.577-.543-.919-.686-1.384-.576-2.263-1.974-3.792-2.305a.451.451 0 0 1-.279-.196c-.685-1.323-1.873-1.17-3.028-1.124-.682 2.04-.513 2.486.933 3.217.958.484 1.876 1.06 2.763 1.666.748.51 1.398 1.16 2.138 1.682l7.164 4.984-.586.232c-2.055 1.067-3.871 2.454-6.588 1.367-1.259-.504-2.687-.577-3.807-1.577l-4.107-3.423-3.306-3.156c-.257-.226-.934-.337-1.149-.165-.336.268-.611.821-.616 1.256-.018 1.735 1.768 2.28 2.528 3.558.677 1.139 1.962 1.917 2.978 2.855l-.107.359c-.668-.035-1.473.157-1.976-.148-1.372-.835-2.908-1.328-4.146-2.496-1.574-1.485-3.482-2.615-5.239-3.907l-1.95-1.493c-2.105-1.724-3.504-4.1-5.518-5.931-2.033-1.848-3.037-4.455-4.395-6.79-.134-.232-.056-.597-.047-.9.048-1.674.119-3.359-.93-4.811-.313-.433-.776-.758-1.089-1.192-.232-.32-.513-.769-.454-1.103a7.28 7.28 0 0 1 .733-2.094c.406-.766.897-1.508 1.464-2.163.709-.82 1.593-1.491 2.295-2.316l4.25-5.178c1.337-1.492 2.814-2.861 4.268-4.244.773-.736 1.523-1.619 2.755-1.495l5.342.591c.908.05 1.852-.171 2.748-.395.935-.232 1.815-.691 2.751-.915l4.661-.925 4.24-.739c1.504-.2 2.772.596 4.122 1.086l7.664 2.568c.598.191 1.257.182 1.884.288 1.803.305 2.512 1.433 4.136 1.929 1.585.33 2.036.614 3.06 1.26 1.11.7 1.673.828 2.61 1.71 1.875 1.765 1.44 1.53 3.876 3.169.837 2.272 2.085 3.217 2.279 4.037.254 1.08 2.619 2.341 2.4 3.48-.141.728.056.967-.317 1.629-.59 1.046-1.539 3.074-2.718 3.461-1.055 1.54-2.66-.96-3.864-1.634-1.042-.584-1.84-1.59-2.851-2.249-1.124-.733-2.374-1.272-3.554-1.923-.329-.181-.59-.482-.909-.684-.596-.377-1.177-.862-1.834-1.03-.455-.117-1.291.064-1.487.392-.303.509-.503 1.512-.215 1.849.556.65 1.472 1.005 2.263 1.437l2.061 1.011c.811.457 1.641.912 2.358 1.496.702.573 1.533 1.389 2.158 1.718 1.733.911 2.04 1.042 2.61 1.65.448.478.907.835 1.47 1.17.575.341.926.83 1.47 1.23.874.642 1.356 1.513 2.334 1.912 1.685.688 3.455 1.21 5.23 1.626l6.312 1.202c1.123.264 2.163.866 3.256 1.273 2.185.813 1.019 1.192 3.205 2 1.41.522 1.646 1.151 2.609 2.255.444.51.065.962.127 1.56-.665 2.364.593.9-1.147 3.18-.932-.174-1.63.634-2.58.6-1.243-.044-1.338.174-2.58.12-.375-.016-.643.166-1.02.06-.451-.126-1.43.076-1.856.151-1.03.18-1.385-.154-2.375-.324-3.68-.629-7.374-1.162-10.972-2.198-1.418-.409-2.829-.934-4.279-1.119-2.087-.268-3.855-1.143-5.677-2.109-2.048-1.087-3.651-2.814-5.932-3.609-1.699-.593-3.138-1.913-4.723-2.86-1.351-.808-2.815-1.444-4.093-2.348-.893-.631-1.384.011-1.939.337-.201.118-.191.773-.115 1.149.15.737.633 1.068 1.437 1.041.35-.011.735.264 1.064.473l6.197 3.972c.871.545 1.828.954 2.698 1.501a66.145 66.145 0 0 1 3.879 2.607c.736.54 1.366 1.223 2.111 1.904m9.995-15.938c.668-.405 2.101-1.411 2.849-1.865.182-.266.422-.809.824-1.169 1.696-1.517 2.311-3.259 1.31-5.057-.298-.535-2.382-2.645-3-3.72-1.383-2.405-1.739-.638-2.326-3.463-.247-1.188-.829-1.613-1.429-2.813-.162-.182-1.769-1.686-1.98-2.07-1.69-1.358-1.649-1.475-3.06-1.8-1.301-.299-2.678-1.756-4.05-1.8-.857-.027-2.869-1.074-3.685-1.314-2.61-.77-4.587-1.665-7.129-2.948-2.598-1.31-5.442-2.383-8.43-2.499-1.193-.046-2.378-.386-3.55-.003-1.768.212-2.493.178-4.275.303-1.662.16-1.892.199-2.565.45-2.237.834-3.24.99-5.826 1.517-1.614.338-5.944-.067-6.9 1.345-.642.95-1.597 1.683-2.384 2.539l-5.744 6.286c-.458.498-.911 1.039-1.47 1.398-1.208.775-1.944 1.846-2.4 3.174-.068.2-.389.309-.586.469-1.918 1.559-3.164 3.516-2.929 6.038.069.74 1.006 1.373 1.461 2.108.788 1.273 1.594 2.483 1.67 4.134.064 1.395.548 2.829 1.114 4.13 1.392 3.196 3.887 5.534 6.409 7.845 1.061.973 1.91 2.174 2.942 3.182 1.345 1.314 2.755 2.564 4.177 3.797l5.441 4.58c.365.301.778.585 1.217.746.979.361 1.971.745 2.992.914.65.108 1.364-.133 2.043-.25 1.356-.234 2.571-.679 4.097-.131 4.167 1.497 8.207 1.475 11.67-1.965.498-.495 1.65-.679 2.392-.517 2.084.456 4.144.431 6.15-.101 1.216-.322 2.571-.224 3.647-1.119 1.221-1.015 2.537-1.915 3.787-2.897.562-.441.76-.665 1.496-1.254.9-.72 1.68-.216 2.34-.09 2.259.434 4.756.733 6.93 1.44 2.85.928 5.722.549 8.55 1.26 2.203.555 2.554-.334 4.77 0 2.831-.064 1.337-.092 5.04-.54.882-1.07 1.25-.77 1.71-2.07.408-1.155.541-3.141.54-3.96-.18-1.32-.794-2.713-2.34-3.6-2.247-1.287-2.698-1.923-4.95-3.06-2.725-.126-4.698-1.129-6.93-1.71-1.48-.384-2.9-1.144-4.41-1.44-.889-.174-2.052-.497-2.88-.9-.704-.341-1.291-.904-2.34-1.53"/><path fill="#eaeaea" d="M198.789 186.004c.392 1.138-.682 1.942-1.506 2.607-1.646 1.331-3.6 2.128-5.692 2.61-1.911.441-3.657-.148-5.429-.63-1.274-.347-2.204-1.283-3.26-1.96-1.42-.91-1.884-2.322-2.896-3.39-.32-.337-.501-1.167-.311-1.563.88-1.825.377-4.547 3.207-5.152.958-1.578 2.817-1.062 4.178-1.754.991-.504 4.858.093 5.602.518.858.49 1.924.637 2.915.865 1.965.453 3.028 1.553 3.174 3.568.096 1.326.018 2.665.018 4.281m9.043-23.903-.422 1.566c-.231.735-.594 1.445-.716 2.196-.151.935-.358 1.734-1.253 2.26-1.851 1.088-3.617 2.306-5.91 2.346-1.261.022-2.157 1.155-2.254 2.457-.019.247-.186.606-.38.688-.276.117-.772.164-.945-.001-1.512-1.439-3.47-.933-5.217-1.144-1.255-.152-2.58.331-3.88.472-.657.071-1.075-.088-1.344-.925-.286-.89-.924-1.849-1.687-2.366-1.303-.882-2.884-1.343-4.236-2.165-1.493-.908-3.043-1.874-3.232-3.908l-.395-4.123c-.164-1.342.641-2.381 1.851-2.975.848-.415 1.539-.241 2.357-.234 1.373.01 2.744-.43 4.125-.496 1.403-.068 2.822.027 4.224.162l5.065.673 2.648.313 3.366.572c1.624.17 3.314.026 4.87.426.925.238 2.268.273 2.692 1.528.283.841.438 1.724.673 2.678m-5.063 38.769c2.602.47 5.258.17 7.365 1.941.797.67 1.935 1.36 2.134 2.221.309 1.344.492 2.791.402 4.246l-.137 7.31c-.005.582.116 1.163.119 1.745l-.067 2.572.019 5.198c-.12 1.459-.461 2.928-.917 4.323-.295.902-.787 1.978-1.526 2.437-.945.587-2.221.821-3.367.867-1.958.079-3.926-.138-5.89-.175-2.453-.046-4.744-1.229-7.271-.901-1.102.142-2.264-.242-3.404-.314-.97-.061-1.953.05-2.92-.036l-6.391-.724c-2.347-.435-4.77.223-7.07-.613-.132-.048-.311.028-.468.054-2.128.343-3.616-.978-3.678-3.117-.05-1.73.978-3.201.789-5.047-.221-2.164.312-4.403.505-6.611.341-3.913-.067-7.884.906-11.748.067-.265.054-.578.195-.792 1.528-2.324 3.937-2.795 6.445-2.926 1.363-.071 2.741.153 4.106.09 1.525-.07 2.995-.295 4.577-.067 2.337.336 4.749.135 7.128.194.785.019 1.571.218 2.352.193 2.061-.068 4.12-.213 6.064-.32m-10.668-57.704c-2.688.585-4.357-1.138-6.357-1.807-2.255-.755-3.874-2.462-5.427-4.223-2.071-2.349-3.805-4.925-5.343-7.635-.544-.958-1.104-1.988-1.285-3.049-.245-1.44-.142-2.942-.166-4.417-.007-.408.232-.904.072-1.21-.659-1.255-.443-2.507-.183-3.782.31-1.521.351-3.166.987-4.535.909-1.958 2.139-3.8 3.444-5.532 1.12-1.486 2.373-2.981 3.872-4.043 1.386-.983 3.151-1.467 4.794-2.04 1.578-.55 3.221-.911 4.823-1.398.966-.294 1.881-.421 2.84.062.445.224.982.298 1.487.364l6.231.77c.217.027.422.166.627.264 1.251.599 2.53 1.148 3.742 1.818 1.176.65 2.411 1.285 3.392 2.177 1.562 1.419 3.9 1.923 4.705 4.28.479 1.4 1.503 2.605 2.13 3.968.39.846.663 1.817.692 2.742.063 1.955-.105 3.917-.106 5.877 0 1.022.417 2.11.184 3.054-.556 2.263-1.358 4.468-2.114 6.678-.703 2.054-2.306 3.536-3.454 5.306-.826 1.273-2.271 1.348-3.311 2.159-.987.769-1.776 1.869-3.207 1.951-.386.022-.756.276-1.142.397-1.933.606-3.833 1.453-5.812 1.736-2.11.302-4.297.068-6.115.068m14.157 128.795.27.073-.466 1.25c-.51 1.299-.929 2.645-1.563 3.881-.738 1.441-1.485 2.946-2.553 4.131-1.474 1.636-3.234 3.019-4.908 4.469-.626.542-1.29 1.176-2.046 1.399-1.37.404-2.814.579-4.239.763-1.832.236-3.673.419-5.515.563-.922.072-1.863.087-2.78-.013-1.441-.158-2.906-.302-4.29-.699-1.406-.404-2.717-1.132-4.089-1.668-.631-.246-1.455-.192-1.938-.586-1.52-1.24-2.931-2.616-4.357-3.968-.25-.237-.398-.598-.544-.924l-1.694-3.905c-.117-.284-.084-.626-.144-.937-.222-1.138.321-2.395-.557-3.439-.133-.158-.109-.457-.138-.693-.19-1.571-.479-3.14-.535-4.716-.067-1.918-.096-3.865.159-5.759.218-1.619.953-3.161 1.29-4.772.31-1.478.957-2.742 1.79-3.967.657-.967 1.093-2.101 1.833-2.988.765-.917 1.841-1.567 2.66-2.447.52-.559 1.213-.666 1.786-1.042 1.241-.813 2.377-1.865 3.72-2.426 1.697-.709 3.543-1.097 5.356-1.478.777-.164 1.63.027 2.448.073 1.918.108 3.866-.407 5.72.715 1.408.852 3.061 1.289 4.519 2.072 2.214 1.189 4.376 2.489 5.545 4.888.233.478.361 1.134.747 1.388 1.479.972 2.314 2.396 3.072 3.904.448.891 1.218 1.755 1.289 2.674.207 2.709 1.244 5.328.82 8.11-.154 1.009.074 2.071-.033 3.092-.105 1.005-.415 1.989-.635 2.982m.18-208.015-2.823-.339c-.621-.073-1.342-.369-1.848-.158-1.768.738-3.703.799-5.411 1.976-2.964 2.043-5.328 4.592-7.422 7.426-.472.638-.759 1.846-.48 2.522.716 1.729 1.802 3.305 2.733 4.946.287.505.599.825-.181 1.417-1.551 1.177-2.385 2.975-2.76 4.846-.321 1.597-.283 3.27-.366 4.912-.063 1.226-1.486 2.358-2.44 1.768-1.365-.844-2.625-1.865-3.894-2.856-.982-.768-1.899-1.618-2.863-2.409-.308-.253-.783-.357-.998-.66-1.644-2.317-3.133-4.628-3.282-7.684-.129-2.64.063-5.063 1.463-7.347 1.243-2.028 2.39-4.115 3.624-6.149.279-.459.744-.805 1.122-1.203.202-.213.428-.407.599-.641.73-1.003 1.259-2.26 2.202-2.975 1.914-1.451 3.495-3.282 5.733-4.399 2.199-1.098 4.111-2.771 6.155-4.183.367-.253.818-.408 1.135-.708 1.886-1.784 3.873-3.327 6.664-3.254.186.005.373-.116.564-.164 1.015-.254 2.021-.661 3.049-.724 2.561-.156 4.898.664 7.19 1.784 1.715.839 2.764 2.338 3.784 3.729.857 1.169 2.132 2.539 1.315 4.36-.018.041.176.15.217.25.703 1.721.741 4.269-1.864 5.44-.309.139-.581.369-.896.484l-4.393 1.554c-.504.175-1.014.43-1.529.449-.961.035-1.987.099-2.87-.197-.484-.162-.73-1.034-1.229-1.813m15.67 227.687c0-.2-.03-.404.005-.597.281-1.541.646-3.071.844-4.622.204-1.586.201-3.197.38-4.787.1-.881.463-1.731.576-2.612l1.314-10.809c.338-2.449.951-4.863 1.246-7.317.265-2.203.906-4.392.427-6.666-.124-.587.12-1.252.2-1.88l.785-6.091c.162-1.089.602-2.153.646-3.24.073-1.802-.092-3.612-.114-5.42-.01-.784.118-1.569.129-2.355l.018-5.07.225-6.369c.014-.744-.179-1.488-.214-2.235-.084-1.846-.272-3.702-.162-5.538.172-2.859.596-5.703.833-8.559.109-1.322.15-2.674.001-3.987-.175-1.553.322-3.004.391-4.498.067-1.444-.306-2.902-.362-4.358-.046-1.203.091-2.412.146-3.618.029-.651.087-1.303.082-1.954-.014-1.733-.103-3.466-.064-5.197.019-.886.268-1.766.376-2.653l.873-7.528c.149-1.629.199-3.275.174-4.911-.014-.89-.333-1.77-.417-2.664-.068-.725-.027-1.466.031-2.195l.455-4.99c.133-2.001.176-4.006.292-6.008.082-1.427.276-2.849.315-4.276.029-1.026-.145-2.057-.173-3.087a52.049 52.049 0 0 1 .032-3.06c.034-1.029.223-2.066.138-3.082-.265-3.207.132-6.379.385-9.558.157-1.971.493-3.927.672-5.896.108-1.197-.007-2.414.119-3.608.167-1.58.512-3.141.702-4.719.15-1.246.125-2.513.276-3.759.207-1.705.508-3.399.768-5.098.03-.195.074-.39.083-.587l.386-7.906c.111-2.149.162-4.304.38-6.442l1.603-14.479c.274-2.72.36-5.46.563-8.188l.526-5.894c.023-.269.091-.548.043-.805-.343-1.822-.646-3.656-1.097-5.452-.231-.918-.742-1.766-1.123-2.647-.41-.947-.882-1.872-1.212-2.846-.786-2.319-2.185-4.22-3.902-5.906-.955-.937-2.075-1.718-2.957-2.713-1.686-1.901-4.167-1.978-6.266-2.922-.118-.052-.305.077-.453.061l-2.768-.315-3.929-.352c-2.15-.213-4.296-.596-6.448-.628-3.068-.045-6.068-.828-9.204-.433-1.55.196-3.402.685-4.962-.439-.089-.064-.287.042-.431.032l-5.76-.406c-.315-.021-.738-.114-.932.045-.949.779-2.022.315-3.036.424-.799.086-1.572.402-2.37.519-.749.111-1.599-.102-2.26.174-1.487.622-3.006 1.296-4.286 2.252-1.424 1.065-2.775 2.333-3.831 3.755-1.288 1.735-2.126 3.718-1.903 6.044.131 1.374-.083 2.785-.192 4.175-.02.261-.279.501-.419.756-.15.273-.394.544-.418.83-.194 2.304-.397 4.608-.496 6.917-.116 2.682-.046 5.373-.217 8.05-.111 1.729-.55 3.434-.762 5.16-.086.703.069 1.433.063 2.151-.008.981-.073 1.962-.1 2.943-.023.858-.058 1.716-.035 2.573l.237 6.835c.072 1.925.366 3.871.183 5.771-.308 3.199.299 6.36.105 9.548-.142 2.331.009 4.678-.089 7.013-.043 1.013-.491 2.006-.563 3.021-.114 1.61-.071 3.231-.088 4.847l-.045 4.878-.193 6.155-.178 4.761c-.012.63.161 1.263.152 1.894l-.147 6.854c-.004.987.399 2.022.208 2.951-.256 1.246 1.058 2.418.023 3.667-.187.224.149.832.14 1.26l-.19 5.973-.401 8.954c-.08 2.532-.023 5.068-.116 7.6-.06 1.648-.649 3.365-.335 4.917.421 2.084-.167 4.071-.025 6.124.173 2.515.001 5.176-1.149 7.6-.203.427-.215.999-.157 1.485.314 2.607-.282 5.118-.705 7.653-.093.562-.012 1.152-.041 1.728l-.222 4.041c-.031.772-.137 1.578.036 2.311.304 1.284-.211 2.432-.348 3.642l-.652 6.262c-.132 1.175-.344 2.342-.477 3.518-.31 2.72-.667 5.438-.871 8.167-.294 3.938-1.252 7.789-1.183 11.789.05 2.939-.709 5.887-.74 8.835-.03 2.796-.947 5.582-.155 8.395.072.257-.085.586-.164.875-.039.145-.181.265-.21.41l-1.488 7.549c-.082.411-.238.808-.347 1.215-.122.456-.321.915-.328 1.376l-.045 8.019c-.035 2.051-.371 4.122-.16 6.141.146 1.396.151 2.918 1.155 4.211.56.722.546 1.863.931 2.754a44.51 44.51 0 0 0 1.944 3.891c.193.348.666.535.99.82.539.475 1.026 1.017 1.597 1.448 2.33 1.758 5.083 1.93 7.854 2.079 1.134.06 2.254.34 3.387.457l11.34 1.136c1.808.192 3.601.561 5.412.671.894.054 1.814-.291 2.72-.468.577-.113 1.178-.431 1.718-.346 3.002.473 5.88-.428 8.813-.684 1.24-.109 2.55.014 3.709-.35 3.05-.956 6.345-.93 9.182-2.873 1.913-1.312 3.326-2.654 3.92-4.918.29-1.108.951-2.117 1.434-3.175.188-.413.35-.839.523-1.258l-.129-.059"/><path d="M184.545 88.734c-.377-.145-.71-.183-.912-.366-.848-.769-1.553-1.747-2.502-2.344-2.008-1.261-2.885-3.236-3.545-5.298-.575-1.795-.762-3.661.215-5.488l2.765-5.625c1.105-1.824 2.447-3.521 3.816-5.164 1.006-1.207 2.209-2.251 3.352-3.338a8.338 8.338 0 0 1 1.405-1.065l3.364-1.94c1.777-1.062 3.128-2.836 5.334-3.193.115-.019.2-.225.297-.345 1.394-1.722 3.077-2.913 5.392-2.968.19-.005.391-.082.564-.17 3.994-2.052 7.237.143 10.251 2.176 1.622 1.094 2.573 4.792 1.155 6.787-.289.405-.654.826-1.083 1.044-.593.302-1.316.346-1.921.631-1.386.652-2.648.558-3.341-.192-.475-.514-1.078-1.131-1.701-1.234-1.007-.168-1.964-.273-2.796-.937-.141-.112-.491.037-.744.063-2.377.25-4.705.665-6.882 1.735-1.06.522-2.372.59-3.022 1.815-.12.226-.39.384-.611.545-.764.557-1.648.997-2.287 1.671-1.674 1.765-3.318 3.57-4.831 5.473-1.281 1.611-2.316 3.404-1.357 5.595.419.956 1.008 1.842 1.375 2.815.25.664.566 1.577.305 2.112-1.08 2.222-1.808 4.513-2.055 7.205m21.893-24.788c.499.779.745 1.651 1.229 1.813.883.296 1.909.232 2.87.197.515-.019 1.026-.274 1.529-.449l4.393-1.554c.316-.115.587-.345.896-.484 2.605-1.171 2.567-3.719 1.864-5.44-.041-.1-.235-.209-.217-.25.817-1.821-.458-3.191-1.315-4.36-1.02-1.391-2.069-2.89-3.784-3.729-2.292-1.12-4.629-1.94-7.19-1.784-1.027.063-2.034.47-3.049.724-.191.048-.378.169-.564.164-2.791-.073-4.778 1.47-6.664 3.254-.317.3-.768.455-1.135.708-2.044 1.412-3.956 3.085-6.155 4.183-2.238 1.117-3.819 2.948-5.733 4.399-.943.715-1.472 1.972-2.202 2.975-.17.234-.397.428-.599.641-.378.398-.843.744-1.122 1.203l-3.624 6.149c-1.4 2.284-1.592 4.707-1.463 7.347.149 3.056 1.638 5.367 3.282 7.684.215.303.69.407.998.66.964.791 1.881 1.641 2.863 2.409 1.269.991 2.529 2.012 3.894 2.856.955.59 2.377-.542 2.44-1.768.083-1.642.045-3.315.366-4.912.375-1.871 1.209-3.669 2.76-4.846.78-.592.468-.912.181-1.417-.931-1.641-2.017-3.217-2.733-4.946-.279-.676.009-1.884.48-2.522 2.094-2.834 4.458-5.383 7.422-7.426 1.708-1.177 3.643-1.238 5.411-1.976.506-.211 1.227.085 1.848.158l2.823.339m-20.895 179.7.022-.11c.513.094 1.033.295 1.539.266 2.108-.121 3.964.71 5.788 1.545 3.628 1.661 6.394 4.323 8.484 7.703.788 1.274 1.417 2.681 2.382 3.801 1.082 1.258-.197 3.096 1.25 4.157.059.043.013.23.017.35.046 1.544 1.027 3.063.122 4.632.432 3.356-.619 6.554-1.505 9.652-.571 1.998-1.797 4.064-3.707 5.412-.46.324-.82.786-1.27 1.127-1.312.992-2.587 2.054-3.995 2.891-.848.504-1.917.638-2.887.939-.387.12-.767.299-1.163.347-.536.064-1.084.013-1.625.038l-4.399.218c-1.097.035-2.198.051-3.291-.018-1.011-.062-2.074-.08-3.009-.414-1.922-.688-3.774-1.572-5.653-2.378-.216-.093-.474-.161-.623-.323-.853-.926-1.668-1.887-2.516-2.817-1.16-1.273-2.174-2.839-2.096-4.431.069-1.421-.54-2.348-.997-3.458a3.91 3.91 0 0 1-.237-.918c-.513-3.496-.782-7.01-.701-10.544.006-.26.16-.523.273-.772.294-.65.783-1.269.877-1.944.452-3.232 1.871-6.118 3.903-8.48 1.747-2.032 4.085-3.597 6.707-4.63 2.652-1.046 5.254-2.133 8.191-1.831.039.004.079-.006.119-.01m20.715 28.315c.22-.993.53-1.977.636-2.982.107-1.021-.121-2.083.032-3.092.424-2.782-.612-5.401-.82-8.11-.071-.919-.84-1.783-1.288-2.674-.759-1.508-1.594-2.932-3.072-3.904-.387-.254-.515-.91-.748-1.388-1.169-2.399-3.331-3.699-5.544-4.888-1.458-.783-3.112-1.22-4.52-2.072-1.853-1.122-3.802-.607-5.719-.715-.818-.046-1.672-.237-2.449-.073-1.812.381-3.658.769-5.356 1.478-1.343.561-2.478 1.613-3.719 2.426-.574.376-1.267.483-1.787 1.042-.818.88-1.895 1.53-2.66 2.447-.74.887-1.176 2.021-1.833 2.988-.833 1.225-1.48 2.489-1.789 3.967-.338 1.611-1.073 3.153-1.291 4.772-.255 1.894-.225 3.841-.158 5.759.055 1.576.344 3.145.534 4.716.029.236.005.535.138.693.879 1.044.335 2.301.557 3.439.061.311.027.654.145.937.542 1.311 1.114 2.61 1.693 3.905.146.326.295.687.544.924 1.426 1.352 2.837 2.728 4.357 3.968.483.394 1.307.34 1.938.586 1.372.536 2.683 1.264 4.089 1.668 1.384.397 2.85.541 4.29.699.917.1 1.858.085 2.78.013 1.842-.144 3.683-.327 5.515-.563 1.425-.184 2.87-.359 4.239-.763.756-.223 1.421-.857 2.046-1.399 1.674-1.45 3.434-2.833 4.908-4.469 1.068-1.185 1.816-2.69 2.554-4.131.633-1.236 1.053-2.582 1.563-3.881.162-.414.311-.833.466-1.25l-.271-.073M197.834 102.178l.061-.277c1.509.239 3.068.316 4.512.764s2.515 1.814 4.195 1.805c.188-.001.383.261.566.412l5.552 4.572c1.467 1.169 2.348 2.778 2.791 4.466.445 1.695.373 3.538.428 5.32l-.083 4.856a9.91 9.91 0 0 1-.487 2.542c-.517 1.544-1.381 3.006-1.674 4.581-.345 1.852-1.783 2.843-2.838 4.025-.781.875-2.056 1.447-3 2.329-.532.497-1.193.937-1.874 1.179-2.088.741-3.956 1.948-6.212 2.396-2.157.428-4.197 1.395-6.465.722-.107-.031-.228-.063-.334-.043-3.083.581-5.55-1.216-8.048-2.408-1.641-.783-2.838-2.564-4.128-3.993-1.117-1.237-2.252-2.513-3.073-3.946a30.343 30.343 0 0 1-2.527-5.656c-.484-1.491-.58-8.379-.266-9.242.159-.437.14-.939.304-1.373.746-1.964 1.254-4.093 2.379-5.816 1.017-1.556 2.727-2.659 4.125-3.969 1.673-1.567 3.853-2.17 5.866-3.084.696-.317 1.422-.603 2.165-.772 1.489-.341 2.951-.936 4.545-.362 1.142.411 2.344.654 3.52.972m-5.733 40.988c1.818 0 4.004.234 6.114-.068 1.98-.283 3.88-1.13 5.813-1.736.385-.121.755-.376 1.142-.398 1.43-.082 2.219-1.181 3.206-1.95 1.041-.811 2.485-.886 3.311-2.16 1.148-1.77 2.751-3.251 3.454-5.305l2.115-6.678c.232-.945-.185-2.032-.184-3.055l.106-5.877c-.03-.924-.303-1.895-.692-2.741-.627-1.363-1.652-2.568-2.13-3.969-.805-2.357-3.143-2.86-4.705-4.28-.982-.891-2.216-1.527-3.392-2.176-1.212-.67-2.491-1.219-3.742-1.818-.205-.098-.41-.237-.627-.265l-6.231-.77c-.505-.065-1.042-.139-1.487-.363-.96-.483-1.875-.356-2.841-.063l-4.822 1.399c-1.644.573-3.408 1.057-4.795 2.04-1.498 1.062-2.752 2.556-3.872 4.043-1.305 1.732-2.534 3.574-3.443 5.532-.636 1.369-.677 3.014-.988 4.535-.26 1.275-.476 2.527.183 3.782.16.305-.079.802-.072 1.209.024 1.476-.078 2.977.167 4.418.18 1.061.741 2.091 1.284 3.049 1.539 2.709 3.272 5.286 5.344 7.635 1.552 1.761 3.172 3.468 5.427 4.223 1.999.669 3.669 2.392 6.357 1.807m19.251 79.053-.344 3.128-1.185 5.806c-.036.171-.124.448-.23.47l-3.957.746c-.857.135-1.764.407-2.496-.388-.036-.038-.214.077-.328.086-.541.041-1.096.16-1.622.086l-3.72-.664-3.269-.424-3.671-.394c-1.262-.06-2.537.098-3.795.009l-6.246-.609-7.547-.09c-.348-.009-.929-.314-.986-.572-.188-.865-.255-1.771-.247-2.661l.165-6.552c.011-.492-.085-.991-.035-1.477l.419-3.192c.063-.617-.008-1.247.036-1.868.079-1.135.392-2.291.254-3.394-.199-1.579.021-3.034.511-4.506.569-1.708 1.326-3.127 3.441-3.212.993-.04 1.973-.344 2.967-.438l3.568-.161 4.584.389 2.999.054 5.069.008 7.003.185c1.379.075 2.782.213 4.112.56.967.253 1.876.83 2.727 1.389.497.327 1.103.86 1.188 1.377.269 1.645.375 3.324.428 4.993.038 1.171-.199 2.35-.164 3.521l.371 7.795m-8.583-21.349-6.064.32c-.781.025-1.567-.173-2.352-.193-2.379-.059-4.791.143-7.128-.194-1.582-.227-3.052-.002-4.578.068-1.364.062-2.742-.162-4.105-.09-2.509.131-4.917.602-6.445 2.925-.141.214-.128.527-.195.792-.974 3.865-.565 7.836-.906 11.749-.193 2.208-.726 4.447-.505 6.611.188 1.846-.839 3.316-.789 5.047.062 2.139 1.55 3.46 3.678 3.116.156-.025.336-.102.468-.054 2.299.837 4.723.179 7.07.614 2.103.39 4.255.534 6.391.724.967.085 1.95-.026 2.92.036 1.139.072 2.302.456 3.403.313 2.528-.327 4.819.856 7.272.901 1.964.037 3.932.254 5.889.176 1.147-.046 2.422-.28 3.368-.868.739-.458 1.231-1.535 1.526-2.437.456-1.395.797-2.863.917-4.322.142-1.721-.015-3.465-.019-5.198-.002-.858.071-1.715.066-2.572-.003-.582-.123-1.164-.118-1.745.021-2.438-.012-4.88.137-7.31.089-1.455-.093-2.902-.402-4.246-.199-.862-1.337-1.551-2.135-2.222-2.106-1.77-4.762-1.471-7.364-1.941m-25.166-42.849c.997-.124 1.777-.297 2.557-.296.715 0 2.49.235 2.61.155 1.988-1.309 4.038-.711 6.108-.264.9.194 1.84.221 2.766.274.614.036 1.235-.048 1.85-.02 1.014.047 1.864.826 3.035.445.682-.221 1.563.146 2.349.278l2.916.515c1.045.103 2.183-.159 3.131.17.632.219 1.311 1.147 1.413 1.84.137.93-.091 2.015-.476 2.896-.536 1.225-1.117 2.67-2.129 3.388-1.231.874-2.899 1.239-4.435 1.545-1.278.254-2.295.823-2.952 1.822-.493.749-1.094.752-1.729.681l-5.325-.731c-.302-.039-.665-.01-.927.126-1.379.721-1.389.703-2.116-.696-.528-1.015-1.274-1.828-2.392-2.277-.547-.22-1.015-.634-1.519-.96-1.564-.057-2.745-.991-3.818-2.097-.29-.299-.577-.734-.609-1.128l-.308-5.666m30.229 4.08-.673-2.677c-.423-1.255-1.767-1.291-2.692-1.529-1.556-.4-3.245-.255-4.87-.426-1.129-.118-2.24-.4-3.365-.572l-2.649-.313-5.065-.672c-1.402-.136-2.821-.23-4.224-.163-1.381.066-2.752.506-4.125.496-.817-.006-1.509-.181-2.357.235-1.21.593-2.015 1.632-1.851 2.974l.395 4.123c.189 2.034 1.739 3 3.232 3.908 1.352.823 2.934 1.283 4.236 2.166.764.516 1.401 1.475 1.687 2.366.269.836.688.995 1.345.924 1.3-.141 2.624-.624 3.879-.472 1.747.211 3.705-.294 5.217 1.145.173.164.67.117.945 0 .194-.081.362-.44.38-.687.097-1.303.993-2.436 2.254-2.458 2.293-.04 4.059-1.258 5.91-2.346.895-.526 1.102-1.325 1.254-2.26.121-.751.484-1.46.716-2.196l.421-1.566m-11.668 25.716-4.753 1.843c-.653.224-1.436.317-2.109.193-2.551-.469-4.754-1.565-6.659-3.437-1.099-1.08-1.538-1.96-1.209-3.52.44-2.081 1.934-3.513 3.517-3.858 1.6-.349 3.234-1.395 5.115-.702 1.459.538 3.116.521 4.606.996 2.355.749 3.432 3.272 2.562 5.582l-1.07 2.903m2.625-1.813-.018-4.28c-.146-2.016-1.209-3.116-3.174-3.569-.991-.228-2.058-.375-2.915-.865-.744-.425-4.611-1.021-5.603-.518-1.36.692-3.219.176-4.178 1.754-2.829.605-2.327 3.328-3.206 5.153-.19.395-.009 1.226.31 1.563 1.013 1.068 1.476 2.479 2.897 3.39 1.055.676 1.985 1.612 3.26 1.959 1.772.483 3.518 1.071 5.428.631 2.092-.483 4.047-1.28 5.693-2.61.823-.666 1.897-1.47 1.506-2.608"/><path fill="#fff" d="M184.545 88.734c.247-2.692.975-4.983 2.055-7.205.261-.535-.055-1.448-.305-2.112-.367-.973-.956-1.859-1.375-2.815-.959-2.191.076-3.984 1.357-5.595 1.513-1.903 3.157-3.708 4.831-5.473.639-.674 1.523-1.114 2.287-1.671.221-.161.491-.319.611-.545.65-1.225 1.962-1.293 3.022-1.815 2.177-1.07 4.505-1.485 6.882-1.735.253-.026.603-.175.744-.063.832.664 1.789.769 2.796.937.623.103 1.226.72 1.701 1.234.693.75 1.955.844 3.341.192.605-.285 1.328-.329 1.921-.631.429-.218.794-.639 1.083-1.044 1.418-1.995.467-5.693-1.155-6.787-3.014-2.033-6.257-4.228-10.251-2.176-.173.088-.374.165-.564.17-2.315.055-3.998 1.246-5.392 2.968-.097.12-.182.326-.297.345-2.206.357-3.557 2.131-5.334 3.193l-3.364 1.94a8.338 8.338 0 0 0-1.405 1.065c-1.143 1.087-2.346 2.131-3.352 3.338-1.369 1.643-2.711 3.34-3.816 5.164-1.078 1.78-1.779 3.783-2.765 5.625-.977 1.827-.79 3.693-.215 5.488.66 2.062 1.537 4.037 3.545 5.298.949.597 1.654 1.575 2.502 2.344.202.183.535.221.912.366m-1.672 182.283c.652.228 1.376.344 1.944.705 2.357 1.499 3.382 3.743 3.362 6.489-.002.267-.179.583-.369.789-1.098 1.194-2.492 1.73-4.04 1.255-1.575-.483-3.199-1.018-4.572-1.892-1.585-1.008-1.758-3.239-.554-5.349.869-1.524 2.541-1.678 4.229-1.997m-3.693-19.93c-.082-.907-.26-1.595-.174-2.248.108-.831.122-2.001 1.168-2.122 1.382-.16 2.82-.044 4.21.133 1.028.132 2.066.889 3.017.76 1.394-.188 2.415.36 3.295.723.082.522.082.852.187 1.144.788 2.177.456 2.695-1.971 3.013-.079.01-.16.002-.239.012-.976.124-1.401.749-1.316 1.737.052.615-.019 1.248-.101 1.863l-.417 2.301-.259 1.411-.29 1.143-.697 4.869c-.052.527.226 1.086.353 1.63l.428.083c-.684.579-1.294 1.474-2.072 1.66-1.091.26-2.308.002-3.47-.053-.468-.022-.996-.258-1.387-.109-.811.308-1.4-.013-1.884-.505-1.114-1.133-1.177-2.577-.979-4.048.029-.211.201-.542.357-.574.811-.168 1.636-.313 2.461-.355.654-.034 1.103-.034 1.171-.914l.641-5.277c.24-1.979.868-3.964-.045-5.848l-1.987-.429m6.363-7.441c-.04.004-.08.014-.119.01-2.937-.302-5.539.785-8.191 1.831-2.622 1.033-4.96 2.599-6.707 4.63-2.032 2.362-3.451 5.248-3.903 8.48-.094.675-.583 1.294-.877 1.944-.113.249-.267.512-.273.772-.081 3.535.188 7.048.701 10.544a3.91 3.91 0 0 0 .237.918c.457 1.11 1.066 2.037.997 3.458-.078 1.592.936 3.158 2.096 4.431l2.516 2.817c.149.162.407.23.623.323 1.879.807 3.731 1.691 5.653 2.378.935.334 1.998.352 3.009.415 1.093.068 2.194.052 3.291.018 1.467-.046 2.932-.151 4.399-.219.541-.025 1.089.026 1.625-.038.396-.048.776-.227 1.163-.347.97-.3 2.039-.435 2.887-.939 1.408-.837 2.683-1.899 3.995-2.891.45-.34.81-.803 1.27-1.127 1.91-1.348 3.136-3.414 3.707-5.412.886-3.098 1.937-6.296 1.505-9.652.905-1.569-.076-3.088-.122-4.632-.004-.12.042-.307-.017-.35-1.447-1.061-.168-2.899-1.25-4.157-.965-1.12-1.594-2.527-2.382-3.801-2.09-3.38-4.856-6.042-8.484-7.703-1.824-.835-3.68-1.666-5.788-1.545-.506.029-1.026-.172-1.539-.266l-.022.11m6.205-103.746c-.536-1.183-1.576-1.38-2.615-1.658-1.639-.439-3.381-.699-4.606-2.059-.618-.686-1.283-1.354-1.765-2.13-1.014-1.632-2.558-2.992-2.686-5.106-.022-.365-.32-.706-.443-1.074l-1.703-5.229a8.08 8.08 0 0 1 .525-5.656c.642-1.347.044-3.037 1.278-4.216.198-.189.06-.731.076-1.11.013-.294-.061-.627.052-.874 1.044-2.269 2.21-4.492 4.849-5.225 2.123-.589 3.861-2.233 6.198-2.194 2.021.034 4.087-.612 6.044.422.169.089.423.016.638.018.551.005 1.154-.133 1.644.042 1.651.592 3.215 1.488 4.902 1.904 1.828.45 3.225 1.488 4.461 2.714 1.391 1.379 2.695 2.858 3.423 4.791.774 2.058 2.148 3.885 2.239 6.203.036.904.398 1.823.295 2.698-.164 1.385-.552 2.75-.926 4.101-.251.908-.508 1.86-.997 2.646-.794 1.275-1.755 2.451-2.695 3.629a10.684 10.684 0 0 1-1.582 1.607c-.843.687-1.237 1.696-2.054 2.471-1.986 1.885-4.455 1.714-6.734 2.364-.547.156-1.064.559-1.603.575-1.82.053-3.644-.028-5.466-.022-.229.001-.458.219-.749.368m2.566-38.693c-1.594-.574-3.056.021-4.545.361-.742.17-1.468.456-2.164.772-2.014.915-4.194 1.518-5.867 3.085-1.398 1.31-3.107 2.412-4.124 3.969-1.125 1.722-1.633 3.852-2.379 5.816-.165.433-.145.936-.304 1.372-.315.864-.219 7.751.266 9.243a30.298 30.298 0 0 0 2.527 5.655c.821 1.434 1.956 2.709 3.072 3.947 1.29 1.429 2.488 3.21 4.129 3.993 2.497 1.191 4.964 2.989 8.048 2.407a.761.761 0 0 1 .334.044c2.267.673 4.307-.294 6.464-.723 2.256-.448 4.124-1.654 6.212-2.395.682-.243 1.342-.682 1.874-1.179.944-.882 2.219-1.454 3-2.329 1.055-1.182 2.493-2.173 2.838-4.025.294-1.576 1.157-3.038 1.675-4.581a9.916 9.916 0 0 0 .486-2.542l.083-4.857c-.054-1.781.017-3.624-.427-5.319-.443-1.688-1.325-3.297-2.791-4.466l-5.553-4.573c-.183-.15-.377-.412-.566-.411-1.679.009-2.755-1.36-4.194-1.806-1.445-.447-3.004-.524-4.513-.763-.02.092-2.438-.285-3.581-.695"/><path d="m183.654 212.3-.255-.048c.108-1.094.13-2.208.361-3.276.118-.54.589-1.395.946-1.419 1.052-.07 2.139.149 3.191.362.839.17 1.658.467 2.465.764l2.512 1.043 1.233.526c.78.325 1.603.572 2.335.982 1.188.668 2.262 1.558 3.488 2.133.964.452.92.896.417 1.594-.602.836-2.092 1.674-3.982 2.347-1.807.643-3.122 2.219-5.068 2.654-1.224.274-2.404.751-3.601 1.145-1.488.489-3.181-.025-4.579.992-.464.337-1.04.308-1.091-.502-.09-1.423-.78-2.698.34-4.275.935-1.315.896-3.322 1.288-5.022m27.698 9.919-.371-7.795c-.035-1.171.202-2.35.164-3.521-.053-1.669-.16-3.348-.428-4.992-.085-.518-.691-1.051-1.188-1.378-.851-.559-1.76-1.136-2.727-1.389-1.33-.347-2.733-.485-4.112-.56l-7.003-.184-5.069-.009c-1-.004-2.003.013-2.999-.054l-4.584-.389c-1.186-.044-2.383.05-3.568.161-.994.094-1.974.398-2.967.438-2.115.085-2.872 1.504-3.441 3.212-.49 1.472-.71 2.927-.511 4.506.138 1.103-.175 2.259-.254 3.394-.044.621.027 1.251-.036 1.868l-.419 3.192c-.05.486.046.985.035 1.478l-.165 6.551c-.008.89.059 1.796.247 2.661.057.258.638.563.986.572l7.547.09c2.087.097 4.16.461 6.246.609 1.258.089 2.533-.069 3.795-.008 1.227.059 2.449.248 3.671.393l3.269.425 3.72.664c.526.073 1.081-.045 1.622-.087.114-.009.292-.124.328-.086.732.795 1.639.524 2.496.388l3.957-.746c.106-.022.194-.299.23-.47l1.185-5.806c.178-.976.222-1.977.344-3.128"/><path fill="#fff" d="m177.603 158.021.308 5.666c.032.394.319.829.609 1.128 1.073 1.106 2.254 2.04 3.818 2.097.504.326.972.74 1.519.96 1.118.449 1.864 1.262 2.392 2.277.727 1.399.737 1.417 2.116.696.262-.136.625-.165.927-.126l5.325.731c.635.071 1.236.068 1.729-.681.657-.999 1.674-1.568 2.952-1.822 1.536-.306 3.204-.671 4.435-1.545 1.012-.718 1.593-2.163 2.129-3.388.385-.881.613-1.966.476-2.896-.102-.693-.781-1.621-1.413-1.84-.948-.329-2.086-.067-3.131-.17-.979-.096-1.942-.353-2.916-.515-.786-.132-1.667-.499-2.349-.278-1.171.381-2.021-.398-3.035-.445-.615-.028-1.236.056-1.85.02-.926-.053-1.866-.08-2.766-.274-2.07-.447-8.003.109-8.718.109-.78-.001-1.56.172-2.557.296m18.561 29.796 1.07-2.903c.87-2.31-.207-4.833-2.562-5.582-1.49-.475-3.147-.458-4.606-.996-1.881-.693-3.515.353-5.115.702-1.583.345-3.077 1.777-3.517 3.858-.329 1.56.11 2.44 1.209 3.52 1.905 1.872 4.108 2.968 6.659 3.437.673.124 1.456.031 2.109-.193l4.753-1.843"/><path d="M181.845 264.784c-.034-.275-.116-.505-.082-.716l1.304-7.839c.122-.771.215-1.567.16-2.34-.086-1.217-.181-2.466-.555-3.608-.102-.313-1.218-.29-1.867-.429-.065-.013-.118-.077-.225-.15l.629-1.736 7.085 1.175c1.083.166 1.016.815.738 1.557-.252.672-1.574.955-2.463.506-.299.74-.752 1.45-.865 2.211l-1.272 9.645-.669 4.385c-.991-.083-1.952-.078-2.874-.265-.886-.18-1.732-.559-2.604-.853.204-1.18.882-1.584 2.145-1.22.39.112.9-.194 1.415-.323m-2.665-13.696 1.987.428c.912 1.884.284 3.869.045 5.848l-.642 5.277c-.067.88-.516.88-1.17.914-.826.043-1.65.187-2.461.355-.156.032-.329.363-.357.574-.199 1.472-.135 2.915.978 4.048.485.493 1.074.813 1.884.505.392-.149.92.087 1.388.109 1.162.055 2.379.314 3.469.053.779-.186 1.388-1.081 2.073-1.659l-.428-.083c-.127-.545-.406-1.104-.353-1.63l.696-4.869c.061-.387.209-.759.291-1.143l.259-1.411.416-2.301c.082-.616.154-1.249.101-1.863-.084-.989.341-1.614 1.317-1.738.079-.01.16-.001.239-.012 2.426-.318 2.759-.836 1.971-3.013-.106-.292-.106-.621-.188-1.144-.879-.363-1.901-.911-3.294-.722-.952.128-1.989-.629-3.017-.76-1.391-.178-2.828-.294-4.21-.134-1.046.122-1.061 1.291-1.169 2.122-.085.654.093 1.341.175 2.249m3.335 21.729c.268-.019.456-.053.642-.042 1.354.085 3.831 3.518 3.421 5.061-.03.113-.062.236-.132.324-.743.936-3.665.854-4.457-.094l-1.833-2.085c-.277-.383-.575-1.164-.394-1.391.708-.892 1.277-2.186 2.753-1.773m.358-1.8c-1.688.319-3.36.473-4.229 1.997-1.204 2.11-1.031 4.341.554 5.349 1.373.874 2.997 1.41 4.572 1.893 1.548.474 2.942-.061 4.04-1.255.19-.207.368-.523.37-.79.02-2.746-1.006-4.989-3.363-6.489-.568-.361-1.292-.476-1.944-.705m3.218-160.099s2.659 2.757 1.539 2.659l-4.153-4.205c1.342-.398 2.614 1.546 2.614 1.546m8.158 23.647.435.004c.257 1.187.502 2.373-.435 3.472zm.857-.701-.345.046-.281-2.723c-.01-.939.136-1.879.235-3.072l1.068.058-.677 5.691m10.116-19.41-.418-.465 2.833-2.76c.261-.227.801-.133 1.214-.187-.044.418.069 1.053-.159 1.217-1.107.801-2.304 1.476-3.47 2.195m-6.491 11.554c-.659.125-1.476.411-2.292.405-1.409-.01-2.977.153-4.189-.396-1.938-.88-3.151-2.595-3.303-4.874-.023-.341-.242-.664-.338-1.005a1.758 1.758 0 0 1-.075-.654c.17-1.501.839-2.474 2.449-2.869 1.067-.261 1.994-1.051 3.036-1.475 1.085-.442 2.143-.356 3.355-.041 1.512.393 3.002.409 3.249 2.385.018.144.119.328.238.403 1.124.705.899 1.74.684 2.761-.206.975-.267 2.037-.717 2.889-.476.902-1.335 1.602-2.097 2.471m-13.423-19.013c.337-.098.643-.109.849-.258 1.837-1.335 3.952-1.768 6.145-2.113 2.651-.417 5.055.694 7.588.966.766.082 1.578.192 2.258.519a31.236 31.236 0 0 1 3.708 2.135c.581.386 1.357.984.7 1.801l-3.643 4.09c-.586.631-1.265 1.225-2.227.883a18.948 18.948 0 0 1-2.266-1c-1.982-1.012-3.769-.606-5.587.512-.487.299-1.504.288-1.957-.033-.879-.622-1.553-1.546-2.267-2.383-.358-.42-.509-1.121-.939-1.355-1.526-.832-1.841-2.314-2.362-3.764m-2.175 3.923 3.911 3.554c.632.602 1.656 1.242 1.116 2.244-1.502 2.785-1.301 5.514.341 8.022.64.978 1.401 2.165 2.977 2.408.686.106 1.602 1.186 1.728 1.939.257 1.531.266 3.183-.033 4.705-.286 1.463-1.09 2.823-1.54 3.92l-2.727-.793c-.818-.248-1.841-.29-2.404-.818-1.427-1.338-2.69-2.863-3.922-4.39-.386-.478-.46-1.206-.684-1.816l-1.636-4.47c-.352-1.02-.413-2.207-.982-3.07-.939-1.423-.317-2.665.05-3.956.339-1.189.795-2.346 1.228-3.507.562-1.51.865-3.196 2.577-3.972m27.237 2.064c1.46 2.304 2.52 4.492 2.745 7.179.193 2.29-.743 4.27-1.051 6.402-.323 2.236-2.138 3.797-3.623 5.42l-3.118 3.094c-.293.29-.542.833-.85.863-1.148.112-1.828 1.214-3.192 1.115-1.204-.087-2.464.77-3.724 1.125-.246.07-.843-.214-.868-.393-.125-.892-.201-1.809-.131-2.705l.587-6.239c.021-.9.388-1.121 1.025-1.427.491-.236.898-.646 1.342-.979.173-.21.461-.313.758-.362.97-.16 1.163-1.113 1.749-1.658 1.183-1.102 1.436-2.845 1.085-3.884-.652-1.928.439-2.914 1.41-3.814 1.24-1.152 2.849-1.907 4.304-2.824l1.552-.913m-17.873 26.55 5.466.021c.539-.016 1.056-.418 1.603-.574 2.279-.651 4.748-.479 6.735-2.364.816-.775 1.21-1.785 2.053-2.472a10.63 10.63 0 0 0 1.582-1.606l2.695-3.63c.489-.786.746-1.738.997-2.645.374-1.352.762-2.717.926-4.102.103-.875-.259-1.794-.295-2.698-.091-2.318-1.465-4.145-2.239-6.202-.728-1.934-2.032-3.412-3.423-4.792-1.236-1.225-2.632-2.263-4.461-2.714-1.687-.415-3.251-1.312-4.902-1.903-.49-.176-1.093-.037-1.644-.043-.215-.002-.469.072-.638-.018-1.957-1.033-4.023-.387-6.044-.421-2.337-.04-4.075 1.605-6.198 2.194-2.639.733-3.805 2.955-4.849 5.224-.113.247-.038.581-.051.874-.017.379.121.921-.077 1.111-1.233 1.178-.636 2.868-1.278 4.215a8.08 8.08 0 0 0-.525 5.656c.474 1.769 1.119 3.491 1.703 5.229.123.368.421.71.443 1.075.128 2.114 1.672 3.474 2.686 5.106.482.776 1.147 1.444 1.765 2.129 1.225 1.361 2.967 1.621 4.606 2.059 1.039.278 3.135 1.291 3.364 1.291M184.944 208.489c1.613.514 2.807 1.145 4.042 1.237 2.659.199 4.471 2.269 6.928 2.871.55.134.955.778 1.498 1.043.839.411 1.018.998.198 1.447l-5.459 2.646c-1.204.535-2.456.975-3.711 1.379l-4.184 1.155c-.279-4.107.692-7.694.688-11.778m-1.29 3.81c-.392 1.701-.353 3.707-1.287 5.022-1.121 1.577-.431 2.853-.341 4.276.051.809.627.838 1.091.501 1.398-1.017 3.091-.503 4.58-.992 1.197-.394 2.376-.87 3.6-1.144 1.946-.436 3.261-2.011 5.068-2.655 1.89-.673 3.381-1.511 3.982-2.346.504-.699.548-1.143-.416-1.595-1.227-.575-2.301-1.465-3.489-2.132-.731-.411-1.554-.658-2.334-.982l-1.233-.527c-.836-.352-1.662-.73-2.512-1.043-.808-.297-1.627-.594-2.466-.764-1.052-.213-2.138-.431-3.191-.362-.357.024-.828.879-.945 1.42-.232 1.068-.253 2.181-.362 3.275l.255.048"/><path fill="#fff" d="M181.845 264.784c-.515.129-1.025.435-1.415.323-1.263-.364-1.941.04-2.145 1.22.872.294 1.718.673 2.604.853.922.187 1.883.182 2.874.265l.669-4.385 1.272-9.645c.113-.761.566-1.471.865-2.211.889.449 2.211.166 2.463-.506.278-.742.345-1.391-.738-1.557l-7.085-1.175-.629 1.736c.107.073.16.137.225.15.649.139 1.765.116 1.867.429.374 1.142.469 2.391.555 3.608.055.773-.038 1.569-.16 2.34l-1.304 7.839c-.034.211.048.441.082.716m.67 8.033c-1.476-.413-2.045.881-2.753 1.773-.181.227.117 1.008.394 1.391.539.747 1.24 1.374 1.833 2.085.792.948 3.714 1.03 4.457.094.07-.088.102-.211.132-.324.41-1.543-2.067-4.976-3.421-5.061-.186-.011-.374.023-.642.042"/><path fill="#eaeaea" d="m210.37 112.982-1.552.913c-1.456.918-3.065 1.673-4.305 2.824-.97.901-2.061 1.886-1.409 3.815.351 1.038.097 2.782-1.086 3.883-.585.545-.778 1.498-1.749 1.658-.296.049-.584.153-.757.362-.444.333-.851.743-1.342.979-.637.306-1.004.528-1.025 1.427-.05 2.083-.424 4.156-.587 6.24-.071.895.006 1.813.131 2.704.025.179.621.464.868.394 1.259-.355 2.519-1.212 3.724-1.125 1.363.098 2.044-1.003 3.192-1.115.308-.031.557-.573.849-.864l3.119-3.093c1.485-1.623 3.3-3.185 3.623-5.421.308-2.132 1.243-4.111 1.051-6.402-.225-2.686-1.285-4.875-2.745-7.179m-27.237-2.064c-1.712.776-2.015 2.462-2.578 3.972l-1.227 3.507c-.368 1.291-.989 2.533-.05 3.956.569.863.63 2.05.981 3.07l1.637 4.469c.224.611.298 1.339.683 1.817 1.233 1.527 2.496 3.052 3.923 4.39.562.528 1.586.57 2.404.818l2.726.793c.45-1.097 1.254-2.457 1.541-3.92.299-1.522.289-3.174.033-4.705-.126-.753-1.042-1.833-1.728-1.939-1.577-.243-2.338-1.43-2.978-2.408-1.642-2.508-1.843-5.237-.341-8.022.541-1.002-.483-1.642-1.115-2.244l-3.911-3.554m2.175-3.923c.521 1.451.836 2.932 2.361 3.764.43.235.582.935.94 1.355.714.838 1.388 1.762 2.266 2.384.454.32 1.471.331 1.957.032 1.819-1.118 3.606-1.523 5.588-.511.734.375 1.49.724 2.266 1 .961.341 1.641-.253 2.227-.884l3.643-4.09c.657-.817-.119-1.415-.701-1.801a31.145 31.145 0 0 0-3.707-2.135c-.681-.327-1.493-.436-2.259-.518-2.533-.272-4.937-1.384-7.587-.967-2.194.346-4.308.778-6.145 2.113-.206.15-.513.161-.849.258"/><path fill="#fff" d="M198.731 126.008c.762-.869 1.621-1.569 2.097-2.472.449-.852.511-1.913.717-2.888.215-1.022.44-2.056-.684-2.761a.622.622 0 0 1-.239-.404c-.247-1.975-1.736-1.992-3.248-2.385-1.212-.315-2.27-.4-3.355.042-1.042.424-1.969 1.213-3.036 1.475-1.611.395-2.279 1.368-2.449 2.869-.024.213.015.445.075.654.095.34.315.664.338 1.004.152 2.279 1.365 3.995 3.303 4.874 1.211.55 2.78.387 4.189.397.816.006 1.633-.28 2.292-.405m6.491-11.554 3.47-2.195c.227-.165.115-.799.159-1.217-.413.053-.953-.041-1.214.186-.994.865-1.897 1.832-2.833 2.761l.418.465m-10.116 19.41.677-5.691-1.068-.058-.235 3.072c.01.908.181 1.815.281 2.723l.345-.046m-.857.702v3.475c.937-1.098.692-2.285.435-3.472l-.435-.003m-8.85-24.005c-.344-.732-.58-1.587-1.922-1.189.541.5.859.65 1.4 1.15.1-.103.422.142.522.039m-.455 97.928c.004 4.084-.967 7.671-.688 11.778 1.632-.446 2.924-.751 4.184-1.155s2.507-.844 3.711-1.379c1.847-.822 3.688-1.675 5.459-2.646.82-.449.641-1.036-.198-1.447-.543-.265-.948-.909-1.498-1.043-2.457-.602-4.269-2.672-6.928-2.871-1.235-.092-2.429-.723-4.042-1.237"/></g></svg>