<svg xmlns="http://www.w3.org/2000/svg" width="596.64" height="386.88"><defs><clipPath id="a"><path d="M0 0h447.48v290.16H0z"/></clipPath><clipPath id="b"><path d="M0 290.16h447.48V0H0z"/></clipPath></defs><g clip-path="url(#a)" transform="matrix(1.33333 0 0 -1.33333 0 386.88)"><g fill="#171717"><path d="M343.817 54.789c-.407-2.233-.313-4.719-1.31-6.643-1.389-2.682-3.403-5.115-5.479-7.349-4.265-4.59-9.369-8.14-15.182-10.469-2.965-1.188-6.246-1.565-9.279-2.614-4.774-1.65-9.683-.525-14.515-.953-3.675-.325-7.435.202-11.15.455-3.28.224-6.573.45-9.817.95-2.052.317-4.008 1.206-6.037 1.72-7.387 1.87-14.299 4.896-20.984 8.494-3.729 2.007-7.525 3.895-11.187 6.016-1.547.897-2.9 2.181-4.199 3.436-.656.634-1.096 4.292-.978 5.086l.401 2.469c.049.998.239 1.98.388 2.966.015.129.641 4.73 1.307 6.583.091.255.279.475.422.711.156-.149.357-.271.461-.45 2.158-3.73 5.554-6.31 8.718-9.033 2.849-2.451 6.061-4.504 9.236-6.541 1.404-.901 3.118-1.314 4.68-1.973 1.768-.746 3.461-1.818 5.3-2.201 2.044-.426 4.221-.354 6.333-.286 3.247.105 4.5 3.014 6.369 4.945 3.733 3.858 7.295 7.881 10.919 11.844 1.175 1.286 2.218 2.716 3.507 3.873 2.577 2.312 5.144 4.677 7.968 6.662 3.541 2.488 7.274 4.722 11.038 6.866 3.151 1.794 6.385 3.501 9.741 4.855 1.918.774 4.151.769 6.244 1.106.963.156 2.381-.366 2.303 1.397-.08 1.833-1.555 1.686-2.66 1.481-4.856-.904-9.561-2.298-13.825-4.895l-12.983-7.862c-.562-.326-1.215-1.688-2.477.255-1.602 2.464-4.568 4.03-7.728 4.645-.574.111-1.097.484-1.644.737.202.407.3.945.621 1.201 3.659 2.917 1.615 6.065.38 9.15-.48 1.199-1.191 2.305-1.705 3.493-.07.161.364.771.61.802 2.236.277 4.481.472 6.14.634 5.324-.453 10.063-.691 14.754-1.301 5.321-.692 10.547-1.809 15.56-3.923 4.079-1.721 7.419-4.214 9.989-7.751 2.459-3.384 5.375-6.583 7.095-10.322 2.624-5.704 3.819-11.88 2.655-18.266M237.998 70.16c1.635 2.353 3.153 4.892 5.224 6.814 3.35 3.11 6.998 5.933 10.728 8.584 1.648 1.172 3.638 1.652 5.926.673 3.735-1.599 7.249-3.398 10.09-6.366.33-.346.926-.447 1.407-.639 1.241-.496 2.459-1.079 3.739-1.439 1.169-.328 2.456-.713 3.603-.528 1.583.256 3.161.871 4.598 1.61 1.742.896 2.908-.366 4.228-.876 1.802-.698 6.609-3.655 7.098-4.361.262-.379.339-1.306.081-1.562-4.422-4.381-9.04-8.571-13.34-13.066-3.193-3.336-5.927-7.108-9.021-10.545-.59-.654-2.029-1.101-2.872-.876-4.277 1.141-8.68 2.116-12.67 3.95-4.702 2.161-9.137 5.002-12.817 8.768-2.313 2.367-4.927 4.537-6.17 7.739-.237.609-.189 1.607.168 2.12m21.335 20.545c.591 2.009 2.506 2.397 4.055 2.815 2.347.632 4.829.869 7.269 1.019 2.231.137 6.208-3.622 6.575-5.871.117-.716.532-1.381.667-2.096.407-2.139.769-4.288 1.067-6.445.03-.221-.488-.733-.757-.737-.692-.008-1.493.009-2.064.339-5.283 3.049-10.404 6.402-16.194 8.482-.89.319-.698 2.224-.618 2.494m18.491 6.016c.056.029.23-.172.349-.266l-2.231-1.289-.323.365 2.205 1.19m1.24-2.795c-.439-.301-.656-.545-.911-.594-.197-.038-.441.17-.663.269.166.132.317.34.502.379.262.053.549-.019 1.072-.054m.585 3.929c.394-.103.723-.451 1.08-.695l-1.058-.417-.546-.384c-.119.37-.352.754-.31 1.104.021.175.59.456.834.392m2.424-5.735c.769.239 1.52.548 2.302.731.469.11 1.046.182 1.453 0 .298-.134.647-.926.543-1.044-.309-.35-.807-.592-1.275-.731-1.658-.492-3.333-.924-5.206-1.435-.111.105-.515.316-.509.515.012.428.114 1.082.396 1.229.701.368 1.526.495 2.296.735m-.648 2.505c.144.146.403.179.61.263-.143-.19-.261-.408-.436-.563-.201-.177-.44-.311-.667-.458.157.255.284.547.493.758m3.439-8.946c-.417.146-.904.093-1.36.129.425.28.875.529 1.265.851.249.205.424.501.625.765l2.514.294c-.142-.944-.108-1.964-.476-2.81-.327-.752-1.024-1.405-1.692-1.932-.863-.682-1.847-1.216-2.803-1.77-.371-.215-.865-.504-1.205-.409-.355.098-.899.771-.822.925.209.419.654.789 1.091 1.012 1.033.53 2.126.944 3.174 1.448.365.176.669.479 1.001.725-.435.265-.842.608-1.312.772m1.857 4.765c.138-.698.299-1.494.077-2.124-.144-.408-.898-.6-1.395-.883l.026.035c-1.025-.567-2.021-1.203-3.089-1.672-.483-.212-1.111-.093-1.674-.124.151.728.051 1.772.498 2.124 1.381 1.09 2.952 1.946 4.494 2.815.258.145 1.036-.038 1.063-.171m57.082-16.651c-1.743 4.125-5.022 7.631-7.791 11.279-1.288 1.698-2.88 3.22-4.542 4.566-3.344 2.711-7.245 4.414-11.384 5.511a79.476 79.476 0 0 1-7.551 1.59 137.05 137.05 0 0 1-8.807 1.122c-3.142.307-6.295.591-9.448.659-2.75.059-5.532-.466-8.253-.219-1.765.16-3.421 1.323-5.174 1.887-1.352.434-2.96 1.205-4.138.831-3.592-1.141-7.03-2.767-10.532-4.195-.366-.149-.761-.226-1.136-.354-2.846-.973-5.745-1.837-7.621-4.487-.783-1.107-1.524-2.342-2.572-3.142-2.323-1.774-5.011-3.096-7.222-4.986-4.984-4.258-10.735-7.901-12.769-14.756-.779-2.626-2.795-13.99-3.623-16.964l-.08-.901-.149-1.132a1.86 1.86 0 0 0-.017-.116l.001-.085c-.004-.326.006-.649.019-.971 1.136-1.644 1.609-3.797 3.828-4.665 1.535-.6 3.107-1.47 4.251-2.625 2.415-2.438 5.7-3.197 8.518-4.829 3.316-1.92 6.868-3.437 10.342-5.078 2.146-1.014 4.271-2.141 6.521-2.848 3.18-.999 6.448-1.749 9.713-2.441l1.374-.278c4.103-.355 8.193-.964 12.27-1.508l3.141-.094c4.825-.135 9.661-.526 14.47-.313 3.551.157 7.068 1.096 10.597 1.702 2.229.383 4.563.5 6.649 1.277.917.341 1.787.81 2.64 1.322.033.027.057.064.093.087 1.061.674 2.093 1.436 3.226 1.987.088.211.129.517.282.589 1.813.859 3.676 1.618 5.458 2.536.887.457 1.427 1.316 2.041 2.155 1.591 2.176 3.379 4.253 5.339 6.104 3.287 3.106 4.202 7.055 4.924 11.288 1.226 7.187-.173 14.066-2.888 20.495"/><path d="m280.931 93.867-.06-.038-.004.067zm102.013 15.728c1.354.17 3.459.18 5.414.726 5.473 1.529 10.908 3.205 16.311 4.964 4.842 1.577 9.633 3.312 14.424 5.038 1.872.674 3.576 1.598 3.537 4.024-.003.189.284.389.448.572.51.567 1.251 1.047 1.487 1.709.385 1.082.454 2.278.636 3.429.447 2.835 1.085 5.66 1.263 8.513.168 2.701.036 5.455-.298 8.144-.563 4.522-1.203 9.052-2.173 13.501-.652 2.994-2.697 5.209-5.492 6.608-1.582.792-2.321-.718-3.357-1.335-.271-.161-.491-.936-.339-1.193 1.327-2.237.838-4.692.931-7.068.011-.308-.357-.824-.64-.9-.335-.089-1.032.104-1.115.337-.385 1.084-.651 2.216-.886 3.347-.339 1.632-.271 3.455-1.003 4.874-.916 1.774-2.791 2.754-4.85 2.857-.929.047-2.243-.169-1.83-1.663.772-2.797 1.803-5.526 2.487-8.342.186-.762-.486-1.732-.764-2.607-.293.233-.563.512-.889.678-.143.072-.444-.185-.603-.12-.459.187-1.174.377-1.273.716a70.29 70.29 0 0 0-1.491 6.052c-1.078 5.429-3.899 7.75-8.107 7.803-3.078.039-4.537-1.592-4.084-4.619.117-.785.586-1.515.717-2.3l1.981-12.492c.153-1.051.192-2.184-.048-3.2-.137-.578-.946-.996-1.453-1.486l-.704.948c-1.122 1.432-.541 3.079-.711 4.652-.425 3.937-1.123 7.864-2.004 11.729-.828 3.628-2.077 7.158-3.058 10.754-1.61 5.9-3.518 11.679-6.336 17.137-1.47 2.849-2.877 5.74-4.114 8.695-1.817 4.339-7.303 5.6-10.424 2.194-.661-.721-1.023-1.884-1.156-2.892-.392-2.973-.869-5.976-.795-8.955.057-2.315.903-4.607 1.371-6.915.302-1.49.413-3.033.862-4.473.666-2.132 1.75-4.144 2.303-6.298.781-3.04 1.403-6.141 1.795-9.254.485-3.854.92-7.748.903-11.622-.016-3.859-1.229-10.987-1.29-10.716-.194-.117-.348-.496-.496-.656-1.482-1.593-3.036-2.891-4.474-4.523-.084-.095.127-.528.291-.73.079-.097.369-.023.564-.027-.168-.226-.286-.56-.51-.66-1.774-.795-3.539-1.627-5.364-2.29-2.687-.976-5.416-1.84-8.138-2.717-2.271-.731-4.525-1.566-6.847-2.081-4.56-1.012-8.809-2.567-12.669-5.321-2.069-1.477-2.292-3.295-2.16-5.429.043-.708.072-1.475.36-2.099.981-2.123 1.57-4.66 4.201-5.416 1.067-.306 2.33-.284 3.432-.06a302.03 302.03 0 0 1 12.223 2.745c6.176 1.525 10.208 2.143 16.601 2.358.423.015 2.029-.732 2.217-.803 4.685-1.77 9.343-3.654 15.186-3.842m-14.997 97.175c3.553-.567 6.746-.844 8.412-4.672 2.178-5.004 5.007-9.721 7.262-14.694 1.409-3.108 2.306-6.452 3.374-9.709.653-1.991 1.146-4.036 1.841-6.01.093-.265 1.202-.533 1.42-.336 2.207 2.005 4.859 1.49 7.214.925 2.078-.499 3.919-1.955 5.897-2.922.37-.181 1.034-.236 1.324-.023 1.994 1.46 4.037.692 5.993.106 1.998-.598 3.675-.538 5.675-.229 1.408.218 3.283.109 4.343-.674 2.227-1.646 4.475-3.487 5.188-6.467.66-2.76 1.666-5.465 2.041-8.258.671-4.991 1.159-10.023 1.376-15.052.123-2.849-.037-5.843-.808-8.562-.883-3.114-1.695-6.398-3.969-8.968-.278-.314-.281-.857-.509-1.235-.264-.437-.559-1.024-.975-1.172-2.817-1.005-5.663-1.935-8.514-2.842l-11.632-3.637c-2.491-.798-4.933-1.755-7.435-2.514-6.509-1.973-13.03-4.005-19.905-1.66-3.529 1.204-6.988 2.752-10.611 3.502-2.539.525-5.304-.005-7.963-.15-.332-.018-4.685-1.184-5.874-1.481-5.529-1.38-11.029-2.886-16.744-3.24-2.522-.156-4.515 1.091-5.62 3.286-1.161 2.306-2.392 4.729-2.755 7.223-.18 1.231-.041 2.979 1.067 4.56 2.658 3.794 6.75 4.778 10.569 6.168 4.903 1.784 10.106 2.754 14.987 4.588 3.459 1.3 6.885 3.081 9.798 5.33 2.723 2.103 4.753 5.149 4.806 8.902.068 4.773.245 9.569-.127 14.315-.261 3.337-1.201 6.654-2.119 9.9-1.613 5.702-3.146 11.404-4.336 17.224-.674 3.294-.961 6.481-.195 9.642.799 3.298 1.469 6.905 5.398 8.239.752.256 1.529.435 2.106.597"/><path d="m362.905 135.128.128-.128c.04.08.094.157.113.241.006.03-.073.079-.113.119l-.128-.232m-45.132-6.592c-.979-.981-2.04-1.888-3.125-2.752-.242-.192-.925-.249-1.071-.08l-5.822 6.925c-.502.594-.57.738.296 1.164 2.091 1.029 4.082 2.329 4.753 4.792.333 1.222.45.705.905.052l4.931-6.808c.226-.315.308-.734.555-1.35-.451-.629-.851-1.371-1.422-1.943m-11.716 7.197c-.374.167-.872.233-1.103.517l-4.144 5.342c-.059.079.214.595.399.641 2.163.539 3.792 1.797 5.239 3.456.279.319 1.626.241 1.971-.128 1.393-1.491 2.596-3.161 3.837-4.788.116-.152.114-.597-.006-.696l-4.973-3.965c-.306-.234-.777-.249-1.22-.379m-6.226 8.683c-.536-.228-1.85.591-2.383 1.267-3.424 4.335-6.589 8.881-10.121 13.123-2.706 3.249-5.85 6.132-8.75 9.225-.71.757-1.244 1.685-1.811 2.566-.078.121.054.49.199.628l7.489 7.044c.627.572 1.349 1.189 2.104-.107 1.849-3.173 3.751-6.32 5.764-9.391 1.569-2.394 3.399-4.615 5.003-6.987 2.393-3.538 4.712-7.128 7.008-10.73.391-.614.51-1.4.795-2.221-.248-.544-.342-1.233-.733-1.521-1.453-1.072-2.925-2.198-4.564-2.896m-24.409 28.745c-4.987-3.236-10.58-5.378-16.577-6.154l-6.538-.804c-5.786.271-10.7.669-15.132 2.922-2.505 1.274-4.872 2.966-6.99 4.825-4.32 3.792-7.204 8.729-9.217 13.99-1.132 2.955-1.182 6.376-1.413 9.609-.21 2.915-.1 5.864.04 8.79.286 5.953 1.936 11.522 4.73 16.807 2.547 4.818 5.997 8.91 10.182 12.241 4.303 3.425 9.056 6.213 14.746 6.897 1.796.216 6.307 1.646 7.446 1.76 2.579.259 5.023.57 7.615-.261 2.868-.919 6.024-.968 8.852-1.97 2.235-.791 4.284-2.293 6.198-3.762 2.399-1.842 4.874-3.725 6.783-6.032 3.505-4.235 6.337-8.897 6.922-14.612.285-2.78 1.468-5.563 1.28-8.278-.43-6.185-1.087-12.414-4.401-17.947-1.388-2.317-2.499-4.813-4.021-7.034-2.893-4.222-6.234-8.216-10.505-10.987m44.96-39.996c-1.059.904-1.699 2.291-2.545 3.449l-13.228 18.07c-.478.651-1.066 1.227-1.502 1.904l-4.982 7.886-5.554 8.539c-1.365 2.143-2.441 4.516-4.061 6.436-1.108 1.312-1.094 2.143-.318 3.467 2.987 5.101 6.221 10.104 7.157 16.12.574 3.696 1.539 11.131 1.443 11.152-.12.823-.21 1.651-.369 2.466-.156.8-.469 1.576-.565 2.381-.888 7.425-3.813 13.912-8.916 19.385-1.136 1.218-2.313 2.446-3.654 3.415-2.495 1.805-4.937 3.909-7.746 5.001a49.464 49.464 0 0 1-11.918 2.994c-2.575.308-5.214.135-7.848-.065-1.175-.234-2.337-.528-3.521-.726l-4.375-.737-1.211-.202c-.328-.105-.658-.208-.975-.341-2.198-.92-4.426-1.779-6.573-2.808-1.263-.606-2.347-1.575-3.591-2.23-4.498-2.371-7.879-5.905-10.593-10.112-1.135-1.76-2.205-3.591-3.047-5.503-1.352-3.067-2.829-6.146-3.619-9.374-.733-2.994-.723-6.186-.878-9.299-.136-2.722.112-5.467-.103-8.179-.203-2.555.883-4.842 1.206-7.282.526-3.968 2.81-7.391 5.18-10.618 1.58-2.149 2.951-4.585 4.943-6.269 3.5-2.959 7.418-5.404 12.071-6.309 2.204-.428 4.373-1.171 6.592-1.349 2.631-.211 5.299.044 7.952.07.749.007 7.441 1.2 10.678 1.844 1.728.344 3.38 1.11 5.035 1.762 1.023.403 2.047 1.415 2.963 1.3.876-.109 1.637-1.299 2.405-2.058 1.977-1.952 4.065-3.811 5.862-5.918 3.189-3.74 6.206-7.625 9.273-11.468l9.068-11.455 7.341-9.355c1.59-2.075 3.008-4.286 4.676-6.291.334-.403 1.72-.495 2.161-.147 1.867 1.475 3.57 3.16 5.313 4.79.496.463 1.403 1.144 1.302 1.475-.417 1.364.531 2.943-.929 4.189m-28.536-26.57h1.342c1.363.001 1.353-.004.736 1.194-.089.174.024.442-.035.643-.789 2.701-2.199 3.51-3.731 2.063-.998-.942-1.793-2.1-2.679-3.162l4.096-.743c.23-.04.476.014.271.005m-49.493-8.708c1.977-.43 1.438 1.103 1.36 1.626-.475 3.189-1.879 5.919-3.783 8.517-.131.18-1.602 1.162-1.62 1.11l-1.95-5.4c-.822-1.628-1.331-3.42-1.47-3.69-.57-1.107 1.019-1.406 1.723-1.485l5.74-.678m29.138 15.986c-6.072-.227-11.952-1.159-17.48-3.881-2.169-1.069-4.504-1.802-6.751-2.719-.745-.305-1.493-.644-2.161-1.086-.619-.409-.928-.631-.549-1.806.844-2.617 1.939-5.318 1.055-8.318-.329-1.115-.892-1.496-1.615-1.38-3.048.49-6.106 1.012-9.079 1.821-1.599.435-2.009 2.189-1.46 3.842l3.107 9.622c.123.356.892.625 1.389.679a3.345 3.345 0 0 0 1.713-.299c.946-.45 1.938-.92 2.703-1.612 1.368-1.239 1.944.354 2.651.755 4.435 2.512 9.101 4.603 14.049 5.541 5.989 1.136 12.069 1.711 18.261.888 3.756-.5 7.106-1.669 10.372-3.403.295-.157.854.013 1.212.189s.621.547.919.839c2.137 2.098 2.249 2.188 4.172-.003 1.892-2.157 2.574-4.889 2.568-7.695-.003-1.542-.715-2.241-2.65-1.741-2.263.584-4.725.353-7.073.678-1.815.251-2.672 2.11-1.861 3.612 1.091 2.019.968 2.625-1.243 3.406a37.486 37.486 0 0 1-6.238 1.589c-1.974.332-4.003.334-6.011.482"/></g><g fill="#fff"><path d="m281.423 91.505-.603-.423c.086-.076.197-.232.253-.214.211.068.404.192.604.295l-.254.342m-5.481 3.661-.322.365 2.204 1.19c.057.029.23-.172.35-.267l-2.232-1.288m4.985-1.303c.162.258.288.551.498.762.144.146.402.179.61.263-.143-.19-.262-.409-.436-.563-.219-.193-.483-.333-.728-.496zm-1.864.063c-.438-.301-.656-.545-.911-.594-.197-.038-.44.17-.663.269.166.132.317.341.503.379.261.054.548-.019 1.071-.054"/><path d="m280.871 93.829-.005.066.063-.03a2.408 2.408 0 0 0-.058-.036m102.073 15.766c-5.843.188-10.501 2.072-15.186 3.842-.188.071-1.415.745-1.838.73-6.393-.215-10.804-.76-16.98-2.285a302.03 302.03 0 0 0-12.223-2.745c-1.102-.224-2.365-.246-3.432.06-2.631.756-3.22 3.293-4.201 5.416-.288.624-.317 1.391-.36 2.099-.132 2.134.091 3.952 2.16 5.429 3.86 2.754 8.109 4.309 12.669 5.321 2.322.515 4.576 1.35 6.847 2.081l8.138 2.717c1.825.663 4.935 3.612 5.019 3.707 1.438 1.632 2.992 2.93 4.474 4.523.148.16.302.539.496.656.061-.271 1.274 6.857 1.29 10.716.017 3.874-.418 7.768-.903 11.622-.392 3.113-1.014 6.214-1.795 9.254-.553 2.154-1.637 4.166-2.303 6.298-.449 1.44-.56 2.983-.862 4.473-.468 2.308-1.314 4.6-1.371 6.915-.074 2.979.403 5.982.795 8.955.133 1.008.495 2.171 1.156 2.892 3.121 3.406 8.607 2.145 10.424-2.194 1.237-2.955 2.644-5.846 4.114-8.695 2.818-5.458 4.726-11.237 6.336-17.137.981-3.596 2.23-7.126 3.058-10.754.881-3.865 1.579-7.792 2.004-11.729.17-1.573-.411-3.22.711-4.652.243-.31.47-.632.704-.948.507.49 1.316.908 1.453 1.486.24 1.016.201 2.149.048 3.2l-1.981 12.492c-.131.785-.6 1.515-.717 2.3-.453 3.027 1.006 4.658 4.084 4.619 4.208-.053 7.029-2.374 8.107-7.803a70.29 70.29 0 0 1 1.491-6.052c.099-.339.814-.529 1.273-.716.159-.065.46.192.603.12.326-.166 1.839 1.167 1.653 1.929-.684 2.816-1.715 5.545-2.487 8.342-.413 1.494.901 1.71 1.83 1.663 2.059-.103 3.934-1.083 4.85-2.857.732-1.419.664-3.242 1.003-4.874.235-1.131.501-2.263.886-3.347.083-.233.78-.426 1.115-.337.283.076.651.592.64.9-.093 2.376.396 4.831-.931 7.068-.152.257.068 1.032.339 1.193 1.036.617 1.775 2.127 3.357 1.335 2.795-1.399 4.84-3.614 5.492-6.608.97-4.449 1.61-8.979 2.173-13.501.334-2.689.466-5.443.298-8.144-.178-2.853-.816-5.678-1.263-8.513-.182-1.151-.251-2.347-.636-3.429-.236-.662-.977-1.142-1.487-1.709-.164-.183-.451-.383-.448-.572.039-2.426-1.665-3.35-3.537-4.024l-14.424-5.038c-5.403-1.759-10.838-3.435-16.311-4.964-1.955-.546-4.06-.556-5.414-.726"/><path d="m362.905 135.128.128.232c.04-.04.119-.089.113-.119-.019-.084-.073-.161-.113-.241l-.128.128m-111.312 81.696c-.048 1.496-2.231 4.325-3.385 4.51-.476.076-1.019-.268-1.532-.421.125-.408.143-.903.392-1.21l3.013-3.4c.222-.229.814-.341 1.093-.209s.374.642.419.73m-.289-43.196c.804.704 1.147.904 1.351 1.2l3.187 4.805c.219.348.195.849.283 1.279-.56-.107-1.374-.017-1.635-.355-1.216-1.574-2.323-3.239-3.362-4.938-.204-.332.067-.955.176-1.991m5.837 46.27-2.603 5.111c-.268.44-1.211.468-1.844.686-.015-.59-.179-1.224-.018-1.761l1.72-5.21c.268-1.059.742-1.131 1.417-.612.475.365.752.987 1.328 1.786m-5.53-39.724c-.45.555-.668 1.075-1.015 1.185a1.51 1.51 0 0 1-1.252-.306l-4.208-4.139c-1.508-1.457-1.545-1.509.188-2.208.42-.17 1.194-.021 1.538.284 1.084.961 2.058 2.051 3.042 3.122.571.621 1.081 1.301 1.707 2.062m.696-13.971c-5.786.271-10.699.669-15.131 2.922-2.506 1.273-4.873 2.966-6.991 4.824-4.32 3.792-7.204 8.729-9.217 13.99-1.131 2.955-1.181 6.376-1.413 9.609-.209 2.915-.1 5.864.041 8.79.285 5.954 1.935 11.522 4.729 16.808 2.547 4.817 5.997 8.909 10.182 12.241 4.303 3.424 9.057 6.212 14.746 6.896 1.796.216 6.427 1.677 7.447 1.761 2.583.214 5.022.57 7.615-.261 2.867-.919 6.023-.969 8.851-1.97 2.236-.792 4.284-2.293 6.198-3.763 2.399-1.841 4.875-3.725 6.784-6.031 3.504-4.235 6.336-8.897 6.921-14.612.285-2.781 1.468-5.564 1.28-8.279-.43-6.184-1.087-12.413-4.401-17.946-1.388-2.317-2.499-4.814-4.02-7.034-2.894-4.223-6.235-8.217-10.506-10.988-4.987-3.236-10.58-5.377-16.577-6.153l-6.538-.804M305.128 148.832c-.248-.543-.342-1.233-.732-1.521-1.454-1.072-2.926-2.198-4.565-2.895-.536-.228-1.85.591-2.383 1.266-3.424 4.336-6.588 8.882-10.121 13.123-2.706 3.25-5.85 6.133-8.75 9.225-.71.758-1.243 1.686-1.81 2.566-.079.122.053.491.198.629l7.489 7.043c.627.572 1.349 1.189 2.104-.107 1.849-3.173 3.751-6.32 5.764-9.391 1.569-2.393 3.399-4.614 5.003-6.986 2.394-3.538 4.712-7.128 7.008-10.731.391-.613.51-1.4.795-2.221m14.067-18.353c-.451-.629-.851-1.371-1.422-1.943-.979-.981-2.04-1.888-3.125-2.752-.242-.192-.925-.249-1.072-.08l-5.821 6.925c-.502.594-.57.738.296 1.164 2.091 1.029 4.082 2.329 4.753 4.792.333 1.222.45.705.905.052l4.931-6.808c.226-.315.308-.734.555-1.35M306.057 135.733c-.374.167-.872.233-1.104.517l-4.143 5.342c-.06.079.214.596.398.642 2.163.538 3.793 1.796 5.24 3.455.278.319 1.625.242 1.971-.128 1.392-1.491 2.595-3.161 3.837-4.788.116-.152.113-.596-.007-.696l-4.973-3.965c-.305-.233-.777-.249-1.219-.379m-99.815 64.871c-.142.324-.283.493-.244.581.156.348.368.671.559 1.004.063-.163.21-.349.172-.484-.089-.321-.265-.618-.487-1.101"/></g><g fill="#171717"><path d="m281.423 91.505.254-.342c-.2-.103-.393-.227-.604-.295-.056-.018-.167.138-.253.214l.603.423m-29.813 88.669-1.707-2.062-3.042-3.122c-.343-.304-1.118-.453-1.537-.284-1.733.699-1.697.751-.188 2.209l4.207 4.139c.286.266.894.419 1.252.306.348-.111.566-.63 1.015-1.186m5.53 39.725c-.576-.8-.853-1.422-1.328-1.787-.674-.518-1.149-.447-1.417.613-.447 1.768-1.197 3.458-1.72 5.21-.161.537.003 1.171.018 1.76.633-.217 1.576-.245 1.844-.685.973-1.594 1.719-3.326 2.603-5.111m-5.836-46.27c-.11 1.036-.38 1.658-.176 1.991l3.362 4.938c.261.337 1.075.248 1.634.355-.087-.431-.064-.931-.282-1.28l-3.188-4.805c-.203-.296-.546-.495-1.35-1.199m.289 43.195c-.045-.088-.142-.598-.419-.73s-.871-.02-1.093.209l-3.013 3.4c-.249.307-.267.802-.392 1.21.513.153 1.056.497 1.532.421 1.154-.185 3.337-3.014 3.385-4.51m-38.594-21.279-.375-7.3c-.305-4.435-2.289-8.305-4.651-11.872-3.038-4.588-6.43-8.951-9.826-13.289-1.889-2.414-3.937-4.755-6.202-6.811-2.183-1.981-4.693-3.619-7.141-5.287-2.987-2.036-5.946-4.156-9.122-5.858-4.173-2.236-8.461-4.297-13.368-4.542-1.685-.085-3.365-.913-5.019-.832-5.079.246-10.168.591-15.209 1.237-4.334.556-8.546 1.765-12.331 4.104-2.527 1.562-5.032 3.136-6.803 5.638-.343.484-1.121.651-1.674 1.001-.15.095-.252.315-.309.498-.111.36-.051.861-.278 1.086-3.094 3.07-5.191 6.762-7.02 10.679a68.973 68.973 0 0 1-4.407 7.972c-1.6 2.501-1.171 5.173-.877 7.744.421 3.679 1.395 7.291 2.039 10.942.277 1.57.861 3.664 1.869 4.645.402 1.147.961 2.044 1.407 3.065a18.79 18.79 0 0 1 .68 1.716c.071.207.122.243.16.441.002.056.154.388.157.444.006.095.163.568.226.659l.357 1.16c.143.436.085.554.198.728.386.594.832 1.152 1.248 1.724.274.376.56.739.857 1.09 1.293 2.624 3.458 4.748 5.154 7.122 3.611 5.052 8.51 8.578 13.866 11.676 2.964 1.715 5.774 3.724 9.064 4.689 5.991 1.756 11.935 3.598 18.14 4.708 5.051.904 9.706-.069 14.406-1.044 4.377-.908 8.618-2.499 12.88-3.907.839-.277 1.715-.947 2.207-1.682 1.845-2.757 4.899-3.893 7.382-5.788 1.71-1.305 3.434-2.612 5.002-4.078 1.247-1.166 2.484-2.445 3.346-3.898 2.194-3.702 3.888-7.662 4.243-11.998.178-2.172-.166-4.387-.276-6.582m3.203 4.999-.319 2.324c-.051.416-.002.855-.113 1.251-1.763 6.266-4.448 12.051-9.296 16.552-3.029 2.812-6.233 5.438-9.403 8.094-3.392 2.841-7.68 3.882-11.662 5.457-2.696 1.067-5.666 1.498-8.548 2.023-3.227.588-6.493.96-10.267 1.502l-15.373-3.719c-5.751-1.455-11.269-3.467-16.063-7.114-3.675-2.797-7.489-5.424-11.025-8.385-1.824-1.527-3.299-3.529-4.717-5.472-2.34-3.206-4.781-6.39-6.654-9.866-1.384-2.567-1.754-5.659-2.89-8.387-1.981-4.756-2.89-9.765-3.616-14.786-.341-2.355-.311-5.053.52-7.224 1.571-4.107 3.758-7.992 5.852-11.881 1.528-2.839 3.378-5.502 4.977-8.305 2.493-4.37 6.442-7.401 10.532-9.784 3.57-2.08 7.979-2.778 12.073-3.879 2.476-.665 5.044-1.092 7.598-1.34a82.42 82.42 0 0 1 9.229-.364c1.461.023 2.933.949 4.366.866 4.251-.245 8.002 1.315 11.622 3.079 4.551 2.218 8.977 4.693 13.428 7.116l2.176 1.475c1.57 1.501 3.434 2.676 5.144 4.011.258.201.515.409.771.621.104.107.212.21.309.327a115.818 115.818 0 0 1 4.348 5.554c1.406 1.922 2.618 3.917 4.243 5.669a18.17 18.17 0 0 1 .595.679c.013.041.022.086.035.126.122.362.537.621.803.94 3.033 3.644 6.036 7.364 7.741 11.814 1.262 3.293 1.927 6.815 2.857 10.235l.131.498c.026 1.714.351 3.419.683 5.124l-.087 5.169m42.883-7.093c-2.073-2.458-4.878-3.549-6.49-3.862-6.221-.524-9.665 2.193-11.285 6.25-.25.624.164 1.519.289 2.286.284 1.737.34 3.556.918 5.191 1.178 3.336 3.688 5.815 6.808 7.105 1.521.629 3.796-.213 5.626-.745 8.027-2.334 8.559-10.977 4.134-16.225m1.685 15.602c-2.509 3.141-6.221 4.148-9.918 4.11-.43-.005-.86-.02-1.289-.037-.572-.134-1.159-.227-1.706-.426l-.671-.243.066-.018-.669-.463c-2.684-1.842-4.779-4.271-6.068-7.196-.751-1.704-.738-3.743-1.1-5.625-.049-.252-.303-1.647-.3-2.114.008-1.027 1.604-5.676 2.38-6.309 2.612-2.13 5.387-4 9.005-3.818.327.016 1.724-.379 2.55-.101.837.281 1.737.457 2.492.885 4.129 2.343 7.711 4.983 8.613 10.262.76 4.445-.818 7.88-3.385 11.093m-17.976 3.126c.095.173.24.297.404.403l.119.077.024.025.058.067.029.037.044.057.201.254.257.282.333.379-.062.025c-2.383 1.181-4.913 1.609-7.418 2.275-1.203.32-1.513-.467-1.556-.978-.04-.487.557-1.305 1.063-1.508 1.597-.641 3.28-1.07 4.935-1.562.435-.13 1.233-.362 1.286-.257.068.136.165.232.255.338.01.029.013.059.028.086m-13.56 5.91-8.599 3.204c-.503-.426-1.021-.823-1.583-1.141a.532.532 0 0 0-.145-.254c-.01-.009-.018-.021-.028-.03a1.165 1.165 0 0 1-.061-.109c-.004-.011-.005-.023-.009-.034.57-1.025 1.643-.851 2.476-1.203.821-.347 1.756-.425 2.569-.784 1.314-.58 2.517-1.491 3.875-1.85.537-.142 1.378.804 2.033 1.315.041.032-.263.783-.528.886m-15.484 5.049c-.234.234-.569.466-.841.644l-.938.55a.548.548 0 0 0-.271.159l-.155.09-.714.365-.344.125c-.022-.003-.048-.017-.068-.01-2.027.73-4.126 1.348-6.01 2.359-1.22.655-2.132.354-2.462-.545-.439-1.194.729-1.554 1.708-1.898 2.065-.725 4.185-1.375 6.112-2.383 1.176-.616 2.095-1.663 3.491-.966.007.005.012.011.018.017.206.181.35.338.449.554-.046.215-.031.494.065.856-.009.029-.028.055-.04.083M215.948 167.938l-.008.084-.008.048-.058.233c-.007.025-.095.242-.041.124l-.079.156-.084.133a1.55 1.55 0 0 1-.128.14l-.056.049a.32.32 0 0 0-.034.023c-.024.012-.227.111-.096.061-.054.02-.11.032-.164.05l-.049.011-.077.005c-.236.006-.613-.109-.828-.208-.6-.277-1.176-.63-1.815-.806-2.283-1.237-4.54-2.567-6.962-3.428-.491-.174-.801-.375-1.001-.593l-.132-.159c-.276-.441-.117-.947.183-1.478.178-.314 1.478-.247 2.124.006 1.764.692 3.391 2.023 5.185 2.263 1.924.257 2.646 1.788 3.988 2.592.057.108.104.216.13.338 0 .026.015.153.015.173l-.005.183m4.555 1.923c-.362.289-.93.526-.957.815-.046.483.105 1.287.432 1.455l7.414 3.578c1.091.547 1.399-.115 1.896-.828.707-1.013-.169-1.022-.695-1.267l-8.09-3.753m14.588 6.322c-.382.332-1.035.633-1.106 1.035-.071.411.311 1.129.7 1.353l4.945 2.551c1.079.564 2.081.408 2.504-.678.126-.323-.794-1.29-1.416-1.623-1.748-.938-3.591-1.7-5.627-2.638"/></g><path fill="#c5a228" d="M213.47 202.229c-.355 4.336-2.05 8.297-4.244 11.998-.861 1.454-2.098 2.732-3.345 3.898-1.569 1.466-3.292 2.773-5.003 4.078-2.483 1.895-5.536 3.031-7.382 5.789-.491.734-1.367 1.404-2.206 1.682-4.262 1.408-8.504 2.999-12.881 3.907-4.7.975-9.355 1.947-14.406 1.043-6.204-1.11-12.148-2.952-18.139-4.708-3.291-.965-6.1-2.974-9.064-4.688-5.356-3.099-10.255-6.624-13.866-11.677-.97-1.356-2.816-3.166-4.056-5.259.26.186-2.038-2.489-2.528-3.301-.286-.475-.38-.626-.625-1.123-.074-.15-.28-.382-.358-.528.156-.132-1.034-3.516-1.6-4.824-.252-.583-.279-.599-.557-1.17-.258-.529-.123-.215-.389-.865-.168-.411-.12-.309-.207-.58-.278-.022-.233-.712-.124-.499.147.289-.385-.46 0 0-1.009-.981-1.489-3.065-1.87-4.645-.868-3.604-1.617-7.262-2.038-10.942-.294-2.571-.724-5.243.876-7.743a68.994 68.994 0 0 0 4.408-7.973c1.829-3.917 3.925-7.609 7.02-10.679.226-.225.166-.725.278-1.086.057-.183.158-.403.308-.498.554-.35 1.332-.516 1.674-1 1.771-2.503 4.276-4.076 6.803-5.638 3.785-2.34 7.998-3.549 12.332-4.105 5.041-.646 10.13-.99 15.209-1.237 1.654-.08 3.334.748 5.018.832 4.907.245 9.195 2.307 13.369 4.543 3.175 1.701 6.135 3.822 9.121 5.857 2.448 1.668 4.958 3.306 7.141 5.287 2.266 2.056 4.313 4.397 6.203 6.811 3.395 4.338 6.788 8.701 9.825 13.289 2.363 3.567 4.347 7.437 4.652 11.872.167 2.431.253 4.867.375 7.3.109 2.195.454 4.41.276 6.582m39.125-12.64c-6.221-.524-9.665 2.193-11.285 6.25-.249.624.164 1.519.29 2.286.283 1.737.34 3.556.917 5.191 1.178 3.336 3.688 5.815 6.808 7.105 1.521.629 3.796-.213 5.626-.745 8.027-2.334 8.559-10.977 4.134-16.225-2.072-2.458-4.877-3.549-6.49-3.862"/></g><g clip-path="url(#b)" transform="matrix(1.33333 0 0 -1.33333 0 386.88)"><path d="m336.171 140.618-4.169 5.044-1.812 2.093c1.197.986 2.936 1.089 4.628 1.179l.591 7.493a29.77 29.77 0 0 0 1.771 6.306c1.1 2.719 2.351 5.404 3.825 7.936a20.774 20.774 0 0 0 6.951 7.199c.265.166.618.189.993.297l-1.05 3.242c1.957 1.04 4.03 1.132 6.119.234a8.54 8.54 0 0 0 2.095-1.301c.185-.154.145-.859-.047-1.133-.985-1.406-2.106-2.717-3.078-4.131-.962-1.401-2.469-1.528-3.145-.034-.624 1.378-1.436 1.196-2.203.453-1.627-1.576-3.304-3.154-4.638-4.968-3.193-4.343-4.862-9.311-5.427-14.663-.173-1.636-.415-3.264-.621-4.897-.249-1.967-.158-1.952 1.635-2.485 1.471-.437 2.9-1.075 4.266-1.781"/></g></svg>