<?xml version="1.0" encoding="UTF-8" standalone="no"?>
<!-- Created with Inkscape (http://www.inkscape.org/) -->

<svg
   version="1.1"
   id="svg2"
   width="596.64001"
   height="386.88"
   viewBox="0 0 596.64001 386.88"
   sodipodi:docname="zoom out reworked colored.ai"
   xmlns:inkscape="http://www.inkscape.org/namespaces/inkscape"
   xmlns:sodipodi="http://sodipodi.sourceforge.net/DTD/sodipodi-0.dtd"
   xmlns="http://www.w3.org/2000/svg"
   xmlns:svg="http://www.w3.org/2000/svg">
  <defs
     id="defs6">
    <clipPath
       clipPathUnits="userSpaceOnUse"
       id="clipPath16">
      <path
         d="M 0,0 H 447.48 V 290.16 H 0 Z"
         id="path14" />
    </clipPath>
    <clipPath
       clipPathUnits="userSpaceOnUse"
       id="clipPath156">
      <path
         d="M 0,290.16 H 447.48 V 0 H 0 Z"
         id="path154" />
    </clipPath>
  </defs>
  <sodipodi:namedview
     id="namedview4"
     pagecolor="#ffffff"
     bordercolor="#000000"
     borderopacity="0.25"
     inkscape:showpageshadow="2"
     inkscape:pageopacity="0.0"
     inkscape:pagecheckerboard="0"
     inkscape:deskcolor="#d1d1d1" />
  <g
     id="g8"
     inkscape:groupmode="layer"
     inkscape:label="zoom out reworked colored"
     transform="matrix(1.3333333,0,0,-1.3333333,0,386.88)">
    <g
       id="g10">
      <g
         id="g12"
         clip-path="url(#clipPath16)">
        <g
           id="g18"
           transform="translate(343.8168,54.7889)">
          <path
             d="m 0,0 c -0.407,-2.233 -0.313,-4.719 -1.31,-6.643 -1.389,-2.682 -3.403,-5.115 -5.479,-7.349 -4.265,-4.59 -9.369,-8.14 -15.182,-10.469 -2.965,-1.188 -6.246,-1.565 -9.279,-2.614 -4.774,-1.65 -9.683,-0.525 -14.515,-0.953 -3.675,-0.325 -7.435,0.202 -11.15,0.455 -3.28,0.224 -6.573,0.45 -9.817,0.95 -2.052,0.317 -4.008,1.206 -6.037,1.72 -7.387,1.87 -14.299,4.896 -20.984,8.494 -3.729,2.007 -7.525,3.895 -11.187,6.016 -1.547,0.897 -2.9,2.181 -4.199,3.436 -0.656,0.634 -1.096,4.292 -0.978,5.086 0.095,0.644 0.392,2.287 0.401,2.469 0.049,0.998 0.239,1.98 0.388,2.966 0.015,0.129 0.641,4.73 1.307,6.583 0.091,0.255 0.279,0.475 0.422,0.711 0.156,-0.149 0.357,-0.271 0.461,-0.45 2.158,-3.73 5.554,-6.31 8.718,-9.033 2.849,-2.451 6.061,-4.504 9.236,-6.541 1.404,-0.901 3.118,-1.314 4.68,-1.973 1.768,-0.746 3.461,-1.818 5.3,-2.201 2.044,-0.426 4.221,-0.354 6.333,-0.286 3.247,0.105 4.5,3.014 6.369,4.945 3.733,3.858 7.295,7.881 10.919,11.844 1.175,1.286 2.218,2.716 3.507,3.873 2.577,2.312 5.144,4.677 7.968,6.662 3.541,2.488 7.274,4.722 11.038,6.866 3.151,1.794 6.385,3.501 9.741,4.855 1.918,0.774 4.151,0.769 6.244,1.106 0.963,0.156 2.381,-0.366 2.303,1.397 -0.08,1.833 -1.555,1.686 -2.66,1.481 -4.856,-0.904 -9.561,-2.298 -13.825,-4.895 -4.321,-2.633 -8.61,-5.32 -12.983,-7.862 -0.562,-0.326 -1.215,-1.688 -2.477,0.255 -1.602,2.464 -4.568,4.03 -7.728,4.645 -0.574,0.111 -1.097,0.484 -1.644,0.737 0.202,0.407 0.3,0.945 0.621,1.201 3.659,2.917 1.615,6.065 0.38,9.15 -0.48,1.199 -1.191,2.305 -1.705,3.493 -0.07,0.161 0.364,0.771 0.61,0.802 2.236,0.277 4.481,0.472 6.14,0.634 5.324,-0.453 10.063,-0.691 14.754,-1.301 5.321,-0.692 10.547,-1.809 15.56,-3.923 4.079,-1.721 7.419,-4.214 9.989,-7.751 2.459,-3.384 5.375,-6.583 7.095,-10.322 C -0.031,12.562 1.164,6.386 0,0 m -105.819,15.371 c 1.635,2.353 3.153,4.892 5.224,6.814 3.35,3.11 6.998,5.933 10.728,8.584 1.648,1.172 3.638,1.652 5.926,0.673 3.735,-1.599 7.249,-3.398 10.09,-6.366 0.33,-0.346 0.926,-0.447 1.407,-0.639 1.241,-0.496 2.459,-1.079 3.739,-1.439 1.169,-0.328 2.456,-0.713 3.603,-0.528 1.583,0.256 3.161,0.871 4.598,1.61 1.742,0.896 2.908,-0.366 4.228,-0.876 1.802,-0.698 6.609,-3.655 7.098,-4.361 0.262,-0.379 0.339,-1.306 0.081,-1.562 -4.422,-4.381 -9.04,-8.571 -13.34,-13.066 -3.193,-3.336 -5.927,-7.108 -9.021,-10.545 -0.59,-0.654 -2.029,-1.101 -2.872,-0.876 -4.277,1.141 -8.68,2.116 -12.67,3.95 -4.702,2.161 -9.137,5.002 -12.817,8.768 -2.313,2.367 -4.927,4.537 -6.17,7.739 -0.237,0.609 -0.189,1.607 0.168,2.12 m 21.335,20.545 c 0.591,2.009 2.506,2.397 4.055,2.815 2.347,0.632 4.829,0.869 7.269,1.019 2.231,0.137 6.208,-3.622 6.575,-5.871 0.117,-0.716 0.532,-1.381 0.667,-2.096 0.407,-2.139 0.769,-4.288 1.067,-6.445 0.03,-0.221 -0.488,-0.733 -0.757,-0.737 -0.692,-0.008 -1.493,0.009 -2.064,0.339 -5.283,3.049 -10.404,6.402 -16.194,8.482 -0.89,0.319 -0.698,2.224 -0.618,2.494 m 18.491,6.016 c 0.056,0.029 0.23,-0.172 0.349,-0.266 -0.724,-0.419 -1.448,-0.837 -2.231,-1.289 -0.151,0.171 -0.237,0.268 -0.323,0.365 0.732,0.402 1.46,0.812 2.205,1.19 m 1.24,-2.795 c -0.439,-0.301 -0.656,-0.545 -0.911,-0.594 -0.197,-0.038 -0.441,0.17 -0.663,0.269 0.166,0.132 0.317,0.34 0.502,0.379 0.262,0.053 0.549,-0.019 1.072,-0.054 m 0.585,3.929 c 0.394,-0.103 0.723,-0.451 1.08,-0.695 -0.352,-0.139 -0.705,-0.278 -1.058,-0.417 l -0.546,-0.384 c -0.119,0.37 -0.352,0.754 -0.31,1.104 0.021,0.175 0.59,0.456 0.834,0.392 m 2.424,-5.735 c 0.769,0.239 1.52,0.548 2.302,0.731 0.469,0.11 1.046,0.182 1.453,0 0.298,-0.134 0.647,-0.926 0.543,-1.044 -0.309,-0.35 -0.807,-0.592 -1.275,-0.731 -1.658,-0.492 -3.333,-0.924 -5.206,-1.435 -0.111,0.105 -0.515,0.316 -0.509,0.515 0.012,0.428 0.114,1.082 0.396,1.229 0.701,0.368 1.526,0.495 2.296,0.735 m -0.648,2.505 c 0.144,0.146 0.403,0.179 0.61,0.263 -0.143,-0.19 -0.261,-0.408 -0.436,-0.563 -0.201,-0.177 -0.44,-0.311 -0.667,-0.458 0.157,0.255 0.284,0.547 0.493,0.758 m 3.439,-8.946 c -0.417,0.146 -0.904,0.093 -1.36,0.129 0.425,0.28 0.875,0.529 1.265,0.851 0.249,0.205 0.424,0.501 0.625,0.765 0.836,0.096 1.675,0.195 2.514,0.294 -0.142,-0.944 -0.108,-1.964 -0.476,-2.81 -0.327,-0.752 -1.024,-1.405 -1.692,-1.932 -0.863,-0.682 -1.847,-1.216 -2.803,-1.77 -0.371,-0.215 -0.865,-0.504 -1.205,-0.409 -0.355,0.098 -0.899,0.771 -0.822,0.925 0.209,0.419 0.654,0.789 1.091,1.012 1.033,0.53 2.126,0.944 3.174,1.448 0.365,0.176 0.669,0.479 1.001,0.725 -0.435,0.265 -0.842,0.608 -1.312,0.772 m 1.857,4.765 c 0.138,-0.698 0.299,-1.494 0.077,-2.124 -0.144,-0.408 -0.898,-0.6 -1.395,-0.883 0.009,0.011 0.017,0.024 0.026,0.035 -1.025,-0.567 -2.021,-1.203 -3.089,-1.672 -0.483,-0.212 -1.111,-0.093 -1.674,-0.124 0.151,0.728 0.051,1.772 0.498,2.124 1.381,1.09 2.952,1.946 4.494,2.815 0.258,0.145 1.036,-0.038 1.063,-0.171 M -0.014,19.004 c -1.743,4.125 -5.022,7.631 -7.791,11.279 -1.288,1.698 -2.88,3.22 -4.542,4.566 -3.344,2.711 -7.245,4.414 -11.384,5.511 -2.483,0.658 -5.014,1.176 -7.551,1.59 -2.919,0.477 -5.862,0.835 -8.807,1.122 -3.142,0.307 -6.295,0.591 -9.448,0.659 -2.75,0.059 -5.532,-0.466 -8.253,-0.219 -1.765,0.16 -3.421,1.323 -5.174,1.887 -1.352,0.434 -2.96,1.205 -4.138,0.831 -3.592,-1.141 -7.03,-2.767 -10.532,-4.195 -0.366,-0.149 -0.761,-0.226 -1.136,-0.354 -2.846,-0.973 -5.745,-1.837 -7.621,-4.487 -0.783,-1.107 -1.524,-2.342 -2.572,-3.142 -2.323,-1.774 -5.011,-3.096 -7.222,-4.986 -4.984,-4.258 -10.735,-7.901 -12.769,-14.756 -0.779,-2.626 -2.795,-13.99 -3.623,-16.964 -0.024,-0.301 -0.046,-0.602 -0.08,-0.901 -0.044,-0.378 -0.099,-0.755 -0.149,-1.132 -0.007,-0.055 -0.012,-0.091 -0.017,-0.116 10e-4,-0.025 10e-4,-0.045 10e-4,-0.085 -0.004,-0.326 0.006,-0.649 0.019,-0.971 1.136,-1.644 1.609,-3.797 3.828,-4.665 1.535,-0.6 3.107,-1.47 4.251,-2.625 2.415,-2.438 5.7,-3.197 8.518,-4.829 3.316,-1.92 6.868,-3.437 10.342,-5.078 2.146,-1.014 4.271,-2.141 6.521,-2.848 3.18,-0.999 6.448,-1.749 9.713,-2.441 0.457,-0.097 0.917,-0.183 1.374,-0.278 4.103,-0.355 8.193,-0.964 12.27,-1.508 1.047,-0.03 2.094,-0.064 3.141,-0.094 4.825,-0.135 9.661,-0.526 14.47,-0.313 3.551,0.157 7.068,1.096 10.597,1.702 2.229,0.383 4.563,0.5 6.649,1.277 0.917,0.341 1.787,0.81 2.64,1.322 0.033,0.027 0.057,0.064 0.093,0.087 1.061,0.674 2.093,1.436 3.226,1.987 0.088,0.211 0.129,0.517 0.282,0.589 1.813,0.859 3.676,1.618 5.458,2.536 0.887,0.457 1.427,1.316 2.041,2.155 1.591,2.176 3.379,4.253 5.339,6.104 3.287,3.106 4.202,7.055 4.924,11.288 C 4.1,5.696 2.701,12.575 -0.014,19.004"
             style="fill:#171717;fill-opacity:1;fill-rule:nonzero;stroke:none"
             id="path20" />
        </g>
        <g
           id="g22"
           transform="translate(280.931,93.8668)">
          <path
             d="M 0,0 C -0.02,-0.013 -0.04,-0.025 -0.06,-0.038 L -0.064,0.029 Z"
             style="fill:#171717;fill-opacity:1;fill-rule:nonzero;stroke:none"
             id="path24" />
        </g>
        <g
           id="g26"
           transform="translate(382.9435,109.5947)">
          <path
             d="m 0,0 c 1.354,0.17 3.459,0.18 5.414,0.726 5.473,1.529 10.908,3.205 16.311,4.964 4.842,1.577 9.633,3.312 14.424,5.038 1.872,0.674 3.576,1.598 3.537,4.024 -0.003,0.189 0.284,0.389 0.448,0.572 0.51,0.567 1.251,1.047 1.487,1.709 0.385,1.082 0.454,2.278 0.636,3.429 0.447,2.835 1.085,5.66 1.263,8.513 0.168,2.701 0.036,5.455 -0.298,8.144 -0.563,4.522 -1.203,9.052 -2.173,13.501 -0.652,2.994 -2.697,5.209 -5.492,6.608 C 33.975,58.02 33.236,56.51 32.2,55.893 31.929,55.732 31.709,54.957 31.861,54.7 c 1.327,-2.237 0.838,-4.692 0.931,-7.068 0.011,-0.308 -0.357,-0.824 -0.64,-0.9 -0.335,-0.089 -1.032,0.104 -1.115,0.337 -0.385,1.084 -0.651,2.216 -0.886,3.347 -0.339,1.632 -0.271,3.455 -1.003,4.874 -0.916,1.774 -2.791,2.754 -4.85,2.857 -0.929,0.047 -2.243,-0.169 -1.83,-1.663 0.772,-2.797 1.803,-5.526 2.487,-8.342 0.186,-0.762 -0.486,-1.732 -0.764,-2.607 -0.293,0.233 -0.563,0.512 -0.889,0.678 -0.143,0.072 -0.444,-0.185 -0.603,-0.12 -0.459,0.187 -1.174,0.377 -1.273,0.716 -0.583,1.993 -1.087,4.015 -1.491,6.052 -1.078,5.429 -3.899,7.75 -8.107,7.803 C 8.75,60.703 7.291,59.072 7.744,56.045 7.861,55.26 8.33,54.53 8.461,53.745 9.16,49.588 9.836,45.425 10.442,41.253 10.595,40.202 10.634,39.069 10.394,38.053 10.257,37.475 9.448,37.057 8.941,36.567 8.707,36.883 8.48,37.205 8.237,37.515 7.115,38.947 7.696,40.594 7.526,42.167 7.101,46.104 6.403,50.031 5.522,53.896 4.694,57.524 3.445,61.054 2.464,64.65 c -1.61,5.9 -3.518,11.679 -6.336,17.137 -1.47,2.849 -2.877,5.74 -4.114,8.695 -1.817,4.339 -7.303,5.6 -10.424,2.194 -0.661,-0.721 -1.023,-1.884 -1.156,-2.892 -0.392,-2.973 -0.869,-5.976 -0.795,-8.955 0.057,-2.315 0.903,-4.607 1.371,-6.915 0.302,-1.49 0.413,-3.033 0.862,-4.473 0.666,-2.132 1.75,-4.144 2.303,-6.298 0.781,-3.04 1.403,-6.141 1.795,-9.254 0.485,-3.854 0.92,-7.748 0.903,-11.622 -0.016,-3.859 -1.229,-10.987 -1.29,-10.716 -0.194,-0.117 -0.348,-0.496 -0.496,-0.656 -1.482,-1.593 -3.036,-2.891 -4.474,-4.523 -0.084,-0.095 0.127,-0.528 0.291,-0.73 0.079,-0.097 0.369,-0.023 0.564,-0.027 -0.168,-0.226 -0.286,-0.56 -0.51,-0.66 -1.774,-0.795 -3.539,-1.627 -5.364,-2.29 -2.687,-0.976 -5.416,-1.84 -8.138,-2.717 -2.271,-0.731 -4.525,-1.566 -6.847,-2.081 -4.56,-1.012 -8.809,-2.567 -12.669,-5.321 -2.069,-1.477 -2.292,-3.295 -2.16,-5.429 0.043,-0.708 0.072,-1.475 0.36,-2.099 0.981,-2.123 1.57,-4.66 4.201,-5.416 1.067,-0.306 2.33,-0.284 3.432,-0.06 4.092,0.831 8.169,1.745 12.223,2.745 6.176,1.525 10.208,2.143 16.601,2.358 0.423,0.015 2.029,-0.732 2.217,-0.803 C -10.501,2.072 -5.843,0.188 0,0 m -14.997,97.175 c 3.553,-0.567 6.746,-0.844 8.412,-4.672 2.178,-5.004 5.007,-9.721 7.262,-14.694 1.409,-3.108 2.306,-6.452 3.374,-9.709 0.653,-1.991 1.146,-4.036 1.841,-6.01 0.093,-0.265 1.202,-0.533 1.42,-0.336 2.207,2.005 4.859,1.49 7.214,0.925 2.078,-0.499 3.919,-1.955 5.897,-2.922 0.37,-0.181 1.034,-0.236 1.324,-0.023 1.994,1.46 4.037,0.692 5.993,0.106 1.998,-0.598 3.675,-0.538 5.675,-0.229 1.408,0.218 3.283,0.109 4.343,-0.674 2.227,-1.646 4.475,-3.487 5.188,-6.467 0.66,-2.76 1.666,-5.465 2.041,-8.258 0.671,-4.991 1.159,-10.023 1.376,-15.052 0.123,-2.849 -0.037,-5.843 -0.808,-8.562 C 44.672,17.484 43.86,14.2 41.586,11.63 41.308,11.316 41.305,10.773 41.077,10.395 40.813,9.958 40.518,9.371 40.102,9.223 37.285,8.218 34.439,7.288 31.588,6.381 27.717,5.149 23.824,3.985 19.956,2.744 17.465,1.946 15.023,0.989 12.521,0.23 6.012,-1.743 -0.509,-3.775 -7.384,-1.43 c -3.529,1.204 -6.988,2.752 -10.611,3.502 -2.539,0.525 -5.304,-0.005 -7.963,-0.15 -0.332,-0.018 -4.685,-1.184 -5.874,-1.481 -5.529,-1.38 -11.029,-2.886 -16.744,-3.24 -2.522,-0.156 -4.515,1.091 -5.62,3.286 -1.161,2.306 -2.392,4.729 -2.755,7.223 -0.18,1.231 -0.041,2.979 1.067,4.56 2.658,3.794 6.75,4.778 10.569,6.168 4.903,1.784 10.106,2.754 14.987,4.588 3.459,1.3 6.885,3.081 9.798,5.33 2.723,2.103 4.753,5.149 4.806,8.902 0.068,4.773 0.245,9.569 -0.127,14.315 -0.261,3.337 -1.201,6.654 -2.119,9.9 -1.613,5.702 -3.146,11.404 -4.336,17.224 -0.674,3.294 -0.961,6.481 -0.195,9.642 0.799,3.298 1.469,6.905 5.398,8.239 0.752,0.256 1.529,0.435 2.106,0.597"
             style="fill:#171717;fill-opacity:1;fill-rule:nonzero;stroke:none"
             id="path28" />
        </g>
        <g
           id="g30"
           transform="translate(362.9048,135.1277)">
          <path
             d="m 0,0 c 0.048,-0.048 0.088,-0.088 0.128,-0.128 0.04,0.08 0.094,0.157 0.113,0.241 C 0.247,0.143 0.168,0.192 0.128,0.232 0.085,0.154 0.042,0.075 0,0"
             style="fill:#171717;fill-opacity:1;fill-rule:nonzero;stroke:none"
             id="path32" />
        </g>
        <g
           id="g34"
           transform="translate(317.7728,128.5358)">
          <path
             d="m 0,0 c -0.979,-0.981 -2.04,-1.888 -3.125,-2.752 -0.242,-0.192 -0.925,-0.249 -1.071,-0.08 -1.973,2.281 -3.876,4.621 -5.822,6.925 -0.502,0.594 -0.57,0.738 0.296,1.164 2.091,1.029 4.082,2.329 4.753,4.792 0.333,1.222 0.45,0.705 0.905,0.052 C -2.46,7.804 -0.767,5.57 0.867,3.293 1.093,2.978 1.175,2.559 1.422,1.943 0.971,1.314 0.571,0.572 0,0 m -11.716,7.197 c -0.374,0.167 -0.872,0.233 -1.103,0.517 -1.423,1.747 -2.794,3.537 -4.144,5.342 -0.059,0.079 0.214,0.595 0.399,0.641 2.163,0.539 3.792,1.797 5.239,3.456 0.279,0.319 1.626,0.241 1.971,-0.128 1.393,-1.491 2.596,-3.161 3.837,-4.788 0.116,-0.152 0.114,-0.597 -0.006,-0.696 -1.636,-1.349 -3.288,-2.679 -4.973,-3.965 -0.306,-0.234 -0.777,-0.249 -1.22,-0.379 m -6.226,8.683 c -0.536,-0.228 -1.85,0.591 -2.383,1.267 -3.424,4.335 -6.589,8.881 -10.121,13.123 -2.706,3.249 -5.85,6.132 -8.75,9.225 -0.71,0.757 -1.244,1.685 -1.811,2.566 -0.078,0.121 0.054,0.49 0.199,0.628 2.481,2.365 4.957,4.735 7.489,7.044 0.627,0.572 1.349,1.189 2.104,-0.107 1.849,-3.173 3.751,-6.32 5.764,-9.391 1.569,-2.394 3.399,-4.615 5.003,-6.987 2.393,-3.538 4.712,-7.128 7.008,-10.73 0.391,-0.614 0.51,-1.4 0.795,-2.221 -0.248,-0.544 -0.342,-1.233 -0.733,-1.521 -1.453,-1.072 -2.925,-2.198 -4.564,-2.896 m -24.409,28.745 c -4.987,-3.236 -10.58,-5.378 -16.577,-6.154 -2.466,-0.319 -4.935,-0.607 -6.538,-0.804 -5.786,0.271 -10.7,0.669 -15.132,2.922 -2.505,1.274 -4.872,2.966 -6.99,4.825 -4.32,3.792 -7.204,8.729 -9.217,13.99 -1.132,2.955 -1.182,6.376 -1.413,9.609 -0.21,2.915 -0.1,5.864 0.04,8.79 0.286,5.953 1.936,11.522 4.73,16.807 2.547,4.818 5.997,8.91 10.182,12.241 4.303,3.425 9.056,6.213 14.746,6.897 1.796,0.216 6.307,1.646 7.446,1.76 2.579,0.259 5.023,0.57 7.615,-0.261 2.868,-0.919 6.024,-0.968 8.852,-1.97 2.235,-0.791 4.284,-2.293 6.198,-3.762 2.399,-1.842 4.874,-3.725 6.783,-6.032 3.505,-4.235 6.337,-8.897 6.922,-14.612 0.285,-2.78 1.468,-5.563 1.28,-8.278 -0.43,-6.185 -1.087,-12.414 -4.401,-17.947 -1.388,-2.317 -2.499,-4.813 -4.021,-7.034 -2.893,-4.222 -6.234,-8.216 -10.505,-10.987 M 2.609,4.629 C 1.55,5.533 0.91,6.92 0.064,8.078 c -4.405,6.027 -8.813,12.051 -13.228,18.07 -0.478,0.651 -1.066,1.227 -1.502,1.904 -1.681,2.616 -3.303,5.269 -4.982,7.886 -1.834,2.858 -3.73,5.675 -5.554,8.539 -1.365,2.143 -2.441,4.516 -4.061,6.436 -1.108,1.312 -1.094,2.143 -0.318,3.467 2.987,5.101 6.221,10.104 7.157,16.12 0.574,3.696 1.539,11.131 1.443,11.152 -0.12,0.823 -0.21,1.651 -0.369,2.466 -0.156,0.8 -0.469,1.576 -0.565,2.381 -0.888,7.425 -3.813,13.912 -8.916,19.385 -1.136,1.218 -2.313,2.446 -3.654,3.415 -2.495,1.805 -4.937,3.909 -7.746,5.001 -3.797,1.475 -7.873,2.51 -11.918,2.994 -2.575,0.308 -5.214,0.135 -7.848,-0.065 -1.175,-0.234 -2.337,-0.528 -3.521,-0.726 -1.459,-0.244 -2.913,-0.515 -4.375,-0.737 -0.399,-0.061 -0.806,-0.126 -1.211,-0.202 -0.328,-0.105 -0.658,-0.208 -0.975,-0.341 -2.198,-0.92 -4.426,-1.779 -6.573,-2.808 -1.263,-0.606 -2.347,-1.575 -3.591,-2.23 -4.498,-2.371 -7.879,-5.905 -10.593,-10.112 -1.135,-1.76 -2.205,-3.591 -3.047,-5.503 -1.352,-3.067 -2.829,-6.146 -3.619,-9.374 -0.733,-2.994 -0.723,-6.186 -0.878,-9.299 -0.136,-2.722 0.112,-5.467 -0.103,-8.179 -0.203,-2.555 0.883,-4.842 1.206,-7.282 0.526,-3.968 2.81,-7.391 5.18,-10.618 1.58,-2.149 2.951,-4.585 4.943,-6.269 3.5,-2.959 7.418,-5.404 12.071,-6.309 2.204,-0.428 4.373,-1.171 6.592,-1.349 2.631,-0.211 5.299,0.044 7.952,0.07 0.749,0.007 7.441,1.2 10.678,1.844 1.728,0.344 3.38,1.11 5.035,1.762 1.023,0.403 2.047,1.415 2.963,1.3 0.876,-0.109 1.637,-1.299 2.405,-2.058 1.977,-1.952 4.065,-3.811 5.862,-5.918 3.189,-3.74 6.206,-7.625 9.273,-11.468 3.038,-3.806 6.051,-7.632 9.068,-11.455 2.456,-3.111 4.931,-6.209 7.341,-9.355 1.59,-2.075 3.008,-4.286 4.676,-6.291 0.334,-0.403 1.72,-0.495 2.161,-0.147 1.867,1.475 3.57,3.16 5.313,4.79 0.496,0.463 1.403,1.144 1.302,1.475 -0.417,1.364 0.531,2.943 -0.929,4.189"
             style="fill:#171717;fill-opacity:1;fill-rule:nonzero;stroke:none"
             id="path36" />
        </g>
        <g
           id="g38"
           transform="translate(291.8459,106.5946)">
          <path
             d="M 0,0 C 0.744,0 1.043,0 1.342,0 2.705,0.001 2.695,-0.004 2.078,1.194 1.989,1.368 2.102,1.636 2.043,1.837 1.254,4.538 -0.156,5.347 -1.688,3.9 -2.686,2.958 -3.481,1.8 -4.367,0.738 -3.002,0.488 -1.639,0.231 -0.271,-0.005 -0.041,-0.045 0.205,0.009 0,0 m -49.493,-8.708 c 1.977,-0.43 1.438,1.103 1.36,1.626 -0.475,3.189 -1.879,5.919 -3.783,8.517 -0.131,0.18 -1.602,1.162 -1.62,1.11 -0.892,-2.674 -0.547,-1.672 -1.95,-5.4 -0.822,-1.628 -1.331,-3.42 -1.47,-3.69 -0.57,-1.107 1.019,-1.406 1.723,-1.485 1.995,-0.226 3.988,-0.47 5.74,-0.678 m 29.138,15.986 c -6.072,-0.227 -11.952,-1.159 -17.48,-3.881 -2.169,-1.069 -4.504,-1.802 -6.751,-2.719 -0.745,-0.305 -1.493,-0.644 -2.161,-1.086 -0.619,-0.409 -0.928,-0.631 -0.549,-1.806 0.844,-2.617 1.939,-5.318 1.055,-8.318 -0.329,-1.115 -0.892,-1.496 -1.615,-1.38 -3.048,0.49 -6.106,1.012 -9.079,1.821 -1.599,0.435 -2.009,2.189 -1.46,3.842 1.064,3.198 2.01,6.436 3.107,9.622 0.123,0.356 0.892,0.625 1.389,0.679 0.558,0.06 1.202,-0.056 1.713,-0.299 0.946,-0.45 1.938,-0.92 2.703,-1.612 1.368,-1.239 1.944,0.354 2.651,0.755 4.435,2.512 9.101,4.603 14.049,5.541 5.989,1.136 12.069,1.711 18.261,0.888 3.756,-0.5 7.106,-1.669 10.372,-3.403 0.295,-0.157 0.854,0.013 1.212,0.189 0.358,0.176 0.621,0.547 0.919,0.839 C 0.118,9.048 0.23,9.138 2.153,6.947 4.045,4.79 4.727,2.058 4.721,-0.748 4.718,-2.29 4.006,-2.989 2.071,-2.489 c -2.263,0.584 -4.725,0.353 -7.073,0.678 -1.815,0.251 -2.672,2.11 -1.861,3.612 1.091,2.019 0.968,2.625 -1.243,3.406 -2.017,0.712 -4.127,1.234 -6.238,1.589 -1.974,0.332 -4.003,0.334 -6.011,0.482"
             style="fill:#171717;fill-opacity:1;fill-rule:nonzero;stroke:none"
             id="path40" />
        </g>
        <g
           id="g42"
           transform="translate(281.4225,91.5054)">
          <path
             d="m 0,0 c -0.24,-0.168 -0.421,-0.296 -0.603,-0.423 0.086,-0.076 0.197,-0.232 0.253,-0.214 0.211,0.068 0.404,0.192 0.604,0.295 C 0.182,-0.245 0.111,-0.149 0,0"
             style="fill:#ffffff;fill-opacity:1;fill-rule:nonzero;stroke:none"
             id="path44" />
        </g>
        <g
           id="g46"
           transform="translate(275.9416,95.1661)">
          <path
             d="M 0,0 C -0.151,0.171 -0.237,0.268 -0.322,0.365 0.41,0.767 1.137,1.177 1.882,1.555 1.939,1.584 2.112,1.383 2.232,1.288 1.507,0.87 0.783,0.452 0,0"
             style="fill:#ffffff;fill-opacity:1;fill-rule:nonzero;stroke:none"
             id="path48" />
        </g>
        <g
           id="g50"
           transform="translate(280.9272,93.8632)">
          <path
             d="M 0,0 C 0.162,0.258 0.288,0.551 0.498,0.762 0.642,0.908 0.9,0.941 1.108,1.025 0.965,0.835 0.846,0.616 0.672,0.462 0.453,0.269 0.189,0.129 -0.056,-0.034 Z"
             style="fill:#ffffff;fill-opacity:1;fill-rule:nonzero;stroke:none"
             id="path52" />
        </g>
        <g
           id="g54"
           transform="translate(279.0634,93.9255)">
          <path
             d="m 0,0 c -0.438,-0.301 -0.656,-0.545 -0.911,-0.594 -0.197,-0.038 -0.44,0.17 -0.663,0.269 0.166,0.132 0.317,0.341 0.503,0.379 C -0.81,0.108 -0.523,0.035 0,0"
             style="fill:#ffffff;fill-opacity:1;fill-rule:nonzero;stroke:none"
             id="path56" />
        </g>
        <g
           id="g58"
           transform="translate(280.8713,93.829)">
          <path
             d="m 0,0 -0.005,0.066 c 0,0 0.065,-0.028 0.063,-0.03 C 0.056,0.034 0,0 0,0"
             style="fill:#ffffff;fill-opacity:1;fill-rule:nonzero;stroke:none"
             id="path60" />
        </g>
        <g
           id="g62"
           transform="translate(382.9435,109.5947)">
          <path
             d="m 0,0 c -5.843,0.188 -10.501,2.072 -15.186,3.842 -0.188,0.071 -1.415,0.745 -1.838,0.73 -6.393,-0.215 -10.804,-0.76 -16.98,-2.285 -4.054,-1 -8.131,-1.914 -12.223,-2.745 -1.102,-0.224 -2.365,-0.246 -3.432,0.06 -2.631,0.756 -3.22,3.293 -4.201,5.416 -0.288,0.624 -0.317,1.391 -0.36,2.099 -0.132,2.134 0.091,3.952 2.16,5.429 3.86,2.754 8.109,4.309 12.669,5.321 2.322,0.515 4.576,1.35 6.847,2.081 2.722,0.877 5.451,1.741 8.138,2.717 1.825,0.663 4.935,3.612 5.019,3.707 1.438,1.632 2.992,2.93 4.474,4.523 0.148,0.16 0.302,0.539 0.496,0.656 0.061,-0.271 1.274,6.857 1.29,10.716 0.017,3.874 -0.418,7.768 -0.903,11.622 -0.392,3.113 -1.014,6.214 -1.795,9.254 -0.553,2.154 -1.637,4.166 -2.303,6.298 -0.449,1.44 -0.56,2.983 -0.862,4.473 -0.468,2.308 -1.314,4.6 -1.371,6.915 -0.074,2.979 0.403,5.982 0.795,8.955 0.133,1.008 0.495,2.171 1.156,2.892 3.121,3.406 8.607,2.145 10.424,-2.194 1.237,-2.955 2.644,-5.846 4.114,-8.695 2.818,-5.458 4.726,-11.237 6.336,-17.137 0.981,-3.596 2.23,-7.126 3.058,-10.754 0.881,-3.865 1.579,-7.792 2.004,-11.729 0.17,-1.573 -0.411,-3.22 0.711,-4.652 0.243,-0.31 0.47,-0.632 0.704,-0.948 0.507,0.49 1.316,0.908 1.453,1.486 0.24,1.016 0.201,2.149 0.048,3.2 -0.606,4.172 -1.282,8.335 -1.981,12.492 -0.131,0.785 -0.6,1.515 -0.717,2.3 -0.453,3.027 1.006,4.658 4.084,4.619 4.208,-0.053 7.029,-2.374 8.107,-7.803 0.404,-2.037 0.908,-4.059 1.491,-6.052 0.099,-0.339 0.814,-0.529 1.273,-0.716 0.159,-0.065 0.46,0.192 0.603,0.12 0.326,-0.166 1.839,1.167 1.653,1.929 -0.684,2.816 -1.715,5.545 -2.487,8.342 -0.413,1.494 0.901,1.71 1.83,1.663 2.059,-0.103 3.934,-1.083 4.85,-2.857 0.732,-1.419 0.664,-3.242 1.003,-4.874 0.235,-1.131 0.501,-2.263 0.886,-3.347 0.083,-0.233 0.78,-0.426 1.115,-0.337 0.283,0.076 0.651,0.592 0.64,0.9 -0.093,2.376 0.396,4.831 -0.931,7.068 -0.152,0.257 0.068,1.032 0.339,1.193 1.036,0.617 1.775,2.127 3.357,1.335 2.795,-1.399 4.84,-3.614 5.492,-6.608 0.97,-4.449 1.61,-8.979 2.173,-13.501 0.334,-2.689 0.466,-5.443 0.298,-8.144 -0.178,-2.853 -0.816,-5.678 -1.263,-8.513 -0.182,-1.151 -0.251,-2.347 -0.636,-3.429 -0.236,-0.662 -0.977,-1.142 -1.487,-1.709 -0.164,-0.183 -0.451,-0.383 -0.448,-0.572 0.039,-2.426 -1.665,-3.35 -3.537,-4.024 C 31.358,9.002 26.567,7.267 21.725,5.69 16.322,3.931 10.887,2.255 5.414,0.726 3.459,0.18 1.354,0.17 0,0"
             style="fill:#ffffff;fill-opacity:1;fill-rule:nonzero;stroke:none"
             id="path64" />
        </g>
        <g
           id="g66"
           transform="translate(362.9048,135.1277)">
          <path
             d="M 0,0 C 0.042,0.075 0.085,0.154 0.128,0.232 0.168,0.192 0.247,0.143 0.241,0.113 0.222,0.029 0.168,-0.048 0.128,-0.128 0.088,-0.088 0.048,-0.048 0,0"
             style="fill:#ffffff;fill-opacity:1;fill-rule:nonzero;stroke:none"
             id="path68" />
        </g>
        <g
           id="g70"
           transform="translate(251.5925,216.8243)">
          <path
             d="M 0,0 C -0.048,1.496 -2.231,4.325 -3.385,4.51 -3.861,4.586 -4.404,4.242 -4.917,4.089 -4.792,3.681 -4.774,3.186 -4.525,2.879 -3.568,1.706 -2.566,0.565 -1.512,-0.521 -1.29,-0.75 -0.698,-0.862 -0.419,-0.73 -0.142,-0.598 -0.045,-0.088 0,0 m -0.289,-43.196 c 0.804,0.704 1.147,0.904 1.351,1.2 1.088,1.584 2.165,3.178 3.187,4.805 0.219,0.348 0.195,0.849 0.283,1.279 -0.56,-0.107 -1.374,-0.017 -1.635,-0.355 -1.216,-1.574 -2.323,-3.239 -3.362,-4.938 -0.204,-0.332 0.067,-0.955 0.176,-1.991 M 5.548,3.074 C 4.664,4.859 3.918,6.591 2.945,8.185 2.677,8.625 1.734,8.653 1.101,8.871 1.086,8.281 0.922,7.647 1.083,7.11 1.606,5.358 2.356,3.668 2.803,1.9 3.071,0.841 3.545,0.769 4.22,1.288 4.695,1.653 4.972,2.275 5.548,3.074 M 0.018,-36.65 c -0.45,0.555 -0.668,1.075 -1.015,1.185 -0.359,0.114 -0.966,-0.04 -1.252,-0.306 -1.439,-1.34 -2.792,-2.772 -4.208,-4.139 -1.508,-1.457 -1.545,-1.509 0.188,-2.208 0.42,-0.17 1.194,-0.021 1.538,0.284 1.084,0.961 2.058,2.051 3.042,3.122 0.571,0.621 1.081,1.301 1.707,2.062 m 0.696,-13.971 c -5.786,0.271 -10.699,0.669 -15.131,2.922 -2.506,1.273 -4.873,2.966 -6.991,4.824 -4.32,3.792 -7.204,8.729 -9.217,13.99 -1.131,2.955 -1.181,6.376 -1.413,9.609 -0.209,2.915 -0.1,5.864 0.041,8.79 0.285,5.954 1.935,11.522 4.729,16.808 2.547,4.817 5.997,8.909 10.182,12.241 4.303,3.424 9.057,6.212 14.746,6.896 1.796,0.216 6.427,1.677 7.447,1.761 2.583,0.214 5.022,0.57 7.615,-0.261 2.867,-0.919 6.023,-0.969 8.851,-1.97 2.236,-0.792 4.284,-2.293 6.198,-3.763 2.399,-1.841 4.875,-3.725 6.784,-6.031 3.504,-4.235 6.336,-8.897 6.921,-14.612 0.285,-2.781 1.468,-5.564 1.28,-8.279 -0.43,-6.184 -1.087,-12.413 -4.401,-17.946 -1.388,-2.317 -2.499,-4.814 -4.02,-7.034 -2.894,-4.223 -6.235,-8.217 -10.506,-10.988 -4.987,-3.236 -10.58,-5.377 -16.577,-6.153 -2.465,-0.319 -4.935,-0.608 -6.538,-0.804"
             style="fill:#ffffff;fill-opacity:1;fill-rule:nonzero;stroke:none"
             id="path72" />
        </g>
        <g
           id="g74"
           transform="translate(305.1276,148.8323)">
          <path
             d="m 0,0 c -0.248,-0.543 -0.342,-1.233 -0.732,-1.521 -1.454,-1.072 -2.926,-2.198 -4.565,-2.895 -0.536,-0.228 -1.85,0.591 -2.383,1.266 -3.424,4.336 -6.588,8.882 -10.121,13.123 -2.706,3.25 -5.85,6.133 -8.75,9.225 -0.71,0.758 -1.243,1.686 -1.81,2.566 -0.079,0.122 0.053,0.491 0.198,0.629 2.481,2.364 4.957,4.734 7.489,7.043 0.627,0.572 1.349,1.189 2.104,-0.107 1.849,-3.173 3.751,-6.32 5.764,-9.391 1.569,-2.393 3.399,-4.614 5.003,-6.986 C -5.409,9.414 -3.091,5.824 -0.795,2.221 -0.404,1.608 -0.285,0.821 0,0"
             style="fill:#ffffff;fill-opacity:1;fill-rule:nonzero;stroke:none"
             id="path76" />
        </g>
        <g
           id="g78"
           transform="translate(319.195,130.4788)">
          <path
             d="m 0,0 c -0.451,-0.629 -0.851,-1.371 -1.422,-1.943 -0.979,-0.981 -2.04,-1.888 -3.125,-2.752 -0.242,-0.192 -0.925,-0.249 -1.072,-0.08 -1.972,2.281 -3.876,4.621 -5.821,6.925 -0.502,0.594 -0.57,0.738 0.296,1.164 2.091,1.029 4.082,2.329 4.753,4.792 0.333,1.222 0.45,0.705 0.905,0.052 C -3.883,5.861 -2.189,3.627 -0.555,1.35 -0.329,1.035 -0.247,0.616 0,0"
             style="fill:#ffffff;fill-opacity:1;fill-rule:nonzero;stroke:none"
             id="path80" />
        </g>
        <g
           id="g82"
           transform="translate(306.0573,135.7327)">
          <path
             d="m 0,0 c -0.374,0.167 -0.872,0.233 -1.104,0.517 -1.423,1.747 -2.793,3.537 -4.143,5.342 -0.06,0.079 0.214,0.596 0.398,0.642 2.163,0.538 3.793,1.796 5.24,3.455 0.278,0.319 1.625,0.242 1.971,-0.128 C 3.754,8.337 4.957,6.667 6.199,5.04 6.315,4.888 6.312,4.444 6.192,4.344 4.557,2.995 2.904,1.665 1.219,0.379 0.914,0.146 0.442,0.13 0,0"
             style="fill:#ffffff;fill-opacity:1;fill-rule:nonzero;stroke:none"
             id="path84" />
        </g>
        <g
           id="g86"
           transform="translate(206.2415,200.6036)">
          <path
             d="M 0,0 C -0.142,0.324 -0.283,0.493 -0.244,0.581 -0.088,0.929 0.124,1.252 0.315,1.585 0.378,1.422 0.525,1.236 0.487,1.101 0.398,0.78 0.222,0.483 0,0"
             style="fill:#ffffff;fill-opacity:1;fill-rule:nonzero;stroke:none"
             id="path88" />
        </g>
        <g
           id="g90"
           transform="translate(281.4225,91.5054)">
          <path
             d="M 0,0 C 0.111,-0.149 0.182,-0.245 0.254,-0.342 0.054,-0.445 -0.139,-0.569 -0.35,-0.637 -0.406,-0.655 -0.517,-0.499 -0.603,-0.423 -0.421,-0.296 -0.24,-0.168 0,0"
             style="fill:#171717;fill-opacity:1;fill-rule:nonzero;stroke:none"
             id="path92" />
        </g>
        <g
           id="g94"
           transform="translate(251.6103,180.1739)">
          <path
             d="m 0,0 c -0.626,-0.761 -1.135,-1.44 -1.707,-2.062 -0.984,-1.07 -1.958,-2.16 -3.042,-3.122 -0.343,-0.304 -1.118,-0.453 -1.537,-0.284 -1.733,0.699 -1.697,0.751 -0.188,2.209 1.415,1.367 2.768,2.799 4.207,4.139 0.286,0.266 0.894,0.419 1.252,0.306 C -0.667,1.075 -0.449,0.556 0,0"
             style="fill:#171717;fill-opacity:1;fill-rule:nonzero;stroke:none"
             id="path96" />
        </g>
        <g
           id="g98"
           transform="translate(257.1403,219.8987)">
          <path
             d="m 0,0 c -0.576,-0.8 -0.853,-1.422 -1.328,-1.787 -0.674,-0.518 -1.149,-0.447 -1.417,0.613 -0.447,1.768 -1.197,3.458 -1.72,5.21 -0.161,0.537 0.003,1.171 0.018,1.76 C -3.814,5.579 -2.871,5.551 -2.603,5.111 -1.63,3.517 -0.884,1.785 0,0"
             style="fill:#171717;fill-opacity:1;fill-rule:nonzero;stroke:none"
             id="path100" />
        </g>
        <g
           id="g102"
           transform="translate(251.3037,173.6287)">
          <path
             d="M 0,0 C -0.11,1.036 -0.38,1.658 -0.176,1.991 0.863,3.689 1.969,5.355 3.186,6.929 3.447,7.266 4.261,7.177 4.82,7.284 4.733,6.853 4.756,6.353 4.538,6.004 3.516,4.377 2.439,2.784 1.35,1.199 1.147,0.903 0.804,0.704 0,0"
             style="fill:#171717;fill-opacity:1;fill-rule:nonzero;stroke:none"
             id="path104" />
        </g>
        <g
           id="g106"
           transform="translate(251.5925,216.8243)">
          <path
             d="m 0,0 c -0.045,-0.088 -0.142,-0.598 -0.419,-0.73 -0.279,-0.132 -0.871,-0.02 -1.093,0.209 -1.054,1.086 -2.056,2.227 -3.013,3.4 -0.249,0.307 -0.267,0.802 -0.392,1.21 0.513,0.153 1.056,0.497 1.532,0.421 C -2.231,4.325 -0.048,1.496 0,0"
             style="fill:#171717;fill-opacity:1;fill-rule:nonzero;stroke:none"
             id="path108" />
        </g>
        <g
           id="g110"
           transform="translate(212.9988,195.545)">
          <path
             d="m 0,0 c -0.121,-2.433 -0.207,-4.869 -0.375,-7.3 -0.305,-4.435 -2.289,-8.305 -4.651,-11.872 -3.038,-4.588 -6.43,-8.951 -9.826,-13.289 -1.889,-2.414 -3.937,-4.755 -6.202,-6.811 -2.183,-1.981 -4.693,-3.619 -7.141,-5.287 -2.987,-2.036 -5.946,-4.156 -9.122,-5.858 -4.173,-2.236 -8.461,-4.297 -13.368,-4.542 -1.685,-0.085 -3.365,-0.913 -5.019,-0.832 -5.079,0.246 -10.168,0.591 -15.209,1.237 -4.334,0.556 -8.546,1.765 -12.331,4.104 -2.527,1.562 -5.032,3.136 -6.803,5.638 -0.343,0.484 -1.121,0.651 -1.674,1.001 -0.15,0.095 -0.252,0.315 -0.309,0.498 -0.111,0.36 -0.051,0.861 -0.278,1.086 -3.094,3.07 -5.191,6.762 -7.02,10.679 -1.282,2.747 -2.773,5.418 -4.407,7.972 -1.6,2.501 -1.171,5.173 -0.877,7.744 0.421,3.679 1.395,7.291 2.039,10.942 0.277,1.57 0.861,3.664 1.869,4.645 0.402,1.147 0.961,2.044 1.407,3.065 0.305,0.7 0.423,0.973 0.68,1.716 0.071,0.207 0.122,0.243 0.16,0.441 0.002,0.056 0.154,0.388 0.157,0.444 0.006,0.095 0.163,0.568 0.226,0.659 0.068,0.216 0.302,0.963 0.357,1.16 0.143,0.436 0.085,0.554 0.198,0.728 0.386,0.594 0.832,1.152 1.248,1.724 0.274,0.376 0.56,0.739 0.857,1.09 1.293,2.624 3.458,4.748 5.154,7.122 3.611,5.052 8.51,8.578 13.866,11.676 2.964,1.715 5.774,3.724 9.064,4.689 5.991,1.756 11.935,3.598 18.14,4.708 5.051,0.904 9.706,-0.069 14.406,-1.044 4.377,-0.908 8.618,-2.499 12.88,-3.907 0.839,-0.277 1.715,-0.947 2.207,-1.682 1.845,-2.757 4.899,-3.893 7.382,-5.788 1.71,-1.305 3.434,-2.612 5.002,-4.078 1.247,-1.166 2.484,-2.445 3.346,-3.898 C -1.773,14.878 -0.079,10.918 0.276,6.582 0.454,4.41 0.11,2.195 0,0 M 3.203,4.999 C 3.201,4.997 3.199,4.994 3.197,4.992 3.091,5.769 2.979,6.544 2.884,7.323 2.833,7.739 2.882,8.178 2.771,8.574 1.008,14.84 -1.677,20.625 -6.525,25.126 c -3.029,2.812 -6.233,5.438 -9.403,8.094 -3.392,2.841 -7.68,3.882 -11.662,5.457 -2.696,1.067 -5.666,1.498 -8.548,2.023 -3.227,0.588 -6.493,0.96 -10.267,1.502 -4.871,-1.174 -10.135,-2.393 -15.373,-3.719 -5.751,-1.455 -11.269,-3.467 -16.063,-7.114 -3.675,-2.797 -7.489,-5.424 -11.025,-8.385 -1.824,-1.527 -3.299,-3.529 -4.717,-5.472 -2.34,-3.206 -4.781,-6.39 -6.654,-9.866 -1.384,-2.567 -1.754,-5.659 -2.89,-8.387 -1.981,-4.756 -2.89,-9.765 -3.616,-14.786 -0.341,-2.355 -0.311,-5.053 0.52,-7.224 1.571,-4.107 3.758,-7.992 5.852,-11.881 1.528,-2.839 3.378,-5.502 4.977,-8.305 2.493,-4.37 6.442,-7.401 10.532,-9.784 3.57,-2.08 7.979,-2.778 12.073,-3.879 2.476,-0.665 5.044,-1.092 7.598,-1.34 3.061,-0.298 6.154,-0.411 9.229,-0.364 1.461,0.023 2.933,0.949 4.366,0.866 4.251,-0.245 8.002,1.315 11.622,3.079 4.551,2.218 8.977,4.693 13.428,7.116 0.723,0.495 1.437,1.004 2.176,1.475 1.57,1.501 3.434,2.676 5.144,4.011 0.258,0.201 0.515,0.409 0.771,0.621 0.104,0.107 0.212,0.21 0.309,0.327 1.498,1.804 2.963,3.662 4.348,5.554 1.406,1.922 2.618,3.917 4.243,5.669 0.205,0.221 0.402,0.449 0.595,0.679 0.013,0.041 0.022,0.086 0.035,0.126 0.122,0.362 0.537,0.621 0.803,0.94 3.033,3.644 6.036,7.364 7.741,11.814 1.262,3.293 1.927,6.815 2.857,10.235 0.045,0.165 0.088,0.332 0.131,0.498 C 2.633,-3.58 2.958,-1.875 3.29,-0.17 3.261,1.553 3.232,3.276 3.203,4.999"
             style="fill:#171717;fill-opacity:1;fill-rule:nonzero;stroke:none"
             id="path112" />
        </g>
        <g
           id="g114"
           transform="translate(259.0848,193.4508)">
          <path
             d="m 0,0 c -2.073,-2.458 -4.878,-3.549 -6.49,-3.862 -6.221,-0.524 -9.665,2.193 -11.285,6.25 -0.25,0.624 0.164,1.519 0.289,2.286 0.284,1.737 0.34,3.556 0.918,5.191 1.178,3.336 3.688,5.815 6.808,7.105 1.521,0.629 3.796,-0.213 5.626,-0.745 C 3.893,13.891 4.425,5.248 0,0 m 1.685,15.602 c -2.509,3.141 -6.221,4.148 -9.918,4.11 -0.43,-0.005 -0.86,-0.02 -1.289,-0.037 -0.572,-0.134 -1.159,-0.227 -1.706,-0.426 -0.225,-0.081 -0.449,-0.161 -0.671,-0.243 0.021,-0.006 0.055,-0.016 0.066,-0.018 -0.223,-0.155 -0.446,-0.31 -0.669,-0.463 -2.684,-1.842 -4.779,-4.271 -6.068,-7.196 -0.751,-1.704 -0.738,-3.743 -1.1,-5.625 -0.049,-0.252 -0.303,-1.647 -0.3,-2.114 0.008,-1.027 1.604,-5.676 2.38,-6.309 2.612,-2.13 5.387,-4 9.005,-3.818 0.327,0.016 1.724,-0.379 2.55,-0.101 0.837,0.281 1.737,0.457 2.492,0.885 4.129,2.343 7.711,4.983 8.613,10.262 0.76,4.445 -0.818,7.88 -3.385,11.093"
             style="fill:#171717;fill-opacity:1;fill-rule:nonzero;stroke:none"
             id="path116" />
        </g>
        <g
           id="g118"
           transform="translate(242.794,212.179)">
          <path
             d="M 0,0 C 0.095,0.173 0.24,0.297 0.404,0.403 0.443,0.429 0.483,0.454 0.523,0.48 0.531,0.488 0.539,0.497 0.547,0.505 0.567,0.527 0.586,0.549 0.605,0.572 0.615,0.584 0.624,0.596 0.634,0.609 0.649,0.628 0.664,0.648 0.678,0.666 0.743,0.752 0.808,0.839 0.879,0.92 0.963,1.016 1.053,1.106 1.136,1.202 1.247,1.329 1.359,1.454 1.469,1.581 1.448,1.589 1.428,1.596 1.407,1.606 -0.976,2.787 -3.506,3.215 -6.011,3.881 -7.214,4.201 -7.524,3.414 -7.567,2.903 -7.607,2.416 -7.01,1.598 -6.504,1.395 c 1.597,-0.641 3.28,-1.07 4.935,-1.562 0.435,-0.13 1.233,-0.362 1.286,-0.257 0.068,0.136 0.165,0.232 0.255,0.338 C -0.018,-0.057 -0.015,-0.027 0,0"
             style="fill:#171717;fill-opacity:1;fill-rule:nonzero;stroke:none"
             id="path120" />
        </g>
        <g
           id="g122"
           transform="translate(229.2336,218.0889)">
          <path
             d="m 0,0 c -2.85,1.111 -5.721,2.169 -8.599,3.204 -0.006,0.002 -0.013,0 -0.018,0.002 C -9.102,2.778 -9.62,2.381 -10.182,2.063 -10.21,1.967 -10.252,1.877 -10.327,1.809 -10.337,1.8 -10.345,1.788 -10.355,1.779 -10.378,1.744 -10.397,1.707 -10.416,1.67 -10.42,1.659 -10.421,1.647 -10.425,1.636 c 0.57,-1.025 1.643,-0.851 2.476,-1.203 0.821,-0.347 1.756,-0.425 2.569,-0.784 1.314,-0.58 2.517,-1.491 3.875,-1.85 0.537,-0.142 1.378,0.804 2.033,1.315 C 0.569,-0.854 0.265,-0.103 0,0"
             style="fill:#171717;fill-opacity:1;fill-rule:nonzero;stroke:none"
             id="path124" />
        </g>
        <g
           id="g126"
           transform="translate(213.7499,223.1378)">
          <path
             d="M 0,0 C -0.234,0.234 -0.569,0.466 -0.841,0.644 -1.144,0.842 -1.463,1.016 -1.779,1.194 -1.895,1.227 -1.985,1.279 -2.05,1.353 -2.103,1.382 -2.152,1.415 -2.205,1.443 -2.44,1.57 -2.681,1.686 -2.919,1.808 -3.034,1.849 -3.148,1.892 -3.263,1.933 -3.285,1.93 -3.311,1.916 -3.331,1.923 c -2.027,0.73 -4.126,1.348 -6.01,2.359 -1.22,0.655 -2.132,0.354 -2.462,-0.545 -0.439,-1.194 0.729,-1.554 1.708,-1.898 2.065,-0.725 4.185,-1.375 6.112,-2.383 1.176,-0.616 2.095,-1.663 3.491,-0.966 0.007,0.005 0.012,0.011 0.018,0.017 0.206,0.181 0.35,0.338 0.449,0.554 -0.046,0.215 -0.031,0.494 0.065,0.856 C 0.031,-0.054 0.012,-0.028 0,0"
             style="fill:#171717;fill-opacity:1;fill-rule:nonzero;stroke:none"
             id="path128" />
        </g>
        <g
           id="g130"
           transform="translate(215.948,167.9382)">
          <path
             d="M 0,0 C -0.002,0.028 -0.005,0.056 -0.008,0.084 -0.009,0.091 -0.011,0.101 -0.016,0.132 -0.035,0.21 -0.051,0.288 -0.074,0.365 -0.081,0.39 -0.169,0.607 -0.115,0.489 -0.139,0.542 -0.165,0.594 -0.194,0.645 -0.203,0.66 -0.27,0.76 -0.278,0.778 -0.318,0.827 -0.361,0.875 -0.406,0.918 -0.424,0.935 -0.443,0.951 -0.462,0.967 -0.469,0.971 -0.474,0.974 -0.496,0.99 -0.52,1.002 -0.723,1.101 -0.592,1.051 -0.646,1.071 -0.702,1.083 -0.756,1.101 -0.788,1.107 -0.799,1.11 -0.805,1.112 -0.83,1.114 -0.856,1.116 -0.882,1.117 -1.118,1.123 -1.495,1.008 -1.71,0.909 -2.31,0.632 -2.886,0.279 -3.525,0.103 c -2.283,-1.237 -4.54,-2.567 -6.962,-3.428 -0.491,-0.174 -0.801,-0.375 -1.001,-0.593 -0.046,-0.051 -0.087,-0.107 -0.132,-0.159 -0.276,-0.441 -0.117,-0.947 0.183,-1.478 0.178,-0.314 1.478,-0.247 2.124,0.006 1.764,0.692 3.391,2.023 5.185,2.263 1.924,0.257 2.646,1.788 3.988,2.592 0.057,0.108 0.104,0.216 0.13,0.338 0,0.026 0.015,0.153 0.015,0.173 C 0.006,-0.122 0.004,-0.061 0,0"
             style="fill:#171717;fill-opacity:1;fill-rule:nonzero;stroke:none"
             id="path132" />
        </g>
        <g
           id="g134"
           transform="translate(220.5031,169.8614)">
          <path
             d="M 0,0 C -0.362,0.289 -0.93,0.526 -0.957,0.815 -1.003,1.298 -0.852,2.102 -0.525,2.27 1.914,3.525 4.437,4.616 6.889,5.848 7.98,6.395 8.288,5.733 8.785,5.02 9.492,4.007 8.616,3.998 8.09,3.753 5.434,2.517 2.776,1.287 0,0"
             style="fill:#171717;fill-opacity:1;fill-rule:nonzero;stroke:none"
             id="path136" />
        </g>
        <g
           id="g138"
           transform="translate(235.0911,176.183)">
          <path
             d="m 0,0 c -0.382,0.332 -1.035,0.633 -1.106,1.035 -0.071,0.411 0.311,1.129 0.7,1.353 C 1.201,3.31 2.895,4.08 4.539,4.939 5.618,5.503 6.62,5.347 7.043,4.261 7.169,3.938 6.249,2.971 5.627,2.638 3.879,1.7 2.036,0.938 0,0"
             style="fill:#171717;fill-opacity:1;fill-rule:nonzero;stroke:none"
             id="path140" />
        </g>
        <g
           id="g142"
           transform="translate(213.47,202.2285)">
          <path
             d="m 0,0 c -0.355,4.336 -2.05,8.297 -4.244,11.998 -0.861,1.454 -2.098,2.732 -3.345,3.898 -1.569,1.466 -3.292,2.773 -5.003,4.078 -2.483,1.895 -5.536,3.031 -7.382,5.789 -0.491,0.734 -1.367,1.404 -2.206,1.682 -4.262,1.408 -8.504,2.999 -12.881,3.907 -4.7,0.975 -9.355,1.947 -14.406,1.043 -6.204,-1.11 -12.148,-2.952 -18.139,-4.708 -3.291,-0.965 -6.1,-2.974 -9.064,-4.688 -5.356,-3.099 -10.255,-6.624 -13.866,-11.677 -0.97,-1.356 -2.816,-3.166 -4.056,-5.259 0.26,0.186 -2.038,-2.489 -2.528,-3.301 -0.286,-0.475 -0.38,-0.626 -0.625,-1.123 -0.074,-0.15 -0.28,-0.382 -0.358,-0.528 0.156,-0.132 -1.034,-3.516 -1.6,-4.824 -0.252,-0.583 -0.279,-0.599 -0.557,-1.17 -0.258,-0.529 -0.123,-0.215 -0.389,-0.865 -0.168,-0.411 -0.12,-0.309 -0.207,-0.58 -0.278,-0.022 -0.233,-0.712 -0.124,-0.499 0.147,0.289 -0.385,-0.46 0,0 -1.009,-0.981 -1.489,-3.065 -1.87,-4.645 -0.868,-3.604 -1.617,-7.262 -2.038,-10.942 -0.294,-2.571 -0.724,-5.243 0.876,-7.743 1.634,-2.554 3.126,-5.226 4.408,-7.973 1.829,-3.917 3.925,-7.609 7.02,-10.679 0.226,-0.225 0.166,-0.725 0.278,-1.086 0.057,-0.183 0.158,-0.403 0.308,-0.498 0.554,-0.35 1.332,-0.516 1.674,-1 1.771,-2.503 4.276,-4.076 6.803,-5.638 3.785,-2.34 7.998,-3.549 12.332,-4.105 5.041,-0.646 10.13,-0.99 15.209,-1.237 1.654,-0.08 3.334,0.748 5.018,0.832 4.907,0.245 9.195,2.307 13.369,4.543 3.175,1.701 6.135,3.822 9.121,5.857 2.448,1.668 4.958,3.306 7.141,5.287 2.266,2.056 4.313,4.397 6.203,6.811 3.395,4.338 6.788,8.701 9.825,13.289 2.363,3.567 4.347,7.437 4.652,11.872 0.167,2.431 0.253,4.867 0.375,7.3 C -0.167,-4.387 0.178,-2.172 0,0"
             style="fill:#c5a228;fill-opacity:1;fill-rule:nonzero;stroke:none"
             id="path144" />
        </g>
        <g
           id="g146"
           transform="translate(252.5945,189.5888)">
          <path
             d="m 0,0 c -6.221,-0.524 -9.665,2.193 -11.285,6.25 -0.249,0.624 0.164,1.519 0.29,2.286 0.283,1.737 0.34,3.556 0.917,5.191 1.178,3.336 3.688,5.815 6.808,7.105 1.521,0.629 3.796,-0.213 5.626,-0.745 C 10.383,17.753 10.915,9.11 6.49,3.862 4.418,1.404 1.613,0.313 0,0"
             style="fill:#c5a228;fill-opacity:1;fill-rule:nonzero;stroke:none"
             id="path148" />
        </g>
      </g>
    </g>
    <g
       id="g150">
      <g
         id="g152"
         clip-path="url(#clipPath156)">
        <g
           id="g158"
           transform="translate(336.1705,140.6182)">
          <path
             d="m 0,0 c -1.352,1.712 -2.763,3.377 -4.169,5.044 -0.112,0.133 -1.634,2.033 -1.812,2.093 1.197,0.986 2.936,1.089 4.628,1.179 0.185,2.568 0.194,5.062 0.591,7.493 0.351,2.145 0.956,4.291 1.771,6.306 1.1,2.719 2.351,5.404 3.825,7.936 1.706,2.931 4.044,5.372 6.951,7.199 0.265,0.166 0.618,0.189 0.993,0.297 -0.359,1.109 -0.693,2.141 -1.05,3.242 1.957,1.04 4.03,1.132 6.119,0.234 0.751,-0.323 1.471,-0.776 2.095,-1.301 0.185,-0.154 0.145,-0.859 -0.047,-1.133 C 18.91,37.183 17.789,35.872 16.817,34.458 15.855,33.057 14.348,32.93 13.672,34.424 13.048,35.802 12.236,35.62 11.469,34.877 9.842,33.301 8.165,31.723 6.831,29.909 3.638,25.566 1.969,20.598 1.404,15.246 1.231,13.61 0.989,11.982 0.783,10.349 0.534,8.382 0.625,8.397 2.418,7.864 3.889,7.427 5.318,6.789 6.684,6.083"
             style="fill:#000000;fill-opacity:1;fill-rule:nonzero;stroke:none"
             id="path160" />
        </g>
      </g>
    </g>
  </g>
</svg>
